<?xml version="1.0" encoding="UTF-8"?>
<svg width="57px" height="57px" viewBox="0 0 57 57" version="1.1" xmlns="http://www.w3.org/2000/svg" xmlns:xlink="http://www.w3.org/1999/xlink">
    <!-- Generator: Sketch 54.1 (76490) - https://sketchapp.com -->
    <title>Group 21</title>
    <desc>Created with Sketch.</desc>
    <g id="Page-1" stroke="none" stroke-width="1" fill="none" fill-rule="evenodd">
        <g id="mailmag_pc" transform="translate(-763.000000, -1629.000000)">
            <g id="Group-13" transform="translate(-167.000000, 1600.000000)">
                <g id="Group-5">
                    <g id="Group-9" transform="translate(267.000000, 0.000000)">
                        <g id="Group-21" transform="translate(663.000000, 29.000000)">
                            <circle id="Oval" fill="#003E1B" cx="28.5" cy="28.5" r="28.5"></circle>
                            <g id="sns_instagram" transform="translate(17.525773, 17.136364)" fill="#FFFFFF" fill-rule="nonzero">
                                <path d="M11.2371134,2.04829545 C14.2374227,2.04829545 14.5932646,2.05965909 15.7787801,2.11458333 C18.8240378,2.25473485 20.2464691,3.71590909 20.3850601,6.77272727 C20.4393729,7.97064394 20.4496735,8.33049242 20.4496735,11.3645833 C20.4496735,14.3996212 20.4384364,14.7585227 20.3850601,15.9564394 C20.2455326,19.0104167 18.8268471,20.4744318 15.7787801,20.6145833 C14.5932646,20.6695076 14.2392955,20.6808712 11.2371134,20.6808712 C8.23680412,20.6808712 7.8809622,20.6695076 6.69638316,20.6145833 C3.64363402,20.4734848 2.22869416,19.0056818 2.09010309,15.9554924 C2.03579038,14.7575758 2.02455326,14.3986742 2.02455326,11.3636364 C2.02455326,8.32954545 2.0367268,7.97064394 2.09010309,6.7717803 C2.22963058,3.71590909 3.64831615,2.25378788 6.69638316,2.11363636 C7.88189863,2.05965909 8.23680412,2.04829545 11.2371134,2.04829545 L11.2371134,2.04829545 Z M11.2371134,-2.57580152e-17 C8.18530069,-2.57580152e-17 7.80323883,0.0132575758 6.6046134,0.0681818182 C2.52366838,0.257575758 0.25564433,2.54734848 0.0683591065,6.6780303 C0.0131099656,7.89109848 -4.85722573e-16,8.27746212 -4.85722573e-16,11.3636364 C-4.85722573e-16,14.4498106 0.0131099656,14.8371212 0.0674226804,16.0492424 C0.254707904,20.1761364 2.51898625,22.469697 6.60367698,22.6590909 C7.80323883,22.7140152 8.18530069,22.7272727 11.2371134,22.7272727 C14.2889261,22.7272727 14.6719244,22.7140152 15.8705498,22.6590909 C19.9477491,22.469697 22.2213918,20.1799242 22.4058677,16.0492424 C22.4611168,14.8371212 22.4742268,14.4498106 22.4742268,11.3636364 C22.4742268,8.27746212 22.4611168,7.89109848 22.4068041,6.67897727 C22.2232646,2.55587121 19.956177,0.258522727 15.8714863,0.0691287879 C14.6719244,0.0132575758 14.2889261,-4.85722573e-16 11.2371134,-2.57580152e-17 Z M11.2371134,5.52840909 C8.05045533,5.52840909 5.46685567,8.14109848 5.46685567,11.3636364 C5.46685567,14.5861742 8.05045533,17.1998106 11.2371134,17.1998106 C14.4237715,17.1998106 17.0073711,14.5871212 17.0073711,11.3636364 C17.0073711,8.14109848 14.4237715,5.52840909 11.2371134,5.52840909 Z M11.2371134,15.1515152 C9.16854811,15.1515152 7.49140893,13.4564394 7.49140893,11.3636364 C7.49140893,9.2717803 9.16854811,7.57575758 11.2371134,7.57575758 C13.3056787,7.57575758 14.9828179,9.2717803 14.9828179,11.3636364 C14.9828179,13.4564394 13.3056787,15.1515152 11.2371134,15.1515152 Z M17.2358591,3.93465909 C16.4904639,3.93465909 15.8864691,4.54545455 15.8864691,5.29829545 C15.8864691,6.05113636 16.4904639,6.66193182 17.2358591,6.66193182 C17.9803179,6.66193182 18.5833763,6.05113636 18.5833763,5.29829545 C18.5833763,4.54545455 17.9803179,3.93465909 17.2358591,3.93465909 Z" id="Shape"></path>
                            </g>
                        </g>
                    </g>
                </g>
            </g>
        </g>
    </g>
</svg>