<?xml version="1.0" encoding="UTF-8"?>
<svg width="57px" height="57px" viewBox="0 0 57 57" version="1.1" xmlns="http://www.w3.org/2000/svg" xmlns:xlink="http://www.w3.org/1999/xlink">
    <!-- Generator: Sketch 54.1 (76490) - https://sketchapp.com -->
    <title>Group 21</title>
    <desc>Created with Sketch.</desc>
    <g id="Page-1" stroke="none" stroke-width="1" fill="none" fill-rule="evenodd">
        <g id="mailmag_pc" transform="translate(-629.000000, -1629.000000)">
            <g id="Group-13" transform="translate(-167.000000, 1600.000000)">
                <g id="Group-5">
                    <g id="Group-9" transform="translate(267.000000, 0.000000)">
                        <g id="Group-21" transform="translate(529.000000, 29.000000)">
                            <circle id="Oval" fill="#003E1B" cx="28.5" cy="28.5" r="28.5"></circle>
                            <path d="M38.1872495,24.119602 C38.1872495,23.9209031 38.1872495,23.7230992 38.1737649,23.5261904 C39.0761783,22.8763114 39.8551567,22.0716422 40.4742268,21.1498588 C39.632683,21.521123 38.739962,21.764598 37.8258639,21.8721562 C38.7884296,21.2984194 39.5088451,20.3960309 39.8530392,19.3329272 C38.9479189,19.8676737 37.9576942,20.2445364 36.9250969,20.4472522 C35.4958105,18.9340922 33.2246879,18.563741 31.3852443,19.5438702 C29.5458007,20.5239995 28.5954967,22.6108558 29.0672082,24.6342501 C25.3597661,24.4492001 21.9055494,22.7057279 19.5642062,19.8377299 C18.3403701,21.935386 18.9654819,24.6189087 20.9917691,25.9660699 C20.2579777,25.9444167 19.5401852,25.7473339 18.8989691,25.3914541 C18.8989691,25.4102499 18.8989691,25.4299408 18.8989691,25.4496317 C18.8995697,27.6349555 20.4467704,29.5171732 22.5982268,29.9498937 C21.9193879,30.1342183 21.2071446,30.1611628 20.5162144,30.0286572 C21.1202748,31.8987745 22.8513536,33.1799002 24.8240742,33.2167903 C23.1913082,34.4943992 21.1743133,35.187962 19.0976412,35.1858786 C18.7307752,35.1851774 18.3642659,35.1630618 18,35.1196456 C20.1086542,36.4669286 22.5621902,37.1815648 25.0676948,37.178238 C33.5485691,37.1818182 38.1872495,30.1861843 38.1872495,24.119602 Z" id="Shape" fill="#FFFFFF" fill-rule="nonzero"></path>
                        </g>
                    </g>
                </g>
            </g>
        </g>
    </g>
</svg>