<?xml version="1.0" encoding="UTF-8"?>
<svg width="252px" height="34px" viewBox="0 0 252 34" version="1.1" xmlns="http://www.w3.org/2000/svg" xmlns:xlink="http://www.w3.org/1999/xlink">
    <!-- Generator: Sketch 54.1 (76490) - https://sketchapp.com -->
    <title>Group 45</title>
    <desc>Created with Sketch.</desc>
    <defs>
        <polygon id="path-1" points="0.913304028 0.1511 10.245 0.1511 10.245 14 0.913304028 14"></polygon>
    </defs>
    <g id="Page-1" stroke="none" stroke-width="1" fill="none" fill-rule="evenodd">
        <g id="mailmag_pc" transform="translate(-135.000000, -1643.000000)">
            <g id="Group-13" transform="translate(-167.000000, 1600.000000)">
                <g id="Group-5">
                    <g id="Group-45" transform="translate(302.000000, 43.000000)">
                        <polygon id="Fill-1" fill="#003E1B" points="21.8988 -0.0004 18.0638 2.1576 14.2288 -0.0004 13.6788 0.9766 16.9208 2.8006 -0.0002 12.3236 0.5498 13.2996 18.0638 3.4436 35.5778 13.2996 36.1268 12.3236 19.2058 2.8006 22.4478 0.9766"></polygon>
                        <polygon id="Fill-2" fill="#003E1B" points="4.046 33.2294 31.197 33.2294 31.197 32.1094 4.046 32.1094"></polygon>
                        <g id="Group-44" transform="translate(55.000000, 1.481400)">
                            <path d="M7.3728,18.2499 C7.3728,19.1349 7.4058,19.7259 7.9308,19.7259 C8.5538,19.7259 9.3088,18.9719 10.3918,17.7909 L13.7388,14.1809 C14.1648,13.7529 15.1168,12.6709 15.5108,12.1459 C16.1018,11.3909 16.1338,11.1289 15.7408,11.0299 L14.7228,10.7339 C14.4608,10.5059 14.5268,10.0459 14.7888,9.7829 C16.1668,9.8489 17.2498,9.8819 18.4648,9.8819 C19.8748,9.8819 20.8928,9.8159 22.0748,9.7829 C22.4358,9.8819 22.5008,10.5709 22.1718,10.7339 C19.1208,11.1619 18.2348,11.9489 15.9708,14.1479 C14.5598,15.5589 13.2468,16.9039 11.9668,18.1849 C11.5728,18.5779 11.5068,18.7749 11.8688,19.2669 C14.4608,22.6809 17.5788,26.5849 19.9408,29.3409 C20.6308,30.1619 21.3848,30.4579 22.3698,30.5879 L23.1568,30.6869 C23.3868,30.8519 23.3538,31.5409 23.0918,31.6399 C21.9428,31.5739 20.6308,31.5409 18.8918,31.5409 C17.2828,31.5409 15.8068,31.5739 14.3618,31.6399 C14.0018,31.5079 14.0018,30.8519 14.2968,30.6869 L15.1828,30.5559 C15.7078,30.4899 15.7738,30.1289 15.4128,29.6699 C14.0348,27.9639 10.1288,22.6479 8.9148,21.4009 C8.6848,21.1699 8.4218,20.9079 8.1268,20.9079 C7.3068,20.9079 7.3728,21.6949 7.3728,22.6479 L7.3728,26.8149 C7.3728,30.2939 7.6678,30.3929 9.2098,30.5879 L10.0308,30.6869 C10.2598,30.8519 10.2268,31.5079 9.9648,31.6399 C8.4218,31.5739 6.9458,31.5409 5.5018,31.5409 C4.0578,31.5409 2.5158,31.5739 1.3338,31.6399 C1.0718,31.5079 1.0388,30.8519 1.2688,30.6869 L1.7278,30.6219 C3.2708,30.3929 3.5648,30.2939 3.5648,26.8149 L3.5648,14.6069 C3.5648,11.1289 3.2708,11.0629 1.7278,10.8329 L1.1048,10.7339 C0.8748,10.5059 0.9078,9.9149 1.1698,9.7829 C2.5158,9.8489 3.9928,9.8819 5.5018,9.8819 C6.9458,9.8819 8.4218,9.8489 9.7028,9.7829 C9.9648,9.9149 9.9978,10.5709 9.7688,10.7339 L9.2098,10.8329 C7.6678,11.0959 7.3728,11.1289 7.3728,14.6069 L7.3728,18.2499 Z" id="Fill-3" fill="#003E1B"></path>
                            <path d="M30.445,30.6869 C32.71,30.6869 33.366,27.9969 33.366,25.4699 C33.366,22.7119 32.415,19.4639 29.986,19.4639 C28.312,19.4639 27,21.1699 27,24.8129 C27,27.7999 28.083,30.6869 30.445,30.6869 M37.238,24.9119 C37.238,29.5719 33.957,31.9999 30.051,31.9999 C26.278,31.9999 23.128,29.6039 23.128,25.3049 C23.128,20.9079 26.474,18.1509 30.314,18.1509 C34.022,18.1509 37.238,20.6449 37.238,24.9119" id="Fill-5" fill="#003E1B"></path>
                            <path d="M40.489,22.8109 C40.489,21.3349 40.489,20.9399 39.669,20.4479 L39.275,20.2199 C39.177,20.0879 39.177,19.6289 39.307,19.4639 C40.752,19.0709 42.524,18.2829 43.574,17.6919 C43.804,17.6919 43.935,17.8239 44,17.9539 C43.935,18.5779 43.935,19.2009 43.935,19.4639 C43.935,19.6929 44.033,19.7589 44.23,19.7919 C45.838,18.9389 46.692,18.1509 48.923,18.1509 C50.334,18.1509 51.417,18.9069 51.876,19.5299 C52.073,19.8249 52.27,20.0219 52.401,20.0219 C52.532,20.0219 52.73,19.9229 53.123,19.6929 C54.666,18.7419 55.782,18.1509 57.324,18.1509 C60.08,18.1509 61.327,19.9889 61.327,22.5489 L61.327,27.6349 C61.327,30.0629 61.459,30.4249 62.575,30.5879 L63.296,30.6869 C63.593,30.9169 63.428,31.5079 63.296,31.6399 C61.885,31.5739 60.77,31.5409 59.555,31.5409 C58.472,31.5409 57.357,31.5739 56.176,31.6399 C55.913,31.5079 55.88,30.9169 56.11,30.6869 L56.635,30.5879 C57.751,30.3929 57.882,30.0629 57.882,27.6349 L57.882,23.1729 C57.882,21.4339 57.291,20.1209 55.224,20.1209 C54.272,20.1209 53.419,20.6129 53.025,21.1049 C52.697,21.4979 52.631,21.8929 52.631,22.8109 L52.631,27.6349 C52.631,30.0629 52.763,30.4579 53.879,30.6219 L54.37,30.6869 C54.601,30.9169 54.568,31.5079 54.304,31.6399 C53.156,31.5739 52.073,31.5409 50.859,31.5409 C49.777,31.5409 48.66,31.5739 47.577,31.6399 C47.315,31.5079 47.282,30.9169 47.512,30.6869 L47.939,30.6219 C49.054,30.4579 49.186,30.0629 49.186,27.6349 L49.186,23.1729 C49.186,21.4339 48.595,20.1209 46.692,20.1209 C45.576,20.1209 44.722,20.6449 44.362,21.1379 C43.968,21.6629 43.935,21.9579 43.935,23.2389 L43.935,27.6349 C43.935,30.0629 44.066,30.4579 45.181,30.6219 L45.674,30.6869 C45.904,30.9169 45.871,31.5079 45.609,31.6399 C44.46,31.5739 43.344,31.5409 42.13,31.5409 C41.047,31.5409 39.964,31.5739 38.717,31.6399 C38.454,31.5079 38.422,30.9169 38.651,30.6869 L39.242,30.5879 C40.358,30.3929 40.489,30.0629 40.489,27.6349 L40.489,22.8109 Z" id="Fill-7" fill="#003E1B"></path>
                            <path d="M71.799,30.6869 C74.064,30.6869 74.72,27.9969 74.72,25.4699 C74.72,22.7119 73.768,19.4639 71.34,19.4639 C69.666,19.4639 68.353,21.1699 68.353,24.8129 C68.353,27.7999 69.436,30.6869 71.799,30.6869 M78.592,24.9119 C78.592,29.5719 75.311,31.9999 71.405,31.9999 C67.631,31.9999 64.481,29.6039 64.481,25.3049 C64.481,20.9079 67.829,18.1509 71.668,18.1509 C75.377,18.1509 78.592,20.6449 78.592,24.9119" id="Fill-9" fill="#003E1B"></path>
                            <path d="M85.6174,27.6351 C85.6174,30.0631 85.7484,30.4581 86.8644,30.6211 L87.3564,30.6871 C87.5864,30.9171 87.5534,31.5081 87.2904,31.6391 C86.1424,31.5731 85.0264,31.5411 83.8124,31.5411 C82.7624,31.5411 81.6454,31.5731 80.2674,31.6391 C80.0054,31.5081 79.9724,30.9171 80.2024,30.6871 L80.9244,30.5881 C82.0404,30.4251 82.1714,30.0631 82.1714,27.6351 L82.1714,22.8111 C82.1714,21.3351 82.1714,20.9401 81.3514,20.4481 L80.9574,20.2191 C80.8594,20.0881 80.8594,19.6291 80.9904,19.4641 C82.4014,19.0711 84.2054,18.2831 85.2554,17.6921 C85.4864,17.6921 85.6174,17.8231 85.6824,17.9541 C85.6174,18.5771 85.6174,19.2011 85.6174,19.4641 C85.6174,19.6931 85.7154,19.7591 85.9114,19.7921 C87.4554,18.9391 88.3734,18.1511 90.4084,18.1511 C93.0664,18.1511 94.3134,19.9891 94.3134,22.5491 L94.3134,27.6351 C94.3134,30.0631 94.4444,30.4581 95.5604,30.5881 L96.3154,30.6871 C96.5454,30.9171 96.5124,31.5081 96.2494,31.6391 C94.8704,31.5731 93.7554,31.5411 92.5414,31.5411 C91.4584,31.5411 90.3434,31.5731 89.1944,31.6391 C88.9314,31.5081 88.8984,30.9171 89.1284,30.6871 L89.6204,30.6211 C90.7364,30.4581 90.8674,30.0631 90.8674,27.6351 L90.8674,23.1071 C90.8674,21.4331 90.2114,20.1211 88.2424,20.1211 C87.2244,20.1211 86.4054,20.6451 86.0764,21.1371 C85.6504,21.7281 85.6174,22.0241 85.6174,23.2391 L85.6174,27.6351 Z" id="Fill-11" fill="#003E1B"></path>
                            <g id="Group-15" transform="translate(97.000000, 18.000000)">
                                <mask id="mask-2" fill="white">
                                    <use xlink:href="#path-1"></use>
                                </mask>
                                <g id="Clip-14"></g>
                                <path d="M1.385,12.9501 C1.057,12.3261 0.86,10.6531 0.926,9.2421 C1.122,8.9781 1.615,8.9461 1.844,9.1761 C2.435,11.0131 3.649,12.7531 5.389,12.7531 C6.406,12.7531 7.226,12.0631 7.226,10.9151 C7.226,9.7011 6.143,8.9131 4.995,8.3551 C3.288,7.5351 1.516,6.3211 1.516,4.2201 C1.484,1.6611 3.682,0.1511 6.406,0.1511 C7.751,0.1511 8.999,0.5451 9.458,0.8081 C9.786,1.4971 9.95,2.5141 9.95,3.9921 C9.852,4.2531 9.294,4.3521 9.064,4.1551 C8.572,2.6451 7.522,1.3981 6.242,1.3981 C5.192,1.3981 4.404,2.1541 4.404,3.1051 C4.404,4.0571 5.356,4.7451 6.602,5.3361 C8.375,6.1901 10.245,7.3051 10.245,9.8981 C10.245,12.7531 7.718,14.0001 5.126,14.0001 C3.781,14.0001 2.435,13.7371 1.385,12.9501" id="Fill-13" fill="#003E1B" mask="url(#mask-2)"></path>
                            </g>
                            <path d="M126.3791,3.5306 C126.2951,3.6266 126.0791,3.6376 125.9961,3.5546 C125.7931,2.8016 125.2541,1.8066 123.6741,1.8066 C122.1551,1.8066 120.6231,2.8846 120.6231,5.3386 C120.6231,7.8866 122.2151,9.1316 123.7581,9.1316 C125.2651,9.1316 125.9241,8.1256 126.2591,7.3476 C126.3671,7.2396 126.5581,7.2876 126.6181,7.3966 C126.5341,8.1976 126.2111,8.9886 126.0441,9.2156 C125.9001,9.2386 125.7561,9.2866 125.6241,9.3226 C125.3611,9.4056 124.5361,9.6106 123.7581,9.6106 C122.5741,9.6106 121.5561,9.3696 120.6941,8.8076 C119.7251,8.1746 118.9951,7.0846 118.9951,5.5166 C118.9951,4.1166 119.6171,3.0286 120.5031,2.3456 C121.3881,1.6756 122.5971,1.3296 123.8061,1.3296 C124.4881,1.3296 125.3141,1.4476 125.8761,1.5926 C126.0201,1.6286 126.1041,1.6396 126.2111,1.6636 C126.2351,1.9386 126.2591,2.6446 126.3791,3.5306" id="Fill-16" fill="#003E1B"></path>
                            <path d="M127.8601,6.2347 C127.8601,5.6967 127.8601,5.5527 127.5601,5.3737 L127.4171,5.2897 C127.3811,5.2427 127.3811,5.0737 127.4281,5.0147 C127.9431,4.8457 128.5781,4.5827 128.9371,4.3687 C129.0081,4.3687 129.0801,4.4037 129.1041,4.4757 C129.0921,4.7027 129.0801,4.9057 129.0801,5.0147 C129.0801,5.0977 129.1281,5.1577 129.2001,5.1577 C129.5701,4.8947 129.9651,4.5357 130.3731,4.5357 C130.7921,4.5357 131.0301,4.8107 131.0301,5.1227 C131.0301,5.5887 130.6831,5.8157 130.3601,5.8157 C130.2411,5.8157 130.1331,5.7797 130.0371,5.7197 C129.7371,5.5167 129.5351,5.4927 129.4631,5.4927 C129.1881,5.4927 129.1151,5.7687 129.1151,6.3547 L129.1151,7.9937 C129.1151,8.8797 129.1641,9.0107 129.5831,9.0597 L130.0491,9.1067 C130.1331,9.1917 130.1211,9.4057 130.0251,9.4547 C129.3071,9.4297 128.9001,9.4187 128.4581,9.4187 C128.0631,9.4187 127.6681,9.4297 127.2141,9.4547 C127.1171,9.4057 127.1061,9.1917 127.1891,9.1067 L127.4051,9.0707 C127.8111,8.9997 127.8601,8.8797 127.8601,7.9937 L127.8601,6.2347 Z" id="Fill-18" fill="#003E1B"></path>
                            <path d="M133.9011,7.4921 C133.9011,7.3611 133.8651,7.2871 133.8051,7.2871 C133.7091,7.2871 133.4941,7.3471 133.2791,7.4321 C132.9431,7.5511 132.6321,7.7201 132.6321,8.2331 C132.6321,8.5451 132.8481,8.9281 133.3021,8.9281 C133.7341,8.9281 133.8651,8.6401 133.8771,8.3531 L133.9011,7.4921 Z M135.0741,7.8981 C135.0381,8.5921 135.2171,8.9511 135.6481,8.9511 C135.8521,8.9511 136.0191,8.8191 136.0551,8.8191 C136.1151,8.8191 136.1981,8.9511 136.1621,9.0591 C135.9231,9.3941 135.3371,9.5861 134.9661,9.5861 C134.6671,9.5861 134.3321,9.5011 134.1041,9.2511 C134.0211,9.1671 133.9721,9.1071 133.9121,9.1071 C133.8531,9.1071 133.7691,9.1671 133.5901,9.2741 C133.3621,9.4181 133.0041,9.5861 132.5721,9.5861 C131.7581,9.5861 131.3521,9.0241 131.3521,8.4251 C131.3521,7.9941 131.5201,7.5991 132.3451,7.3121 C132.7641,7.1691 133.2191,7.0011 133.6611,6.8331 C133.9011,6.7501 133.9371,6.6421 133.9371,6.5221 L133.9491,6.2111 C133.9721,5.6011 133.8051,5.0741 133.2191,5.0741 C132.8841,5.0741 132.6321,5.2541 132.5851,5.6011 C132.5611,5.8281 132.4891,5.9481 132.3571,6.0321 C132.1901,6.1391 131.8541,6.2461 131.5911,6.2461 C131.4351,6.2461 131.3641,6.1631 131.3641,6.0561 C131.3641,5.9111 131.4351,5.6601 131.8311,5.2891 C132.2021,4.9421 133.0631,4.5361 133.6731,4.5361 C134.6191,4.5361 135.2051,4.9791 135.1571,6.0321 L135.0741,7.8981 Z" id="Fill-20" fill="#003E1B"></path>
                            <path d="M138.5534,5.265 C138.3024,5.265 138.3024,5.289 138.3024,5.637 L138.3024,7.994 C138.3024,8.879 138.3504,9.011 138.7694,9.059 L139.2354,9.107 C139.3204,9.191 139.3074,9.406 139.2124,9.454 C138.6734,9.43 138.2074,9.418 137.6444,9.418 C137.2494,9.418 136.8434,9.43 136.3524,9.454 C136.2564,9.406 136.2444,9.191 136.3284,9.107 L136.5914,9.071 C136.9984,9.011 137.0464,8.879 137.0464,7.994 L137.0464,5.624 C137.0464,5.301 137.0344,5.265 136.8304,5.265 L136.3994,5.265 C136.3034,5.218 136.2804,5.062 136.3644,4.991 L136.8784,4.727 C136.9624,4.679 137.0464,4.607 137.0464,4.464 L137.0464,4.248 C137.0464,3.733 137.0944,3.147 137.2974,2.538 C137.6084,1.593 138.4104,0.862 139.5354,0.862 C140.3614,0.862 140.8994,1.233 140.8994,1.736 C140.8994,2.07 140.6004,2.31 140.3124,2.31 C140.1344,2.31 140.0374,2.238 139.9664,2.141 C139.5834,1.593 139.3204,1.352 139.0324,1.352 C138.6254,1.352 138.3024,2.166 138.3024,3.961 L138.3024,4.32 C138.3024,4.679 138.3144,4.703 138.5664,4.703 L139.8224,4.703 C139.8704,4.739 139.8944,4.81 139.8944,4.895 C139.8944,5.098 139.8224,5.205 139.7264,5.265 L138.5534,5.265 Z" id="Fill-22" fill="#003E1B"></path>
                            <path d="M142.2029,5.2294 C141.9879,5.2294 141.9749,5.2534 141.9749,5.6374 L141.9749,7.4794 C141.9749,8.2324 142.0829,8.9034 142.8489,8.9034 C143.0879,8.9034 143.2319,8.8194 143.4239,8.6874 C143.5309,8.7004 143.6019,8.7964 143.5779,8.9284 C143.3389,9.2624 142.7879,9.5854 142.0589,9.5854 C140.9219,9.5854 140.7189,8.9284 140.7189,8.0894 L140.7189,5.6604 C140.7189,5.2424 140.6949,5.2294 140.5029,5.2294 L140.0849,5.2294 C139.9649,5.1694 139.9409,4.9794 140.0479,4.9064 C140.4559,4.7514 140.7299,4.5964 140.9939,4.4044 C141.2209,4.2364 141.4839,3.9854 141.6519,3.6624 C141.7599,3.5904 141.9279,3.6264 141.9879,3.7224 L141.9879,4.4394 C141.9879,4.6314 141.9879,4.6674 142.2149,4.6674 L143.3989,4.6674 C143.4709,4.7034 143.4949,4.7994 143.4949,4.9194 C143.4839,5.0624 143.4349,5.1694 143.3389,5.2294 L142.2029,5.2294 Z" id="Fill-24" fill="#003E1B"></path>
                            <path d="M146.3894,6.1034 C146.7364,6.1034 146.8914,6.0674 146.9754,6.0194 C147.0474,5.9714 147.0954,5.8754 147.0954,5.7684 C147.0954,5.3384 146.8204,4.9904 146.3054,4.9904 C145.5034,4.9904 145.1324,5.7684 145.1324,6.0194 C145.1324,6.0674 145.1574,6.1034 145.2994,6.1034 L146.3894,6.1034 Z M145.2884,6.5824 C145.0604,6.5824 145.0364,6.5944 145.0364,6.7364 C145.0364,7.8154 145.7794,8.6764 146.8444,8.6764 C147.3234,8.6764 147.7174,8.5204 147.9934,8.0784 C148.1134,8.0424 148.2444,8.1614 148.2564,8.2684 C147.8484,9.2274 146.9634,9.5854 146.2334,9.5854 C144.8454,9.5854 143.9244,8.5564 143.9244,7.1914 C143.9244,5.8404 144.8454,4.5364 146.4494,4.5364 C147.3354,4.5364 148.2444,5.1104 148.2444,6.1514 C148.2444,6.2594 148.2314,6.3314 148.1844,6.4264 C148.1134,6.5344 147.8374,6.5824 147.3584,6.5824 L145.2884,6.5824 Z" id="Fill-26" fill="#003E1B"></path>
                            <path d="M152.4543,5.996 C152.4543,5.756 152.4183,5.588 152.2993,5.421 C152.1313,5.194 151.8683,5.015 151.4963,5.015 C150.6833,5.015 150.1683,5.816 150.1683,6.821 C150.1683,8.054 150.8143,8.868 151.6643,8.868 C151.9513,8.868 152.2743,8.712 152.3713,8.605 C152.4313,8.545 152.4543,8.437 152.4543,8.268 L152.4543,5.996 Z M153.7103,7.468 C153.7103,8.556 153.7953,8.928 153.9983,8.928 C154.1293,8.928 154.3213,8.892 154.5003,8.819 C154.5963,8.892 154.6203,9.178 154.4893,9.251 C153.8783,9.31 153.0283,9.515 152.5983,9.706 C152.5373,9.693 152.4773,9.646 152.4543,9.575 L152.4773,9.394 C152.5023,9.215 152.4903,9.12 152.4663,9.059 L152.4063,9.047 C152.0473,9.31 151.6043,9.586 151.0303,9.586 C149.6663,9.586 148.8163,8.485 148.8163,7.288 C148.8163,5.566 150.1923,4.536 151.6883,4.536 C151.9993,4.536 152.2263,4.572 152.3823,4.62 C152.4313,4.607 152.4543,4.56 152.4543,4.429 L152.4543,2.861 C152.4543,2.059 152.4313,1.987 152.1793,1.82 L152.0123,1.711 C151.9403,1.664 151.9273,1.473 152.0123,1.436 C152.4773,1.305 153.1003,1.053 153.5793,0.862 C153.6503,0.85 153.7233,0.897 153.7463,0.957 C153.7233,1.436 153.7103,2.179 153.7103,2.692 L153.7103,7.468 Z" id="Fill-28" fill="#003E1B"></path>
                            <path d="M158.4577,2.7167 C158.4577,2.3107 158.7567,1.9987 159.1877,1.9987 C159.6187,1.9987 159.9177,2.3107 159.9177,2.7167 C159.9177,3.1247 159.6187,3.4347 159.1877,3.4347 C158.7567,3.4347 158.4577,3.1247 158.4577,2.7167 L158.4577,2.7167 Z M159.8217,7.9937 C159.8217,8.8797 159.8697,8.9997 160.2767,9.0707 L160.4927,9.1067 C160.5757,9.1917 160.5637,9.4057 160.4687,9.4547 C160.0247,9.4297 159.6187,9.4187 159.1757,9.4187 C158.7807,9.4187 158.3747,9.4297 157.9197,9.4547 C157.8237,9.4057 157.8117,9.1917 157.8957,9.1067 L158.1107,9.0707 C158.5177,8.9997 158.5657,8.8797 158.5657,7.9937 L158.5657,6.2347 C158.5657,5.6967 158.5657,5.5527 158.2667,5.3737 L158.1227,5.2897 C158.0867,5.2427 158.0867,5.0737 158.1347,5.0147 C158.7567,4.8347 159.3557,4.5717 159.6907,4.3687 C159.7617,4.3797 159.8217,4.4037 159.8577,4.4647 C159.8337,4.8597 159.8217,5.4327 159.8217,5.9247 L159.8217,7.9937 Z" id="Fill-30" fill="#003E1B"></path>
                            <path d="M163.028,7.994 C163.028,8.879 163.076,9.024 163.483,9.082 L163.662,9.107 C163.746,9.191 163.734,9.406 163.638,9.454 C163.219,9.43 162.813,9.418 162.37,9.418 C161.987,9.418 161.58,9.43 161.078,9.454 C160.982,9.406 160.97,9.191 161.053,9.107 L161.317,9.071 C161.723,9.011 161.771,8.879 161.771,7.994 L161.771,6.235 C161.771,5.697 161.771,5.553 161.472,5.374 L161.329,5.289 C161.293,5.243 161.293,5.074 161.341,5.015 C161.856,4.87 162.514,4.583 162.896,4.369 C162.98,4.369 163.028,4.416 163.051,4.464 C163.028,4.692 163.028,4.919 163.028,5.015 C163.028,5.098 163.064,5.122 163.136,5.134 C163.698,4.823 164.033,4.536 164.775,4.536 C165.744,4.536 166.199,5.205 166.199,6.139 L166.199,7.994 C166.199,8.879 166.247,9.024 166.654,9.071 L166.929,9.107 C167.013,9.191 167.001,9.406 166.905,9.454 C166.403,9.43 165.996,9.418 165.553,9.418 C165.158,9.418 164.751,9.43 164.333,9.454 C164.237,9.406 164.224,9.191 164.309,9.107 L164.488,9.082 C164.895,9.024 164.942,8.879 164.942,7.994 L164.942,6.342 C164.942,5.733 164.703,5.254 163.986,5.254 C163.614,5.254 163.315,5.446 163.196,5.624 C163.04,5.84 163.028,5.948 163.028,6.391 L163.028,7.994 Z" id="Fill-32" fill="#003E1B"></path>
                            <path d="M173.0285,7.7782 C173.0285,8.7232 172.9815,9.5502 172.7655,10.0882 C172.3825,11.0332 171.5085,11.8242 170.1455,11.8242 C169.8575,11.8242 169.5095,11.7512 169.5095,11.4282 C169.5095,11.2002 169.7145,10.7102 170.0605,10.7102 C170.2285,10.7102 170.4085,10.8192 170.5995,10.9372 C170.8995,11.1292 171.0065,11.1532 171.1135,11.1532 C171.4015,11.1532 171.5085,10.4602 171.5325,10.2082 C171.5565,10.0052 171.6405,9.1312 171.6405,7.8622 L171.6405,3.2672 C171.6405,1.9872 171.5325,1.9632 170.9595,1.8782 L170.6115,1.8312 C170.5275,1.7712 170.5395,1.5322 170.6355,1.4842 C171.2575,1.5082 171.7955,1.5192 172.3345,1.5192 C172.8735,1.5192 173.3765,1.5082 173.8185,1.4842 C173.9135,1.5322 173.9265,1.7712 173.8425,1.8312 L173.6745,1.8562 C173.1365,1.9272 173.0285,1.9872 173.0285,3.2672 L173.0285,7.7782 Z" id="Fill-34" fill="#003E1B"></path>
                            <path d="M176.8327,7.4921 C176.8327,7.3611 176.7967,7.2871 176.7367,7.2871 C176.6417,7.2871 176.4247,7.3471 176.2097,7.4321 C175.8747,7.5511 175.5637,7.7201 175.5637,8.2331 C175.5637,8.5451 175.7797,8.9281 176.2337,8.9281 C176.6647,8.9281 176.7967,8.6401 176.8087,8.3531 L176.8327,7.4921 Z M178.0057,7.8981 C177.9687,8.5921 178.1487,8.9511 178.5797,8.9511 C178.7827,8.9511 178.9507,8.8191 178.9867,8.8191 C179.0467,8.8191 179.1297,8.9511 179.0937,9.0591 C178.8547,9.3941 178.2687,9.5861 177.8977,9.5861 C177.5977,9.5861 177.2637,9.5011 177.0357,9.2511 C176.9527,9.1671 176.9047,9.1071 176.8447,9.1071 C176.7847,9.1071 176.7017,9.1671 176.5207,9.2741 C176.2937,9.4181 175.9347,9.5861 175.5037,9.5861 C174.6907,9.5861 174.2837,9.0241 174.2837,8.4251 C174.2837,7.9941 174.4517,7.5991 175.2767,7.3121 C175.6957,7.1691 176.1507,7.0011 176.5927,6.8331 C176.8327,6.7501 176.8687,6.6421 176.8687,6.5221 L176.8797,6.2111 C176.9047,5.6011 176.7367,5.0741 176.1507,5.0741 C175.8147,5.0741 175.5637,5.2541 175.5157,5.6011 C175.4917,5.8281 175.4207,5.9481 175.2887,6.0321 C175.1207,6.1391 174.7867,6.2461 174.5227,6.2461 C174.3677,6.2461 174.2957,6.1631 174.2957,6.0561 C174.2957,5.9111 174.3677,5.6601 174.7617,5.2891 C175.1327,4.9421 175.9947,4.5361 176.6057,4.5361 C177.5507,4.5361 178.1377,4.9791 178.0887,6.0321 L178.0057,7.8981 Z" id="Fill-36" fill="#003E1B"></path>
                            <path d="M181.0905,8.1014 C181.0905,8.4734 181.2215,8.6514 181.4735,8.8684 C181.6295,8.9994 181.9285,9.1064 182.1075,9.1064 C182.9335,9.1064 183.3885,8.2464 183.3885,7.1444 C183.3885,6.0074 182.8015,5.2294 181.8685,5.2294 C181.5935,5.2294 181.3655,5.3254 181.2215,5.4694 C181.1265,5.5774 181.0905,5.7804 181.0905,6.2834 L181.0905,8.1014 Z M179.8345,6.2344 C179.8345,5.6974 179.8465,5.5884 179.5345,5.3854 L179.3915,5.2894 C179.3425,5.2184 179.3425,5.0734 179.4035,5.0154 C179.8825,4.8834 180.5995,4.5474 180.9595,4.3084 C181.0545,4.3084 181.1265,4.3554 181.1505,4.4284 C181.1145,4.6434 181.0905,4.7874 181.0905,4.8944 C181.0905,4.9664 181.1265,5.0384 181.1865,5.0504 C181.3425,4.9794 182.0475,4.5364 182.6705,4.5364 C183.9745,4.5364 184.7285,5.5174 184.7285,6.7494 C184.7285,8.4134 183.5555,9.5854 181.7965,9.5854 C181.6525,9.5854 181.3785,9.5614 181.2705,9.5374 C181.1615,9.5614 181.0905,9.6334 181.0905,9.8734 L181.0905,11.0464 C181.0905,11.9314 181.1385,12.0624 181.5565,12.1104 L181.9875,12.1584 C182.0715,12.2414 182.0605,12.4574 181.9645,12.5044 C181.3425,12.4814 180.8745,12.4694 180.4325,12.4694 C180.0375,12.4694 179.5695,12.4814 179.0925,12.5044 C178.9965,12.4574 178.9845,12.2414 179.0685,12.1584 L179.3795,12.1224 C179.7865,12.0744 179.8345,11.9314 179.8345,11.0464 L179.8345,6.2344 Z" id="Fill-38" fill="#003E1B"></path>
                            <path d="M188.0285,7.4921 C188.0285,7.3611 187.9925,7.2871 187.9325,7.2871 C187.8365,7.2871 187.6225,7.3471 187.4065,7.4321 C187.0715,7.5511 186.7595,7.7201 186.7595,8.2331 C186.7595,8.5451 186.9755,8.9281 187.4305,8.9281 C187.8615,8.9281 187.9925,8.6401 188.0055,8.3531 L188.0285,7.4921 Z M189.2015,7.8981 C189.1655,8.5921 189.3445,8.9511 189.7765,8.9511 C189.9795,8.9511 190.1465,8.8191 190.1825,8.8191 C190.2425,8.8191 190.3265,8.9511 190.2905,9.0591 C190.0505,9.3941 189.4645,9.5861 189.0935,9.5861 C188.7955,9.5861 188.4595,9.5011 188.2325,9.2511 C188.1485,9.1671 188.1005,9.1071 188.0405,9.1071 C187.9815,9.1071 187.8965,9.1671 187.7175,9.2741 C187.4905,9.4181 187.1315,9.5861 186.7005,9.5861 C185.8865,9.5861 185.4795,9.0241 185.4795,8.4251 C185.4795,7.9941 185.6475,7.5991 186.4735,7.3121 C186.8915,7.1691 187.3465,7.0011 187.7895,6.8331 C188.0285,6.7501 188.0645,6.6421 188.0645,6.5221 L188.0765,6.2111 C188.1005,5.6011 187.9325,5.0741 187.3465,5.0741 C187.0115,5.0741 186.7595,5.2541 186.7125,5.6011 C186.6885,5.8281 186.6165,5.9481 186.4855,6.0321 C186.3185,6.1391 185.9825,6.2461 185.7185,6.2461 C185.5635,6.2461 185.4915,6.1631 185.4915,6.0561 C185.4915,5.9111 185.5635,5.6601 185.9595,5.2891 C186.3295,4.9421 187.1915,4.5361 187.8005,4.5361 C188.7465,4.5361 189.3325,4.9791 189.2855,6.0321 L189.2015,7.8981 Z" id="Fill-40" fill="#003E1B"></path>
                            <path d="M192.4304,7.994 C192.4304,8.879 192.4774,9.024 192.8854,9.082 L193.0644,9.107 C193.1484,9.191 193.1364,9.406 193.0404,9.454 C192.6224,9.43 192.2144,9.418 191.7724,9.418 C191.3894,9.418 190.9824,9.43 190.4794,9.454 C190.3844,9.406 190.3724,9.191 190.4554,9.107 L190.7184,9.071 C191.1264,9.011 191.1734,8.879 191.1734,7.994 L191.1734,6.235 C191.1734,5.697 191.1734,5.553 190.8744,5.374 L190.7314,5.289 C190.6954,5.243 190.6954,5.074 190.7434,5.015 C191.2584,4.87 191.9154,4.583 192.2994,4.369 C192.3824,4.369 192.4304,4.416 192.4544,4.464 C192.4304,4.692 192.4304,4.919 192.4304,5.015 C192.4304,5.098 192.4664,5.122 192.5374,5.134 C193.1004,4.823 193.4364,4.536 194.1774,4.536 C195.1464,4.536 195.6014,5.205 195.6014,6.139 L195.6014,7.994 C195.6014,8.879 195.6504,9.024 196.0564,9.071 L196.3314,9.107 C196.4154,9.191 196.4034,9.406 196.3074,9.454 C195.8054,9.43 195.3984,9.418 194.9544,9.418 C194.5604,9.418 194.1544,9.43 193.7354,9.454 C193.6394,9.406 193.6274,9.191 193.7104,9.107 L193.8904,9.082 C194.2974,9.024 194.3454,8.879 194.3454,7.994 L194.3454,6.342 C194.3454,5.733 194.1054,5.254 193.3874,5.254 C193.0164,5.254 192.7184,5.446 192.5974,5.624 C192.4424,5.84 192.4304,5.948 192.4304,6.391 L192.4304,7.994 Z" id="Fill-42" fill="#003E1B"></path>
                        </g>
                    </g>
                </g>
            </g>
        </g>
    </g>
</svg>