<?xml version="1.0" encoding="UTF-8"?>
<svg width="109px" height="42px" viewBox="0 0 109 42" version="1.1" xmlns="http://www.w3.org/2000/svg" xmlns:xlink="http://www.w3.org/1999/xlink">
    <!-- Generator: Sketch 54.1 (76490) - https://sketchapp.com -->
    <title>Group 6</title>
    <desc>Created with Sketch.</desc>
    <defs>
        <polygon id="path-1" points="0.622953927 0.0653783389 10.1395483 0.0653783389 10.1395483 14.2126824 0.622953927 14.2126824"></polygon>
    </defs>
    <g id="Page-1" stroke="none" stroke-width="1" fill="none" fill-rule="evenodd">
        <g id="mailmag_pc" transform="translate(-710.000000, -41.000000)">
            <g id="Group" transform="translate(100.000000, 41.000000)">
                <g id="Group-6" transform="translate(610.000000, 0.000000)">
                    <g id="Group-16" transform="translate(-0.000000, -0.000000)">
                        <path d="M6.86163204,9.14301857 C6.86163204,10.047394 6.89523637,10.651059 7.43066546,10.651059 C8.06616079,10.651059 8.83682023,9.88058199 9.94053598,8.67400006 L13.3539898,4.986183 C13.7893526,4.54933002 14.7601445,3.44373294 15.1611563,2.90739119 C15.763794,2.13616616 15.7973984,1.8683693 15.3956399,1.76813249 L14.358386,1.46517795 C14.0910449,1.23179074 14.1575068,0.762772222 14.4248479,0.493479293 C15.8310027,0.560802525 16.9354652,0.594464141 18.1728516,0.594464141 C19.6126107,0.594464141 20.6498645,0.527140909 21.8543933,0.493479293 C22.2225474,0.594464141 22.2897561,1.29911397 21.9552063,1.46517795 C18.842698,1.90203092 17.9391147,2.70616953 15.6301235,4.95252138 C14.1903643,6.39323855 12.852165,7.76812856 11.5468232,9.07569534 C11.1450647,9.47739063 11.0786028,9.67936033 11.446757,10.1820405 C14.0910449,13.6693839 17.2700151,17.6579114 19.6798193,20.4727705 C20.3817766,21.3120668 21.1516893,21.6142733 22.1553388,21.7474237 L22.9596025,21.8476605 C23.1933394,22.0159686 23.159735,22.7198704 22.8923939,22.8208553 C21.7207227,22.753532 20.3817766,22.7198704 18.6082144,22.7198704 C16.9683228,22.7198704 15.4628485,22.753532 13.9902319,22.8208553 C13.6220777,22.6862088 13.6220777,22.0159686 13.9230232,21.8476605 L14.8266064,21.7137621 C15.3620355,21.6464389 15.4292442,21.2784052 15.06109,20.8093867 C13.655682,19.066463 9.67319482,13.6357223 8.43431497,12.3618171 C8.20057814,12.1261858 7.93323698,11.8576409 7.63154472,11.8576409 C6.79517013,11.8576409 6.86163204,12.6625276 6.86163204,13.6357223 L6.86163204,17.8927947 C6.86163204,21.4459653 7.16257754,21.5469501 8.73600723,21.7474237 L9.57238181,21.8476605 C9.8068654,22.0159686 9.77326107,22.6862088 9.5059199,22.8208553 C7.93323698,22.753532 6.42701596,22.7198704 4.95439928,22.7198704 C3.4817826,22.7198704 1.90909967,22.753532 0.703824149,22.8208553 C0.436482987,22.6862088 0.402878651,22.0159686 0.63736224,21.8476605 L1.10558266,21.7810854 C2.67826558,21.5469501 2.97995784,21.4459653 2.97995784,17.8927947 L2.97995784,5.4215399 C2.97995784,1.8683693 2.67826558,1.80179411 1.10558266,1.56616279 L0.46934056,1.46517795 C0.235603734,1.23179074 0.26920807,0.628125758 0.536549232,0.493479293 C1.90909967,0.560802525 3.41457392,0.594464141 4.95439928,0.594464141 C6.42701596,0.594464141 7.93323698,0.560802525 9.23783198,0.493479293 C9.5059199,0.628125758 9.53877748,1.29911397 9.30429389,1.46517795 L8.73600723,1.56616279 C7.16257754,1.83470769 6.86163204,1.8683693 6.86163204,5.4215399 L6.86163204,9.14301857 Z" id="Fill-3" fill="#433E36"></path>
                        <path d="M30.3919109,21.847885 C32.7009021,21.847885 33.3700018,19.099601 33.3700018,16.5181291 C33.3700018,13.7010258 32.3992099,10.3834865 29.9229437,10.3834865 C28.2165902,10.3834865 26.8776441,12.1264102 26.8776441,15.8478889 C26.8776441,18.8983793 27.9821066,21.847885 30.3919109,21.847885 M37.3188847,15.9481257 C37.3188847,20.7086263 33.9726396,23.1891134 29.9901524,23.1891134 C26.1413357,23.1891134 22.9287612,20.7415398 22.9287612,16.349821 C22.9287612,11.8578653 26.342215,9.04225814 30.2574935,9.04225814 C34.0398482,9.04225814 37.3188847,11.5900685 37.3188847,15.9481257" id="Fill-5" fill="#433E36"></path>
                        <path d="M40.6344378,13.8021603 C40.6344378,12.2941199 40.6344378,11.8909285 39.7973165,11.3882484 L39.3963047,11.1548612 C39.2954917,11.0202147 39.2954917,10.5511962 39.4299091,10.3836361 C40.901779,9.98194085 42.7089455,9.17630617 43.7798037,8.57338923 C44.0142873,8.57338923 44.1487046,8.70728765 44.2151665,8.84043805 C44.1487046,9.47776465 44.1487046,10.1143432 44.1487046,10.3836361 C44.1487046,10.6170233 44.2487709,10.6843466 44.4496501,10.7180082 C46.0895417,9.84729439 46.9595206,9.04240774 49.2356543,9.04240774 C50.6739199,9.04240774 51.7783824,9.81363277 52.2473496,10.4509594 C52.4474821,10.7516698 52.6483613,10.9528915 52.7827787,10.9528915 C52.9164493,10.9528915 53.1173285,10.8526547 53.519087,10.6170233 C55.0917699,9.64532469 56.2298368,9.04240774 57.8025197,9.04240774 C60.6133357,9.04240774 61.8858199,10.9192299 61.8858199,13.5351114 L61.8858199,18.7302209 C61.8858199,21.210708 62.0194905,21.5802377 63.1568106,21.7470497 L63.8931189,21.8480346 C64.1948112,22.0829178 64.0275363,22.6865828 63.8931189,22.8212293 C62.4541066,22.7539061 61.3160397,22.7202444 60.0779067,22.7202444 C58.9741909,22.7202444 57.8361241,22.7539061 56.6308485,22.8212293 C56.3635074,22.6865828 56.329903,22.0829178 56.5643866,21.8480346 L57.0998157,21.7470497 C58.2371358,21.5473241 58.3715531,21.210708 58.3715531,18.7302209 L58.3715531,14.17169 C58.3715531,12.3951047 57.7689154,11.0538763 55.6608034,11.0538763 C54.6900114,11.0538763 53.8200325,11.5565565 53.418274,12.0592366 C53.0837242,12.4609319 53.0172623,12.8641232 53.0172623,13.8021603 L53.0172623,18.7302209 C53.0172623,21.210708 53.1509329,21.6138993 54.2882529,21.7807113 L54.7908245,21.8480346 C55.025308,22.0829178 54.9917037,22.6865828 54.7236158,22.8212293 C53.5526914,22.7539061 52.4474821,22.7202444 51.209349,22.7202444 C50.1056332,22.7202444 48.9675664,22.7539061 47.8631039,22.8212293 C47.595016,22.6865828 47.5614116,22.0829178 47.7958952,21.8480346 L48.2312581,21.7807113 C49.3685781,21.6138993 49.5029955,21.210708 49.5029955,18.7302209 L49.5029955,14.17169 C49.5029955,12.3951047 48.9003577,11.0538763 46.9595206,11.0538763 C45.8214538,11.0538763 44.9514749,11.5902181 44.5833207,12.0928982 C44.1815622,12.62924 44.1487046,12.9314465 44.1487046,14.2390132 L44.1487046,18.7302209 C44.1487046,21.210708 44.2823752,21.6138993 45.4196953,21.7807113 L45.9222668,21.8480346 C46.1567504,22.0829178 46.123146,22.6865828 45.8550581,22.8212293 C44.6841337,22.7539061 43.5453201,22.7202444 42.3079338,22.7202444 C41.2034712,22.7202444 40.0990087,22.7539061 38.8272713,22.8212293 C38.5599301,22.6865828 38.5263258,22.0829178 38.7600626,21.8480346 L39.3627004,21.7470497 C40.5000205,21.5473241 40.6344378,21.210708 40.6344378,18.7302209 L40.6344378,13.8021603 Z" id="Fill-7" fill="#433E36"></path>
                        <path d="M72.5647552,21.847885 C74.8737465,21.847885 75.5435929,19.099601 75.5435929,16.5181291 C75.5435929,13.7010258 74.572801,10.3834865 72.0965348,10.3834865 C70.3894345,10.3834865 69.0504884,12.1264102 69.0504884,15.8478889 C69.0504884,18.8983793 70.1549509,21.847885 72.5647552,21.847885 M79.4924758,15.9481257 C79.4924758,20.7086263 76.1454839,23.1891134 72.1629967,23.1891134 C68.3141801,23.1891134 65.1016055,20.7415398 65.1016055,16.349821 C65.1016055,11.8578653 68.5158061,9.04225814 72.4310846,9.04225814 C76.2126926,9.04225814 79.4924758,11.5900685 79.4924758,15.9481257" id="Fill-9" fill="#433E36"></path>
                        <path d="M86.6558747,18.7301461 C86.6558747,21.2106332 86.7902921,21.6138245 87.9276122,21.7806365 L88.4294369,21.8479598 C88.6639205,22.082843 88.6310629,22.686508 88.362975,22.8211545 C87.1913038,22.7538313 86.053237,22.7201696 84.8151039,22.7201696 C83.7449925,22.7201696 82.6069256,22.7538313 81.2007709,22.8211545 C80.9334297,22.686508 80.8998254,22.082843 81.1335622,21.8479598 L81.8706173,21.7469749 C83.0079374,21.5809109 83.1416079,21.2106332 83.1416079,18.7301461 L83.1416079,13.8020855 C83.1416079,12.2940451 83.1416079,11.8908537 82.3052334,11.3889216 L81.9042216,11.1547864 C81.8034086,11.0201399 81.8034086,10.5511214 81.9370792,10.3835613 C83.3760915,9.98186605 85.2168624,9.17697941 86.2877206,8.57331442 C86.5222042,8.57331442 86.6558747,8.70796089 86.7230834,8.84036324 C86.6558747,9.47768984 86.6558747,10.1142684 86.6558747,10.3835613 C86.6558747,10.6169485 86.7566877,10.6842718 86.9568202,10.7179334 C88.5302499,9.84721958 89.4674375,9.04233294 91.5419452,9.04233294 C94.252695,9.04233294 95.5244324,10.9199031 95.5244324,13.5350366 L95.5244324,18.7301461 C95.5244324,21.2106332 95.6588497,21.6138245 96.7961698,21.7469749 L97.5660825,21.8479598 C97.8005661,22.082843 97.7669618,22.686508 97.4996206,22.8211545 C96.0934658,22.7538313 94.955399,22.7201696 93.7172659,22.7201696 C92.6135501,22.7201696 91.4754833,22.7538313 90.3038121,22.8211545 C90.0357242,22.686508 90.0021198,22.082843 90.2366034,21.8479598 L90.7391749,21.7806365 C91.876495,21.6138245 92.0109124,21.2106332 92.0109124,18.7301461 L92.0109124,14.104292 C92.0109124,12.3950299 91.3410659,11.0538015 89.3330202,11.0538015 C88.2957663,11.0538015 87.4593917,11.5901433 87.1240952,12.0928234 C86.6894791,12.6964884 86.6558747,12.9986949 86.6558747,14.2389384 L86.6558747,18.7301461 Z" id="Fill-11" fill="#433E36"></path>
                        <g id="Group-15" transform="translate(98.572719, 8.976431)">
                            <mask id="mask-2" fill="white">
                                <use xlink:href="#path-1"></use>
                            </mask>
                            <g id="Clip-14"></g>
                            <path d="M1.10408913,13.1402981 C0.769539295,12.5029715 0.568660042,10.7937094 0.635868714,9.35224422 C0.836747967,9.08295129 1.33782596,9.04928967 1.57230955,9.28492099 C2.17494731,11.1617431 3.4130804,12.9383284 5.18664258,12.9383284 C6.22389642,12.9383284 7.06101777,12.2344266 7.06101777,11.0615063 C7.06101777,9.82126274 5.95655525,9.01562806 4.78563083,8.44637273 C3.04492623,7.6085725 1.23775971,6.36832896 1.23775971,4.22221392 C1.20415537,1.60857643 3.44668473,0.0653783389 6.22389642,0.0653783389 C7.59644685,0.0653783389 8.86818428,0.467821661 9.3364047,0.736366554 C9.67170129,1.44026835 9.83822945,2.47929024 9.83822945,3.98882671 C9.73890997,4.25587553 9.16912978,4.35686038 8.93464619,4.15489068 C8.43282144,2.6139367 7.36196326,1.34003154 6.05736826,1.34003154 C4.98576332,1.34003154 4.18299307,2.11125657 4.18299307,3.08295522 C4.18299307,4.05540191 5.153785,4.75855567 6.42477567,5.36222065 C8.23194219,6.23443053 10.1399217,7.37368923 10.1399217,10.0224844 C10.1399217,12.9383284 7.56284252,14.2129816 4.91930142,14.2129816 C3.54675098,14.2129816 2.17494731,13.9436887 1.10408913,13.1402981" id="Fill-13" fill="#433E36" mask="url(#mask-2)"></path>
                        </g>
                    </g>
                    <g id="Group-7" transform="translate(15.975911, 30.043976)" fill="#555555">
                        <path d="M7.54792922,2.72625916 C7.46253467,2.82481564 7.2424065,2.83618754 7.15701196,2.74995062 C6.94921856,1.98139966 6.39794931,0.967405168 4.78304352,0.967405168 C3.22981157,0.967405168 1.66424486,2.06668891 1.66424486,4.57135007 C1.66424486,7.17362004 3.29148541,8.44442996 4.8693869,8.44442996 C6.41028407,8.44442996 7.08395218,7.41811591 7.42553037,6.62397817 C7.53559445,6.5140498 7.73200191,6.56332803 7.79272692,6.67325641 C7.70733238,7.49108561 7.37714012,8.29849057 7.20635103,8.53066688 C7.05833381,8.55435834 6.91221425,8.60363657 6.77748063,8.63964759 C6.50801339,8.72588451 5.66450502,8.9334217 4.8693869,8.9334217 C3.65773314,8.9334217 2.61781731,8.68892583 1.73730464,8.1155925 C0.746727881,7.46739415 -2.18491891e-13,6.35484318 -2.18491891e-13,4.7551958 C-2.18491891e-13,3.32517927 0.635714969,2.21357597 1.54089718,1.51704704 C2.44702822,0.832837675 3.68240268,0.478413432 4.91872597,0.478413432 C5.61516595,0.478413432 6.45962315,0.600661366 7.0346131,0.74660076 C7.18073266,0.783559438 7.26707604,0.795878997 7.37714012,0.819570457 C7.40180966,1.101025 7.42553037,1.82219305 7.54792922,2.72625916" id="Fill-27"></path>
                        <path d="M9.06387221,5.48773575 C9.06387221,4.93809387 9.06387221,4.79120682 8.7583495,4.60736109 L8.61128111,4.52207183 C8.57427681,4.47374126 8.57427681,4.30221509 8.62361588,4.24156495 C9.15021559,4.07003878 9.79826533,3.80185145 10.1654619,3.58104704 C10.2385217,3.58104704 10.3115814,3.61800572 10.336251,3.69097542 C10.3239162,3.92409938 10.3115814,4.13068891 10.3115814,4.24156495 C10.3115814,4.3268542 10.3609205,4.388452 10.4339803,4.388452 C10.8135116,4.11931701 11.2177125,3.75257321 11.6332993,3.75257321 C12.0612209,3.75257321 12.3060186,4.03402776 12.3060186,4.35149332 C12.3060186,4.8281655 11.9511568,5.06034181 11.6209645,5.06034181 C11.4985657,5.06034181 11.3885016,5.02338313 11.2907723,4.96178533 C10.9843007,4.7551958 10.7774561,4.72960902 10.7034475,4.72960902 C10.4225944,4.72960902 10.3485857,5.01106357 10.3485857,5.60998368 L10.3485857,7.28449608 C10.3485857,8.18856219 10.3979248,8.32218203 10.8258464,8.37146026 L11.303107,8.4207385 C11.3885016,8.50602776 11.3771156,8.72588451 11.2784375,8.77516274 C10.5449932,8.74957597 10.1284576,8.73820407 9.67586648,8.73820407 C9.27261444,8.73820407 8.86841358,8.74957597 8.40348771,8.77516274 C8.30575839,8.72588451 8.29342363,8.50602776 8.37881817,8.4207385 L8.59894634,8.38377982 C9.01548197,8.31081013 9.06387221,8.18856219 9.06387221,7.28449608 L9.06387221,5.48773575 Z" id="Fill-29"></path>
                        <path d="M15.2414087,6.77048616 C15.2414087,6.63591867 15.2053532,6.56294897 15.1436794,6.56294897 C15.0459501,6.56294897 14.8258219,6.62454677 14.6056937,6.70983602 C14.2631667,6.8311363 13.9453092,7.00266247 13.9453092,7.52861288 C13.9453092,7.84607845 14.1654374,8.23746137 14.6294144,8.23746137 C15.0706196,8.23746137 15.2053532,7.94368726 15.217688,7.65086082 L15.2414087,6.77048616 Z M16.4407277,7.18556054 C16.4037234,7.89535668 16.5868473,8.26115283 17.0280524,8.26115283 C17.2358458,8.26115283 17.4066349,8.12753299 17.4436392,8.12753299 C17.5053131,8.12753299 17.5907076,8.26115283 17.5546521,8.3710812 C17.3089056,8.71413354 16.7101949,8.90935117 16.3297148,8.90935117 C16.0241921,8.90935117 15.681665,8.82311426 15.4501509,8.56724649 C15.3638076,8.48195723 15.3154173,8.42035944 15.2537435,8.42035944 C15.1930185,8.42035944 15.1066751,8.48195723 14.9235512,8.59188561 C14.6910883,8.737825 14.3238917,8.90935117 13.8836354,8.90935117 C13.051513,8.90935117 12.6359262,8.33412252 12.6359262,7.72383051 C12.6359262,7.28411701 12.8076641,6.88041453 13.6511725,6.58758809 C14.079094,6.44070104 14.5449687,6.27012252 14.996611,6.09859635 C15.2414087,6.0133071 15.278413,5.90337872 15.278413,5.78113079 L15.2907478,5.46366522 C15.3154173,4.84010599 15.1436794,4.30278368 14.5449687,4.30278368 C14.2014929,4.30278368 13.9453092,4.48568175 13.8959702,4.84010599 C13.8713006,5.0722823 13.7982408,5.19453024 13.6635072,5.28076715 C13.4917693,5.38974787 13.1492423,5.49967624 12.8807239,5.49967624 C12.7213207,5.49967624 12.6482609,5.41438699 12.6482609,5.30445861 C12.6482609,5.15757156 12.7213207,4.90075613 13.1255216,4.52264043 C13.5041041,4.16821619 14.3855656,3.75219415 15.0089458,3.75219415 C15.9758018,3.75219415 16.5754613,4.20517486 16.5261222,5.28076715 L16.4407277,7.18556054 Z" id="Fill-31"></path>
                        <path d="M20.0004469,4.49847514 C19.7433144,4.49847514 19.7433144,4.5221666 19.7433144,4.87659084 L19.7433144,7.28364318 C19.7433144,8.18865696 19.7917046,8.32227679 20.220575,8.37155503 L20.6968868,8.42083327 C20.7832302,8.50612252 20.7708955,8.72597927 20.6731661,8.77525751 C20.1228457,8.74967073 19.6455851,8.73829883 19.0705951,8.73829883 C18.6663943,8.73829883 18.2508075,8.74967073 17.7488773,8.77525751 C17.651148,8.72597927 17.6388132,8.50612252 17.7251566,8.42083327 L17.993675,8.38387459 C18.4092618,8.32227679 18.4586009,8.18865696 18.4586009,7.28364318 L18.4586009,4.86521894 C18.4586009,4.53448616 18.4462661,4.49847514 18.2384727,4.49847514 L17.7982164,4.49847514 C17.700487,4.4491969 17.6758175,4.28999029 17.7612121,4.21702059 L18.2868629,3.94788561 C18.3732063,3.89955503 18.4586009,3.82563767 18.4586009,3.67969828 L18.4586009,3.45889387 C18.4586009,2.93483878 18.5079399,2.33591867 18.7157333,1.71235944 C19.0335908,0.746695526 19.8533785,0.00183602195 21.0033584,0.00183602195 C21.8478156,0.00183602195 22.398136,0.379951724 22.398136,0.893582578 C22.398136,1.23568726 22.0926133,1.47923547 21.7984765,1.47923547 C21.6153527,1.47923547 21.5176233,1.40626577 21.4436147,1.30865696 C21.0517486,0.746695526 20.7832302,0.502199658 20.4900423,0.502199658 C20.0735066,0.502199658 19.7433144,1.33329608 19.7433144,3.16606743 L19.7433144,3.53186357 C19.7433144,3.89955503 19.7556492,3.92419415 20.0127816,3.92419415 L21.2965463,3.92419415 C21.3458854,3.96115283 21.3705549,4.03412252 21.3705549,4.11941178 C21.3705549,4.32694897 21.2965463,4.43687734 21.198817,4.49847514 L20.0004469,4.49847514 Z" id="Fill-33"></path>
                        <path d="M23.7308603,4.4614217 C23.5107321,4.4614217 23.4983973,4.48511316 23.4983973,4.87649608 L23.4983973,6.75854566 C23.4983973,7.52804429 23.6084614,8.21225365 24.3912448,8.21225365 C24.6360425,8.21225365 24.7831109,8.1269644 24.9785695,7.99334456 C25.0895824,8.00471646 25.1626422,8.10232528 25.1379726,8.23689277 C24.8931749,8.57899745 24.3305198,8.90878258 23.5847407,8.90878258 C22.422426,8.90878258 22.2136838,8.23689277 22.2136838,7.38115723 L22.2136838,4.9011352 C22.2136838,4.47374126 22.1899631,4.4614217 21.9935556,4.4614217 L21.5656341,4.4614217 C21.4432352,4.40077156 21.4185657,4.20460627 21.5295786,4.13068891 C21.9451654,3.97242996 22.2260186,3.81322335 22.4954858,3.61800572 C22.7279487,3.44742721 22.997416,3.19061178 23.1682051,2.86082666 C23.2782692,2.7869093 23.4500071,2.82386798 23.5107321,2.92147679 L23.5107321,3.6549644 C23.5107321,3.85018203 23.5107321,3.88714071 23.743195,3.88714071 L24.9548488,3.88714071 C25.0279086,3.92409938 25.0525781,4.0217082 25.0525781,4.14395613 C25.0402433,4.28989553 24.9909043,4.40077156 24.8931749,4.4614217 L23.7308603,4.4614217 Z" id="Fill-35"></path>
                        <path d="M28.0126378,5.35354732 C28.3674996,5.35354732 28.5269027,5.31658864 28.6122973,5.2673104 C28.6853571,5.21897982 28.7346961,5.12137101 28.7346961,5.01144263 C28.7346961,4.57172913 28.4528941,4.21730489 27.9272432,4.21730489 C27.1074556,4.21730489 26.7279242,5.01144263 26.7279242,5.2673104 C26.7279242,5.31658864 26.7525938,5.35354732 26.8996622,5.35354732 L28.0126378,5.35354732 Z M26.8863786,5.84253905 C26.6539156,5.84253905 26.6301949,5.85391095 26.6301949,6.00079801 C26.6301949,7.10102941 27.3883088,7.97950875 28.4775637,7.97950875 C28.9671591,7.97950875 29.3704111,7.8212498 29.6522131,7.36921674 C29.7736631,7.33320572 29.9093456,7.45545365 29.9207315,7.56443437 C29.5051447,8.54241784 28.5999625,8.90916164 27.8532346,8.90916164 C26.4347363,8.90916164 25.4925498,7.85820847 25.4925498,6.46515062 C25.4925498,5.08441233 26.4347363,3.75295228 28.0733628,3.75295228 C28.9794938,3.75295228 29.9093456,4.33955283 29.9093456,5.40282555 C29.9093456,5.51180627 29.896062,5.58572363 29.8476717,5.68333244 C29.7736631,5.79326082 29.4928099,5.84253905 29.0032145,5.84253905 L26.8863786,5.84253905 Z" id="Fill-37"></path>
                        <path d="M34.2142745,5.24342941 C34.2142745,4.99893354 34.178219,4.82835503 34.0558202,4.65682886 C33.8840823,4.42465255 33.614615,4.24080682 33.2360325,4.24080682 C32.4039101,4.24080682 31.8782592,5.06053134 31.8782592,6.08684539 C31.8782592,7.34533575 32.5386437,8.17643217 33.4068216,8.17643217 C33.7009584,8.17643217 34.0311506,8.01722555 34.12888,7.90729718 C34.1905538,7.84569938 34.2142745,7.73577101 34.2142745,7.56424484 L34.2142745,5.24342941 Z M35.498988,6.74641564 C35.498988,7.85801894 35.5843826,8.2370823 35.7931248,8.2370823 C35.9278584,8.2370823 36.1233171,8.20012363 36.3064409,8.12715393 C36.4051191,8.20012363 36.4288398,8.49389773 36.2941062,8.56686743 C35.670726,8.62751756 34.8015992,8.83600241 34.3613429,9.03122004 C34.3006179,9.01890048 34.238944,8.97056991 34.2142745,8.89665255 L34.238944,8.71375448 C34.2636136,8.53085641 34.2512788,8.43229993 34.2266093,8.3716498 L34.1658843,8.35933024 C33.7986877,8.62751756 33.3460966,8.90897211 32.7587719,8.90897211 C31.3639943,8.90897211 30.4958164,7.78504925 30.4958164,6.56351756 C30.4958164,4.80371591 31.9019799,3.75276274 33.4314912,3.75276274 C33.7493486,3.75276274 33.9818116,3.78972142 34.1412147,3.83899966 C34.1905538,3.82573244 34.2142745,3.77740186 34.2142745,3.64283437 L34.2142745,2.04223933 C34.2142745,1.22346247 34.1905538,1.15049277 33.9334213,0.9789666 L33.7616834,0.869038226 C33.6886236,0.819759989 33.6762889,0.624542358 33.7616834,0.588531339 C34.238944,0.453016187 34.874659,0.197148419 35.3642544,0.00193078779 C35.438263,-0.0103887714 35.5113228,0.0379418071 35.5359923,0.0985919448 C35.5113228,0.588531339 35.498988,1.3457104 35.498988,1.87071316 L35.498988,6.74641564 Z" id="Fill-39"></path>
                        <path d="M40.3548067,1.89516274 C40.3548067,1.48008836 40.6603294,1.1626228 41.1005857,1.1626228 C41.5408421,1.1626228 41.8473136,1.48008836 41.8473136,1.89516274 C41.8473136,2.31023712 41.5408421,2.62770269 41.1005857,2.62770269 C40.6603294,2.62770269 40.3548067,2.31023712 40.3548067,1.89516274 L40.3548067,1.89516274 Z M41.7495843,7.28449608 C41.7495843,8.18856219 41.7979746,8.31081013 42.2145102,8.38377982 L42.4336895,8.4207385 C42.5200329,8.50602776 42.5076981,8.72588451 42.4099688,8.77516274 C41.9573777,8.74957597 41.5408421,8.73820407 41.088251,8.73820407 C40.6849989,8.73820407 40.2694121,8.74957597 39.8044863,8.77516274 C39.7058081,8.72588451 39.6944222,8.50602776 39.7798167,8.4207385 L39.9999449,8.38377982 C40.4155317,8.31081013 40.4648708,8.18856219 40.4648708,7.28449608 L40.4648708,5.48773575 C40.4648708,4.93809387 40.4648708,4.79120682 40.1583992,4.60736109 L40.0122797,4.52207183 C39.9752754,4.47374126 39.9752754,4.30221509 40.0236656,4.24156495 C40.6603294,4.05771922 41.2723237,3.78953189 41.6148507,3.58104704 C41.6879105,3.5933666 41.7495843,3.61800572 41.7856398,3.67960352 C41.7609703,4.08330599 41.7495843,4.66895889 41.7495843,5.17027018 L41.7495843,7.28449608 Z" id="Fill-41"></path>
                        <path d="M45.0275964,7.28402225 C45.0275964,8.18808836 45.0769354,8.33402776 45.4925222,8.39562555 L45.6765949,8.42026467 C45.7610407,8.50555393 45.7496547,8.72541068 45.6509766,8.77468891 C45.223055,8.7500498 44.8074682,8.73773024 44.3548771,8.73773024 C43.963011,8.73773024 43.5474242,8.7500498 43.0331593,8.77468891 C42.9354299,8.72541068 42.9230952,8.50555393 43.0094385,8.42026467 L43.277957,8.38330599 C43.6944926,8.32265586 43.7428828,8.18808836 43.7428828,7.28402225 L43.7428828,5.48726192 C43.7428828,4.93762004 43.7428828,4.79073299 43.4373601,4.60783492 L43.2902917,4.52254566 C43.2532874,4.47326743 43.2532874,4.30268891 43.3026265,4.24109112 C43.8282774,4.09515172 44.5009967,3.80137762 44.8928627,3.58152087 C44.9782573,3.58152087 45.0275964,3.63079911 45.0513171,3.67912969 C45.0275964,3.91130599 45.0275964,4.14442996 45.0275964,4.24109112 C45.0275964,4.32732803 45.0646007,4.35101949 45.1376604,4.36333905 C45.7126504,4.04587349 46.0551774,3.75209938 46.8132912,3.75209938 C47.8048168,3.75209938 48.2697427,4.43630875 48.2697427,5.3896531 L48.2697427,7.28402225 C48.2697427,8.18808836 48.3190818,8.33402776 48.7337198,8.38330599 L49.0155218,8.42026467 C49.1009163,8.50555393 49.0895304,8.72541068 48.9918011,8.77468891 C48.4775361,8.7500498 48.0610005,8.73773024 47.6093582,8.73773024 C47.2051573,8.73773024 46.7886217,8.7500498 46.3607001,8.77468891 C46.2629708,8.72541068 46.2506361,8.50555393 46.3369794,8.42026467 L46.5201033,8.39562555 C46.9366389,8.33402776 46.9850292,8.18808836 46.9850292,7.28402225 L46.9850292,5.59813795 C46.9850292,4.97363106 46.7402315,4.48558699 46.0058384,4.48558699 C45.6272559,4.48558699 45.3217331,4.68175228 45.1993343,4.86465035 C45.0399311,5.0845071 45.0275964,5.19443547 45.0275964,5.64646853 L45.0275964,7.28402225 Z" id="Fill-43"></path>
                        <path d="M55.2534037,7.06378644 C55.2534037,8.02945035 55.2050135,8.87191867 54.9848853,9.42156054 C54.5930192,10.3872245 53.7001718,11.1936818 52.3053942,11.1936818 C52.0122062,11.1936818 51.6563956,11.1207121 51.6563956,10.7909269 C51.6563956,10.5587506 51.8651378,10.0574393 52.2199996,10.0574393 C52.3907887,10.0574393 52.5748614,10.1673677 52.77032,10.2896156 C53.0758428,10.4848333 53.1859068,10.5094724 53.2959709,10.5094724 C53.5891589,10.5094724 53.7001718,9.80157156 53.7248413,9.54380847 C53.748562,9.33627128 53.8349054,8.44452473 53.8349054,7.15002335 L53.8349054,2.4581666 C53.8349054,1.15039801 53.7248413,1.12481123 53.1375166,1.04046963 L52.7826548,0.991191394 C52.6972603,0.929593598 52.7086462,0.686045388 52.8073243,0.636767151 C53.4430393,0.66140627 53.9933597,0.673725829 54.5436802,0.673725829 C55.0940006,0.673725829 55.6082655,0.66140627 56.0618055,0.636767151 C56.1585859,0.686045388 56.1709207,0.929593598 56.0855262,0.991191394 L55.9137882,1.01583051 C55.3634678,1.08880021 55.2534037,1.15039801 55.2534037,2.4581666 L55.2534037,7.06378644 Z" id="Fill-45"></path>
                        <path d="M59.1433152,6.77048616 C59.1433152,6.63591867 59.1072597,6.56294897 59.0455858,6.56294897 C58.9478565,6.56294897 58.7277284,6.62454677 58.5076002,6.70983602 C58.1650732,6.8311363 57.8472157,7.00266247 57.8472157,7.52861288 C57.8472157,7.84607845 58.066395,8.23746137 58.5313209,8.23746137 C58.9725261,8.23746137 59.1072597,7.94368726 59.1195945,7.65086082 L59.1433152,6.77048616 Z M60.3426341,7.18556054 C60.3056298,7.89535668 60.4887537,8.26115283 60.9299589,8.26115283 C61.1377523,8.26115283 61.3085414,8.12753299 61.3455457,8.12753299 C61.4072195,8.12753299 61.4926141,8.26115283 61.4565586,8.3710812 C61.2117609,8.71413354 60.6121014,8.90935117 60.2316212,8.90935117 C59.9260985,8.90935117 59.5845203,8.82311426 59.3520574,8.56724649 C59.265714,8.48195723 59.2173238,8.42035944 59.1565988,8.42035944 C59.0949249,8.42035944 59.0085815,8.48195723 58.8254577,8.59188561 C58.5929947,8.737825 58.2257982,8.90935117 57.7855418,8.90935117 C56.9534194,8.90935117 56.5378326,8.33412252 56.5378326,7.72383051 C56.5378326,7.28411701 56.7095705,6.88041453 57.5530789,6.58758809 C57.9810005,6.44070104 58.4468752,6.27012252 58.8985175,6.09859635 C59.1433152,6.0133071 59.1803195,5.90337872 59.1803195,5.78113079 L59.1926542,5.46366522 C59.2173238,4.84010599 59.0455858,4.30278368 58.4468752,4.30278368 C58.1033993,4.30278368 57.8472157,4.48568175 57.7978766,4.84010599 C57.7741559,5.0722823 57.7001473,5.19453024 57.5654137,5.28076715 C57.3936758,5.38974787 57.0511487,5.49967624 56.7826303,5.49967624 C56.6232272,5.49967624 56.5501674,5.41438699 56.5501674,5.30445861 C56.5501674,5.15757156 56.6232272,4.90075613 57.027428,4.52264043 C57.4069593,4.16821619 58.287472,3.75219415 58.9118011,3.75219415 C59.8767594,3.75219415 60.4773678,4.20517486 60.4280287,5.28076715 L60.3426341,7.18556054 Z" id="Fill-47"></path>
                        <path d="M63.4982473,7.39423492 C63.4982473,7.77235062 63.632981,7.95619635 63.8891646,8.1760531 C64.0485678,8.31062059 64.3540905,8.42054897 64.5381632,8.42054897 C65.3816715,8.42054897 65.8475462,7.54017431 65.8475462,6.41625145 C65.8475462,5.25536991 65.2478868,4.46123217 64.2933655,4.46123217 C64.0115635,4.46123217 63.7800494,4.55978864 63.632981,4.70572803 C63.5352516,4.81565641 63.4982473,5.0231936 63.4982473,5.53682445 L63.4982473,7.39423492 Z M62.2135338,5.48754621 C62.2135338,4.93790434 62.2258686,4.82797597 61.9080111,4.62043878 L61.7609427,4.52282996 C61.7116036,4.44986026 61.7116036,4.30202555 61.7732775,4.24137542 C62.2619241,4.10680792 62.997266,3.76470324 63.3635137,3.52020737 C63.461243,3.52020737 63.5352516,3.56948561 63.5589724,3.64245531 C63.5219681,3.86231206 63.4982473,4.00919911 63.4982473,4.11912748 C63.4982473,4.19209718 63.5352516,4.26601453 63.5969255,4.27833409 C63.7553798,4.2053644 64.4764893,3.75238368 65.1131531,3.75238368 C66.4462569,3.75238368 67.2176543,4.75500627 67.2176543,6.01349663 C67.2176543,7.71170048 66.0183353,8.90954071 64.2203057,8.90954071 C64.0722885,8.90954071 63.7923841,8.88395393 63.6813712,8.86026247 C63.5713071,8.88395393 63.4982473,8.95787128 63.4982473,9.20236715 L63.4982473,10.4002074 C63.4982473,11.3042735 63.5475864,11.438841 63.975508,11.4871716 L64.4157643,11.5364498 C64.5021077,11.6217391 64.4897729,11.8415958 64.3910948,11.8899264 C63.7553798,11.8662349 63.2781192,11.8539154 62.8255281,11.8539154 C62.4213272,11.8539154 61.9440666,11.8662349 61.45542,11.8899264 C61.3576907,11.8415958 61.3444071,11.6217391 61.4307505,11.5364498 L61.7486079,11.4994911 C62.1651436,11.4502129 62.2135338,11.3042735 62.2135338,10.4002074 L62.2135338,5.48754621 Z" id="Fill-49"></path>
                        <path d="M70.593111,6.77048616 C70.593111,6.63591867 70.5570556,6.56294897 70.4953817,6.56294897 C70.3976524,6.56294897 70.1775242,6.62454677 69.9564473,6.70983602 C69.6148691,6.8311363 69.2970116,7.00266247 69.2970116,7.52861288 C69.2970116,7.84607845 69.5161909,8.23746137 69.9811168,8.23746137 C70.4213731,8.23746137 70.5570556,7.94368726 70.5684415,7.65086082 L70.593111,6.77048616 Z M71.79243,7.18556054 C71.7554257,7.89535668 71.9385496,8.26115283 72.3797548,8.26115283 C72.5875482,8.26115283 72.7583373,8.12753299 72.7953416,8.12753299 C72.8570154,8.12753299 72.9424099,8.26115283 72.9054056,8.3710812 C72.6606079,8.71413354 72.0618973,8.90935117 71.6814171,8.90935117 C71.3758944,8.90935117 71.0333674,8.82311426 70.8018533,8.56724649 C70.7155099,8.48195723 70.6661708,8.42035944 70.6054458,8.42035944 C70.543772,8.42035944 70.4583774,8.48195723 70.2752536,8.59188561 C70.0427906,8.737825 69.6755941,8.90935117 69.2353377,8.90935117 C68.4032153,8.90935117 67.9876285,8.33412252 67.9876285,7.72383051 C67.9876285,7.28411701 68.1593664,6.88041453 69.001926,6.58758809 C69.4307964,6.44070104 69.8957222,6.27012252 70.3483133,6.09859635 C70.593111,6.0133071 70.6291665,5.90337872 70.6291665,5.78113079 L70.6424501,5.46366522 C70.6661708,4.84010599 70.4953817,4.30278368 69.8957222,4.30278368 C69.5531952,4.30278368 69.2970116,4.48568175 69.2476725,4.84010599 C69.223003,5.0722823 69.1499432,5.19453024 69.0152096,5.28076715 C68.8434716,5.38974787 68.5009446,5.49967624 68.2324262,5.49967624 C68.0730231,5.49967624 67.9999633,5.41438699 67.9999633,5.30445861 C67.9999633,5.15757156 68.0730231,4.90075613 68.4772239,4.52264043 C68.8558064,4.16821619 69.7372679,3.75219415 70.3606481,3.75219415 C71.3265553,3.75219415 71.9262148,4.20517486 71.8778246,5.28076715 L71.79243,7.18556054 Z" id="Fill-51"></path>
                        <path d="M75.0945423,7.28402225 C75.0945423,8.18808836 75.1438814,8.33402776 75.5594682,8.39562555 L75.7435409,8.42026467 C75.8289354,8.50555393 75.8166007,8.72541068 75.7179225,8.77468891 C75.290001,8.7500498 74.875363,8.73773024 74.4218231,8.73773024 C74.029957,8.73773024 73.6143702,8.7500498 73.1001052,8.77468891 C73.0033247,8.72541068 72.9900411,8.50555393 73.0763845,8.42026467 L73.3449029,8.38330599 C73.7614385,8.32265586 73.8098288,8.18808836 73.8098288,7.28402225 L73.8098288,5.48726192 C73.8098288,4.93762004 73.8098288,4.79073299 73.5043061,4.60783492 L73.3572377,4.52254566 C73.3211822,4.47326743 73.3211822,4.30268891 73.3705213,4.24109112 C73.8952233,4.09515172 74.5688914,3.80137762 74.9598087,3.58152087 C75.0452033,3.58152087 75.0945423,3.63079911 75.1192119,3.67912969 C75.0945423,3.91130599 75.0945423,4.14442996 75.0945423,4.24109112 C75.0945423,4.32732803 75.1315466,4.35101949 75.2046064,4.36333905 C75.7795964,4.04587349 76.1221234,3.75209938 76.881186,3.75209938 C77.8717628,3.75209938 78.3366887,4.43630875 78.3366887,5.3896531 L78.3366887,7.28402225 C78.3366887,8.18808836 78.3860277,8.33402776 78.8016145,8.38330599 L79.0834165,8.42026467 C79.1688111,8.50555393 79.1564763,8.72541068 79.058747,8.77468891 C78.5444821,8.7500498 78.1288953,8.73773024 77.6763042,8.73773024 C77.2721033,8.73773024 76.8555677,8.7500498 76.4276461,8.77468891 C76.3308656,8.72541068 76.3185308,8.50555393 76.4039254,8.42026467 L76.5870493,8.39562555 C77.0035849,8.33402776 77.0519751,8.18808836 77.0519751,7.28402225 L77.0519751,5.59813795 C77.0519751,4.97363106 76.8081263,4.48558699 76.0737331,4.48558699 C75.6942018,4.48558699 75.3886791,4.68175228 75.2662802,4.86465035 C75.1068771,5.0845071 75.0945423,5.19443547 75.0945423,5.64646853 L75.0945423,7.28402225 Z" id="Fill-53"></path>
                    </g>
                </g>
            </g>
        </g>
    </g>
</svg>