<?xml version="1.0" encoding="UTF-8"?>
<svg width="20px" height="20px" viewBox="0 0 20 20" version="1.1" xmlns="http://www.w3.org/2000/svg" xmlns:xlink="http://www.w3.org/1999/xlink">
    <title>Group 41</title>
    <g id="DETAIL" stroke="none" stroke-width="1" fill="none" fill-rule="evenodd">
        <g id="sp_products" transform="translate(-32.000000, -814.000000)">
            <g id="Group-48" transform="translate(28.000000, 419.000000)">
                <g id="Group-11" transform="translate(1.000000, 232.000000)">
                    <g id="Group-41" transform="translate(3.000000, 163.000000)">
                        <circle id="Oval" fill="#00381F" cx="10" cy="10" r="10"></circle>
                        <g id="?" transform="translate(7.325939, 5.438145)" fill="#FFFFFF" fill-rule="nonzero">
                            <path d="M1.95672727,7.44 L1.95672727,8.772 L3.28872727,8.772 L3.28872727,7.44 L1.95672727,7.44 Z M0.000727272727,2.88 L1.02072727,2.88 C1.02072727,2.6 1.05272727,2.34 1.11672727,2.1 C1.18072727,1.86 1.28272727,1.652 1.42272727,1.476 C1.56272727,1.3 1.73672727,1.16 1.94472727,1.056 C2.15272727,0.952 2.40072727,0.9 2.68872727,0.9 C3.12072727,0.9 3.46272727,1.024 3.71472727,1.272 C3.96672727,1.52 4.10872727,1.864 4.14072727,2.304 C4.15672727,2.6 4.12072727,2.852 4.03272727,3.06 C3.94472727,3.268 3.82672727,3.458 3.67872727,3.63 C3.53072727,3.802 3.37072727,3.966 3.19872727,4.122 C3.02672727,4.278 2.86272727,4.448 2.70672727,4.632 C2.55072727,4.816 2.41872727,5.026 2.31072727,5.262 C2.20272727,5.498 2.14072727,5.784 2.12472727,6.12 L2.12472727,6.684 L3.14472727,6.684 L3.14472727,6.216 C3.14472727,6.008 3.17472727,5.822 3.23472727,5.658 C3.29472727,5.494 3.37472727,5.342 3.47472727,5.202 C3.57472727,5.062 3.68672727,4.93 3.81072727,4.806 C3.93472727,4.682 4.06072727,4.56 4.18872727,4.44 C4.31672727,4.312 4.44272727,4.18 4.56672727,4.044 C4.69072727,3.908 4.80072727,3.76 4.89672727,3.6 C4.99272727,3.44 5.07072727,3.262 5.13072727,3.066 C5.19072727,2.87 5.22072727,2.648 5.22072727,2.4 C5.22072727,2.016 5.15872727,1.676 5.03472727,1.38 C4.91072727,1.084 4.73672727,0.834 4.51272727,0.63 C4.28872727,0.426 4.02272727,0.27 3.71472727,0.162 C3.40672727,0.054 3.06472727,0 2.68872727,0 C2.27272727,0 1.89672727,0.072 1.56072727,0.216 C1.22472727,0.36 0.940727273,0.562 0.708727273,0.822 C0.476727273,1.082 0.298727273,1.388 0.174727273,1.74 C0.0507272727,2.092 -0.00727272727,2.472 0.000727272727,2.88 Z"></path>
                        </g>
                    </g>
                </g>
            </g>
        </g>
    </g>
</svg>