<?xml version="1.0" encoding="UTF-8"?>
<svg width="25px" height="24px" viewBox="0 0 25 24" version="1.1" xmlns="http://www.w3.org/2000/svg" xmlns:xlink="http://www.w3.org/1999/xlink">
    <!-- Generator: Sketch 54.1 (76490) - https://sketchapp.com -->
    <title>washing-hands</title>
    <desc>Created with Sketch.</desc>
    <g id="Page-1" stroke="none" stroke-width="1" fill="none" fill-rule="evenodd">
        <g id="pc_nav_after" transform="translate(-462.000000, -431.000000)" fill="#FFFFFF" fill-rule="nonzero">
            <g id="Group-17" transform="translate(98.000000, 116.000000)">
                <g id="Group-19" transform="translate(0.000000, 260.000000)">
                    <g id="tags" transform="translate(1.000000, 45.000000)">
                        <g id="Group-16" transform="translate(362.800000, 2.600000)">
                            <g id="washing-hands" transform="translate(0.800000, 7.300000)">
                                <path d="M17.0840397,15.7047288 C16.7849807,15.4694952 16.3943302,15.3625422 16.0116969,15.4111817 L12.5205466,15.8555069 C12.422616,15.8678805 12.3726951,15.8063274 12.355682,15.7792405 C12.3386688,15.7521535 12.3051085,15.6807915 12.3614618,15.6028603 L12.842958,14.9371149 C12.9534737,14.784312 12.9147396,14.5739156 12.7564471,14.4672326 C12.5981547,14.3605045 12.3801996,14.3979403 12.2697305,14.5507432 L11.7882343,15.2165336 C11.5887373,15.4923976 11.5772709,15.8423684 11.7582631,16.1298412 C11.9393486,16.417314 12.2662812,16.568542 12.6119517,16.5246269 L16.1031019,16.0803017 C16.2983106,16.0555095 16.4897904,16.1079286 16.6423497,16.2279302 C16.7949089,16.3479317 16.8868267,16.5184626 16.9010432,16.7079364 C16.9235565,17.0085027 16.7433101,17.2840068 16.4525013,17.3934345 L9.8587071,19.8747264 C8.9819459,20.2046744 8.02375452,20.3306603 7.08747052,20.2389156 L6.55824422,20.1870814 C6.48245402,20.1797472 6.40568498,20.1964853 6.34042896,20.235046 L2.43010201,22.5463019 C2.26542379,22.643626 2.21363848,22.8513677 2.31450563,23.0103349 C2.38046082,23.1143182 2.49531141,23.1715968 2.61295869,23.1715968 C2.67523157,23.1715968 2.73825024,23.1555786 2.79516281,23.1218774 L6.60494889,20.8700598 L7.01685419,20.9104203 C8.0627683,21.0127838 9.13320003,20.8721296 10.112553,20.5035759 L13.2437697,19.325293 L14.3942799,22.9333935 C14.4405185,23.0784572 14.5788612,23.1716418 14.7282509,23.1716418 C14.7623238,23.1716418 14.7970028,23.1667823 14.8312156,23.1566135 C15.0157502,23.1018096 15.1193209,22.9129208 15.0625015,22.7347858 L13.8969358,19.0794855 L16.7063938,18.022284 C17.2846553,17.8046434 17.6431439,17.2568748 17.5983503,16.6592518 C17.5705699,16.2878635 17.3830521,15.9399175 17.0840397,15.7047288 L17.0840397,15.7047288 Z" id="Path"></path>
                                <path d="M2.82069675,12.175871 L3.27037902,11.6831502 C3.38705719,11.5552597 3.38820575,11.3467351 3.27287417,11.2173514 C3.15750298,11.0879238 2.96953469,11.0866941 2.85281691,11.2145845 L2.40384754,11.7065587 C1.98735478,12.1599286 1.66781659,12.7234019 1.47972948,13.33602 L1.27948344,13.9882086 L0.188625696,14.9107589 C0.0581647655,15.021082 0.033054799,15.2277621 0.13254413,15.3724294 C0.191041639,15.4574115 0.279481,15.5020766 0.368989714,15.5020766 C0.431804236,15.5020766 0.495133631,15.4800734 0.548878465,15.434574 L1.71166002,14.4511527 C1.75859269,14.4114943 1.79372288,14.357299 1.81273358,14.2954179 L2.04208976,13.5482777 C2.20043305,13.0325876 2.46943445,12.5582687 2.82069675,12.175871 L2.82069675,12.175871 Z" id="Path"></path>
                                <path d="M21.3417939,19.0790834 C21.3026895,18.8596098 21.1721457,18.7386628 21.0502265,18.8090947 C20.9283073,18.8794152 20.8611342,19.114355 20.9001768,19.3337731 L21.531999,22.881625 C21.5635608,23.0587617 21.6546602,23.1716418 21.7527458,23.1716418 C21.7762084,23.1716418 21.800042,23.1651883 21.8235665,23.1516138 C21.9454857,23.0812932 22.0126588,22.8463534 21.9736162,22.6269354 L21.3417939,19.0790834 Z" id="Path"></path>
                                <path d="M19.7278244,12.153571 C20.2873004,11.5188629 20.7070906,10.8043859 20.9755218,10.0300049 L21.9678774,7.16693179 C22.0283429,6.992429 21.9208922,6.80666938 21.7278229,6.75201862 C21.534949,6.69754443 21.3292298,6.79448553 21.2687644,6.96898832 L20.2764088,9.8320614 C20.0351821,10.5282185 19.6577861,11.1704312 19.1548194,11.7409975 L18.9212608,12.0059963 C18.7725881,12.1745838 18.6933189,12.3871832 18.6979588,12.6045943 L18.6979588,12.6046385 C18.6999613,12.6973417 18.820306,13.0806916 18.820306,13.0806916 C18.8700752,13.2209384 19.013766,13.3107722 19.1689834,13.3107722 C19.2035629,13.3107722 19.2387286,13.3063136 19.2735524,13.296955 L19.2909399,13.2924964 C19.3853987,13.2681287 19.4650099,13.2105644 19.512044,13.1326054 C19.5590781,13.0546464 19.5694812,12.9629144 19.540958,12.8779806 L19.4330678,12.5565211 C19.4391241,12.5058433 19.4597351,12.4577701 19.4942658,12.418614 L19.7278244,12.153571 Z" id="Path"></path>
                                <path d="M1.16733127,7.83253413 C1.16733127,8.43665644 1.65883836,8.92816353 2.26296066,8.92816353 C2.86712852,8.92816353 3.35863562,8.43665644 3.35863562,7.83253413 C3.35863562,7.22836627 2.86712852,6.73685918 2.26296066,6.73685918 C1.65883836,6.73690474 1.16733127,7.22841183 1.16733127,7.83253413 Z M2.67524532,7.83253413 C2.67524532,8.05986015 2.49024112,8.24481879 2.26291511,8.24481879 C2.03558909,8.24481879 1.85063045,8.05986015 1.85063045,7.83253413 C1.85063045,7.60516256 2.03558909,7.42020392 2.26291511,7.42020392 C2.49024112,7.42020392 2.67524532,7.60520812 2.67524532,7.83253413 Z" id="Shape"></path>
                                <path d="M22.5325487,8.92816353 C21.6263901,8.92816353 20.8890704,9.66542425 20.8890704,10.5716418 C20.8890704,11.4778593 21.6263311,12.2151201 22.5325487,12.2151201 C23.4387662,12.2151201 24.1760269,11.4778593 24.1760269,10.5716418 C24.1760269,9.66542425 23.4387662,8.92816353 22.5325487,8.92816353 L22.5325487,8.92816353 Z M22.5325487,11.3299115 C22.1144351,11.3299115 21.774279,10.9897553 21.774279,10.5716418 C21.774279,10.1535283 22.1144351,9.81337212 22.5325487,9.81337212 C22.9506622,9.81337212 23.2908183,10.1535283 23.2908183,10.5716418 C23.2908183,10.9897553 22.9506622,11.3299115 22.5325487,11.3299115 Z" id="Shape"></path>
                                <path d="M1.71513247,4.54555483 C2.62133154,4.54555483 3.35863562,3.80830054 3.35863562,2.90205168 C3.35863562,1.99580283 2.62138132,1.25859831 1.71513247,1.25859831 C0.808883615,1.25859831 0.0716790948,1.99585261 0.0716790948,2.90205168 C0.0716790948,3.80825076 0.808933393,4.54555483 1.71513247,4.54555483 Z M1.71513247,2.00526055 C2.20967176,2.00526055 2.61197337,2.40756217 2.61197337,2.90210146 C2.61197337,3.39664075 2.20967176,3.79894237 1.71513247,3.79894237 C1.22059318,3.79894237 0.818291559,3.39664075 0.818291559,2.90210146 C0.818291559,2.40756217 1.22064295,2.00526055 1.71513247,2.00526055 Z" id="Shape"></path>
                                <path d="M17.7703718,7.26980431 L17.8208964,7.19665936 L18.8790567,7.19665936 C19.1861845,7.19665936 19.4629226,7.00056462 19.5677646,6.70869497 L20.1954123,4.96121717 C20.4623638,4.21778991 21.0745591,3.65805352 21.8330369,3.46399452 C21.9884035,3.42427374 22.1470012,3.47081192 22.2571813,3.58855398 C22.3673615,3.70634338 22.404494,3.86896662 22.3565448,4.02363623 L21.9722956,5.26378634 C21.9143258,5.45093326 22.0173885,5.65015264 22.2024424,5.70876328 C22.3873559,5.76737393 22.5845845,5.66321931 22.6425543,5.47607239 L23.0268035,4.23592228 C23.1518742,3.83232313 23.0549456,3.40784571 22.7674377,3.10054224 C22.4799766,2.79323878 22.0661805,2.67175661 21.6606726,2.77553249 C20.6763091,3.0273973 19.8817289,3.75392311 19.5351742,4.71882097 L18.9075265,6.46629877 C18.9031718,6.47837123 18.8917464,6.48651423 18.8790567,6.48651423 L18.3112519,6.48651423 L18.4540226,6.27971997 C18.6579003,5.98453631 18.7288408,5.61398258 18.6486757,5.26321823 C18.5685107,4.91240653 18.3440297,4.61092625 18.0327813,4.43604118 C17.8978773,4.36024502 17.7538892,4.31242858 17.6078408,4.29046143 C17.7673281,3.84325937 17.6477829,3.32073458 17.2721027,2.99586685 C16.8008051,2.58838558 16.0981432,2.62625998 15.6724535,3.08198379 L15.461786,3.30747854 C15.3899559,3.10655481 15.2688186,2.92598857 15.1051638,2.78031413 C15.086621,2.76379142 15.0676567,2.74812089 15.0484583,2.73292378 C15.0738845,2.60164162 15.0825472,2.46709279 15.0735567,2.33046086 C15.0218614,1.54371475 14.394963,0.923994761 13.6152733,0.888818905 C13.3021051,0.874758032 12.995867,0.956945495 12.7340662,1.12259868 C12.4452471,0.753796645 12.0100987,0.538764699 11.5358043,0.538764699 C10.9982019,0.538764699 10.5183821,0.815531928 10.2434701,1.25620065 L9.51065269,0.528349237 C9.25657808,0.276011 8.90679237,0.143639948 8.55166856,0.16522836 C8.19617014,0.186769429 7.86478681,0.360470928 7.642413,0.6416884 C7.54604633,0.763549304 7.47548046,0.899139681 7.42973204,1.04107402 C7.02015029,0.807720331 6.49064871,0.840008263 6.11126934,1.16056778 C5.6355233,1.56260461 5.55554553,2.26938838 5.92916537,2.7697093 L6.11398521,3.01712386 C5.90603362,3.05532967 5.70992886,3.14618091 5.54060823,3.28508529 C5.01227727,3.71869991 4.91342886,4.4930895 5.31565902,5.0480916 L5.98671378,5.97388413 C5.81903204,6.01280008 5.66076219,6.08977982 5.52183124,6.20221946 C5.04589791,6.58735484 4.94630029,7.28514344 5.29500902,7.79071944 L5.62718838,8.27224518 L4.55863282,9.33978268 C4.4206852,9.47764552 4.41932727,9.70243013 4.55568282,9.84190263 C4.62437568,9.912207 4.71488917,9.9474302 4.80549632,9.9474302 C4.89465187,9.9474302 4.98390108,9.91329589 5.05231298,9.84493258 L11.7236678,3.17998381 C11.8962662,3.00756058 12.1731916,3.00050647 12.3541717,3.1637925 C12.4483376,3.24872586 12.5028424,3.36575778 12.5077122,3.4932525 C12.5125821,3.62069988 12.4672083,3.74161393 12.3798789,3.83364874 L9.2968011,7.06315208 C9.16161618,7.20376081 9.16475348,7.42854542 9.30382491,7.56522468 C9.37204951,7.63230973 9.46036221,7.66568655 9.54858126,7.66568655 C9.64012491,7.66568655 9.73157491,7.62970586 9.80045507,7.55812323 L13.8519289,3.3443114 C14.0648908,3.12269877 14.4114924,3.10906399 14.6409837,3.31334907 C14.7586559,3.4180718 14.8273956,3.56294141 14.8346535,3.72125643 C14.8418178,3.8796188 14.7865638,4.03026425 14.6789122,4.14549713 L10.5201146,8.59734962 C10.3868963,8.73989942 10.3932646,8.96463668 10.5343027,9.09932754 C10.6021527,9.16414012 10.6888265,9.19623868 10.7753598,9.19623868 C10.8685892,9.19623868 10.9616781,9.15893239 11.0306987,9.08498261 L16.1829908,3.56961678 C16.3513749,3.38938194 16.62919,3.37446889 16.8155083,3.53557715 C17.005198,3.69957333 17.0297813,3.99096955 16.8703876,4.18512323 L12.097194,9.95107561 C11.9720765,10.1009636 11.9908535,10.3249434 12.1391027,10.4514439 C12.2872583,10.5779444 12.5088829,10.5589598 12.6339535,10.4091192 L16.9937257,5.18609647 C17.1654345,4.98039109 17.4590297,4.92604132 17.6915178,5.05680271 C17.8313853,5.1353921 17.9283138,5.26549069 17.9642757,5.42309557 C18.0003313,5.58074779 17.9696607,5.74062513 17.8780702,5.8732329 L13.2630059,12.5568822 C13.1519829,12.717659 13.1908948,12.9390349 13.3499138,13.0512852 C13.4111614,13.0945094 13.4812122,13.1152456 13.5506075,13.1152456 C13.66149,13.1152456 13.7705932,13.0622688 13.8388646,12.9634166 L14.1068464,12.5752986 C14.408636,12.9940475 14.8846162,13.2737026 15.4099503,13.3071268 C15.4482067,13.3095413 15.4863226,13.3107722 15.5242511,13.3107722 C15.9714337,13.3107722 16.3927686,13.1427519 16.7210146,12.8310455 C17.0722051,12.4976561 17.2736011,12.0272086 17.2736011,11.5403331 C17.2736011,11.4778403 17.2703234,11.4150635 17.2638146,11.3528548 C18.2560916,11.1389117 18.9657773,10.2590419 18.9657773,9.22185125 C18.9658242,8.37545294 18.4927472,7.63032132 17.7703718,7.26980431 L17.7703718,7.26980431 Z M8.191113,1.08510302 C8.2910384,0.958744529 8.43404316,0.883800547 8.59376459,0.87409523 C8.75353284,0.864389913 8.90431062,0.921485582 9.01842411,1.03487209 L9.60598919,1.6185167 C9.22225507,1.76310225 8.89944078,2.0346144 8.68680665,2.38206474 L8.20118046,1.80230226 C8.02909712,1.59697563 8.02483601,1.29535332 8.191113,1.08510302 L8.191113,1.08510302 Z M6.13416696,7.76576967 L5.8711487,7.38446908 C5.73334156,7.18463424 5.77267489,6.90881387 5.96081934,6.7566061 C6.05943362,6.67678578 6.18263124,6.64208336 6.30798283,6.65884278 C6.43305347,6.67560221 6.54309315,6.74145633 6.61768601,6.84428535 L6.8020376,7.09856465 L6.13416696,7.76576967 Z M7.30709633,6.59393552 L5.88229315,4.62830114 C5.70164077,4.3790402 5.74598442,4.03121111 5.98329553,3.83644197 C6.10504156,3.73650088 6.25806696,3.6920458 6.41343363,3.71121971 C6.56898759,3.73034629 6.70665426,3.810498 6.80110109,3.93695118 L8.15383998,5.74796329 L7.30709633,6.59393552 Z M8.65791538,5.24442305 L7.42453442,3.59324094 L7.36169474,3.50915975 L6.4897122,2.34177584 C6.34197807,2.14392941 6.37363204,1.86441629 6.56168283,1.70553315 C6.75319871,1.5436674 7.04145585,1.56757562 7.20436141,1.75884138 L8.42149395,3.18774807 C8.41676459,3.24186113 8.41400189,3.2965423 8.41400189,3.35188628 C8.41400189,3.92554152 8.67444475,4.45365278 9.10411459,4.79864128 L8.65791538,5.24442305 Z M13.3482749,2.8492929 L13.1289448,3.07739151 C13.0632956,2.90956055 12.9594368,2.75815761 12.8218638,2.63392955 C12.3648479,2.22161929 11.6656979,2.23951494 11.2299876,2.67478657 L9.60973523,4.29344404 C9.30476142,4.08409325 9.11638284,3.73451248 9.11638284,3.35179159 C9.11638284,2.72463876 9.62041142,2.21428112 10.2403797,2.21300286 L10.2442194,2.21300286 C10.4763328,2.21300286 10.6765114,2.06481924 10.7423479,1.84415348 C10.8470027,1.49362584 11.1732352,1.2487678 11.5357575,1.2487678 C11.8286503,1.2487678 12.0941035,1.40040746 12.2458178,1.65445004 C12.3236884,1.78483269 12.4533011,1.87435832 12.6013162,1.90006557 C12.7501273,1.92582017 12.9028249,1.88482112 13.0202162,1.78729453 C13.1783456,1.65605971 13.3790392,1.58892732 13.5839471,1.59811186 C13.9987265,1.61681235 14.3451876,1.9591023 14.3726741,2.37737779 C14.374594,2.40625702 14.3746876,2.43489954 14.3737979,2.46330535 C14.0047202,2.43092273 13.6256686,2.56083195 13.3482749,2.8492929 L13.3482749,2.8492929 Z M17.0472003,10.6716362 C16.8888837,10.6979116 16.7505614,10.784786 16.6577067,10.9163049 C16.5660226,11.0460721 16.5300138,11.203961 16.5563297,11.3609978 C16.5662567,11.4199398 16.571267,11.4803021 16.571267,11.5403331 C16.571267,11.8362269 16.4536884,12.1107216 16.2403051,12.3133971 C16.0270622,12.5158358 15.7482638,12.6171971 15.4541067,12.598402 C15.0531876,12.5729314 14.7003114,12.3065323 14.5505638,11.9329013 L17.3615392,7.86197066 C17.9022321,8.0841514 18.2634432,8.61444044 18.2634432,9.22189859 C18.2634432,9.94506305 17.7519694,10.5547937 17.0472003,10.6716362 L17.0472003,10.6716362 Z" id="Shape"></path>
                                <path d="M21.9847226,17.4987155 C21.9847226,17.2858575 21.9333906,17.0747741 21.8363102,16.8882081 C21.7634098,16.7481551 21.7442278,16.5846589 21.7822765,16.4277006 C21.8186592,16.2777473 21.8341488,16.1226103 21.8283402,15.9666327 C21.7977662,15.144388 21.1539553,14.4605151 20.3626777,14.4096589 C19.924825,14.3815923 19.5093964,14.5369161 19.1913634,14.8470032 C18.8776531,15.152794 18.6977661,15.5841608 18.6977661,16.0304715 C18.6977661,16.5269378 18.9125948,16.9895468 19.2870479,17.299634 C19.4082634,17.399992 19.487873,17.5403251 19.5111525,17.694388 C19.5161956,17.7279652 19.5227697,17.7622896 19.5306946,17.7967074 C19.6566381,18.3406209 20.1179953,18.7473768 20.6526132,18.7858108 C20.6826018,18.787959 20.7124104,18.7890331 20.7421289,18.7890331 C21.0582257,18.7890331 21.3562213,18.6676601 21.5891963,18.4421931 C21.8405878,18.1990736 21.9847226,17.855129 21.9847226,17.4987155 L21.9847226,17.4987155 Z M21.1284244,17.930129 C21.0119369,18.0428625 20.8593819,18.098482 20.6993072,18.0870873 C20.4557506,18.0695748 20.2452896,17.8829154 20.1875186,17.6334914 C20.1839164,17.6178002 20.1808995,17.6022492 20.178513,17.5864179 C20.1289822,17.2584914 19.9620632,16.9622274 19.7085104,16.7523114 C19.4954377,16.5758793 19.3732316,16.3127722 19.3732316,16.0305649 C19.3732316,15.7730151 19.4729237,15.5340051 19.6539814,15.3574796 C19.8208553,15.1947772 20.0354589,15.1070748 20.2634359,15.1070748 C20.2825278,15.1070748 20.3017097,15.1076819 20.3208916,15.1089428 C20.7703165,15.1378033 21.1360342,15.5264397 21.153415,15.9937187 C21.156702,16.0830088 21.1479216,16.1715518 21.1272087,16.2568258 L21.1272087,16.2568725 C21.0478242,16.5840985 21.0886196,16.926502 21.2419401,17.2210381 C21.2866079,17.3068725 21.309257,17.4003189 21.309257,17.4987622 C21.309302,17.6640331 21.245047,17.8172554 21.1284244,17.930129 L21.1284244,17.930129 Z" id="Shape"></path>
                            </g>
                        </g>
                    </g>
                </g>
            </g>
        </g>
    </g>
</svg>