<?xml version="1.0" encoding="UTF-8"?>
<svg width="22px" height="22px" viewBox="0 0 22 22" version="1.1" xmlns="http://www.w3.org/2000/svg" xmlns:xlink="http://www.w3.org/1999/xlink">
    <!-- Generator: Sketch 54.1 (76490) - https://sketchapp.com -->
    <title>bath</title>
    <desc>Created with Sketch.</desc>
    <g id="Page-1" stroke="none" stroke-width="1" fill="none" fill-rule="evenodd">
        <g id="pc_products" transform="translate(-487.000000, -1726.000000)" fill="#00381F" fill-rule="nonzero">
            <g id="row01" transform="translate(99.000000, 1372.000000)">
                <g id="02" transform="translate(369.000000, 0.000000)">
                    <g id="Group-8" transform="translate(0.000000, 303.000000)">
                        <g id="tags">
                            <g id="Group-3" transform="translate(0.000000, 44.000000)">
                                <g id="bath" transform="translate(19.000000, 7.000000)">
                                    <path d="M18.6578366,16.6947895 C18.7309548,16.7257581 18.8142466,16.7282963 18.8893684,16.7018452 C18.9644903,16.6753941 19.0252809,16.6221231 19.0583523,16.5537642 C19.2581612,16.1419574 19.3610262,15.6948588 19.3599923,15.2426969 C19.3599923,15.0865677 19.2245565,14.96 19.057488,14.96 C18.8904195,14.96 18.7549837,15.0865677 18.7549837,15.2426969 C18.755926,15.6144792 18.6713303,15.9821061 18.5069302,16.3206604 C18.4381389,16.462919 18.505678,16.630363 18.6578366,16.6947895 L18.6578366,16.6947895 Z" id="Path"></path>
                                    <path d="M21.6617145,10.3188983 C21.4498343,10.1478692 21.1725522,10.0870005 20.910843,10.1540678 C20.3673198,10.2920919 19.7380357,10.4162376 19.0430388,10.5259345 C19.000931,9.07596349 17.8422268,7.92224967 16.4258481,7.92001571 C15.7832968,7.9177535 15.1628071,8.15988858 14.6846432,8.59948997 C14.1666452,8.45584039 13.617826,8.48095773 13.114403,8.67135379 C12.6963977,8.39799065 12.2105235,8.2533445 11.7145708,8.25461971 C11.0364497,8.25481729 10.3848948,8.52466905 9.89725774,9.0072886 C9.22217026,8.76108605 8.47324168,9.06294648 8.14305873,9.71432967 C7.30970246,9.74534632 6.53982617,10.1784021 6.06716376,10.8820216 C4.39283305,10.77303 2.72943598,10.5296315 1.09229251,10.1540678 C0.619622418,10.0348949 0.142118697,10.3307218 0.0257580946,10.8148156 C-0.0906025075,11.2989094 0.198243402,11.7879537 0.670913493,11.9071266 C0.814033856,11.9430585 0.963279994,11.9782299 1.11642435,12.0124508 L1.11642435,15.3250304 C1.11940919,17.6541155 2.72170373,19.6596825 4.95023092,20.1237461 L5.43936471,21.7644464 C5.4810891,21.9044136 5.6072168,22.0000224 5.75010854,22 L6.86388568,22 C7.04325387,21.9998951 7.18863494,21.8510004 7.18873735,21.6672972 L7.18873735,20.2205151 L14.8145838,20.2205151 L14.8145838,21.6672972 C14.8145838,21.8510439 14.9600249,22 15.1394355,22 L16.2532126,22 C16.3961044,22.0000224 16.5222321,21.9044136 16.5639565,21.7644464 L17.0532759,20.1237461 C19.2815423,19.6593795 20.8835229,17.6539142 20.8865256,15.3250304 L20.8865256,12.0126409 C21.0398556,11.97842 21.1891017,11.9432486 21.3320364,11.9071266 C21.6589844,11.8232582 21.9107133,11.555947 21.9807252,11.2182832 C22.0507372,10.8806194 21.9267985,10.5316059 21.6613432,10.3188983 L21.6617145,10.3188983 Z M8.23030461,10.3782144 C8.25183763,10.3782144 8.27281377,10.3797354 8.29397553,10.380876 L8.3427961,10.3835377 C8.48885247,10.3883256 8.62052006,10.2939617 8.66616273,10.1517864 C8.73714096,9.9180444 8.90822529,9.7301509 9.13094705,9.64133665 C9.3536688,9.5525224 9.60376516,9.57246262 9.81038312,9.69550819 C9.94552251,9.77511075 10.1168,9.74536959 10.2187681,9.62459496 C10.5931318,9.17749443 11.1394848,8.92014522 11.7145708,8.9200254 C12.1350676,8.91896884 12.5445857,9.05744003 12.8818092,9.31470602 C12.9767468,9.38663427 13.1022817,9.4002406 13.2098166,9.3502577 C13.6684084,9.1372421 14.1899244,9.11528822 14.6640383,9.28904038 C14.7840857,9.33257928 14.9179046,9.2999901 15.0059679,9.20576961 C15.3760513,8.80813902 15.8894758,8.58382293 16.4258481,8.58542139 C17.514063,8.58678318 18.395904,9.4899369 18.3972336,10.6044524 L18.3972336,10.6213727 C15.9439245,10.9319759 13.4737042,11.0812692 11.0017534,11.0683352 C9.57351985,11.0683352 8.1786996,11.0230876 6.87149649,10.9388662 C7.23769211,10.5807828 7.72400507,10.3801273 8.23030461,10.3782144 L8.23030461,10.3782144 Z M6.53921964,21.3345943 L5.9906844,21.3345943 L5.65655125,20.2142413 C5.73612444,20.2184238 5.81619265,20.2205151 5.89675586,20.2205151 L6.53903401,20.2205151 L6.53921964,21.3345943 Z M16.0128224,21.3345943 L15.4642872,21.3345943 L15.4642872,20.2205151 L16.1065653,20.2205151 C16.1871285,20.2205151 16.2671967,20.2184238 16.3467699,20.2142413 L16.0128224,21.3345943 Z M20.2368222,15.3250304 C20.2342684,17.3979019 18.7674533,19.1644217 16.7701909,19.4999758 C16.7631369,19.4999758 16.7564543,19.5026374 16.7494004,19.5037781 C16.5367522,19.5380116 16.3218245,19.5552375 16.1065653,19.5552995 L5.89694149,19.5552995 C5.68338029,19.5552684 5.47013975,19.5383613 5.25911844,19.5047287 C5.25039386,19.5032078 5.2418549,19.5007362 5.23294468,19.4999758 C3.23591048,19.1641091 1.76936239,17.3977216 1.76668457,15.3250304 L1.76668457,12.1461023 C4.16557492,12.6063729 7.50820576,12.8744363 11.0017534,12.8744363 C14.4953011,12.8744363 17.8397882,12.606563 20.2368222,12.1464825 L20.2368222,15.3250304 Z M21.3505994,11.0310725 C21.351513,11.1395239 21.2798926,11.2345509 21.1772214,11.2611127 C18.8213971,11.8546546 15.0174769,12.2090306 11.0017534,12.2090306 C6.98899998,12.2090306 3.18507977,11.8546546 0.826285405,11.2609226 C0.740721378,11.237953 0.675284256,11.1672652 0.657444926,11.0785344 C0.639605596,10.9898036 0.67245208,10.8983892 0.742195231,10.8426676 C0.781652102,10.8107121 0.830374025,10.7931202 0.880674856,10.7926671 C0.899452492,10.7927952 0.918147939,10.7952205 0.936363713,10.7998915 C3.23965485,11.3846881 7.00255093,11.7337409 11.0017534,11.7337409 C15.0009559,11.7337409 18.7636663,11.3846881 21.0671431,10.8000816 C21.1348344,10.7823651 21.2067202,10.7982019 21.2613116,10.8428577 C21.3178419,10.8880365 21.350802,10.9574447 21.3505994,11.0308823 L21.3505994,11.0310725 Z" id="Shape"></path>
                                    <path d="M8.35998071,2.64 C8.89386307,2.64 9.37517593,2.31839703 9.57948387,1.82515404 C9.7837918,1.33191105 9.67085986,0.764163819 9.29334802,0.386651981 C8.91583618,0.00914014405 8.34808895,-0.103791803 7.85484596,0.100516132 C7.36160297,0.304824066 7.04,0.786136931 7.04,1.32001929 C7.04084471,2.04867433 7.63132567,2.63915529 8.35998071,2.64 L8.35998071,2.64 Z M8.35998071,0.596158903 C8.75975776,0.596158903 9.0838411,0.920242238 9.0838411,1.32001929 C9.0838411,1.71979635 8.75975776,2.04387968 8.35998071,2.04387968 C7.96020365,2.04387968 7.63612032,1.71979635 7.63612032,1.32001929 C7.63658959,0.920436777 7.96039819,0.596628172 8.35998071,0.596158903 L8.35998071,0.596158903 Z" id="Shape"></path>
                                    <path d="M12.7595583,5.27999993 C13.2934791,5.28017079 13.7749216,4.95867617 13.9793626,4.46544674 C14.1838037,3.97221731 14.070976,3.40440081 13.6934974,3.0268014 C13.3160188,2.64920198 12.7482384,2.53619259 12.2549436,2.74047575 C11.7616487,2.94475891 11.44,3.42609846 11.44,3.96001925 C11.4408143,4.68852204 12.0310558,5.27895252 12.7595583,5.27999993 Z M12.7595583,3.37922775 C12.9945049,3.37905688 13.2064122,3.5204538 13.2964408,3.73746713 C13.3864694,3.95448045 13.3368837,4.20435848 13.1708117,4.37055128 C13.0047398,4.53674408 12.7548979,4.5865116 12.5378191,4.49664092 C12.3207403,4.40677024 12.1791893,4.19496591 12.1791892,3.96001925 C12.1795379,3.63956634 12.4391058,3.37980956 12.7595583,3.37922775 L12.7595583,3.37922775 Z" id="Shape"></path>
                                    <path d="M7.92,6.16 C7.92,6.64601058 8.31398942,7.04 8.8,7.04 C9.28601058,7.04 9.68,6.64601058 9.68,6.16 C9.68,5.67398942 9.28601058,5.28 8.8,5.28 C8.31424332,5.28061243 7.92061243,5.67424332 7.92,6.16 L7.92,6.16 Z M9.03157895,6.16 C9.03157895,6.28789752 8.92789752,6.39157895 8.8,6.39157895 C8.67210248,6.39157895 8.56842105,6.28789752 8.56842105,6.16 C8.56842105,6.03210248 8.67210248,5.92842105 8.8,5.92842105 C8.92785518,5.92852321 9.03147679,6.03214482 9.03157895,6.16 Z" id="Shape"></path>
                                </g>
                            </g>
                        </g>
                    </g>
                </g>
            </g>
        </g>
    </g>
</svg>