<?xml version="1.0" encoding="UTF-8"?>
<svg width="19px" height="19px" viewBox="0 0 19 19" version="1.1" xmlns="http://www.w3.org/2000/svg" xmlns:xlink="http://www.w3.org/1999/xlink">
    <!-- Generator: Sketch 54.1 (76490) - https://sketchapp.com -->
    <title>sns_instagram</title>
    <desc>Created with Sketch.</desc>
    <g id="Page-1" stroke="none" stroke-width="1" fill="none" fill-rule="evenodd">
        <g id="pc_nav_after" transform="translate(-1149.000000, -663.000000)" fill="#FFFFFF" fill-rule="nonzero">
            <g id="Group-21" transform="translate(1028.000000, 651.000000)">
                <g id="sns_instagram" transform="translate(121.000000, 11.000000)">
                    <path d="M9.5,2.712375 C12.0365,2.712375 12.3373333,2.721875 13.3395833,2.76779167 C15.9140833,2.88495833 17.116625,4.1065 17.2337917,6.662 C17.2797083,7.66345833 17.2884167,7.96429167 17.2884167,10.5007917 C17.2884167,13.0380833 17.2789167,13.338125 17.2337917,14.3395833 C17.1158333,16.8927083 15.9164583,18.116625 13.3395833,18.2337917 C12.3373333,18.2797083 12.0380833,18.2892083 9.5,18.2892083 C6.9635,18.2892083 6.66266667,18.2797083 5.66120833,18.2337917 C3.080375,18.1158333 1.88416667,16.88875 1.767,14.3387917 C1.72108333,13.3373333 1.71158333,13.0372917 1.71158333,10.5 C1.71158333,7.9635 1.721875,7.66345833 1.767,6.66120833 C1.88495833,4.1065 3.08433333,2.88416667 5.66120833,2.767 C6.66345833,2.721875 6.9635,2.712375 9.5,2.712375 L9.5,2.712375 Z M9.5,1 C6.91995833,1 6.59695833,1.01108333 5.583625,1.057 C2.13354167,1.21533333 0.216125,3.12958333 0.0577916667,6.58283333 C0.0110833333,7.59695833 0,7.91995833 0,10.5 C0,13.0800417 0.0110833333,13.4038333 0.057,14.4171667 C0.215333333,17.86725 2.12958333,19.7846667 5.58283333,19.943 C6.59695833,19.9889167 6.91995833,20 9.5,20 C12.0800417,20 12.4038333,19.9889167 13.4171667,19.943 C16.8640833,19.7846667 18.78625,17.8704167 18.9422083,14.4171667 C18.9889167,13.4038333 19,13.0800417 19,10.5 C19,7.91995833 18.9889167,7.59695833 18.943,6.583625 C18.7878333,3.13670833 16.8712083,1.216125 13.4179583,1.05779167 C12.4038333,1.01108333 12.0800417,1 9.5,1 Z M9.5,5.62175 C6.80595833,5.62175 4.62175,7.80595833 4.62175,10.5 C4.62175,13.1940417 6.80595833,15.3790417 9.5,15.3790417 C12.1940417,15.3790417 14.37825,13.1948333 14.37825,10.5 C14.37825,7.80595833 12.1940417,5.62175 9.5,5.62175 Z M9.5,13.6666667 C7.75120833,13.6666667 6.33333333,12.2495833 6.33333333,10.5 C6.33333333,8.75120833 7.75120833,7.33333333 9.5,7.33333333 C11.2487917,7.33333333 12.6666667,8.75120833 12.6666667,10.5 C12.6666667,12.2495833 11.2487917,13.6666667 9.5,13.6666667 Z M14.5714167,4.289375 C13.94125,4.289375 13.430625,4.8 13.430625,5.429375 C13.430625,6.05875 13.94125,6.569375 14.5714167,6.569375 C15.2007917,6.569375 15.710625,6.05875 15.710625,5.429375 C15.710625,4.8 15.2007917,4.289375 14.5714167,4.289375 Z" id="Shape"></path>
                </g>
            </g>
        </g>
    </g>
</svg>