<?xml version="1.0" encoding="UTF-8"?>
<svg width="20px" height="17px" viewBox="0 0 20 17" version="1.1" xmlns="http://www.w3.org/2000/svg" xmlns:xlink="http://www.w3.org/1999/xlink">
    <!-- Generator: Sketch 54.1 (76490) - https://sketchapp.com -->
    <title>Shape</title>
    <desc>Created with Sketch.</desc>
    <g id="Page-1" stroke="none" stroke-width="1" fill="none" fill-rule="evenodd">
        <g id="pc_top" transform="translate(-1098.000000, -6825.000000)" fill="#1B4E37" fill-rule="nonzero">
            <g id="Group-11" transform="translate(0.000000, 6513.000000)">
                <path d="M1115.9648,316.575975 C1115.9648,316.398375 1115.9648,316.221575 1115.9528,316.045575 C1116.75587,315.464704 1117.44908,314.745479 1118,313.921575 C1117.2511,314.253417 1116.45666,314.471038 1115.6432,314.567175 C1116.4998,314.054361 1117.1409,313.247793 1117.4472,312.297575 C1116.64173,312.775539 1115.76052,313.112385 1114.8416,313.293575 C1113.56967,311.941091 1111.54858,311.610065 1109.91164,312.486119 C1108.2747,313.362173 1107.42902,315.227436 1107.8488,317.035975 C1104.54952,316.870575 1101.47558,315.312234 1099.392,312.748775 C1098.3029,314.623691 1098.85919,317.022263 1100.6624,318.226375 C1100.00939,318.207021 1099.37062,318.030866 1098.8,317.712775 C1098.8,317.729575 1098.8,317.747175 1098.8,317.764775 C1098.80053,319.71805 1100.1774,321.400403 1102.092,321.787175 C1101.4879,321.951927 1100.85406,321.976011 1100.2392,321.857575 C1100.77676,323.529113 1102.31726,324.674202 1104.0728,324.707175 C1102.61979,325.849121 1100.82485,326.469037 1098.9768,326.467175 C1098.65032,326.466548 1098.32416,326.446781 1098,326.407975 C1099.87651,327.612196 1102.05993,328.250949 1104.2896,328.247975 C1111.8368,328.251175 1115.9648,321.998375 1115.9648,316.575975 Z" id="Shape"></path>
            </g>
        </g>
    </g>
</svg>