<?xml version="1.0" encoding="UTF-8"?>
<svg width="24px" height="25px" viewBox="0 0 24 25" version="1.1" xmlns="http://www.w3.org/2000/svg" xmlns:xlink="http://www.w3.org/1999/xlink">
    <!-- Generator: Sketch 54.1 (76490) - https://sketchapp.com -->
    <title>fork</title>
    <desc>Created with Sketch.</desc>
    <g id="Page-1" stroke="none" stroke-width="1" fill="none" fill-rule="evenodd">
        <g id="pc_nav_after" transform="translate(-100.000000, -427.000000)" fill="#FFFFFF" fill-rule="nonzero" stroke="#00381F" stroke-width="0.2">
            <g id="Group-17" transform="translate(98.000000, 116.000000)">
                <g id="Group-19" transform="translate(0.000000, 260.000000)">
                    <g id="tags" transform="translate(1.000000, 45.000000)">
                        <g id="Group-16" transform="translate(0.464117, 0.000000)">
                            <g id="fork" transform="translate(0.900000, 5.549209)">
                                <path d="M11.6867784,0.627402628 C6.25607182,0.625516147 1.59531654,4.35695726 0.597737406,9.50538506 C-0.399841728,14.6538128 2.54913577,19.7567228 7.61405352,21.6464168 L7.55514356,23.1775926 C7.53174005,23.7521225 7.83621017,24.2929384 8.34856937,24.5869176 C8.86092858,24.8808967 9.49901531,24.8808967 10.0113745,24.5869176 C10.5237337,24.2929384 10.8282038,23.7521225 10.8048003,23.1775926 L10.7726296,22.3459223 C11.0767888,22.3696959 11.3817836,22.3862164 11.6867784,22.3862164 C12.2929685,22.3862624 12.8981953,22.3396418 13.4966926,22.2467989 L13.4260843,23.338769 C13.3927253,23.8411049 13.6458471,24.3210562 14.0864446,24.5908967 C14.5270421,24.8607371 15.0850944,24.8775831 15.5423275,24.6348454 C15.9995605,24.3921078 16.2833095,23.928363 16.2825902,23.4249983 L16.2825902,21.4372904 C21.1455485,19.3463976 23.8296609,14.2601731 22.7204961,9.23786257 C21.6113313,4.21555203 17.0111184,0.62565149 11.6867784,0.627402628 L11.6867784,0.627402628 Z M12.9401816,17.5509245 L12.9401816,11.9097505 C12.9419898,10.5082262 14.0089642,9.319874 15.4469881,9.11777236 L15.4469881,17.5509245 L12.9401816,17.5509245 Z M15.8647891,8.28328156 C13.7890372,8.28550222 12.106882,9.90782757 12.1045795,11.9097505 L12.1045795,17.9538655 C12.105162,18.1135694 12.2034897,18.2578696 12.3552601,18.3217506 C11.776098,18.3753332 11.192331,18.3608556 10.6167898,18.2786359 L10.4467448,13.846285 C10.9390418,13.6723461 11.2670695,13.221275 11.2689773,12.7156325 L11.2689773,8.28328156 L10.4333752,8.28328156 L10.4333752,10.7009275 L9.59777302,10.7009275 L9.59777302,8.28328156 L8.76217087,8.28328156 L8.76217087,10.7009275 L7.92656872,10.7009275 L7.92656872,8.28328156 L7.09096657,8.28328156 L7.09096657,12.7156325 C7.09293882,13.221378 7.42115528,13.6724794 7.91361689,13.846285 L7.78368075,17.2285717 C5.22879467,15.6076156 4.03656646,12.5914466 4.82422534,9.74156724 C5.61188422,6.89168791 8.20257149,4.84800213 11.2550608,4.66854773 C14.3075502,4.48909334 17.1364443,6.21416451 18.2771947,8.95067358 C19.4179451,11.6871827 18.6144108,14.8206816 16.2825902,16.7289248 L16.2825902,8.68622256 C16.2825902,8.46368439 16.0955343,8.28328156 15.8647891,8.28328156 L15.8647891,8.28328156 Z M7.92656872,12.7156325 L7.92656872,11.5068095 L10.4333752,11.5068095 L10.4333752,12.7156325 C10.4333752,12.9381707 10.2463193,13.1185735 10.0155741,13.1185735 L8.34436979,13.1185735 C8.11362463,13.1185735 7.92656872,12.9381707 7.92656872,12.7156325 Z M9.74901701,23.7646776 C9.43399995,24.0660416 8.92594393,24.0660416 8.61092688,23.7646776 C8.4613192,23.6160889 8.38156261,23.414757 8.39032791,23.2078131 L8.74713003,13.9244555 L9.61281386,13.9244555 L9.96961597,23.2078131 C9.97838127,23.414757 9.89862468,23.6160889 9.74901701,23.7646776 L9.74901701,23.7646776 Z M10.7412946,21.5295639 L10.6477071,19.0901591 C11.671721,19.2294354 12.7143502,19.1678994 13.7131136,18.9092386 L13.5510068,21.4102933 C12.6241018,21.5703672 11.6791978,21.6104777 10.7412946,21.5295639 L10.7412946,21.5295639 Z M15.4469881,23.4249983 C15.4465278,23.7412636 15.1808037,23.9975365 14.8528749,23.9979804 C14.6888647,23.9979568 14.5321606,23.9325458 14.4198847,23.8172428 C14.3076087,23.7019398 14.2497501,23.5470032 14.2600152,23.3891366 L14.5859,18.3568065 L15.4469881,18.3568065 L15.4469881,23.4249983 Z M16.2825902,20.5548496 L16.2825902,17.745545 C19.1580528,15.7757103 20.3410297,12.2123304 19.1865773,8.9981134 C18.032125,5.7838964 14.8171375,3.68976866 11.294384,3.85742119 C7.7716305,4.02507371 4.78603945,6.41429524 3.965316,9.72251348 C3.14459255,13.0307317 4.68558631,16.4644742 7.74816766,18.1517095 L7.646642,20.7950024 C3.11495903,18.9599447 0.523803864,14.3253008 1.42426694,9.66541321 C2.32473001,5.00552561 6.47298483,1.58219408 11.3858461,1.44465783 C16.2987074,1.30712158 20.6458754,4.49262254 21.8250935,9.09428916 C23.0043116,13.6959558 20.6962724,18.4677533 16.2825902,20.5532378 L16.2825902,20.5548496 Z" id="Shape"></path>
                            </g>
                        </g>
                    </g>
                </g>
            </g>
        </g>
    </g>
</svg>