<?xml version="1.0" encoding="UTF-8"?>
<svg width="20px" height="20px" viewBox="0 0 20 20" version="1.1" xmlns="http://www.w3.org/2000/svg" xmlns:xlink="http://www.w3.org/1999/xlink">
    <!-- Generator: Sketch 54.1 (76490) - https://sketchapp.com -->
    <title>magnifiying-glass</title>
    <desc>Created with Sketch.</desc>
    <g id="Page-1" stroke="none" stroke-width="1" fill="none" fill-rule="evenodd">
        <g id="pc_nav_after" transform="translate(-629.000000, -628.000000)" fill="#00381F" fill-rule="nonzero" stroke="#00381F">
            <g id="Group-17" transform="translate(98.000000, 116.000000)">
                <g id="Group-19" transform="translate(0.000000, 260.000000)">
                    <g id="Group-13" transform="translate(3.000000, 242.000000)">
                        <g id="Group-20" transform="translate(503.000000, 0.000000)">
                            <g id="magnifiying-glass" transform="translate(35.000000, 20.000000) scale(-1, 1) translate(-35.000000, -20.000000) translate(26.000000, 11.000000)">
                                <path d="M17.7949388,16.8053436 L13.4020737,12.4125575 C14.4939915,11.0994899 15.1518296,9.41336623 15.1518296,7.5761726 C15.1518296,3.39865425 11.7532796,0 7.57596144,0 C3.39854993,0 0,3.39865425 0,7.5761726 C0,11.753411 3.39854993,15.1517853 7.57596144,15.1517853 C9.4130558,15.1517853 11.0992673,14.4940385 12.4123307,13.4021171 L16.8052891,17.7949965 C16.9418955,17.9316966 17.1210514,18 17.300114,18 C17.4791766,18 17.6583325,17.9316966 17.7950321,17.7949965 C18.0683382,17.5216895 18.0683382,17.0786505 17.7949388,16.8053436 Z M1.3996554,7.5761726 C1.3996554,4.17042674 4.17031992,1.39965993 7.57596144,1.39965993 C10.9815096,1.39965993 13.7520809,4.17042674 13.7520809,7.5761726 C13.7520809,10.9816385 10.9815096,13.7521254 7.57596144,13.7521254 C4.17031992,13.7521254 1.3996554,10.9816385 1.3996554,7.5761726 Z" id="Shape"></path>
                            </g>
                        </g>
                    </g>
                </g>
            </g>
        </g>
    </g>
</svg>