<?xml version="1.0" encoding="UTF-8"?>
<svg width="179px" height="213px" viewBox="0 0 179 213" version="1.1" xmlns="http://www.w3.org/2000/svg" xmlns:xlink="http://www.w3.org/1999/xlink">
    <!-- Generator: Sketch 54.1 (76490) - https://sketchapp.com -->
    <title>Group</title>
    <desc>Created with Sketch.</desc>
    <defs>
        <polygon id="path-1" points="103.560591 0 85.5 10.289818 67.4409436 0 65.7770238 2.99323206 82.0416869 12.2604402 0 59.0067679 1.66391986 62 85.5 14.2310623 169.337615 62 171 59.0067679 88.9583131 12.2604402 105.224511 2.99323206"></polygon>
        <filter x="-3.5%" y="-9.7%" width="107.0%" height="119.4%" filterUnits="objectBoundingBox" id="filter-2">
            <feOffset dx="0" dy="0" in="SourceAlpha" result="shadowOffsetOuter1"></feOffset>
            <feGaussianBlur stdDeviation="2" in="shadowOffsetOuter1" result="shadowBlurOuter1"></feGaussianBlur>
            <feColorMatrix values="0 0 0 0 0   0 0 0 0 0   0 0 0 0 0  0 0 0 0.1 0" type="matrix" in="shadowBlurOuter1"></feColorMatrix>
        </filter>
        <polygon id="path-3" points="18 157 147 157 147 154 18 154"></polygon>
        <filter x="-4.7%" y="-200.0%" width="109.3%" height="500.0%" filterUnits="objectBoundingBox" id="filter-4">
            <feOffset dx="0" dy="0" in="SourceAlpha" result="shadowOffsetOuter1"></feOffset>
            <feGaussianBlur stdDeviation="2" in="shadowOffsetOuter1" result="shadowBlurOuter1"></feGaussianBlur>
            <feColorMatrix values="0 0 0 0 0   0 0 0 0 0   0 0 0 0 0  0 0 0 0.1 0" type="matrix" in="shadowBlurOuter1"></feColorMatrix>
        </filter>
        <path d="M7.72608214,11.2625333 C7.72608214,12.3405333 7.76601071,13.0592 8.39718929,13.0592 C9.14661786,13.0592 10.054225,12.1398667 11.354975,10.7040889 L15.3770107,6.30808889 C15.8899393,5.78853333 17.0340464,4.47097778 17.5070464,3.8332 C18.2165464,2.91386667 18.256475,2.59342222 17.783475,2.47364444 L16.5610464,2.11431111 C16.2446893,1.83431111 16.3245464,1.27586667 16.6393679,0.955422222 C18.2964036,1.03631111 19.5971536,1.0752 21.0560821,1.0752 C22.7530464,1.0752 23.975475,0.994311111 25.394475,0.955422222 C25.8290821,1.0752 25.9074036,1.91364444 25.512725,2.11431111 C21.8454393,2.63386667 20.7796536,3.59208889 18.0599036,6.2692 C16.3629393,7.98653333 14.7857607,9.62453333 13.2485107,11.1816444 C12.773975,11.6623111 12.6956536,11.9018667 13.1302607,12.5007556 C16.2446893,16.6556444 19.9918321,21.4078667 22.8313679,24.7647556 C23.6591179,25.7634222 24.566725,26.1227556 25.749225,26.2814222 L26.6967607,26.4012 C26.9716536,26.6018667 26.9332607,27.4403111 26.6169036,27.5616444 C25.2362964,27.4807556 23.6591179,27.4403111 21.5690107,27.4403111 C19.6370821,27.4403111 17.8617964,27.4807556 16.1264393,27.5616444 C15.6918321,27.4014222 15.6918321,26.6018667 16.0481179,26.4012 L17.1123679,26.2425333 C17.7435464,26.1632 17.8218679,25.7229778 17.3887964,25.1645333 C15.7317607,23.0878667 11.0386179,16.6152 9.57968929,15.0969778 C9.30326071,14.8169778 8.98843929,14.4980889 8.63368929,14.4980889 C7.64776071,14.4980889 7.72608214,15.4563111 7.72608214,16.6152 L7.72608214,21.6878667 C7.72608214,25.9236444 8.08083214,26.0434222 9.93443929,26.2814222 L10.9203679,26.4012 C11.1967964,26.6018667 11.1568679,27.4014222 10.8420464,27.5616444 C8.98843929,27.4807556 7.21468929,27.4403111 5.47779643,27.4403111 C3.74243929,27.4403111 1.88883214,27.4807556 0.469832143,27.5616444 C0.153475,27.4014222 0.115082143,26.6018667 0.391510714,26.4012 L0.942832143,26.3234222 C2.79643929,26.0434222 3.15118929,25.9236444 3.15118929,21.6878667 L3.15118929,6.82764444 C3.15118929,2.59342222 2.79643929,2.51408889 0.942832143,2.23408889 L0.193403571,2.11431111 C-0.0814892857,1.83431111 -0.0430964286,1.11564444 0.271725,0.955422222 C1.88883214,1.03631111 3.66411786,1.0752 5.47779643,1.0752 C7.21468929,1.0752 8.98843929,1.03631111 10.5256893,0.955422222 C10.8420464,1.11564444 10.881975,1.91364444 10.6055464,2.11431111 L9.93443929,2.23408889 C8.08083214,2.55297778 7.72608214,2.59342222 7.72608214,6.82764444 L7.72608214,11.2625333 Z" id="path-5"></path>
        <filter x="-22.3%" y="-22.6%" width="144.7%" height="145.1%" filterUnits="objectBoundingBox" id="filter-6">
            <feOffset dx="0" dy="0" in="SourceAlpha" result="shadowOffsetOuter1"></feOffset>
            <feGaussianBlur stdDeviation="2" in="shadowOffsetOuter1" result="shadowBlurOuter1"></feGaussianBlur>
            <feColorMatrix values="0 0 0 0 0   0 0 0 0 0   0 0 0 0 0  0 0 0 0.1 0" type="matrix" in="shadowBlurOuter1"></feColorMatrix>
        </filter>
        <path d="M35.4544786,26.4019778 C38.1757643,26.4019778 38.9651214,23.1275333 38.9651214,20.0506444 C38.9651214,16.6953111 37.8210143,12.7410889 34.9031571,12.7410889 C32.8913714,12.7410889 31.3141929,14.8177556 31.3141929,19.2510889 C31.3141929,22.8864222 32.6149429,26.4019778 35.4544786,26.4019778 M43.6183357,19.3708667 C43.6183357,25.0439778 39.6746214,27.9995333 34.9814786,27.9995333 C30.4465143,27.9995333 26.6594429,25.0828667 26.6594429,19.8515333 C26.6594429,14.4988667 30.6830143,11.1419778 35.2963,11.1419778 C39.7529429,11.1419778 43.6183357,14.1784222 43.6183357,19.3708667" id="path-7"></path>
        <filter x="-35.4%" y="-35.6%" width="170.8%" height="171.2%" filterUnits="objectBoundingBox" id="filter-8">
            <feOffset dx="0" dy="0" in="SourceAlpha" result="shadowOffsetOuter1"></feOffset>
            <feGaussianBlur stdDeviation="2" in="shadowOffsetOuter1" result="shadowBlurOuter1"></feGaussianBlur>
            <feColorMatrix values="0 0 0 0 0   0 0 0 0 0   0 0 0 0 0  0 0 0 0.1 0" type="matrix" in="shadowBlurOuter1"></feColorMatrix>
        </filter>
        <path d="M47.5250393,16.8149333 C47.5250393,15.0182667 47.5250393,14.5376 46.5391107,13.9387111 L46.0661107,13.6602667 C45.9478607,13.4984889 45.9478607,12.9400444 46.1060393,12.7409333 C47.8413964,12.2602667 49.9698964,11.3020444 51.2322536,10.5833778 C51.5071464,10.5833778 51.665325,10.7436 51.7451821,10.9022667 C51.665325,11.6613778 51.665325,12.4204889 51.665325,12.7409333 C51.665325,13.0209333 51.783575,13.0987111 52.020075,13.1407111 C53.9535393,12.1016 54.9793964,11.1433778 57.6607536,11.1433778 C59.3561821,11.1433778 60.6569321,12.0611556 61.2097893,12.8202667 C61.4462893,13.1796 61.6827893,13.4191556 61.8409679,13.4191556 C61.9976107,13.4191556 62.2356464,13.2993778 62.7086464,13.0209333 C64.5622536,11.8604889 65.9029321,11.1433778 67.7565393,11.1433778 C71.069075,11.1433778 72.5679321,13.3787111 72.5679321,16.4960444 L72.5679321,22.6871556 C72.5679321,25.6442667 72.7261107,26.0829333 74.0667893,26.2820444 L74.9344679,26.4018222 C75.2892179,26.6818222 75.0926464,27.4020444 74.9344679,27.5607111 C73.2390393,27.4798222 71.8983607,27.4409333 70.4378964,27.4409333 C69.1371464,27.4409333 67.7964679,27.4798222 66.3759321,27.5607111 C66.0611107,27.4020444 66.0211821,26.6818222 66.2976107,26.4018222 L66.9287893,26.2820444 C68.2694679,26.0440444 68.4276464,25.6442667 68.4276464,22.6871556 L68.4276464,17.2536 C68.4276464,15.1380444 67.7166107,13.5404889 65.2333607,13.5404889 C64.0892536,13.5404889 63.0633964,14.1378222 62.5903964,14.7382667 C62.1957179,15.2173778 62.1158607,15.6964889 62.1158607,16.8149333 L62.1158607,22.6871556 C62.1158607,25.6442667 62.2740393,26.1218222 63.6162536,26.3224889 L64.2075036,26.4018222 C64.4823964,26.6818222 64.4440036,27.4020444 64.1276464,27.5607111 C62.748575,27.4798222 61.4462893,27.4409333 59.9873607,27.4409333 C58.6866107,27.4409333 57.3443964,27.4798222 56.0436464,27.5607111 C55.7272893,27.4020444 55.6888964,26.6818222 55.965325,26.4018222 L56.4782536,26.3224889 C57.8189321,26.1218222 57.975575,25.6442667 57.975575,22.6871556 L57.975575,17.2536 C57.975575,15.1380444 57.266075,13.5404889 54.9793964,13.5404889 C53.6371821,13.5404889 52.6128607,14.1782667 52.1782536,14.7771556 C51.7052536,15.4180444 51.665325,15.7758222 51.665325,17.3344889 L51.665325,22.6871556 C51.665325,25.6442667 51.8235036,26.1218222 53.1641821,26.3224889 L53.7554321,26.4018222 C54.0318607,26.6818222 53.9919321,27.4020444 53.6771107,27.5607111 C52.2965036,27.4798222 50.955825,27.4409333 49.4968964,27.4409333 C48.1961464,27.4409333 46.8938607,27.4798222 45.3950036,27.5607111 C45.0801821,27.4020444 45.0402536,26.6818222 45.3166821,26.4018222 L46.0261821,26.2820444 C47.3668607,26.0440444 47.5250393,25.6442667 47.5250393,22.6871556 L47.5250393,16.8149333 Z" id="path-9"></path>
        <filter x="-20.0%" y="-35.3%" width="140.0%" height="170.7%" filterUnits="objectBoundingBox" id="filter-10">
            <feOffset dx="0" dy="0" in="SourceAlpha" result="shadowOffsetOuter1"></feOffset>
            <feGaussianBlur stdDeviation="2" in="shadowOffsetOuter1" result="shadowBlurOuter1"></feGaussianBlur>
            <feColorMatrix values="0 0 0 0 0   0 0 0 0 0   0 0 0 0 0  0 0 0 0.1 0" type="matrix" in="shadowBlurOuter1"></feColorMatrix>
        </filter>
        <path d="M85.1521893,26.4019778 C87.873475,26.4019778 88.6628321,23.1275333 88.6628321,20.0506444 C88.6628321,16.6953111 87.518725,12.7410889 84.6008679,12.7410889 C82.5890821,12.7410889 81.0119036,14.8177556 81.0119036,19.2510889 C81.0119036,22.8864222 82.3126536,26.4019778 85.1521893,26.4019778 M93.3160464,19.3708667 C93.3160464,25.0439778 89.3723321,27.9995333 84.6791893,27.9995333 C80.144225,27.9995333 76.3571536,25.0828667 76.3571536,19.8515333 C76.3571536,14.4988667 80.380725,11.1419778 84.9940107,11.1419778 C89.4506536,11.1419778 93.3160464,14.1784222 93.3160464,19.3708667" id="path-11"></path>
        <filter x="-35.4%" y="-35.6%" width="170.8%" height="171.2%" filterUnits="objectBoundingBox" id="filter-12">
            <feOffset dx="0" dy="0" in="SourceAlpha" result="shadowOffsetOuter1"></feOffset>
            <feGaussianBlur stdDeviation="2" in="shadowOffsetOuter1" result="shadowBlurOuter1"></feGaussianBlur>
            <feColorMatrix values="0 0 0 0 0   0 0 0 0 0   0 0 0 0 0  0 0 0 0.1 0" type="matrix" in="shadowBlurOuter1"></feColorMatrix>
        </filter>
        <path d="M101.757868,22.6877778 C101.757868,25.6433333 101.916046,26.1224444 103.256725,26.3231111 L103.847975,26.4024444 C104.124404,26.6808889 104.084475,27.4011111 103.769654,27.5613333 C102.389046,27.4804444 101.048368,27.4415556 99.5879036,27.4415556 C98.3270821,27.4415556 96.9864036,27.4804444 95.3293679,27.5613333 C95.0145464,27.4011111 94.9746179,26.6808889 95.2510464,26.4024444 L96.118725,26.2826667 C97.4594036,26.0835556 97.6175821,25.6433333 97.6175821,22.6877778 L97.6175821,16.8155556 C97.6175821,15.0173333 97.6175821,14.5382222 96.6316536,13.9393333 L96.1586536,13.6593333 C96.0388679,13.4991111 96.0388679,12.9391111 96.1970464,12.74 C97.892475,12.2608889 100.062439,11.3026667 101.323261,10.584 C101.599689,10.584 101.757868,10.7426667 101.836189,10.9028889 C101.757868,11.662 101.757868,12.4195556 101.757868,12.74 C101.757868,13.02 101.876118,13.0993333 102.112618,13.1397778 C103.966225,12.1006667 105.070404,11.1424444 107.516796,11.1424444 C110.711082,11.1424444 112.208404,13.3793333 112.208404,16.4966667 L112.208404,22.6877778 C112.208404,25.6433333 112.366582,26.1224444 113.707261,26.2826667 L114.614868,26.4024444 C114.891296,26.6808889 114.851368,27.4011111 114.536546,27.5613333 C112.879511,27.4804444 111.538832,27.4415556 110.078368,27.4415556 C108.777618,27.4415556 107.436939,27.4804444 106.056332,27.5613333 C105.741511,27.4011111 105.701582,26.6808889 105.978011,26.4024444 L106.569261,26.3231111 C107.909939,26.1224444 108.068118,25.6433333 108.068118,22.6877778 L108.068118,17.1748889 C108.068118,15.1371111 107.278761,13.5395556 104.912225,13.5395556 C103.689796,13.5395556 102.705404,14.1773333 102.310725,14.7777778 C101.797796,15.4964444 101.757868,15.8557778 101.757868,17.3351111 L101.757868,22.6877778 Z" id="path-13"></path>
        <filter x="-30.4%" y="-35.3%" width="160.8%" height="170.7%" filterUnits="objectBoundingBox" id="filter-14">
            <feOffset dx="0" dy="0" in="SourceAlpha" result="shadowOffsetOuter1"></feOffset>
            <feGaussianBlur stdDeviation="2" in="shadowOffsetOuter1" result="shadowBlurOuter1"></feGaussianBlur>
            <feColorMatrix values="0 0 0 0 0   0 0 0 0 0   0 0 0 0 0  0 0 0 0.1 0" type="matrix" in="shadowBlurOuter1"></feColorMatrix>
        </filter>
        <path d="M117.102264,26.7224222 C116.707586,25.9633111 116.471086,23.9255333 116.550943,22.2082 C116.785907,21.8893111 117.378693,21.8473111 117.653586,22.1288667 C118.363086,24.3642 119.822014,26.4828667 121.913657,26.4828667 C123.136086,26.4828667 124.122014,25.6444222 124.122014,24.2444222 C124.122014,22.7666444 122.821264,21.8084222 121.440657,21.1286444 C119.388943,20.1315333 117.260443,18.6537556 117.260443,16.0964222 C117.220514,12.9806444 119.861943,11.1419778 123.136086,11.1419778 C124.753193,11.1419778 126.25205,11.6210889 126.803371,11.9415333 C127.19805,12.7799778 127.394621,14.0182 127.394621,15.8164222 C127.276371,16.1353111 126.605264,16.2550889 126.330371,16.0155333 C125.739121,14.1784222 124.476764,12.6602 122.939514,12.6602 C121.677157,12.6602 120.729621,13.5795333 120.729621,14.7384222 C120.729621,15.8957556 121.873729,16.7342 123.372586,17.4544222 C125.502621,18.4919778 127.750907,19.8515333 127.750907,23.0062 C127.750907,26.4828667 124.713264,27.9995333 121.598836,27.9995333 C119.981729,27.9995333 118.363086,27.6806444 117.102264,26.7224222" id="path-15"></path>
        <filter x="-53.5%" y="-35.6%" width="207.0%" height="171.2%" filterUnits="objectBoundingBox" id="filter-16">
            <feOffset dx="0" dy="0" in="SourceAlpha" result="shadowOffsetOuter1"></feOffset>
            <feGaussianBlur stdDeviation="2" in="shadowOffsetOuter1" result="shadowBlurOuter1"></feGaussianBlur>
            <feColorMatrix values="0 0 0 0 0   0 0 0 0 0   0 0 0 0 0  0 0 0 0.1 0" type="matrix" in="shadowBlurOuter1"></feColorMatrix>
        </filter>
        <path d="M7.72608214,11.2625333 C7.72608214,12.3405333 7.76601071,13.0592 8.39718929,13.0592 C9.14661786,13.0592 10.054225,12.1398667 11.354975,10.7040889 L15.3770107,6.30808889 C15.8899393,5.78853333 17.0340464,4.47097778 17.5070464,3.8332 C18.2165464,2.91386667 18.256475,2.59342222 17.783475,2.47364444 L16.5610464,2.11431111 C16.2446893,1.83431111 16.3245464,1.27586667 16.6393679,0.955422222 C18.2964036,1.03631111 19.5971536,1.0752 21.0560821,1.0752 C22.7530464,1.0752 23.975475,0.994311111 25.394475,0.955422222 C25.8290821,1.0752 25.9074036,1.91364444 25.512725,2.11431111 C21.8454393,2.63386667 20.7796536,3.59208889 18.0599036,6.2692 C16.3629393,7.98653333 14.7857607,9.62453333 13.2485107,11.1816444 C12.773975,11.6623111 12.6956536,11.9018667 13.1302607,12.5007556 C16.2446893,16.6556444 19.9918321,21.4078667 22.8313679,24.7647556 C23.6591179,25.7634222 24.566725,26.1227556 25.749225,26.2814222 L26.6967607,26.4012 C26.9716536,26.6018667 26.9332607,27.4403111 26.6169036,27.5616444 C25.2362964,27.4807556 23.6591179,27.4403111 21.5690107,27.4403111 C19.6370821,27.4403111 17.8617964,27.4807556 16.1264393,27.5616444 C15.6918321,27.4014222 15.6918321,26.6018667 16.0481179,26.4012 L17.1123679,26.2425333 C17.7435464,26.1632 17.8218679,25.7229778 17.3887964,25.1645333 C15.7317607,23.0878667 11.0386179,16.6152 9.57968929,15.0969778 C9.30326071,14.8169778 8.98843929,14.4980889 8.63368929,14.4980889 C7.64776071,14.4980889 7.72608214,15.4563111 7.72608214,16.6152 L7.72608214,21.6878667 C7.72608214,25.9236444 8.08083214,26.0434222 9.93443929,26.2814222 L10.9203679,26.4012 C11.1967964,26.6018667 11.1568679,27.4014222 10.8420464,27.5616444 C8.98843929,27.4807556 7.21468929,27.4403111 5.47779643,27.4403111 C3.74243929,27.4403111 1.88883214,27.4807556 0.469832143,27.5616444 C0.153475,27.4014222 0.115082143,26.6018667 0.391510714,26.4012 L0.942832143,26.3234222 C2.79643929,26.0434222 3.15118929,25.9236444 3.15118929,21.6878667 L3.15118929,6.82764444 C3.15118929,2.59342222 2.79643929,2.51408889 0.942832143,2.23408889 L0.193403571,2.11431111 C-0.0814892857,1.83431111 -0.0430964286,1.11564444 0.271725,0.955422222 C1.88883214,1.03631111 3.66411786,1.0752 5.47779643,1.0752 C7.21468929,1.0752 8.98843929,1.03631111 10.5256893,0.955422222 C10.8420464,1.11564444 10.881975,1.91364444 10.6055464,2.11431111 L9.93443929,2.23408889 C8.08083214,2.55297778 7.72608214,2.59342222 7.72608214,6.82764444 L7.72608214,11.2625333 Z" id="path-17"></path>
        <filter x="-22.3%" y="-22.6%" width="144.7%" height="145.1%" filterUnits="objectBoundingBox" id="filter-18">
            <feOffset dx="0" dy="0" in="SourceAlpha" result="shadowOffsetOuter1"></feOffset>
            <feGaussianBlur stdDeviation="2" in="shadowOffsetOuter1" result="shadowBlurOuter1"></feGaussianBlur>
            <feColorMatrix values="0 0 0 0 0   0 0 0 0 0   0 0 0 0 0  0 0 0 0.1 0" type="matrix" in="shadowBlurOuter1"></feColorMatrix>
        </filter>
        <path d="M35.4544786,26.4019778 C38.1757643,26.4019778 38.9651214,23.1275333 38.9651214,20.0506444 C38.9651214,16.6953111 37.8210143,12.7410889 34.9031571,12.7410889 C32.8913714,12.7410889 31.3141929,14.8177556 31.3141929,19.2510889 C31.3141929,22.8864222 32.6149429,26.4019778 35.4544786,26.4019778 M43.6183357,19.3708667 C43.6183357,25.0439778 39.6746214,27.9995333 34.9814786,27.9995333 C30.4465143,27.9995333 26.6594429,25.0828667 26.6594429,19.8515333 C26.6594429,14.4988667 30.6830143,11.1419778 35.2963,11.1419778 C39.7529429,11.1419778 43.6183357,14.1784222 43.6183357,19.3708667" id="path-19"></path>
        <filter x="-35.4%" y="-35.6%" width="170.8%" height="171.2%" filterUnits="objectBoundingBox" id="filter-20">
            <feOffset dx="0" dy="0" in="SourceAlpha" result="shadowOffsetOuter1"></feOffset>
            <feGaussianBlur stdDeviation="2" in="shadowOffsetOuter1" result="shadowBlurOuter1"></feGaussianBlur>
            <feColorMatrix values="0 0 0 0 0   0 0 0 0 0   0 0 0 0 0  0 0 0 0.1 0" type="matrix" in="shadowBlurOuter1"></feColorMatrix>
        </filter>
        <path d="M47.5250393,16.8149333 C47.5250393,15.0182667 47.5250393,14.5376 46.5391107,13.9387111 L46.0661107,13.6602667 C45.9478607,13.4984889 45.9478607,12.9400444 46.1060393,12.7409333 C47.8413964,12.2602667 49.9698964,11.3020444 51.2322536,10.5833778 C51.5071464,10.5833778 51.665325,10.7436 51.7451821,10.9022667 C51.665325,11.6613778 51.665325,12.4204889 51.665325,12.7409333 C51.665325,13.0209333 51.783575,13.0987111 52.020075,13.1407111 C53.9535393,12.1016 54.9793964,11.1433778 57.6607536,11.1433778 C59.3561821,11.1433778 60.6569321,12.0611556 61.2097893,12.8202667 C61.4462893,13.1796 61.6827893,13.4191556 61.8409679,13.4191556 C61.9976107,13.4191556 62.2356464,13.2993778 62.7086464,13.0209333 C64.5622536,11.8604889 65.9029321,11.1433778 67.7565393,11.1433778 C71.069075,11.1433778 72.5679321,13.3787111 72.5679321,16.4960444 L72.5679321,22.6871556 C72.5679321,25.6442667 72.7261107,26.0829333 74.0667893,26.2820444 L74.9344679,26.4018222 C75.2892179,26.6818222 75.0926464,27.4020444 74.9344679,27.5607111 C73.2390393,27.4798222 71.8983607,27.4409333 70.4378964,27.4409333 C69.1371464,27.4409333 67.7964679,27.4798222 66.3759321,27.5607111 C66.0611107,27.4020444 66.0211821,26.6818222 66.2976107,26.4018222 L66.9287893,26.2820444 C68.2694679,26.0440444 68.4276464,25.6442667 68.4276464,22.6871556 L68.4276464,17.2536 C68.4276464,15.1380444 67.7166107,13.5404889 65.2333607,13.5404889 C64.0892536,13.5404889 63.0633964,14.1378222 62.5903964,14.7382667 C62.1957179,15.2173778 62.1158607,15.6964889 62.1158607,16.8149333 L62.1158607,22.6871556 C62.1158607,25.6442667 62.2740393,26.1218222 63.6162536,26.3224889 L64.2075036,26.4018222 C64.4823964,26.6818222 64.4440036,27.4020444 64.1276464,27.5607111 C62.748575,27.4798222 61.4462893,27.4409333 59.9873607,27.4409333 C58.6866107,27.4409333 57.3443964,27.4798222 56.0436464,27.5607111 C55.7272893,27.4020444 55.6888964,26.6818222 55.965325,26.4018222 L56.4782536,26.3224889 C57.8189321,26.1218222 57.975575,25.6442667 57.975575,22.6871556 L57.975575,17.2536 C57.975575,15.1380444 57.266075,13.5404889 54.9793964,13.5404889 C53.6371821,13.5404889 52.6128607,14.1782667 52.1782536,14.7771556 C51.7052536,15.4180444 51.665325,15.7758222 51.665325,17.3344889 L51.665325,22.6871556 C51.665325,25.6442667 51.8235036,26.1218222 53.1641821,26.3224889 L53.7554321,26.4018222 C54.0318607,26.6818222 53.9919321,27.4020444 53.6771107,27.5607111 C52.2965036,27.4798222 50.955825,27.4409333 49.4968964,27.4409333 C48.1961464,27.4409333 46.8938607,27.4798222 45.3950036,27.5607111 C45.0801821,27.4020444 45.0402536,26.6818222 45.3166821,26.4018222 L46.0261821,26.2820444 C47.3668607,26.0440444 47.5250393,25.6442667 47.5250393,22.6871556 L47.5250393,16.8149333 Z" id="path-21"></path>
        <filter x="-20.0%" y="-35.3%" width="140.0%" height="170.7%" filterUnits="objectBoundingBox" id="filter-22">
            <feOffset dx="0" dy="0" in="SourceAlpha" result="shadowOffsetOuter1"></feOffset>
            <feGaussianBlur stdDeviation="2" in="shadowOffsetOuter1" result="shadowBlurOuter1"></feGaussianBlur>
            <feColorMatrix values="0 0 0 0 0   0 0 0 0 0   0 0 0 0 0  0 0 0 0.1 0" type="matrix" in="shadowBlurOuter1"></feColorMatrix>
        </filter>
        <path d="M85.1521893,26.4019778 C87.873475,26.4019778 88.6628321,23.1275333 88.6628321,20.0506444 C88.6628321,16.6953111 87.518725,12.7410889 84.6008679,12.7410889 C82.5890821,12.7410889 81.0119036,14.8177556 81.0119036,19.2510889 C81.0119036,22.8864222 82.3126536,26.4019778 85.1521893,26.4019778 M93.3160464,19.3708667 C93.3160464,25.0439778 89.3723321,27.9995333 84.6791893,27.9995333 C80.144225,27.9995333 76.3571536,25.0828667 76.3571536,19.8515333 C76.3571536,14.4988667 80.380725,11.1419778 84.9940107,11.1419778 C89.4506536,11.1419778 93.3160464,14.1784222 93.3160464,19.3708667" id="path-23"></path>
        <filter x="-35.4%" y="-35.6%" width="170.8%" height="171.2%" filterUnits="objectBoundingBox" id="filter-24">
            <feOffset dx="0" dy="0" in="SourceAlpha" result="shadowOffsetOuter1"></feOffset>
            <feGaussianBlur stdDeviation="2" in="shadowOffsetOuter1" result="shadowBlurOuter1"></feGaussianBlur>
            <feColorMatrix values="0 0 0 0 0   0 0 0 0 0   0 0 0 0 0  0 0 0 0.1 0" type="matrix" in="shadowBlurOuter1"></feColorMatrix>
        </filter>
        <path d="M101.757868,22.6877778 C101.757868,25.6433333 101.916046,26.1224444 103.256725,26.3231111 L103.847975,26.4024444 C104.124404,26.6808889 104.084475,27.4011111 103.769654,27.5613333 C102.389046,27.4804444 101.048368,27.4415556 99.5879036,27.4415556 C98.3270821,27.4415556 96.9864036,27.4804444 95.3293679,27.5613333 C95.0145464,27.4011111 94.9746179,26.6808889 95.2510464,26.4024444 L96.118725,26.2826667 C97.4594036,26.0835556 97.6175821,25.6433333 97.6175821,22.6877778 L97.6175821,16.8155556 C97.6175821,15.0173333 97.6175821,14.5382222 96.6316536,13.9393333 L96.1586536,13.6593333 C96.0388679,13.4991111 96.0388679,12.9391111 96.1970464,12.74 C97.892475,12.2608889 100.062439,11.3026667 101.323261,10.584 C101.599689,10.584 101.757868,10.7426667 101.836189,10.9028889 C101.757868,11.662 101.757868,12.4195556 101.757868,12.74 C101.757868,13.02 101.876118,13.0993333 102.112618,13.1397778 C103.966225,12.1006667 105.070404,11.1424444 107.516796,11.1424444 C110.711082,11.1424444 112.208404,13.3793333 112.208404,16.4966667 L112.208404,22.6877778 C112.208404,25.6433333 112.366582,26.1224444 113.707261,26.2826667 L114.614868,26.4024444 C114.891296,26.6808889 114.851368,27.4011111 114.536546,27.5613333 C112.879511,27.4804444 111.538832,27.4415556 110.078368,27.4415556 C108.777618,27.4415556 107.436939,27.4804444 106.056332,27.5613333 C105.741511,27.4011111 105.701582,26.6808889 105.978011,26.4024444 L106.569261,26.3231111 C107.909939,26.1224444 108.068118,25.6433333 108.068118,22.6877778 L108.068118,17.1748889 C108.068118,15.1371111 107.278761,13.5395556 104.912225,13.5395556 C103.689796,13.5395556 102.705404,14.1773333 102.310725,14.7777778 C101.797796,15.4964444 101.757868,15.8557778 101.757868,17.3351111 L101.757868,22.6877778 Z" id="path-25"></path>
        <filter x="-30.4%" y="-35.3%" width="160.8%" height="170.7%" filterUnits="objectBoundingBox" id="filter-26">
            <feOffset dx="0" dy="0" in="SourceAlpha" result="shadowOffsetOuter1"></feOffset>
            <feGaussianBlur stdDeviation="2" in="shadowOffsetOuter1" result="shadowBlurOuter1"></feGaussianBlur>
            <feColorMatrix values="0 0 0 0 0   0 0 0 0 0   0 0 0 0 0  0 0 0 0.1 0" type="matrix" in="shadowBlurOuter1"></feColorMatrix>
        </filter>
        <path d="M117.102264,26.7224222 C116.707586,25.9633111 116.471086,23.9255333 116.550943,22.2082 C116.785907,21.8893111 117.378693,21.8473111 117.653586,22.1288667 C118.363086,24.3642 119.822014,26.4828667 121.913657,26.4828667 C123.136086,26.4828667 124.122014,25.6444222 124.122014,24.2444222 C124.122014,22.7666444 122.821264,21.8084222 121.440657,21.1286444 C119.388943,20.1315333 117.260443,18.6537556 117.260443,16.0964222 C117.220514,12.9806444 119.861943,11.1419778 123.136086,11.1419778 C124.753193,11.1419778 126.25205,11.6210889 126.803371,11.9415333 C127.19805,12.7799778 127.394621,14.0182 127.394621,15.8164222 C127.276371,16.1353111 126.605264,16.2550889 126.330371,16.0155333 C125.739121,14.1784222 124.476764,12.6602 122.939514,12.6602 C121.677157,12.6602 120.729621,13.5795333 120.729621,14.7384222 C120.729621,15.8957556 121.873729,16.7342 123.372586,17.4544222 C125.502621,18.4919778 127.750907,19.8515333 127.750907,23.0062 C127.750907,26.4828667 124.713264,27.9995333 121.598836,27.9995333 C119.981729,27.9995333 118.363086,27.6806444 117.102264,26.7224222" id="path-27"></path>
        <filter x="-53.5%" y="-35.6%" width="207.0%" height="171.2%" filterUnits="objectBoundingBox" id="filter-28">
            <feOffset dx="0" dy="0" in="SourceAlpha" result="shadowOffsetOuter1"></feOffset>
            <feGaussianBlur stdDeviation="2" in="shadowOffsetOuter1" result="shadowBlurOuter1"></feGaussianBlur>
            <feColorMatrix values="0 0 0 0 0   0 0 0 0 0   0 0 0 0 0  0 0 0 0.1 0" type="matrix" in="shadowBlurOuter1"></feColorMatrix>
        </filter>
    </defs>
    <g id="Page-1" stroke="none" stroke-width="1" fill="none" fill-rule="evenodd">
        <g id="pc_top" transform="translate(-571.000000, -234.000000)">
            <g id="Group" transform="translate(575.000000, 238.000000)">
                <g id="Fill-1">
                    <use fill="black" fill-opacity="1" filter="url(#filter-2)" xlink:href="#path-1"></use>
                    <use fill="#00381F" fill-rule="evenodd" xlink:href="#path-1"></use>
                </g>
                <g id="Fill-2">
                    <use fill="black" fill-opacity="1" filter="url(#filter-4)" xlink:href="#path-3"></use>
                    <use fill="#00381F" fill-rule="evenodd" xlink:href="#path-3"></use>
                </g>
                <g id="Group-27" transform="translate(19.000000, 177.000000)">
                    <g id="Fill-3">
                        <use fill="black" fill-opacity="1" filter="url(#filter-6)" xlink:href="#path-5"></use>
                        <use fill="#00381F" fill-rule="evenodd" xlink:href="#path-5"></use>
                    </g>
                    <g id="Fill-5">
                        <use fill="black" fill-opacity="1" filter="url(#filter-8)" xlink:href="#path-7"></use>
                        <use fill="#00381F" fill-rule="evenodd" xlink:href="#path-7"></use>
                    </g>
                    <g id="Fill-7">
                        <use fill="black" fill-opacity="1" filter="url(#filter-10)" xlink:href="#path-9"></use>
                        <use fill="#00381F" fill-rule="evenodd" xlink:href="#path-9"></use>
                    </g>
                    <g id="Fill-9">
                        <use fill="black" fill-opacity="1" filter="url(#filter-12)" xlink:href="#path-11"></use>
                        <use fill="#00381F" fill-rule="evenodd" xlink:href="#path-11"></use>
                    </g>
                    <g id="Fill-11">
                        <use fill="black" fill-opacity="1" filter="url(#filter-14)" xlink:href="#path-13"></use>
                        <use fill="#00381F" fill-rule="evenodd" xlink:href="#path-13"></use>
                    </g>
                    <g id="Fill-13">
                        <use fill="black" fill-opacity="1" filter="url(#filter-16)" xlink:href="#path-15"></use>
                        <use fill="#00381F" fill-rule="evenodd" xlink:href="#path-15"></use>
                    </g>
                    <g id="Fill-15">
                        <use fill="black" fill-opacity="1" filter="url(#filter-18)" xlink:href="#path-17"></use>
                        <use fill="#00381F" fill-rule="evenodd" xlink:href="#path-17"></use>
                    </g>
                    <g id="Fill-17">
                        <use fill="black" fill-opacity="1" filter="url(#filter-20)" xlink:href="#path-19"></use>
                        <use fill="#00381F" fill-rule="evenodd" xlink:href="#path-19"></use>
                    </g>
                    <g id="Fill-19">
                        <use fill="black" fill-opacity="1" filter="url(#filter-22)" xlink:href="#path-21"></use>
                        <use fill="#00381F" fill-rule="evenodd" xlink:href="#path-21"></use>
                    </g>
                    <g id="Fill-21">
                        <use fill="black" fill-opacity="1" filter="url(#filter-24)" xlink:href="#path-23"></use>
                        <use fill="#00381F" fill-rule="evenodd" xlink:href="#path-23"></use>
                    </g>
                    <g id="Fill-23">
                        <use fill="black" fill-opacity="1" filter="url(#filter-26)" xlink:href="#path-25"></use>
                        <use fill="#00381F" fill-rule="evenodd" xlink:href="#path-25"></use>
                    </g>
                    <g id="Fill-25">
                        <use fill="black" fill-opacity="1" filter="url(#filter-28)" xlink:href="#path-27"></use>
                        <use fill="#00381F" fill-rule="evenodd" xlink:href="#path-27"></use>
                    </g>
                </g>
            </g>
        </g>
    </g>
</svg>