<?xml version="1.0" encoding="UTF-8"?>
<svg width="102px" height="146px" viewBox="0 0 102 146" version="1.1" xmlns="http://www.w3.org/2000/svg" xmlns:xlink="http://www.w3.org/1999/xlink">
    <!-- Generator: Sketch 54.1 (76490) - https://sketchapp.com -->
    <title>Group</title>
    <desc>Created with Sketch.</desc>
    <g id="Page-1" stroke="none" stroke-width="1" fill="none" fill-rule="evenodd">
        <g id="pc_top_en" transform="translate(-1149.000000, -567.000000)" fill="#FFFFFF">
            <g id="Group" transform="translate(1149.000000, 567.000000)">
                <polygon id="Fill-1" points="61.7729843 0 51 6.14069785 40.2279313 0 39.2354177 1.78628365 48.9371466 7.31671429 0 35.2137163 0.992513599 37 51 8.49365819 101.008402 37 102 35.2137163 53.0628534 7.31671429 62.7664135 1.78628365"></polygon>
                <polygon id="Fill-2" points="12 94 89 94 89 92 12 92"></polygon>
                <g id="Group-55" transform="translate(12.000000, 106.000000)">
                    <path d="M5.14776706,6.90781818 C5.14776706,7.53781818 5.17041412,7.95781818 5.54363765,7.95781818 C5.98480235,7.95781818 6.52017882,7.42054545 7.28746118,6.58145455 L9.65996706,4.01236364 C9.96253176,3.70872727 10.63832,2.93872727 10.9173318,2.566 C11.3358494,2.02872727 11.3584965,1.84145455 11.0794847,1.77145455 L10.3584024,1.56145455 C10.1726965,1.39781818 10.2188965,1.07145455 10.4055082,0.884181818 C11.3820494,0.931454545 12.1493318,0.954181818 13.0108259,0.954181818 C14.01092,0.954181818 14.7320024,0.906909091 15.5699435,0.884181818 C15.8254024,0.954181818 15.8716024,1.44418182 15.6396965,1.56145455 C13.4755435,1.86509091 12.8477671,2.42509091 11.2425435,3.98963636 C10.2424494,4.99327273 9.31210824,5.95054545 8.40441412,6.86054545 C8.12540235,7.14145455 8.07829647,7.28145455 8.33466118,7.63145455 C10.1726965,10.0596364 12.3821435,12.8369091 14.05712,14.7987273 C14.5462965,15.3823636 15.0807671,15.5923636 15.7792024,15.6850909 L16.3372259,15.7550909 C16.5002847,15.8723636 16.4767318,16.3623636 16.2910259,16.4332727 C15.4766376,16.386 14.5462965,16.3623636 13.3133906,16.3623636 C12.1728847,16.3623636 11.1265906,16.386 10.1029435,16.4332727 C9.84657882,16.3396364 9.84657882,15.8723636 10.0558376,15.7550909 L10.68452,15.6623636 C11.0559318,15.616 11.1030376,15.3587273 10.8475788,15.0323636 C9.87013176,13.8187273 7.10175529,10.036 6.24116706,9.14872727 C6.07810824,8.98509091 5.89149647,8.79872727 5.68223765,8.79872727 C5.10066118,8.79872727 5.14776706,9.35872727 5.14776706,10.036 L5.14776706,13.0005455 C5.14776706,15.476 5.35702588,15.546 6.45042588,15.6850909 L7.03200235,15.7550909 C7.19506118,15.8723636 7.17150824,16.3396364 6.98489647,16.4332727 C5.89149647,16.386 4.84520235,16.3623636 3.82155529,16.3623636 C2.79790824,16.3623636 1.70450824,16.386 0.866567059,16.4332727 C0.680861176,16.3396364 0.657308235,15.8723636 0.820367059,15.7550909 L1.14648471,15.7096364 C2.23988471,15.546 2.44914353,15.476 2.44914353,13.0005455 L2.44914353,4.316 C2.44914353,1.84145455 2.23988471,1.79509091 1.14648471,1.63145455 L0.704414118,1.56145455 C0.541355294,1.39781818 0.564002353,0.977818182 0.750614118,0.884181818 C1.70450824,0.931454545 2.75080235,0.954181818 3.82155529,0.954181818 C4.84520235,0.954181818 5.89149647,0.931454545 6.79919059,0.884181818 C6.98489647,0.977818182 7.00844941,1.44418182 6.84629647,1.56145455 L6.45042588,1.63145455 C5.35702588,1.81781818 5.14776706,1.84145455 5.14776706,4.316 L5.14776706,6.90781818 Z" id="Fill-3"></path>
                    <path d="M21.5041071,15.7555455 C23.1084247,15.7555455 23.5740482,13.8419091 23.5740482,12.0437273 C23.5740482,10.0828182 22.9000718,7.77190909 21.1779894,7.77190909 C19.9912835,7.77190909 19.0609424,8.98554545 19.0609424,11.5764545 C19.0609424,13.701 19.8282247,15.7555455 21.5041071,15.7555455 M26.3188718,11.6464545 C26.3188718,14.9619091 23.9934718,16.6891818 21.2241894,16.6891818 C18.5491188,16.6891818 16.3161188,14.9846364 16.3161188,11.9273636 C16.3161188,8.79918182 18.6895306,6.83736364 21.4108012,6.83736364 C24.0396718,6.83736364 26.3188718,8.61190909 26.3188718,11.6464545" id="Fill-5"></path>
                    <path d="M28.6237988,10.1527273 C28.6237988,9.10272727 28.6237988,8.82181818 28.0422224,8.47181818 L27.7632106,8.30909091 C27.6934576,8.21454545 27.6934576,7.88818182 27.7858576,7.77181818 C28.8095047,7.49090909 30.0659635,6.93090909 30.8105988,6.51090909 C30.9736576,6.51090909 31.0660576,6.60454545 31.1131635,6.69727273 C31.0660576,7.14090909 31.0660576,7.58454545 31.0660576,7.77181818 C31.0660576,7.93545455 31.1358106,7.98090909 31.2762224,8.00545455 C32.4158224,7.39818182 33.0209518,6.83818182 34.6026224,6.83818182 C35.6027165,6.83818182 36.3709047,7.37454545 36.6961165,7.81818182 C36.8356224,8.02818182 36.9751282,8.16818182 37.0684341,8.16818182 C37.16174,8.16818182 37.3012459,8.09818182 37.5802576,7.93545455 C38.6736576,7.25727273 39.4644929,6.83818182 40.5578929,6.83818182 C42.5118812,6.83818182 43.3960224,8.14454545 43.3960224,9.96636364 L43.3960224,13.5845455 C43.3960224,15.3127273 43.4893282,15.5690909 44.2801635,15.6854545 L44.7919871,15.7554545 C45.0012459,15.9190909 44.8852929,16.34 44.7919871,16.4327273 C43.7918929,16.3854545 43.0001518,16.3627273 42.1395635,16.3627273 C41.3722812,16.3627273 40.5814459,16.3854545 39.7435047,16.4327273 C39.5577988,16.34 39.5342459,15.9190909 39.6973047,15.7554545 L40.0696224,15.6854545 C40.8604576,15.5463636 40.9528576,15.3127273 40.9528576,13.5845455 L40.9528576,10.4090909 C40.9528576,9.17272727 40.53434,8.23909091 39.0686224,8.23909091 C38.3946459,8.23909091 37.7895165,8.58818182 37.5105047,8.93909091 C37.2776929,9.21909091 37.2314929,9.49909091 37.2314929,10.1527273 L37.2314929,13.5845455 C37.2314929,15.3127273 37.3238929,15.5918182 38.1156341,15.7090909 L38.4643988,15.7554545 C38.6265518,15.9190909 38.6039047,16.34 38.4181988,16.4327273 C37.6038106,16.3854545 36.8356224,16.3627273 35.9750341,16.3627273 C35.2077518,16.3627273 34.4169165,16.3854545 33.6487282,16.4327273 C33.4621165,16.34 33.4385635,15.9190909 33.6025282,15.7554545 L33.9041871,15.7090909 C34.6950224,15.5918182 34.7883282,15.3127273 34.7883282,13.5845455 L34.7883282,10.4090909 C34.7883282,9.17272727 34.3698106,8.23909091 33.0209518,8.23909091 C32.2292106,8.23909091 31.6249871,8.61181818 31.3686224,8.96181818 C31.0896106,9.33636364 31.0660576,9.54545455 31.0660576,10.4563636 L31.0660576,13.5845455 C31.0660576,15.3127273 31.1593635,15.5918182 31.9501988,15.7090909 L32.2998694,15.7554545 C32.4620224,15.9190909 32.4384694,16.34 32.2527635,16.4327273 C31.4383753,16.3854545 30.64754,16.3627273 29.7869518,16.3627273 C29.0196694,16.3627273 28.2514812,16.3854545 27.36734,16.4327273 C27.1816341,16.34 27.1580812,15.9190909 27.32114,15.7554545 L27.7396576,15.6854545 C28.5304929,15.5463636 28.6237988,15.3127273 28.6237988,13.5845455 L28.6237988,10.1527273 Z" id="Fill-7"></path>
                    <path d="M50.8196376,15.7555455 C52.4239553,15.7555455 52.8895788,13.8419091 52.8895788,12.0437273 C52.8895788,10.0828182 52.2156024,7.77190909 50.4944259,7.77190909 C49.3068141,7.77190909 48.3764729,8.98554545 48.3764729,11.5764545 C48.3764729,13.701 49.1437553,15.7555455 50.8196376,15.7555455 M55.6344024,11.6464545 C55.6344024,14.9619091 53.3090024,16.6891818 50.53972,16.6891818 C47.8646494,16.6891818 45.6316494,14.9846364 45.6316494,11.9273636 C45.6316494,8.79918182 48.0050612,6.83736364 50.7254259,6.83736364 C53.3552024,6.83736364 55.6344024,8.61190909 55.6344024,11.6464545" id="Fill-9"></path>
                    <path d="M60.6144906,13.5849091 C60.6144906,15.3121818 60.7077965,15.5921818 61.4986318,15.7094545 L61.8473965,15.7558182 C62.0104553,15.9185455 61.9878082,16.3394545 61.8011965,16.4330909 C60.9868082,16.3858182 60.1959729,16.3630909 59.3353847,16.3630909 C58.5907494,16.3630909 57.7999141,16.3858182 56.8224671,16.4330909 C56.6358553,16.3394545 56.6132082,15.9185455 56.7762671,15.7558182 L57.2880906,15.6858182 C58.0789259,15.5694545 58.1722318,15.3121818 58.1722318,13.5849091 L58.1722318,10.1530909 C58.1722318,9.10218182 58.1722318,8.82218182 57.5906553,8.47218182 L57.3116435,8.30854545 C57.2409847,8.21490909 57.2409847,7.88763636 57.3342906,7.77127273 C58.3343847,7.49127273 59.6143965,6.93127273 60.3590318,6.51127273 C60.5211847,6.51127273 60.6144906,6.604 60.6615965,6.69763636 C60.6144906,7.14127273 60.6144906,7.584 60.6144906,7.77127273 C60.6144906,7.93490909 60.6842435,7.98127273 60.8237494,8.00490909 C61.9171494,7.39763636 62.5684788,6.83763636 64.0115494,6.83763636 C65.8957847,6.83763636 66.7799259,8.14490909 66.7799259,9.96672727 L66.7799259,13.5849091 C66.7799259,15.3121818 66.8723259,15.5921818 67.6631612,15.6858182 L68.1985376,15.7558182 C68.3615965,15.9185455 68.3371376,16.3394545 68.1514318,16.4330909 C67.1748906,16.3858182 66.3840553,16.3630909 65.5234671,16.3630909 C64.7552788,16.3630909 63.9644435,16.3858182 63.1500553,16.4330909 C62.9643494,16.3394545 62.9407965,15.9185455 63.1038553,15.7558182 L63.45262,15.7094545 C64.2434553,15.5921818 64.3367612,15.3121818 64.3367612,13.5849091 L64.3367612,10.3630909 C64.3367612,9.17218182 63.8720435,8.23854545 62.4760788,8.23854545 C61.7540906,8.23854545 61.1725141,8.61127273 60.9397024,8.96218182 C60.6371376,9.38218182 60.6144906,9.59218182 60.6144906,10.4567273 L60.6144906,13.5849091 Z" id="Fill-11"></path>
                    <path d="M69.6653424,15.9428182 C69.4325306,15.4991818 69.2930247,14.3082727 69.3401306,13.3046364 C69.4796365,13.1182727 69.8293071,13.0937273 69.99146,13.2582727 C70.4099776,14.5646364 71.2705659,15.8028182 72.5043776,15.8028182 C73.22546,15.8028182 73.8061306,15.3128182 73.8061306,14.4946364 C73.8061306,13.631 73.0388482,13.071 72.22446,12.6737273 C71.0142012,12.091 69.7586482,11.2273636 69.7586482,9.73281818 C69.7350953,7.91190909 71.2941188,6.83736364 73.22546,6.83736364 C74.1784482,6.83736364 75.0625894,7.11736364 75.3878012,7.30463636 C75.6206129,7.79463636 75.7374718,8.51827273 75.7374718,9.56918182 C75.6677188,9.75554545 75.2718482,9.82554545 75.1096953,9.68554545 C74.7600247,8.61190909 74.0162953,7.72463636 73.1086012,7.72463636 C72.3639659,7.72463636 71.8050365,8.26190909 71.8050365,8.93918182 C71.8050365,9.61554545 72.4799188,10.1055455 73.36406,10.5264545 C74.6205188,11.1328182 75.9476365,11.9273636 75.9476365,13.771 C75.9476365,15.8028182 74.1548953,16.6891818 72.3177659,16.6891818 C71.3638718,16.6891818 70.4099776,16.5028182 69.6653424,15.9428182" id="Fill-13"></path>
                    <path d="M5.14776706,6.90781818 C5.14776706,7.53781818 5.17041412,7.95781818 5.54363765,7.95781818 C5.98480235,7.95781818 6.52017882,7.42054545 7.28746118,6.58145455 L9.65996706,4.01236364 C9.96253176,3.70872727 10.63832,2.93872727 10.9173318,2.566 C11.3358494,2.02872727 11.3584965,1.84145455 11.0794847,1.77145455 L10.3584024,1.56145455 C10.1726965,1.39781818 10.2188965,1.07145455 10.4055082,0.884181818 C11.3820494,0.931454545 12.1493318,0.954181818 13.0108259,0.954181818 C14.01092,0.954181818 14.7320024,0.906909091 15.5699435,0.884181818 C15.8254024,0.954181818 15.8716024,1.44418182 15.6396965,1.56145455 C13.4755435,1.86509091 12.8477671,2.42509091 11.2425435,3.98963636 C10.2424494,4.99327273 9.31210824,5.95054545 8.40441412,6.86054545 C8.12540235,7.14145455 8.07829647,7.28145455 8.33466118,7.63145455 C10.1726965,10.0596364 12.3821435,12.8369091 14.05712,14.7987273 C14.5462965,15.3823636 15.0807671,15.5923636 15.7792024,15.6850909 L16.3372259,15.7550909 C16.5002847,15.8723636 16.4767318,16.3623636 16.2910259,16.4332727 C15.4766376,16.386 14.5462965,16.3623636 13.3133906,16.3623636 C12.1728847,16.3623636 11.1265906,16.386 10.1029435,16.4332727 C9.84657882,16.3396364 9.84657882,15.8723636 10.0558376,15.7550909 L10.68452,15.6623636 C11.0559318,15.616 11.1030376,15.3587273 10.8475788,15.0323636 C9.87013176,13.8187273 7.10175529,10.036 6.24116706,9.14872727 C6.07810824,8.98509091 5.89149647,8.79872727 5.68223765,8.79872727 C5.10066118,8.79872727 5.14776706,9.35872727 5.14776706,10.036 L5.14776706,13.0005455 C5.14776706,15.476 5.35702588,15.546 6.45042588,15.6850909 L7.03200235,15.7550909 C7.19506118,15.8723636 7.17150824,16.3396364 6.98489647,16.4332727 C5.89149647,16.386 4.84520235,16.3623636 3.82155529,16.3623636 C2.79790824,16.3623636 1.70450824,16.386 0.866567059,16.4332727 C0.680861176,16.3396364 0.657308235,15.8723636 0.820367059,15.7550909 L1.14648471,15.7096364 C2.23988471,15.546 2.44914353,15.476 2.44914353,13.0005455 L2.44914353,4.316 C2.44914353,1.84145455 2.23988471,1.79509091 1.14648471,1.63145455 L0.704414118,1.56145455 C0.541355294,1.39781818 0.564002353,0.977818182 0.750614118,0.884181818 C1.70450824,0.931454545 2.75080235,0.954181818 3.82155529,0.954181818 C4.84520235,0.954181818 5.89149647,0.931454545 6.79919059,0.884181818 C6.98489647,0.977818182 7.00844941,1.44418182 6.84629647,1.56145455 L6.45042588,1.63145455 C5.35702588,1.81781818 5.14776706,1.84145455 5.14776706,4.316 L5.14776706,6.90781818 Z" id="Fill-15"></path>
                    <path d="M21.5041071,15.7555455 C23.1084247,15.7555455 23.5740482,13.8419091 23.5740482,12.0437273 C23.5740482,10.0828182 22.9000718,7.77190909 21.1779894,7.77190909 C19.9912835,7.77190909 19.0609424,8.98554545 19.0609424,11.5764545 C19.0609424,13.701 19.8282247,15.7555455 21.5041071,15.7555455 M26.3188718,11.6464545 C26.3188718,14.9619091 23.9934718,16.6891818 21.2241894,16.6891818 C18.5491188,16.6891818 16.3161188,14.9846364 16.3161188,11.9273636 C16.3161188,8.79918182 18.6895306,6.83736364 21.4108012,6.83736364 C24.0396718,6.83736364 26.3188718,8.61190909 26.3188718,11.6464545" id="Fill-17"></path>
                    <path d="M28.6237988,10.1527273 C28.6237988,9.10272727 28.6237988,8.82181818 28.0422224,8.47181818 L27.7632106,8.30909091 C27.6934576,8.21454545 27.6934576,7.88818182 27.7858576,7.77181818 C28.8095047,7.49090909 30.0659635,6.93090909 30.8105988,6.51090909 C30.9736576,6.51090909 31.0660576,6.60454545 31.1131635,6.69727273 C31.0660576,7.14090909 31.0660576,7.58454545 31.0660576,7.77181818 C31.0660576,7.93545455 31.1358106,7.98090909 31.2762224,8.00545455 C32.4158224,7.39818182 33.0209518,6.83818182 34.6026224,6.83818182 C35.6027165,6.83818182 36.3709047,7.37454545 36.6961165,7.81818182 C36.8356224,8.02818182 36.9751282,8.16818182 37.0684341,8.16818182 C37.16174,8.16818182 37.3012459,8.09818182 37.5802576,7.93545455 C38.6736576,7.25727273 39.4644929,6.83818182 40.5578929,6.83818182 C42.5118812,6.83818182 43.3960224,8.14454545 43.3960224,9.96636364 L43.3960224,13.5845455 C43.3960224,15.3127273 43.4893282,15.5690909 44.2801635,15.6854545 L44.7919871,15.7554545 C45.0012459,15.9190909 44.8852929,16.34 44.7919871,16.4327273 C43.7918929,16.3854545 43.0001518,16.3627273 42.1395635,16.3627273 C41.3722812,16.3627273 40.5814459,16.3854545 39.7435047,16.4327273 C39.5577988,16.34 39.5342459,15.9190909 39.6973047,15.7554545 L40.0696224,15.6854545 C40.8604576,15.5463636 40.9528576,15.3127273 40.9528576,13.5845455 L40.9528576,10.4090909 C40.9528576,9.17272727 40.53434,8.23909091 39.0686224,8.23909091 C38.3946459,8.23909091 37.7895165,8.58818182 37.5105047,8.93909091 C37.2776929,9.21909091 37.2314929,9.49909091 37.2314929,10.1527273 L37.2314929,13.5845455 C37.2314929,15.3127273 37.3238929,15.5918182 38.1156341,15.7090909 L38.4643988,15.7554545 C38.6265518,15.9190909 38.6039047,16.34 38.4181988,16.4327273 C37.6038106,16.3854545 36.8356224,16.3627273 35.9750341,16.3627273 C35.2077518,16.3627273 34.4169165,16.3854545 33.6487282,16.4327273 C33.4621165,16.34 33.4385635,15.9190909 33.6025282,15.7554545 L33.9041871,15.7090909 C34.6950224,15.5918182 34.7883282,15.3127273 34.7883282,13.5845455 L34.7883282,10.4090909 C34.7883282,9.17272727 34.3698106,8.23909091 33.0209518,8.23909091 C32.2292106,8.23909091 31.6249871,8.61181818 31.3686224,8.96181818 C31.0896106,9.33636364 31.0660576,9.54545455 31.0660576,10.4563636 L31.0660576,13.5845455 C31.0660576,15.3127273 31.1593635,15.5918182 31.9501988,15.7090909 L32.2998694,15.7554545 C32.4620224,15.9190909 32.4384694,16.34 32.2527635,16.4327273 C31.4383753,16.3854545 30.64754,16.3627273 29.7869518,16.3627273 C29.0196694,16.3627273 28.2514812,16.3854545 27.36734,16.4327273 C27.1816341,16.34 27.1580812,15.9190909 27.32114,15.7554545 L27.7396576,15.6854545 C28.5304929,15.5463636 28.6237988,15.3127273 28.6237988,13.5845455 L28.6237988,10.1527273 Z" id="Fill-19"></path>
                    <path d="M50.8196376,15.7555455 C52.4239553,15.7555455 52.8895788,13.8419091 52.8895788,12.0437273 C52.8895788,10.0828182 52.2156024,7.77190909 50.4944259,7.77190909 C49.3068141,7.77190909 48.3764729,8.98554545 48.3764729,11.5764545 C48.3764729,13.701 49.1437553,15.7555455 50.8196376,15.7555455 M55.6344024,11.6464545 C55.6344024,14.9619091 53.3090024,16.6891818 50.53972,16.6891818 C47.8646494,16.6891818 45.6316494,14.9846364 45.6316494,11.9273636 C45.6316494,8.79918182 48.0050612,6.83736364 50.7254259,6.83736364 C53.3552024,6.83736364 55.6344024,8.61190909 55.6344024,11.6464545" id="Fill-21"></path>
                    <path d="M60.6144906,13.5849091 C60.6144906,15.3121818 60.7077965,15.5921818 61.4986318,15.7094545 L61.8473965,15.7558182 C62.0104553,15.9185455 61.9878082,16.3394545 61.8011965,16.4330909 C60.9868082,16.3858182 60.1959729,16.3630909 59.3353847,16.3630909 C58.5907494,16.3630909 57.7999141,16.3858182 56.8224671,16.4330909 C56.6358553,16.3394545 56.6132082,15.9185455 56.7762671,15.7558182 L57.2880906,15.6858182 C58.0789259,15.5694545 58.1722318,15.3121818 58.1722318,13.5849091 L58.1722318,10.1530909 C58.1722318,9.10218182 58.1722318,8.82218182 57.5906553,8.47218182 L57.3116435,8.30854545 C57.2409847,8.21490909 57.2409847,7.88763636 57.3342906,7.77127273 C58.3343847,7.49127273 59.6143965,6.93127273 60.3590318,6.51127273 C60.5211847,6.51127273 60.6144906,6.604 60.6615965,6.69763636 C60.6144906,7.14127273 60.6144906,7.584 60.6144906,7.77127273 C60.6144906,7.93490909 60.6842435,7.98127273 60.8237494,8.00490909 C61.9171494,7.39763636 62.5684788,6.83763636 64.0115494,6.83763636 C65.8957847,6.83763636 66.7799259,8.14490909 66.7799259,9.96672727 L66.7799259,13.5849091 C66.7799259,15.3121818 66.8723259,15.5921818 67.6631612,15.6858182 L68.1985376,15.7558182 C68.3615965,15.9185455 68.3371376,16.3394545 68.1514318,16.4330909 C67.1748906,16.3858182 66.3840553,16.3630909 65.5234671,16.3630909 C64.7552788,16.3630909 63.9644435,16.3858182 63.1500553,16.4330909 C62.9643494,16.3394545 62.9407965,15.9185455 63.1038553,15.7558182 L63.45262,15.7094545 C64.2434553,15.5921818 64.3367612,15.3121818 64.3367612,13.5849091 L64.3367612,10.3630909 C64.3367612,9.17218182 63.8720435,8.23854545 62.4760788,8.23854545 C61.7540906,8.23854545 61.1725141,8.61127273 60.9397024,8.96218182 C60.6371376,9.38218182 60.6144906,9.59218182 60.6144906,10.4567273 L60.6144906,13.5849091 Z" id="Fill-23"></path>
                    <path d="M69.6653424,15.9428182 C69.4325306,15.4991818 69.2930247,14.3082727 69.3401306,13.3046364 C69.4796365,13.1182727 69.8293071,13.0937273 69.99146,13.2582727 C70.4099776,14.5646364 71.2705659,15.8028182 72.5043776,15.8028182 C73.22546,15.8028182 73.8061306,15.3128182 73.8061306,14.4946364 C73.8061306,13.631 73.0388482,13.071 72.22446,12.6737273 C71.0142012,12.091 69.7586482,11.2273636 69.7586482,9.73281818 C69.7350953,7.91190909 71.2941188,6.83736364 73.22546,6.83736364 C74.1784482,6.83736364 75.0625894,7.11736364 75.3878012,7.30463636 C75.6206129,7.79463636 75.7374718,8.51827273 75.7374718,9.56918182 C75.6677188,9.75554545 75.2718482,9.82554545 75.1096953,9.68554545 C74.7600247,8.61190909 74.0162953,7.72463636 73.1086012,7.72463636 C72.3639659,7.72463636 71.8050365,8.26190909 71.8050365,8.93918182 C71.8050365,9.61554545 72.4799188,10.1055455 73.36406,10.5264545 C74.6205188,11.1328182 75.9476365,11.9273636 75.9476365,13.771 C75.9476365,15.8028182 74.1548953,16.6891818 72.3177659,16.6891818 C71.3638718,16.6891818 70.4099776,16.5028182 69.6653424,15.9428182" id="Fill-25"></path>
                    <path d="M8.01225765,31.2091818 C7.93072824,31.3037273 7.72056353,31.3146364 7.63903412,31.2319091 C7.44064588,30.4946364 6.91432824,29.5219091 5.37251647,29.5219091 C3.88958706,29.5219091 2.39488118,30.5764545 2.39488118,32.9791818 C2.39488118,35.4755455 3.94846941,36.6946364 5.45495176,36.6946364 C6.92610471,36.6946364 7.56928118,35.7100909 7.89539882,34.9482727 C8.00048118,34.8428182 8.18799882,34.8900909 8.24597529,34.9955455 C8.16444588,35.7800909 7.84919882,36.5546364 7.68614,36.7773636 C7.54482235,36.8000909 7.40531647,36.8473636 7.27668118,36.8819091 C7.01941059,36.9646364 6.21408118,37.1637273 5.45495176,37.1637273 C4.29814,37.1637273 3.30529294,36.9291818 2.46463412,36.3791818 C1.51889294,35.7573636 0.805963529,34.6900909 0.805963529,33.1555455 C0.805963529,31.7837273 1.41290471,30.7173636 2.27711647,30.0491818 C3.14223412,29.3928182 4.32169294,29.0528182 5.50205765,29.0528182 C6.16697529,29.0528182 6.97321059,29.1700909 7.52217529,29.3100909 C7.66168118,29.3455455 7.74411647,29.3573636 7.84919882,29.3800909 C7.87275176,29.6500909 7.89539882,30.3419091 8.01225765,31.2091818" id="Fill-27"></path>
                    <path d="M9.45958588,33.8582727 C9.45958588,33.331 9.45958588,33.1900909 9.16789176,33.0137273 L9.02748,32.9319091 C8.99215059,32.8855455 8.99215059,32.721 9.03925647,32.6628182 C9.54202118,32.4982727 10.1607388,32.241 10.5113153,32.0291818 C10.5810682,32.0291818 10.6508212,32.0646364 10.6743741,32.1346364 C10.6625976,32.3582727 10.6508212,32.5564545 10.6508212,32.6628182 C10.6508212,32.7446364 10.6979271,32.8037273 10.76768,32.8037273 C11.1300329,32.5455455 11.5159388,32.1937273 11.9127153,32.1937273 C12.3212682,32.1937273 12.5549859,32.4637273 12.5549859,32.7682727 C12.5549859,33.2255455 12.2161859,33.4482727 11.9009388,33.4482727 C11.78408,33.4482727 11.6789976,33.4128182 11.5856918,33.3537273 C11.2930918,33.1555455 11.0956094,33.131 11.0249506,33.131 C10.7568094,33.131 10.6861506,33.401 10.6861506,33.9755455 L10.6861506,35.5819091 C10.6861506,36.4491818 10.7332565,36.5773636 11.1418094,36.6246364 L11.5974682,36.6719091 C11.6789976,36.7537273 11.6681271,36.9646364 11.5739153,37.0119091 C10.8736682,36.9873636 10.4759859,36.9764545 10.04388,36.9764545 C9.65888,36.9764545 9.27297412,36.9873636 8.82909176,37.0119091 C8.73578588,36.9646364 8.72400941,36.7537273 8.80553882,36.6719091 L9.01570353,36.6364545 C9.41338588,36.5664545 9.45958588,36.4491818 9.45958588,35.5819091 L9.45958588,33.8582727 Z" id="Fill-29"></path>
                    <path d="M15.3575141,35.0888182 C15.3575141,34.9597273 15.3230906,34.8897273 15.2642082,34.8897273 C15.1709024,34.8897273 14.9607376,34.9488182 14.7505729,35.0306364 C14.4235494,35.147 14.1200788,35.3115455 14.1200788,35.8160909 C14.1200788,36.1206364 14.3302435,36.4960909 14.77322,36.4960909 C15.1944553,36.4960909 15.3230906,36.2142727 15.3348671,35.9333636 L15.3575141,35.0888182 Z M16.5025494,35.487 C16.46722,36.1679091 16.6420553,36.5188182 17.0632906,36.5188182 C17.2616788,36.5188182 17.4247376,36.3906364 17.4600671,36.3906364 C17.5189494,36.3906364 17.6004788,36.5188182 17.5660553,36.6242727 C17.3314318,36.9533636 16.75982,37.1406364 16.3965612,37.1406364 C16.1048671,37.1406364 15.7778435,37.0579091 15.5568082,36.8124545 C15.4743729,36.7306364 15.4281729,36.6715455 15.3692906,36.6715455 C15.3113141,36.6715455 15.2288788,36.7306364 15.0540435,36.8360909 C14.8321024,36.9760909 14.4815259,37.1406364 14.0611965,37.1406364 C13.2667376,37.1406364 12.8699612,36.5888182 12.8699612,36.0033636 C12.8699612,35.5815455 13.0339259,35.1942727 13.8392553,34.9133636 C14.2478082,34.7724545 14.6925965,34.6088182 15.1237965,34.4442727 C15.3575141,34.3624545 15.3928435,34.257 15.3928435,34.1397273 L15.40462,33.8351818 C15.4281729,33.237 15.2642082,32.7215455 14.6925965,32.7215455 C14.3646671,32.7215455 14.1200788,32.897 14.0729729,33.237 C14.04942,33.4597273 13.9796671,33.577 13.8510318,33.6597273 C13.6870671,33.7642727 13.3600435,33.8697273 13.1036788,33.8697273 C12.9514906,33.8697273 12.8817376,33.7879091 12.8817376,33.6824545 C12.8817376,33.5415455 12.9514906,33.2951818 13.3373965,32.9324545 C13.6988435,32.5924545 14.5404082,32.1933636 15.1355729,32.1933636 C16.0586671,32.1933636 16.6311847,32.6279091 16.5840788,33.6597273 L16.5025494,35.487 Z" id="Fill-31"></path>
                    <path d="M19.9011482,32.9092727 C19.6556541,32.9092727 19.6556541,32.932 19.6556541,33.272 L19.6556541,35.5810909 C19.6556541,36.4492727 19.7018541,36.5774545 20.1113129,36.6247273 L20.5660659,36.672 C20.6485012,36.7538182 20.6367247,36.9647273 20.5434188,37.012 C20.0180071,36.9874545 19.5623482,36.9765455 19.0133835,36.9765455 C18.6274776,36.9765455 18.2307012,36.9874545 17.7514894,37.012 C17.6581835,36.9647273 17.6464071,36.7538182 17.7288424,36.672 L17.9852071,36.6365455 C18.3819835,36.5774545 18.4290894,36.4492727 18.4290894,35.5810909 L18.4290894,33.2610909 C18.4290894,32.9438182 18.4173129,32.9092727 18.2189247,32.9092727 L17.7985953,32.9092727 C17.7052894,32.862 17.6817365,32.7092727 17.7632659,32.6392727 L18.2651247,32.3810909 C18.34756,32.3347273 18.4290894,32.2638182 18.4290894,32.1238182 L18.4290894,31.912 C18.4290894,31.4092727 18.4761953,30.8347273 18.6745835,30.2365455 C18.9780541,29.3101818 19.7607365,28.5956364 20.8586659,28.5956364 C21.6649012,28.5956364 22.1903129,28.9583636 22.1903129,29.4510909 C22.1903129,29.7792727 21.8986188,30.0129091 21.6177953,30.0129091 C21.44296,30.0129091 21.3496541,29.9429091 21.2789953,29.8492727 C20.9048659,29.3101818 20.6485012,29.0756364 20.3685835,29.0756364 C19.9709012,29.0756364 19.6556541,29.8729091 19.6556541,31.6310909 L19.6556541,31.982 C19.6556541,32.3347273 19.6674306,32.3583636 19.9129247,32.3583636 L21.1385835,32.3583636 C21.1856894,32.3938182 21.2092424,32.4638182 21.2092424,32.5456364 C21.2092424,32.7447273 21.1385835,32.8501818 21.0452776,32.9092727 L19.9011482,32.9092727 Z" id="Fill-33"></path>
                    <path d="M23.4627153,32.8737273 C23.2525506,32.8737273 23.2407741,32.8964545 23.2407741,33.2719091 L23.2407741,35.0773636 C23.2407741,35.8155455 23.3458565,36.4719091 24.0932094,36.4719091 C24.3269271,36.4719091 24.4673388,36.3900909 24.6539506,36.2619091 C24.7599388,36.2728182 24.8296918,36.3664545 24.8061388,36.4955455 C24.5724212,36.8237273 24.0352329,37.1400909 23.3232094,37.1400909 C22.2135035,37.1400909 22.0142094,36.4955455 22.0142094,35.6746364 L22.0142094,33.2955455 C22.0142094,32.8855455 21.9915624,32.8737273 21.8040447,32.8737273 L21.3954918,32.8737273 C21.2786329,32.8155455 21.25508,32.6273636 21.3610682,32.5564545 C21.7578447,32.4046364 22.0259859,32.2519091 22.2832565,32.0646364 C22.5051976,31.901 22.7624682,31.6546364 22.9255271,31.3382727 C23.0306094,31.2673636 23.1945741,31.3028182 23.2525506,31.3964545 L23.2525506,32.1000909 C23.2525506,32.2873636 23.2525506,32.3228182 23.4744918,32.3228182 L24.6313035,32.3228182 C24.7010565,32.3582727 24.7246094,32.4519091 24.7246094,32.5691818 C24.7128329,32.7091818 24.6657271,32.8155455 24.5724212,32.8737273 L23.4627153,32.8737273 Z" id="Fill-35"></path>
                    <path d="M27.5506906,33.7295455 C27.8894906,33.7295455 28.0416788,33.6940909 28.1232082,33.6468182 C28.1929612,33.6004545 28.2400671,33.5068182 28.2400671,33.4013636 C28.2400671,32.9795455 27.97102,32.6395455 27.4691612,32.6395455 C26.6864788,32.6395455 26.3241259,33.4013636 26.3241259,33.6468182 C26.3241259,33.6940909 26.3476788,33.7295455 26.4880906,33.7295455 L27.5506906,33.7295455 Z M26.4754082,34.1986364 C26.2534671,34.1986364 26.23082,34.2095455 26.23082,34.3504545 C26.23082,35.4059091 26.95462,36.2486364 27.9945729,36.2486364 C28.4620082,36.2486364 28.8470082,36.0968182 29.1160553,35.6631818 C29.2320082,35.6286364 29.3615494,35.7459091 29.37242,35.8504545 C28.9756435,36.7886364 28.1114318,37.1404545 27.3985024,37.1404545 C26.0442082,37.1404545 25.1446671,36.1322727 25.1446671,34.7959091 C25.1446671,33.4713636 26.0442082,32.1940909 27.6086671,32.1940909 C28.4737847,32.1940909 29.3615494,32.7568182 29.3615494,33.7768182 C29.3615494,33.8813636 29.3488671,33.9522727 29.3026671,34.0459091 C29.2320082,34.1513636 28.9638671,34.1986364 28.4964318,34.1986364 L26.4754082,34.1986364 Z" id="Fill-37"></path>
                    <path d="M33.4716282,33.6239091 C33.4716282,33.3893636 33.4372047,33.2257273 33.3203459,33.0611818 C33.1563812,32.8384545 32.8991106,32.6620909 32.5376635,32.6620909 C31.7432047,32.6620909 31.2413459,33.4484545 31.2413459,34.433 C31.2413459,35.6402727 31.87184,36.4375455 32.7007224,36.4375455 C32.9815459,36.4375455 33.2967929,36.2848182 33.3900988,36.1793636 C33.4489812,36.1202727 33.4716282,36.0148182 33.4716282,35.8502727 L33.4716282,33.6239091 Z M34.6981929,35.0657273 C34.6981929,36.1320909 34.7797224,36.4957273 34.9790165,36.4957273 C35.1076518,36.4957273 35.2942635,36.4602727 35.4690988,36.3902727 C35.5633106,36.4602727 35.5859576,36.7420909 35.4573224,36.8120909 C34.8621576,36.8702727 34.0323694,37.0702727 33.61204,37.2575455 C33.5540635,37.2457273 33.4951812,37.1993636 33.4716282,37.1284545 L33.4951812,36.953 C33.5187341,36.7775455 33.5069576,36.683 33.4834047,36.6248182 L33.4254282,36.613 C33.0748518,36.8702727 32.6427459,37.1402727 32.0820047,37.1402727 C30.7503576,37.1402727 29.9214753,36.0620909 29.9214753,34.8902727 C29.9214753,33.2020909 31.2639929,32.1939091 32.7242753,32.1939091 C33.0277459,32.1939091 33.2496871,32.2293636 33.4018753,32.2766364 C33.4489812,32.2639091 33.4716282,32.2175455 33.4716282,32.0884545 L33.4716282,30.553 C33.4716282,29.7675455 33.4489812,29.6975455 33.2034871,29.533 L33.0395224,29.4275455 C32.9697694,29.3802727 32.9579929,29.193 33.0395224,29.1584545 C33.4951812,29.0284545 34.1021224,28.783 34.5695576,28.5957273 C34.6402165,28.5839091 34.7099694,28.6302727 34.7335224,28.6884545 C34.7099694,29.1584545 34.6981929,29.8848182 34.6981929,30.3884545 L34.6981929,35.0657273 Z" id="Fill-39"></path>
                    <path d="M39.3342271,30.4119091 C39.3342271,30.0137273 39.6259212,29.7091818 40.0462506,29.7091818 C40.46658,29.7091818 40.75918,30.0137273 40.75918,30.4119091 C40.75918,30.8100909 40.46658,31.1146364 40.0462506,31.1146364 C39.6259212,31.1146364 39.3342271,30.8100909 39.3342271,30.4119091 L39.3342271,30.4119091 Z M40.6658741,35.5819091 C40.6658741,36.4491818 40.7120741,36.5664545 41.1097565,36.6364545 L41.3190153,36.6719091 C41.4014506,36.7537273 41.3896741,36.9646364 41.2963682,37.0119091 C40.8642624,36.9873636 40.46658,36.9764545 40.0344741,36.9764545 C39.6494741,36.9764545 39.2526976,36.9873636 38.8088153,37.0119091 C38.7146035,36.9646364 38.7037329,36.7537273 38.7852624,36.6719091 L38.9954271,36.6364545 C39.3922035,36.5664545 39.4393094,36.4491818 39.4393094,35.5819091 L39.4393094,33.8582727 C39.4393094,33.331 39.4393094,33.1900909 39.1467094,33.0137273 L39.0072035,32.9319091 C38.9718741,32.8855455 38.9718741,32.721 39.0180741,32.6628182 C39.6259212,32.4864545 40.2102153,32.2291818 40.5372388,32.0291818 C40.6069918,32.041 40.6658741,32.0646364 40.7002976,32.1237273 C40.6767447,32.511 40.6658741,33.0728182 40.6658741,33.5537273 L40.6658741,35.5819091 Z" id="Fill-41"></path>
                    <path d="M43.7955165,35.5814545 C43.7955165,36.4487273 43.8426224,36.5887273 44.2393988,36.6478182 L44.41514,36.6714545 C44.4957635,36.7532727 44.4848929,36.9641818 44.3906812,37.0114545 C43.9821282,36.9878182 43.5853518,36.976 43.1532459,36.976 C42.7791165,36.976 42.38234,36.9878182 41.8913518,37.0114545 C41.7980459,36.9641818 41.7862694,36.7532727 41.8687047,36.6714545 L42.1250694,36.636 C42.5227518,36.5778182 42.5689518,36.4487273 42.5689518,35.5814545 L42.5689518,33.8578182 C42.5689518,33.3305455 42.5689518,33.1896364 42.2772576,33.0141818 L42.1368459,32.9323636 C42.1015165,32.8850909 42.1015165,32.7214545 42.1486224,32.6623636 C42.6504812,32.5223636 43.2927518,32.2405455 43.6668812,32.0296364 C43.7484106,32.0296364 43.7955165,32.0769091 43.8181635,32.1232727 C43.7955165,32.346 43.7955165,32.5696364 43.7955165,32.6623636 C43.7955165,32.7450909 43.8308459,32.7678182 43.9005988,32.7796364 C44.4495635,32.4750909 44.7765871,32.1932727 45.5003871,32.1932727 C46.4470341,32.1932727 46.8909165,32.8496364 46.8909165,33.7641818 L46.8909165,35.5814545 C46.8909165,36.4487273 46.9380224,36.5887273 47.3338929,36.636 L47.60294,36.6714545 C47.6844694,36.7532727 47.6735988,36.9641818 47.5802929,37.0114545 C47.0893047,36.9878182 46.6916224,36.976 46.2604224,36.976 C45.8745165,36.976 45.4768341,36.9878182 45.0682812,37.0114545 C44.9749753,36.9641818 44.9631988,36.7532727 45.0456341,36.6714545 L45.2204694,36.6478182 C45.6181518,36.5887273 45.6643518,36.4487273 45.6643518,35.5814545 L45.6643518,33.9641818 C45.6643518,33.3650909 45.4306341,32.8969091 44.7294812,32.8969091 C44.3680341,32.8969091 44.07634,33.0850909 43.9594812,33.2605455 C43.8072929,33.4714545 43.7955165,33.5769091 43.7955165,34.0105455 L43.7955165,35.5814545 Z" id="Fill-43"></path>
                    <path d="M53.5584824,35.3701818 C53.5584824,36.2965455 53.5122824,37.1047273 53.3021176,37.632 C52.9279882,38.5583636 52.0755529,39.332 50.7439059,39.332 C50.4639882,39.332 50.1242824,39.262 50.1242824,38.9456364 C50.1242824,38.7229091 50.3235765,38.242 50.6623765,38.242 C50.8254353,38.242 51.0011765,38.3474545 51.1877882,38.4647273 C51.4794824,38.652 51.5845647,38.6756364 51.6896471,38.6756364 C51.9695647,38.6756364 52.0755529,37.9965455 52.0991059,37.7492727 C52.1217529,37.5501818 52.2041882,36.6947273 52.2041882,35.4529091 L52.2041882,30.952 C52.2041882,29.6974545 52.0991059,29.6729091 51.5383647,29.592 L51.1995647,29.5447273 C51.1180353,29.4856364 51.1289059,29.252 51.2231176,29.2047273 C51.8300588,29.2283636 52.3554706,29.2401818 52.8808824,29.2401818 C53.4062941,29.2401818 53.8972824,29.2283636 54.3302941,29.2047273 C54.4226941,29.252 54.4344706,29.4856364 54.3529412,29.5447273 L54.1889765,29.5683636 C53.6635647,29.6383636 53.5584824,29.6974545 53.5584824,30.952 L53.5584824,35.3701818 Z" id="Fill-45"></path>
                    <path d="M57.2723282,35.0888182 C57.2723282,34.9597273 57.2379047,34.8897273 57.1790224,34.8897273 C57.0857165,34.8897273 56.8755518,34.9488182 56.6653871,35.0306364 C56.3383635,35.147 56.0348929,35.3115455 56.0348929,35.8160909 C56.0348929,36.1206364 56.2441518,36.4960909 56.6880341,36.4960909 C57.1092694,36.4960909 57.2379047,36.2142727 57.2496812,35.9333636 L57.2723282,35.0888182 Z M58.4173635,35.487 C58.3820341,36.1679091 58.5568694,36.5188182 58.9781047,36.5188182 C59.1764929,36.5188182 59.3395518,36.3906364 59.3748812,36.3906364 C59.4337635,36.3906364 59.5152929,36.5188182 59.4808694,36.6242727 C59.2471518,36.9533636 58.6746341,37.1406364 58.3113753,37.1406364 C58.0196812,37.1406364 57.6935635,37.0579091 57.4716224,36.8124545 C57.3891871,36.7306364 57.3429871,36.6715455 57.2850106,36.6715455 C57.2261282,36.6715455 57.1436929,36.7306364 56.9688576,36.8360909 C56.7469165,36.9760909 56.39634,37.1406364 55.9760106,37.1406364 C55.1815518,37.1406364 54.7847753,36.5888182 54.7847753,36.0033636 C54.7847753,35.5815455 54.94874,35.1942727 55.7540694,34.9133636 C56.1626224,34.7724545 56.6074106,34.6088182 57.0386106,34.4442727 C57.2723282,34.3624545 57.3076576,34.257 57.3076576,34.1397273 L57.3194341,33.8351818 C57.3429871,33.237 57.1790224,32.7215455 56.6074106,32.7215455 C56.2794812,32.7215455 56.0348929,32.897 55.9877871,33.237 C55.96514,33.4597273 55.8944812,33.577 55.7658459,33.6597273 C55.6018812,33.7642727 55.2748576,33.8697273 55.0184929,33.8697273 C54.8663047,33.8697273 54.7965518,33.7879091 54.7965518,33.6824545 C54.7965518,33.5415455 54.8663047,33.2951818 55.2522106,32.9324545 C55.6145635,32.5924545 56.4552224,32.1933636 57.0512929,32.1933636 C57.9725753,32.1933636 58.5459988,32.6279091 58.4988929,33.6597273 L58.4173635,35.487 Z" id="Fill-47"></path>
                    <path d="M61.4301471,35.6871818 C61.4301471,36.0499091 61.5587824,36.2262727 61.8033706,36.4371818 C61.9555588,36.5662727 62.2472529,36.6717273 62.4229941,36.6717273 C63.2283235,36.6717273 63.6731118,35.8271818 63.6731118,34.749 C63.6731118,33.6353636 63.1005941,32.8735455 62.1892765,32.8735455 C61.9202294,32.8735455 61.6991941,32.9680909 61.5587824,33.1080909 C61.4654765,33.2135455 61.4301471,33.4126364 61.4301471,33.9053636 L61.4301471,35.6871818 Z M60.2035824,33.8580909 C60.2035824,33.3308182 60.2153588,33.2253636 59.9118882,33.0262727 L59.7714765,32.9326364 C59.7243706,32.8626364 59.7243706,32.7208182 59.7832529,32.6626364 C60.2497824,32.5335455 60.9518412,32.2053636 61.3015118,31.9708182 C61.3948176,31.9708182 61.4654765,32.0180909 61.4881235,32.0880909 C61.4527941,32.299 61.4301471,32.4399091 61.4301471,32.5453636 C61.4301471,32.6153636 61.4654765,32.6862727 61.5243588,32.6980909 C61.6756412,32.6280909 62.3641118,32.1935455 62.9719588,32.1935455 C64.2447235,32.1935455 64.9812059,33.1553636 64.9812059,34.3626364 C64.9812059,35.9917273 63.8361706,37.1408182 62.1195235,37.1408182 C61.9782059,37.1408182 61.7109706,37.1162727 61.6049824,37.0935455 C61.4999,37.1162727 61.4301471,37.1871818 61.4301471,37.4217273 L61.4301471,38.5708182 C61.4301471,39.4380909 61.4772529,39.5671818 61.8858059,39.6135455 L62.3061353,39.6608182 C62.3885706,39.7426364 62.3767941,39.9535455 62.2825824,39.9999091 C61.6756412,39.9771818 61.2199824,39.9653636 60.7878765,39.9653636 C60.4019706,39.9653636 59.9463118,39.9771818 59.4797824,39.9999091 C59.3864765,39.9535455 59.3737941,39.7426364 59.4562294,39.6608182 L59.7597,39.6253636 C60.1573824,39.5780909 60.2035824,39.4380909 60.2035824,38.5708182 L60.2035824,33.8580909 Z" id="Fill-49"></path>
                    <path d="M68.2038824,35.0888182 C68.2038824,34.9597273 68.1694588,34.8897273 68.1105765,34.8897273 C68.0172706,34.8897273 67.8071059,34.9488182 67.5960353,35.0306364 C67.2699176,35.147 66.9664471,35.3115455 66.9664471,35.8160909 C66.9664471,36.1206364 67.1757059,36.4960909 67.6195882,36.4960909 C68.0399176,36.4960909 68.1694588,36.2142727 68.1803294,35.9333636 L68.2038824,35.0888182 Z M69.3489176,35.487 C69.3135882,36.1679091 69.4884235,36.5188182 69.9096588,36.5188182 C70.1080471,36.5188182 70.2711059,36.3906364 70.3064353,36.3906364 C70.3653176,36.3906364 70.4468471,36.5188182 70.4115176,36.6242727 C70.1778,36.9533636 69.6061882,37.1406364 69.2429294,37.1406364 C68.9512353,37.1406364 68.6242118,37.0579091 68.4031765,36.8124545 C68.3207412,36.7306364 68.2736353,36.6715455 68.2156588,36.6715455 C68.1567765,36.6715455 68.0752471,36.7306364 67.9004118,36.8360909 C67.6784706,36.9760909 67.3278941,37.1406364 66.9075647,37.1406364 C66.1131059,37.1406364 65.7163294,36.5888182 65.7163294,36.0033636 C65.7163294,35.5815455 65.8802941,35.1942727 66.6847176,34.9133636 C67.0941765,34.7724545 67.5380588,34.6088182 67.9701647,34.4442727 C68.2038824,34.3624545 68.2383059,34.257 68.2383059,34.1397273 L68.2509882,33.8351818 C68.2736353,33.237 68.1105765,32.7215455 67.5380588,32.7215455 C67.2110353,32.7215455 66.9664471,32.897 66.9193412,33.237 C66.8957882,33.4597273 66.8260353,33.577 66.6974,33.6597273 C66.5334353,33.7642727 66.2064118,33.8697273 65.9500471,33.8697273 C65.7978588,33.8697273 65.7281059,33.7879091 65.7281059,33.6824545 C65.7281059,33.5415455 65.7978588,33.2951818 66.1837647,32.9324545 C66.5452118,32.5924545 67.3867765,32.1933636 67.9819412,32.1933636 C68.9041294,32.1933636 69.4766471,32.6279091 69.4304471,33.6597273 L69.3489176,35.487 Z" id="Fill-51"></path>
                    <path d="M72.5015694,35.5814545 C72.5015694,36.4487273 72.5486753,36.5887273 72.9454518,36.6478182 L73.1211929,36.6714545 C73.2027224,36.7532727 73.1909459,36.9641818 73.0967341,37.0114545 C72.6881812,36.9878182 72.2923106,36.976 71.8592988,36.976 C71.4851694,36.976 71.0883929,36.9878182 70.5974047,37.0114545 C70.5050047,36.9641818 70.4923224,36.7532727 70.5747576,36.6714545 L70.8311224,36.636 C71.2288047,36.5778182 71.2750047,36.4487273 71.2750047,35.5814545 L71.2750047,33.8578182 C71.2750047,33.3305455 71.2750047,33.1896364 70.9833106,33.0141818 L70.8428988,32.9323636 C70.8084753,32.8850909 70.8084753,32.7214545 70.8555812,32.6623636 C71.3565341,32.5223636 71.9997106,32.2405455 72.3729341,32.0296364 C72.4544635,32.0296364 72.5015694,32.0769091 72.5251224,32.1232727 C72.5015694,32.346 72.5015694,32.5696364 72.5015694,32.6623636 C72.5015694,32.7450909 72.5368988,32.7678182 72.6066518,32.7796364 C73.1556165,32.4750909 73.48264,32.1932727 74.2073459,32.1932727 C75.1530871,32.1932727 75.5969694,32.8496364 75.5969694,33.7641818 L75.5969694,35.5814545 C75.5969694,36.4487273 75.6440753,36.5887273 76.0408518,36.636 L76.3098988,36.6714545 C76.3914282,36.7532727 76.3796518,36.9641818 76.2863459,37.0114545 C75.7953576,36.9878182 75.3985812,36.976 74.9664753,36.976 C74.5805694,36.976 74.1828871,36.9878182 73.7743341,37.0114545 C73.6819341,36.9641818 73.6701576,36.7532727 73.7516871,36.6714545 L73.9265224,36.6478182 C74.3242047,36.5887273 74.3704047,36.4487273 74.3704047,35.5814545 L74.3704047,33.9641818 C74.3704047,33.3650909 74.1375929,32.8969091 73.43644,32.8969091 C73.0740871,32.8969091 72.7823929,33.0850909 72.6655341,33.2605455 C72.5133459,33.4714545 72.5015694,33.5769091 72.5015694,34.0105455 L72.5015694,35.5814545 Z" id="Fill-53"></path>
                </g>
            </g>
        </g>
    </g>
</svg>