<?xml version="1.0" encoding="UTF-8"?>
<svg width="364px" height="48px" viewBox="0 0 364 48" version="1.1" xmlns="http://www.w3.org/2000/svg" xmlns:xlink="http://www.w3.org/1999/xlink">
    <title>Group 45</title>
    <defs>
        <polygon id="path-1" points="0 0 13.4528003 0 13.4528003 19.9077937 0 19.9077937"></polygon>
    </defs>
    <g id="page" stroke="none" stroke-width="1" fill="none" fill-rule="evenodd">
        <g id="review_page" transform="translate(-930.000000, -1973.000000)">
            <g id="Group-26" transform="translate(929.000000, 1973.000000)">
                <g id="Group-13" transform="translate(0.500000, 0.000000)">
                    <g id="Group-45" transform="translate(0.500000, 0.000000)">
                        <polygon id="Fill-1" fill="#003E1B" points="31.5206909 0 26.0007197 3.08285714 20.4807485 0 19.6890968 1.39571429 24.3555236 4.00142857 0 17.6057143 0.791651673 19 26.0007197 4.92 51.2097877 19 52 17.6057143 27.6444764 4.00142857 32.3109032 1.39571429"></polygon>
                        <polygon id="Fill-2" fill="#003E1B" points="6 48 45 48 45 46 6 46"></polygon>
                        <g id="Group-44" transform="translate(81.370948, 3.236420)">
                            <path d="M9.25786062,24.9978116 C9.25786062,26.2699991 9.30543423,27.1195616 10.062287,27.1195616 C10.960419,27.1195616 12.0488454,26.0356866 13.6101246,24.3379991 L18.4352413,19.1486241 C19.0493733,18.5333741 20.4217997,16.9779991 20.9897997,16.2233116 C21.8417997,15.1379991 21.8879317,14.7613741 21.3213733,14.6190616 L19.8537997,14.1935616 C19.4760941,13.8658116 19.5712413,13.2045616 19.9489469,12.8264991 C21.9355053,12.9213741 23.4967845,12.9688116 25.2483581,12.9688116 C27.2810484,12.9688116 28.748622,12.8739366 30.452622,12.8264991 C30.9730484,12.9688116 31.066754,13.9592491 30.5924596,14.1935616 C26.1940637,14.8088116 24.9167845,15.9401241 21.6529469,19.1011866 C19.6188149,21.1294991 17.7259621,23.0629366 15.880683,24.9043741 C15.312683,25.4693116 15.2175357,25.7524991 15.7394038,26.4597491 C19.4760941,31.3673741 23.9710789,36.9793741 27.3761956,40.9411241 C28.3709165,42.1213116 29.4579012,42.5468116 30.8779012,42.7336866 L32.0124596,42.8759991 C32.3440332,43.1131866 32.2964596,44.1036241 31.918754,44.2459366 C30.2623276,44.1510616 28.3709165,44.1036241 25.8639317,44.1036241 C23.5443581,44.1036241 21.4165205,44.1510616 19.3333733,44.2459366 C18.8143885,44.0561866 18.8143885,43.1131866 19.2396677,42.8759991 L20.5169469,42.6876866 C21.2737997,42.5928116 21.3689469,42.0738741 20.8485205,41.4140616 C18.8619621,38.9616866 13.2309774,31.3199366 11.4808454,29.5273741 C11.1492718,29.1953116 10.7701246,28.8186866 10.3448454,28.8186866 C9.16271341,28.8186866 9.25786062,29.9499991 9.25786062,31.3199366 L9.25786062,37.3099991 C9.25786062,42.3110616 9.68313981,42.4533741 11.9061246,42.7336866 L13.0896982,42.8759991 C13.4198302,43.1131866 13.3722566,44.0561866 12.994551,44.2459366 C10.7701246,44.1510616 8.64228702,44.1036241 6.56058143,44.1036241 C4.47887585,44.1036241 2.25589108,44.1510616 0.551891078,44.2459366 C0.174185495,44.0561866 0.126611891,43.1131866 0.458185495,42.8759991 L1.11989108,42.7825616 C3.34431747,42.4533741 3.76815504,42.3110616 3.76815504,37.3099991 L3.76815504,19.7609991 C3.76815504,14.7613741 3.34431747,14.6664991 1.11989108,14.3358741 L0.221759099,14.1935616 C-0.109814505,13.8658116 -0.0622409014,13.0162491 0.315464682,12.8264991 C2.25589108,12.9213741 4.38517027,12.9688116 6.56058143,12.9688116 C8.64228702,12.9688116 10.7701246,12.9213741 12.6168454,12.8264991 C12.994551,13.0162491 13.0421246,13.9592491 12.7119926,14.1935616 L11.9061246,14.3358741 C9.68313981,14.7139366 9.25786062,14.7613741 9.25786062,19.7609991 L9.25786062,24.9978116 Z" id="Fill-3" fill="#003E1B"></path>
                            <path d="M42.5193063,42.8759991 C45.7845855,42.8759991 46.7302911,39.0091241 46.7302911,35.3765616 C46.7302911,31.4119366 45.3593063,26.7429366 41.8576007,26.7429366 C39.4443215,26.7429366 37.5529104,29.1953116 37.5529104,34.4321241 C37.5529104,38.7259366 39.1141896,42.8759991 42.5193063,42.8759991 M52.3122606,34.5744366 C52.3122606,41.2731866 47.5822911,44.7634366 41.9513063,44.7634366 C36.5120576,44.7634366 31.9709408,41.3191866 31.9709408,35.1393741 C31.9709408,28.8186866 36.794616,24.8554991 42.3304535,24.8554991 C47.6759967,24.8554991 52.3122606,28.4406241 52.3122606,34.5744366" id="Fill-5" fill="#003E1B"></path>
                            <path d="M56.9989814,31.5542491 C56.9989814,29.4324991 56.9989814,28.8646866 55.8168495,28.1574366 L55.2488495,27.8296866 C55.1075703,27.6399366 55.1075703,26.9801241 55.2949814,26.7429366 C57.3781286,26.1779991 59.932687,25.0452491 61.4463926,24.1956866 C61.7779662,24.1956866 61.966819,24.3854366 62.0605246,24.5723116 C61.966819,25.4693116 61.966819,26.3648741 61.966819,26.7429366 C61.966819,27.0721241 62.1080982,27.1669991 62.3920982,27.2144366 C64.7102302,25.9882491 65.9413774,24.8554991 69.1576413,24.8554991 C71.1917733,24.8554991 72.7530525,25.9422491 73.4147581,26.8378116 C73.6987581,27.2618741 73.9827581,27.5450616 74.1716109,27.5450616 C74.3604637,27.5450616 74.6459053,27.4027491 75.2124637,27.0721241 C77.4368901,25.7050616 79.0457429,24.8554991 81.2687276,24.8554991 C85.2418444,24.8554991 87.03955,27.4976241 87.03955,31.1776241 L87.03955,38.4887491 C87.03955,41.9789991 87.2298444,42.4993741 88.8386972,42.7336866 L89.8781083,42.8759991 C90.3062708,43.2066241 90.0684028,44.0561866 89.8781083,44.2459366 C87.8439764,44.1510616 86.2365652,44.1036241 84.4849916,44.1036241 C82.9237124,44.1036241 81.3163012,44.1510616 79.6137429,44.2459366 C79.2345956,44.0561866 79.187022,43.2066241 79.5185956,42.8759991 L80.2754484,42.7336866 C81.8843012,42.4533741 82.073154,41.9789991 82.073154,38.4887491 L82.073154,32.0746241 C82.073154,29.5748116 81.221154,27.6873741 78.2413165,27.6873741 C76.8688901,27.6873741 75.6391845,28.3946241 75.0711845,29.1018741 C74.5983317,29.6668116 74.5031845,30.2346241 74.5031845,31.5542491 L74.5031845,38.4887491 C74.5031845,41.9789991 74.6934789,42.5468116 76.3023317,42.7825616 L77.0101693,42.8759991 C77.3431845,43.2066241 77.2956109,44.0561866 76.915022,44.2459366 C75.2600373,44.1510616 73.6987581,44.1036241 71.9486261,44.1036241 C70.3887885,44.1036241 68.7784941,44.1510616 67.2172149,44.2459366 C66.8395094,44.0561866 66.7919357,43.2066241 67.1235094,42.8759991 L67.739083,42.7825616 C69.3464941,42.5468116 69.5367885,41.9789991 69.5367885,38.4887491 L69.5367885,32.0746241 C69.5367885,29.5748116 68.6847885,27.6873741 65.9413774,27.6873741 C64.3325246,27.6873741 63.1013774,28.4406241 62.5823926,29.1493116 C62.0143926,29.9039991 61.966819,30.3280616 61.966819,32.1694991 L61.966819,38.4887491 C61.966819,41.9789991 62.1556718,42.5468116 63.763083,42.7825616 L64.4738038,42.8759991 C64.8053774,43.2066241 64.7578038,44.0561866 64.3800982,44.2459366 C62.7236718,44.1510616 61.114819,44.1036241 59.364687,44.1036241 C57.8034078,44.1036241 56.2421286,44.1510616 54.4444231,44.2459366 C54.0652758,44.0561866 54.0191439,43.2066241 54.3492758,42.8759991 L55.2012758,42.7336866 C56.8101286,42.4533741 56.9989814,41.9789991 56.9989814,38.4887491 L56.9989814,31.5542491 Z" id="Fill-7" fill="#003E1B"></path>
                            <path d="M102.13624,42.8759991 C105.40152,42.8759991 106.347225,39.0091241 106.347225,35.3765616 C106.347225,31.4119366 104.974799,26.7429366 101.474535,26.7429366 C99.0612555,26.7429366 97.1684028,29.1953116 97.1684028,34.4321241 C97.1684028,38.7259366 98.7296819,42.8759991 102.13624,42.8759991 M111.929195,34.5744366 C111.929195,41.2731866 107.199225,44.7634366 101.56824,44.7634366 C96.12755,44.7634366 91.5864332,41.3191866 91.5864332,35.1393741 C91.5864332,28.8186866 96.4129916,24.8554991 101.947388,24.8554991 C107.294372,24.8554991 111.929195,28.4406241 111.929195,34.5744366" id="Fill-9" fill="#003E1B"></path>
                            <path d="M122.057182,38.4890366 C122.057182,41.9792866 122.246035,42.5470991 123.854888,42.7814116 L124.564167,42.8762866 C124.895741,43.2069116 124.848167,44.0564741 124.46902,44.2447866 C122.814035,44.1499116 121.205182,44.1039116 119.45505,44.1039116 C117.941345,44.1039116 116.33105,44.1499116 114.344492,44.2447866 C113.966787,44.0564741 113.919213,43.2069116 114.250787,42.8762866 L115.291639,42.7339741 C116.900492,42.4996616 117.089345,41.9792866 117.089345,38.4890366 L117.089345,31.5545366 C117.089345,29.4327866 117.089345,28.8649741 115.907213,28.1577241 L115.339213,27.8285366 C115.197934,27.6402241 115.197934,26.9804116 115.386787,26.7432241 C117.420918,26.1782866 120.021609,25.0455366 121.535314,24.1959741 C121.86833,24.1959741 122.057182,24.3842866 122.150888,24.5725991 C122.057182,25.4681616 122.057182,26.3651616 122.057182,26.7432241 C122.057182,27.0724116 122.198462,27.1672866 122.48102,27.2147241 C124.706888,25.9885366 126.030299,24.8557866 128.964005,24.8557866 C132.795842,24.8557866 134.593548,27.4979116 134.593548,31.1779116 L134.593548,38.4890366 C134.593548,41.9792866 134.782401,42.5470991 136.391254,42.7339741 L137.47968,42.8762866 C137.811254,43.2069116 137.76368,44.0564741 137.384533,44.2447866 C135.396533,44.1499116 133.789122,44.1039116 132.03899,44.1039116 C130.47771,44.1039116 128.870299,44.1499116 127.213873,44.2447866 C126.834726,44.0564741 126.787152,43.2069116 127.118726,42.8762866 L127.828005,42.7814116 C129.436858,42.5470991 129.62571,41.9792866 129.62571,38.4890366 L129.62571,31.9800366 C129.62571,29.5736616 128.680005,27.6876616 125.841446,27.6876616 C124.373873,27.6876616 123.193182,28.4409116 122.718888,29.1481616 C122.104756,29.9977241 122.057182,30.4232241 122.057182,32.1697866 L122.057182,38.4890366 Z" id="Fill-11" fill="#003E1B"></path>
                            <g id="Group-15" transform="translate(139.783257, 24.855787)">
                                <mask id="mask-2" fill="white">
                                    <use xlink:href="#path-1"></use>
                                </mask>
                                <g id="Clip-14"></g>
                                <path d="M0.680008406,18.3985625 C0.207155614,17.5015625 -0.0768443857,15.096625 0.0183028224,13.0683125 C0.300861198,12.6888125 1.01158201,12.6428125 1.34171399,12.9734375 C2.19371399,15.614125 3.94384597,18.115375 6.45227237,18.115375 C7.91840435,18.115375 9.10053632,17.1235 9.10053632,15.47325 C9.10053632,13.728125 7.53925714,12.595375 5.88427237,11.79325 C3.42341957,10.6145 0.868861198,8.869375 0.868861198,5.8491875 C0.822729218,2.170625 3.99141957,0 7.91840435,0 C9.85738912,0 11.6565363,0.566375 12.3182419,0.9444375 C12.7910947,1.934875 13.0275211,3.3968125 13.0275211,5.5214375 C12.8862419,5.896625 12.0818155,6.0389375 11.7502419,5.75575 C11.0409627,3.585125 9.52725714,1.7925625 7.68197795,1.7925625 C6.16827237,1.7925625 5.03227237,2.8793125 5.03227237,4.246375 C5.03227237,5.614875 6.40469876,6.603875 8.20096272,7.4534375 C10.7569627,8.6810625 13.4528003,10.283875 13.4528003,14.0113125 C13.4528003,18.115375 9.80981551,19.9079375 6.07312516,19.9079375 C4.13414039,19.9079375 2.19371399,19.529875 0.680008406,18.3985625" id="Fill-13" fill="#003E1B" mask="url(#mask-2)"></path>
                            </g>
                            <path d="M180.820242,3.8388179 C180.699146,3.9768179 180.387755,3.9926304 180.2681,3.8733179 C179.97545,2.7908804 179.198415,1.3605679 176.920648,1.3605679 C174.730821,1.3605679 172.522252,2.9101929 172.522252,6.4378179 C172.522252,10.1005679 174.817318,11.8902554 177.041745,11.8902554 C179.214273,11.8902554 180.164303,10.4441304 180.647247,9.3257554 C180.802943,9.1705054 181.078293,9.2395054 181.164791,9.3961929 C181.043694,10.5476304 180.578049,11.6846929 180.337298,12.0110054 C180.129704,12.0440679 179.92211,12.1130679 179.731816,12.1648179 C179.352669,12.2841304 178.163329,12.5788179 177.041745,12.5788179 C175.334862,12.5788179 173.867288,12.2323804 172.624608,11.4245054 C171.227674,10.5145679 170.175288,8.9476929 170.175288,6.6936929 C170.175288,4.6811929 171.071978,3.1171929 172.349258,2.1353804 C173.625095,1.1722554 175.368019,0.674880398 177.110943,0.674880398 C178.094131,0.674880398 179.284912,0.844505398 180.095105,1.0529429 C180.302699,1.1046929 180.423796,1.1205054 180.578049,1.1550054 C180.612648,1.5503179 180.647247,2.5651929 180.820242,3.8388179" id="Fill-16" fill="#003E1B"></path>
                            <path d="M182.955288,7.72596165 C182.955288,6.95258665 182.955288,6.74558665 182.522801,6.48827415 L182.316648,6.36752415 C182.26475,6.29996165 182.26475,6.05702415 182.332506,5.97221165 C183.074943,5.72927415 183.990374,5.35121165 184.507917,5.04358665 C184.610273,5.04358665 184.71407,5.09389915 184.748669,5.19739915 C184.731369,5.52371165 184.71407,5.81552415 184.71407,5.97221165 C184.71407,6.09152415 184.783268,6.17777415 184.887065,6.17777415 C185.420466,5.79971165 185.989907,5.28364915 186.57809,5.28364915 C187.182131,5.28364915 187.525237,5.67896165 187.525237,6.12746165 C187.525237,6.79733665 187.024994,7.12364915 186.559349,7.12364915 C186.387796,7.12364915 186.2321,7.07189915 186.093704,6.98564915 C185.661217,6.69383665 185.370009,6.65933665 185.266212,6.65933665 C184.869765,6.65933665 184.764527,7.05608665 184.764527,7.89846165 L184.764527,10.2545241 C184.764527,11.5281491 184.835166,11.7164616 185.439207,11.7868991 L186.111004,11.8544616 C186.2321,11.9766491 186.214801,12.2842741 186.076405,12.3547116 C185.041318,12.3187741 184.454577,12.3029616 183.817379,12.3029616 C183.247938,12.3029616 182.678496,12.3187741 182.023999,12.3547116 C181.884161,12.2842741 181.868303,11.9766491 181.987958,11.8544616 L182.299349,11.8027116 C182.884648,11.7006491 182.955288,11.5281491 182.955288,10.2545241 L182.955288,7.72596165 Z" id="Fill-18" fill="#003E1B"></path>
                            <path d="M191.664141,9.53347415 C191.664141,9.34516165 191.612242,9.23878665 191.525745,9.23878665 C191.387349,9.23878665 191.0774,9.32503665 190.76745,9.44722415 C190.283065,9.61828665 189.83472,9.86122415 189.83472,10.5986616 C189.83472,11.0471616 190.14611,11.5977241 190.800608,11.5977241 C191.42339,11.5977241 191.612242,11.1837241 191.629542,10.7711616 L191.664141,9.53347415 Z M193.355166,10.1170991 C193.303268,11.1147241 193.561318,11.6307866 194.182659,11.6307866 C194.47675,11.6307866 194.717501,11.4410366 194.7694,11.4410366 C194.855897,11.4410366 194.975552,11.6307866 194.923654,11.7860366 C194.579105,12.2675991 193.734313,12.5435991 193.199471,12.5435991 C192.768425,12.5435991 192.285481,12.4214116 191.956791,12.0620366 C191.837136,11.9412866 191.766496,11.8550366 191.679999,11.8550366 C191.594943,11.8550366 191.473846,11.9412866 191.215796,12.0950991 C190.887105,12.3020991 190.371004,12.5435991 189.748222,12.5435991 C188.57474,12.5435991 187.98944,11.7357241 187.98944,10.8746616 C187.98944,10.2550991 188.231633,9.68728665 189.420973,9.27472415 C190.025014,9.06916165 190.680953,8.82766165 191.318151,8.58616165 C191.664141,8.46684915 191.716039,8.31159915 191.716039,8.13909915 L191.733339,7.69203665 C191.766496,6.81516165 191.525745,6.05759915 190.680953,6.05759915 C190.198009,6.05759915 189.83472,6.31634915 189.766963,6.81516165 C189.732364,7.14147415 189.628567,7.31397415 189.438273,7.43472415 C189.197522,7.58853665 188.713136,7.74234915 188.333989,7.74234915 C188.109095,7.74234915 188.00674,7.62303665 188.00674,7.46922415 C188.00674,7.26078665 188.109095,6.89997415 188.679978,6.36666165 C189.214821,5.86784915 190.45606,5.28422415 191.33545,5.28422415 C192.699227,5.28422415 193.544019,5.92103665 193.474821,7.43472415 L193.355166,10.1170991 Z" id="Fill-20" fill="#003E1B"></path>
                            <path d="M198.37101,6.3320179 C198.009162,6.3320179 198.009162,6.3665179 198.009162,6.8667679 L198.009162,10.2549554 C198.009162,11.5271429 198.07836,11.7168929 198.682401,11.7858929 L199.354198,11.8548929 C199.476736,11.9756429 199.457995,12.2847054 199.32104,12.3537054 C198.544005,12.3192054 197.872208,12.3019554 197.060573,12.3019554 C196.491132,12.3019554 195.905832,12.3192054 195.197995,12.3537054 C195.059599,12.2847054 195.042299,11.9756429 195.163396,11.8548929 L195.542543,11.8031429 C196.129284,11.7168929 196.198482,11.5271429 196.198482,10.2549554 L196.198482,6.8480804 C196.198482,6.3837679 196.181182,6.3320179 195.887091,6.3320179 L195.265751,6.3320179 C195.127355,6.2644554 195.094198,6.0402054 195.215294,5.9381429 L195.956289,5.5586429 C196.077385,5.4896429 196.198482,5.3861429 196.198482,5.1805804 L196.198482,4.8700804 C196.198482,4.1297679 196.26768,3.2873929 196.56033,2.4119554 C197.008675,1.0535179 198.164858,0.00270539775 199.786685,0.00270539775 C200.977467,0.00270539775 201.753061,0.536017898 201.753061,1.2590804 C201.753061,1.7392054 201.322015,2.0842054 200.906827,2.0842054 C200.650218,2.0842054 200.51038,1.9807054 200.408025,1.8412679 C199.855883,1.0535179 199.476736,0.707080398 199.061548,0.707080398 C198.474807,0.707080398 198.009162,1.8772054 198.009162,4.4575179 L198.009162,4.9735804 C198.009162,5.4896429 198.026462,5.5241429 198.389751,5.5241429 L200.200431,5.5241429 C200.269629,5.5758929 200.304228,5.6779554 200.304228,5.8001429 C200.304228,6.0919554 200.200431,6.2457679 200.062035,6.3320179 L198.37101,6.3320179 Z" id="Fill-22" fill="#003E1B"></path>
                            <path d="M203.632218,6.2808429 C203.322269,6.2808429 203.303528,6.3153429 203.303528,6.8673429 L203.303528,9.5152179 C203.303528,10.5976554 203.459223,11.5622179 204.563507,11.5622179 C204.908056,11.5622179 205.115649,11.4414679 205.392441,11.2517179 C205.546695,11.2704054 205.64905,11.4084054 205.614451,11.5981554 C205.269903,12.0782804 204.475568,12.5425929 203.424624,12.5425929 C201.785497,12.5425929 201.492847,11.5981554 201.492847,10.3920929 L201.492847,6.9004054 C201.492847,6.2995304 201.458248,6.2808429 201.181457,6.2808429 L200.578858,6.2808429 C200.405863,6.1945929 200.371264,5.9214679 200.525517,5.8165304 C201.1137,5.5937179 201.508705,5.3709054 201.889294,5.0949054 C202.216543,4.8534054 202.59569,4.4925929 202.837883,4.0282804 C202.993578,3.9247804 203.235771,3.9765304 203.322269,4.1145304 L203.322269,5.1452179 C203.322269,5.4212179 203.322269,5.4729679 203.649517,5.4729679 L205.356401,5.4729679 C205.460198,5.5247179 205.494797,5.6627179 205.494797,5.8352179 C205.478939,6.0407804 205.408299,6.1945929 205.269903,6.2808429 L203.632218,6.2808429 Z" id="Fill-24" fill="#003E1B"></path>
                            <path d="M209.667578,7.5372179 C210.167822,7.5372179 210.391274,7.4854679 210.51237,7.4164679 C210.616167,7.3474679 210.685365,7.2094679 210.685365,7.0556554 C210.685365,6.4375304 210.288918,5.9372804 209.546482,5.9372804 C208.390299,5.9372804 207.855457,7.0556554 207.855457,7.4164679 C207.855457,7.4854679 207.891497,7.5372179 208.096208,7.5372179 L209.667578,7.5372179 Z M208.08035,8.2257804 C207.75166,8.2257804 207.717061,8.2430304 207.717061,8.4471554 C207.717061,9.9982179 208.788188,11.2359054 210.323517,11.2359054 C211.014056,11.2359054 211.582056,11.0116554 211.979944,10.3762804 C212.152939,10.3245304 212.341792,10.4955929 212.359091,10.6494054 C211.770908,12.0279679 210.495071,12.5425929 209.442685,12.5425929 C207.44171,12.5425929 206.113974,11.0634054 206.113974,9.1012179 C206.113974,7.1591554 207.44171,5.2846554 209.754076,5.2846554 C211.031355,5.2846554 212.341792,6.1097804 212.341792,7.6062179 C212.341792,7.7614679 212.32305,7.8649679 212.255294,8.0015304 C212.152939,8.1567804 211.75505,8.2257804 211.064512,8.2257804 L208.08035,8.2257804 Z" id="Fill-26" fill="#003E1B"></path>
                            <path d="M218.410886,7.3828304 C218.410886,7.0378304 218.358988,6.7963304 218.187434,6.5562679 C217.945241,6.2299554 217.566094,5.9726429 217.02981,5.9726429 C215.857769,5.9726429 215.115333,7.1240804 215.115333,8.5687679 C215.115333,10.3412054 216.046622,11.5113304 217.272003,11.5113304 C217.685749,11.5113304 218.151394,11.2870804 218.291231,11.1332679 C218.377729,11.0470179 218.410886,10.8917679 218.410886,10.6488304 L218.410886,7.3828304 Z M220.221566,9.4988304 C220.221566,11.0628304 220.344104,11.5975804 220.636754,11.5975804 C220.825607,11.5975804 221.102399,11.5458304 221.360449,11.4408929 C221.498845,11.5458304 221.533444,11.9569554 221.344592,12.0618929 C220.463759,12.1467054 219.238378,12.4413929 218.61848,12.7159554 C218.530541,12.6972679 218.444043,12.6297054 218.410886,12.5276429 L218.444043,12.2674554 C218.480084,12.0101429 218.462784,11.8735804 218.428185,11.7858929 L218.341688,11.7686429 C217.824145,12.1467054 217.185505,12.5434554 216.358013,12.5434554 C214.391637,12.5434554 213.166257,10.9607679 213.166257,9.2400804 C213.166257,6.7647054 215.149932,5.2840804 217.306602,5.2840804 C217.754947,5.2840804 218.082196,5.3358304 218.307089,5.4048304 C218.377729,5.3861429 218.410886,5.3185804 218.410886,5.1302679 L218.410886,2.8762679 C218.410886,1.7233929 218.377729,1.6198929 218.014439,1.3798304 L217.773688,1.2231429 C217.669891,1.1555804 217.65115,0.881017898 217.773688,0.827830398 C218.444043,0.639517898 219.342175,0.277267898 220.032713,0.00270539775 C220.135069,-0.0145446023 220.240307,0.0530178977 220.273465,0.139267898 C220.240307,0.827830398 220.221566,1.8958929 220.221566,2.6333304 L220.221566,9.4988304 Z" id="Fill-28" fill="#003E1B"></path>
                            <path d="M227.065534,2.66883665 C227.065534,2.08521165 227.496579,1.63671165 228.11792,1.63671165 C228.73926,1.63671165 229.170305,2.08521165 229.170305,2.66883665 C229.170305,3.25533665 228.73926,3.70096165 228.11792,3.70096165 C227.496579,3.70096165 227.065534,3.25533665 227.065534,2.66883665 L227.065534,2.66883665 Z M229.031909,10.2545241 C229.031909,11.5281491 229.101107,11.7006491 229.687848,11.8027116 L229.999239,11.8544616 C230.118894,11.9766491 230.101595,12.2842741 229.96464,12.3547116 C229.324559,12.3187741 228.73926,12.3029616 228.10062,12.3029616 C227.531178,12.3029616 226.945879,12.3187741 226.28994,12.3547116 C226.151544,12.2842741 226.134244,11.9766491 226.255341,11.8544616 L226.56529,11.8027116 C227.152031,11.7006491 227.221229,11.5281491 227.221229,10.2545241 L227.221229,7.72596165 C227.221229,6.95258665 227.221229,6.74558665 226.790183,6.48827415 L226.58259,6.36752415 C226.530691,6.29996165 226.530691,6.05702415 226.599889,5.97221165 C227.496579,5.71346165 228.360112,5.33539915 228.843057,5.04358665 C228.945412,5.05939915 229.031909,5.09389915 229.083808,5.18158665 C229.049209,5.74939915 229.031909,6.57308665 229.031909,7.28033665 L229.031909,10.2545241 Z" id="Fill-30" fill="#003E1B"></path>
                            <path d="M233.65419,10.2549554 C233.65419,11.5271429 233.723388,11.7355804 234.310129,11.8189554 L234.568179,11.8548929 C234.689276,11.9756429 234.671976,12.2847054 234.53358,12.3537054 C233.92954,12.3192054 233.34424,12.3019554 232.705601,12.3019554 C232.153459,12.3019554 231.566717,12.3192054 230.843022,12.3537054 C230.704626,12.2847054 230.687327,11.9756429 230.806981,11.8548929 L231.18757,11.8031429 C231.77287,11.7168929 231.842068,11.5271429 231.842068,10.2549554 L231.842068,7.7263929 C231.842068,6.9530179 231.842068,6.7460179 231.411022,6.4887054 L231.20487,6.3665179 C231.152971,6.3003929 231.152971,6.0574554 231.222169,5.9726429 C231.964606,5.7642054 232.913195,5.3516429 233.463895,5.0440179 C233.584992,5.0440179 233.65419,5.1115804 233.687347,5.1805804 C233.65419,5.5083304 233.65419,5.8346429 233.65419,5.9726429 C233.65419,6.0919554 233.706088,6.1264554 233.809885,6.1437054 C234.620078,5.6966429 235.103022,5.2840804 236.172707,5.2840804 C237.569641,5.2840804 238.22558,6.2457679 238.22558,7.5883929 L238.22558,10.2549554 C238.22558,11.5271429 238.294778,11.7355804 238.88152,11.8031429 L239.277966,11.8548929 C239.399063,11.9756429 239.381763,12.2847054 239.243367,12.3537054 C238.519672,12.3192054 237.932931,12.3019554 237.294291,12.3019554 C236.724849,12.3019554 236.138108,12.3192054 235.535509,12.3537054 C235.397113,12.2847054 235.378372,11.9756429 235.50091,11.8548929 L235.758961,11.8189554 C236.345702,11.7355804 236.413459,11.5271429 236.413459,10.2549554 L236.413459,7.8802054 C236.413459,7.0047679 236.06891,6.3162054 235.035266,6.3162054 C234.498981,6.3162054 234.067936,6.5922054 233.896382,6.8480804 C233.671489,7.1585804 233.65419,7.3138304 233.65419,7.9506429 L233.65419,10.2549554 Z" id="Fill-32" fill="#003E1B"></path>
                            <path d="M248.071154,9.9447429 C248.071154,11.3031804 248.003398,12.4919929 247.692007,13.2653679 C247.139865,14.6238054 245.879885,15.7608679 243.914951,15.7608679 C243.499763,15.7608679 242.998078,15.6559304 242.998078,15.1916179 C242.998078,14.8638679 243.293611,14.1594929 243.792413,14.1594929 C244.034606,14.1594929 244.294098,14.3161804 244.569448,14.4858054 C245.001936,14.7618054 245.15619,14.7963054 245.310443,14.7963054 C245.725631,14.7963054 245.879885,13.8001179 245.914484,13.4378679 C245.949083,13.1460554 246.070179,11.8896804 246.070179,10.0654929 L246.070179,3.4601804 C246.070179,1.6201804 245.914484,1.5856804 245.088433,1.4634929 L244.586748,1.3959304 C244.465651,1.3096804 244.482951,0.966117898 244.621347,0.897117898 C245.518037,0.931617898 246.293631,0.947430398 247.070667,0.947430398 C247.847702,0.947430398 248.572839,0.931617898 249.210037,0.897117898 C249.346992,0.966117898 249.365733,1.3096804 249.244636,1.3959304 L249.002443,1.4318679 C248.226849,1.5339304 248.071154,1.6201804 248.071154,3.4601804 L248.071154,9.9447429 Z" id="Fill-34" fill="#003E1B"></path>
                            <path d="M253.555381,9.53347415 C253.555381,9.34516165 253.503483,9.23878665 253.416985,9.23878665 C253.280031,9.23878665 252.967199,9.32503665 252.657249,9.44722415 C252.174305,9.61828665 251.72596,9.86122415 251.72596,10.5986616 C251.72596,11.0471616 252.037351,11.5977241 252.691848,11.5977241 C253.313189,11.5977241 253.503483,11.1837241 253.520782,10.7711616 L253.555381,9.53347415 Z M255.246407,10.1170991 C255.193067,11.1147241 255.452559,11.6307866 256.073899,11.6307866 C256.366549,11.6307866 256.608742,11.4410366 256.66064,11.4410366 C256.747138,11.4410366 256.866793,11.6307866 256.814894,11.7860366 C256.470346,12.2675991 255.625554,12.5435991 255.090711,12.5435991 C254.658224,12.5435991 254.176722,12.4214116 253.848031,12.0620366 C253.728376,11.9412866 253.659178,11.8550366 253.572681,11.8550366 C253.486183,11.8550366 253.366529,11.9412866 253.105595,12.0950991 C252.778346,12.3020991 252.260803,12.5435991 251.639463,12.5435991 C250.467422,12.5435991 249.880681,11.7357241 249.880681,10.8746616 C249.880681,10.2550991 250.122874,9.68728665 251.312214,9.27472415 C251.916255,9.06916165 252.572194,8.82766165 253.209392,8.58616165 C253.555381,8.46684915 253.60728,8.31159915 253.60728,8.13909915 L253.623138,7.69203665 C253.659178,6.81516165 253.416985,6.05759915 252.572194,6.05759915 C252.087808,6.05759915 251.72596,6.31634915 251.656762,6.81516165 C251.622163,7.14147415 251.519808,7.31397415 251.329513,7.43472415 C251.087321,7.58853665 250.605818,7.74234915 250.225229,7.74234915 C250.001777,7.74234915 249.89798,7.62303665 249.89798,7.46922415 C249.89798,7.26078665 250.001777,6.89997415 250.569777,6.36666165 C251.10462,5.86784915 252.3473,5.28422415 253.228133,5.28422415 C254.590468,5.28422415 255.436701,5.92103665 255.366062,7.43472415 L255.246407,10.1170991 Z" id="Fill-36" fill="#003E1B"></path>
                            <path d="M259.69353,10.4093429 C259.69353,10.9440929 259.882382,11.1999679 260.245672,11.5119054 C260.470565,11.7002179 260.901611,11.8540304 261.159662,11.8540304 C262.350443,11.8540304 263.006382,10.6177804 263.006382,9.0336554 C263.006382,7.3992179 262.160149,6.2808429 260.815113,6.2808429 C260.418667,6.2808429 260.089976,6.4188429 259.882382,6.6258429 C259.745428,6.7810929 259.69353,7.0729054 259.69353,7.7959679 L259.69353,10.4093429 Z M257.882849,7.7255304 C257.882849,6.9535929 257.900149,6.7969054 257.450362,6.5050929 L257.24421,6.3670929 C257.17357,6.2650304 257.17357,6.0565929 257.261509,5.9732179 C257.952047,5.7834679 258.985692,5.3004679 259.504677,4.9569054 C259.641631,4.9569054 259.745428,5.0244679 259.780027,5.1294054 C259.728129,5.4384679 259.69353,5.6454679 259.69353,5.7992804 C259.69353,5.9027804 259.745428,6.0062804 259.831926,6.0235304 C260.056819,5.9214679 261.073164,5.2846554 261.971296,5.2846554 C263.851174,5.2846554 264.938159,6.6948429 264.938159,8.4658429 C264.938159,10.8578429 263.247134,12.5425929 260.711316,12.5425929 C260.503723,12.5425929 260.108717,12.5080929 259.953022,12.4735929 C259.795885,12.5080929 259.69353,12.6115929 259.69353,12.9565929 L259.69353,14.6427804 C259.69353,15.9149679 259.762728,16.1032804 260.365327,16.1722804 L260.986667,16.2412804 C261.107763,16.3605929 261.091905,16.6710929 260.953509,16.7386554 C260.056819,16.7055929 259.382139,16.6883429 258.744941,16.6883429 C258.175499,16.6883429 257.500819,16.7055929 256.813164,16.7386554 C256.674768,16.6710929 256.657469,16.3605929 256.778565,16.2412804 L257.22691,16.1895304 C257.813651,16.1205304 257.882849,15.9149679 257.882849,14.6427804 L257.882849,7.7255304 Z" id="Fill-38" fill="#003E1B"></path>
                            <path d="M269.69552,9.53347415 C269.69552,9.34516165 269.643621,9.23878665 269.557124,9.23878665 C269.418728,9.23878665 269.11022,9.32503665 268.798829,9.44722415 C268.315885,9.61828665 267.866098,9.86122415 267.866098,10.5986616 C267.866098,11.0471616 268.177489,11.5977241 268.833428,11.5977241 C269.454768,11.5977241 269.643621,11.1837241 269.662362,10.7711616 L269.69552,9.53347415 Z M271.386545,10.1170991 C271.334646,11.1147241 271.592697,11.6307866 272.215479,11.6307866 C272.508129,11.6307866 272.74888,11.4410366 272.800778,11.4410366 C272.887276,11.4410366 273.008372,11.6307866 272.956474,11.7860366 C272.610484,12.2675991 271.765692,12.5435991 271.230849,12.5435991 C270.801245,12.5435991 270.31686,12.4214116 269.989611,12.0620366 C269.868514,11.9412866 269.799316,11.8550366 269.712819,11.8550366 C269.627763,11.8550366 269.505225,11.9412866 269.247174,12.0950991 C268.919926,12.3020991 268.402382,12.5435991 267.781042,12.5435991 C266.60756,12.5435991 266.020819,11.7357241 266.020819,10.8746616 C266.020819,10.2550991 266.263012,9.68728665 267.453794,9.27472415 C268.056393,9.06916165 268.712332,8.82766165 269.350971,8.58616165 C269.69552,8.46684915 269.747418,8.31159915 269.747418,8.13909915 L269.764717,7.69203665 C269.799316,6.81516165 269.557124,6.05759915 268.712332,6.05759915 C268.229388,6.05759915 267.866098,6.31634915 267.798342,6.81516165 C267.763743,7.14147415 267.659946,7.31397415 267.471093,7.43472415 C267.230342,7.58853665 266.745956,7.74234915 266.365367,7.74234915 C266.141915,7.74234915 266.038118,7.62303665 266.038118,7.46922415 C266.038118,7.26078665 266.141915,6.89997415 266.712799,6.36666165 C267.2462,5.86784915 268.48888,5.28422415 269.366829,5.28422415 C270.730606,5.28422415 271.575398,5.92103665 271.507641,7.43472415 L271.386545,10.1170991 Z" id="Fill-40" fill="#003E1B"></path>
                            <path d="M276.041406,10.2549554 C276.041406,11.5271429 276.109162,11.7355804 276.697345,11.8189554 L276.955396,11.8548929 C277.076492,11.9756429 277.059193,12.2847054 276.920797,12.3537054 C276.318198,12.3192054 275.730015,12.3019554 275.092817,12.3019554 C274.540675,12.3019554 273.953934,12.3192054 273.228797,12.3537054 C273.091842,12.2847054 273.074543,11.9756429 273.194198,11.8548929 L273.573345,11.8031429 C274.161528,11.7168929 274.229284,11.5271429 274.229284,10.2549554 L274.229284,7.7263929 C274.229284,6.9530179 274.229284,6.7460179 273.798238,6.4887054 L273.592086,6.3665179 C273.540188,6.3003929 273.540188,6.0574554 273.609385,5.9726429 C274.351822,5.7642054 275.298969,5.3516429 275.852553,5.0440179 C275.972208,5.0440179 276.041406,5.1115804 276.076005,5.1805804 C276.041406,5.5083304 276.041406,5.8346429 276.041406,5.9726429 C276.041406,6.0919554 276.093304,6.1264554 276.19566,6.1437054 C277.007294,5.6966429 277.49168,5.2840804 278.559924,5.2840804 C279.956858,5.2840804 280.612797,6.2457679 280.612797,7.5883929 L280.612797,10.2549554 C280.612797,11.5271429 280.683436,11.7355804 281.268736,11.8031429 L281.665182,11.8548929 C281.786279,11.9756429 281.768979,12.2847054 281.630583,12.3537054 C280.906888,12.3192054 280.320147,12.3019554 279.680066,12.3019554 C279.112066,12.3019554 278.526766,12.3192054 277.922726,12.3537054 C277.78433,12.2847054 277.76703,11.9756429 277.886685,11.8548929 L278.146177,11.8189554 C278.732918,11.7355804 278.802116,11.5271429 278.802116,10.2549554 L278.802116,7.8802054 C278.802116,7.0047679 278.456127,6.3162054 277.42104,6.3162054 C276.886198,6.3162054 276.456594,6.5922054 276.282157,6.8480804 C276.058705,7.1585804 276.041406,7.3138304 276.041406,7.9506429 L276.041406,10.2549554 Z" id="Fill-42" fill="#003E1B"></path>
                        </g>
                    </g>
                </g>
            </g>
        </g>
    </g>
</svg>