<?xml version="1.0" encoding="UTF-8"?>
<svg width="440px" height="480px" viewBox="0 0 440 480" version="1.1" xmlns="http://www.w3.org/2000/svg" xmlns:xlink="http://www.w3.org/1999/xlink">
    <!-- Generator: Sketch 54.1 (76490) - https://sketchapp.com -->
    <title>calendar (1)</title>
    <desc>Created with Sketch.</desc>
    <g id="Welcome" stroke="none" stroke-width="1" fill="none" fill-rule="evenodd">
        <g id="index_old" transform="translate(-575.000000, -1438.000000)" fill="#FFFFFF" fill-rule="nonzero">
            <g id="calendar-(1)" transform="translate(575.000000, 1438.000000)">
                <path d="M392,16 L368,16 L368,8 C368,3.582 364.418,0 360,0 C355.582,0 352,3.582 352,8 L352,16 L336,16 L336,8 C336,3.582 332.418,0 328,0 C323.582,0 320,3.582 320,8 L320,16 L304,16 L304,8 C304,3.582 300.418,0 296,0 C291.582,0 288,3.582 288,8 L288,16 L272,16 L272,8 C272,3.582 268.418,0 264,0 C259.582,0 256,3.582 256,8 L256,16 L144,16 L144,8 C144,3.582 140.418,0 136,0 C131.582,0 128,3.582 128,8 L128,16 L112,16 L112,8 C112,3.582 108.418,0 104,0 C99.582,0 96,3.582 96,8 L96,16 L80,16 L80,8 C80,3.582 76.418,0 72,0 C67.582,0 64,3.582 64,8 L64,16 L48,16 L48,8 C48,3.582 44.418,0 40,0 C35.582,0 32,3.582 32,8 L32,16 L8,16 C3.582,16 0,19.582 0,24 L0,400 C0,404.418 3.582,408 8,408 L240.4,408 C244.818,408.011 248.409,404.438 248.42,400.02 C248.42,399.827 248.414,399.633 248.4,399.44 L248.336,398.512 C248.16,396.352 248,394.192 248,392 C248.026,384.082 248.96,376.193 250.784,368.488 C252.564,360.818 255.224,353.379 258.712,346.32 C259.056,345.616 259.368,344.904 259.728,344.208 C260.792,342.176 261.944,340.208 263.136,338.248 C263.512,337.632 263.88,337 264.272,336.392 C265.568,334.36 266.933,332.379 268.368,330.448 C268.664,330.04 268.968,329.648 269.272,329.232 C270.872,327.141 272.533,325.115 274.256,323.152 L274.496,322.888 C285.924,310.134 300.288,300.356 316.344,294.4 L317.752,293.88 C319.912,293.12 322.104,292.448 324.32,291.824 C325.32,291.544 326.336,291.288 327.352,291.024 C329.224,290.56 331.104,290.128 333.008,289.768 C334.608,289.472 336.272,289.248 337.912,289.024 C339.36,288.816 340.792,288.584 342.256,288.448 C345.456,288.144 348.712,287.952 352,287.952 C354.168,287.952 356.304,288.12 358.4,288.264 L359.4,288.336 C359.464,288.336 359.536,288.336 359.6,288.336 C369.7,289.095 379.636,291.318 389.096,294.936 C393.213,296.54 397.85,294.503 399.454,290.386 C399.814,289.462 399.999,288.48 400,287.488 L400,24 C400,19.582 396.418,16 392,16 Z M248.432,331.704 C248.152,332.16 247.856,332.592 247.6,333.048 C246.448,335.072 245.408,337.16 244.4,339.256 C243.832,340.408 243.256,341.552 242.728,342.728 C241.856,344.656 241.04,346.624 240.272,348.608 C240.192,348.808 240.104,348.992 240.024,349.192 L240.024,312 L262.832,312 C257.379,318.065 252.555,324.667 248.432,331.704 Z M288,290.672 C285.248,292.416 282.592,294.272 280,296.224 L280,296 L240,296 L240,248 L288,248 L288,290.672 Z M288,232 L240,232 L240,184 L288,184 L288,232 Z M288,168 L240,168 L240,120 L288,120 L288,168 Z M352,184 L352,232 L304,232 L304,184 L352,184 Z M304,168 L304,120 L352,120 L352,168 L304,168 Z M352.016,272 C348.272,272 344.576,272.216 340.912,272.56 C339.312,272.704 337.816,272.952 336.264,273.152 C334.304,273.416 332.352,273.688 330.424,274.048 C328.496,274.408 326.376,274.848 324.376,275.336 C323.152,275.632 321.928,275.944 320.712,276.28 C318.312,276.936 315.912,277.648 313.512,278.448 C313.208,278.56 312.912,278.68 312.608,278.784 C309.696,279.8 306.816,280.864 304.016,282.088 L304.016,248 L352.016,248 L352.016,272 L352.016,272 Z M384,276.416 C378.749,274.944 373.403,273.834 368,273.096 L368,112 C368,107.582 364.418,104 360,104 L40,104 C35.582,104 32,107.582 32,112 L32,368 C32,372.418 35.582,376 40,376 L233.192,376 C232.438,381.301 232.04,386.646 232,392 L16,392 L16,88 L384,88 L384,276.416 Z M176,296 L176,248 L224,248 L224,296 L176,296 Z M224,312 L224,360 L176,360 L176,312 L224,312 Z M176,232 L176,184 L224,184 L224,232 L176,232 Z M176,168 L176,120 L224,120 L224,168 L176,168 Z M112,296 L112,248 L160,248 L160,296 L112,296 Z M160,312 L160,360 L112,360 L112,312 L160,312 Z M112,232 L112,184 L160,184 L160,232 L112,232 Z M112,168 L112,120 L160,120 L160,168 L112,168 Z M48,296 L48,248 L96,248 L96,296 L48,296 Z M96,312 L96,360 L48,360 L48,312 L96,312 Z M48,232 L48,184 L96,184 L96,232 L48,232 Z M48,168 L48,120 L96,120 L96,168 L48,168 Z M384,72 L16,72 L16,32 L32,32 L32,40 C32,44.418 35.582,48 40,48 C44.418,48 48,44.418 48,40 L48,32 L64,32 L64,40 C64,44.418 67.582,48 72,48 C76.418,48 80,44.418 80,40 L80,32 L96,32 L96,40 C96,44.418 99.582,48 104,48 C108.418,48 112,44.418 112,40 L112,32 L128,32 L128,40 C128,44.418 131.582,48 136,48 C140.418,48 144,44.418 144,40 L144,32 L256,32 L256,40 C256,44.418 259.582,48 264,48 C268.418,48 272,44.418 272,40 L272,32 L288,32 L288,40 C288,44.418 291.582,48 296,48 C300.418,48 304,44.418 304,40 L304,32 L320,32 L320,40 C320,44.418 323.582,48 328,48 C332.418,48 336,44.418 336,40 L336,32 L352,32 L352,40 C352,44.418 355.582,48 360,48 C364.418,48 368,44.418 368,40 L368,32 L384,32 L384,72 Z" id="Shape"></path>
                <path d="M352,304 C303.399,304 264,343.399 264,392 C264,440.601 303.399,480 352,480 C400.601,480 440,440.601 440,392 C439.943,343.423 400.577,304.057 352,304 Z M352,464 C312.236,464 280,431.764 280,392 C280,352.235 312.236,320 352,320 C391.765,320 424,352.235 424,392 C423.956,431.746 391.746,463.956 352,464 Z" id="Shape"></path>
                <path d="M397.46,346.344 C394.36,343.349 389.444,343.349 386.344,346.344 L352,380.688 L333.656,362.344 C330.478,359.274 325.414,359.362 322.344,362.54 C319.349,365.64 319.349,370.556 322.344,373.656 L346.344,397.656 C349.468,400.779 354.532,400.779 357.656,397.656 L397.656,357.656 C400.726,354.478 400.638,349.414 397.46,346.344 Z" id="Path"></path>
            </g>
        </g>
    </g>
</svg>