<?xml version="1.0" encoding="UTF-8"?>
<svg width="155px" height="34px" viewBox="0 0 155 34" version="1.1" xmlns="http://www.w3.org/2000/svg" xmlns:xlink="http://www.w3.org/1999/xlink">
    <title>Group</title>
    <defs>
        <polygon id="path-1" points="0.574674998 0.0602088889 9.35373333 0.0602088889 9.35373333 13.0888889 0.574674998 13.0888889"></polygon>
    </defs>
    <g id="Page-1" stroke="none" stroke-width="1" fill="none" fill-rule="evenodd">
        <g id="pc_header_fixed" transform="translate(-581.000000, -25.000000)">
            <g id="Group" transform="translate(581.000000, 25.000000)">
                <polygon id="Fill-1" fill="#00391F" points="21.8563778 0 18.0309778 2.15415556 14.2055778 0 14.2035111 0 13.6668667 0.9548 16.9136 2.78173333 0 12.3001111 0.536644444 13.2556 18.0309778 3.41068889 35.5246222 13.2556 36.0619556 12.3001111 19.1483556 2.78173333 22.3950889 0.9548 21.8577556 0"></polygon>
                <polygon id="Fill-2" fill="#00391F" points="4.03757778 33.1711022 31.1405333 33.1711022 31.1405333 32.0764578 4.03757778 32.0764578"></polygon>
                <g id="Group-16" transform="translate(54.422222, 12.052524)">
                    <path d="M6.32985556,8.42008222 C6.32985556,9.25294889 6.36085556,9.80888222 6.85478889,9.80888222 C7.44103333,9.80888222 8.15196667,9.09932667 9.17014444,7.98814889 L12.3190556,4.59192667 C12.7206778,4.18961556 13.6162333,3.17143778 13.9861667,2.67750444 C14.5421,1.96726 14.5731,1.72063778 14.2024778,1.62832667 L13.2456111,1.34932667 C12.9989889,1.13439333 13.0603,0.70246 13.3069222,0.45446 C14.6041,0.51646 15.6229667,0.54746 16.7644556,0.54746 C18.0926333,0.54746 19.0495,0.48546 20.1606778,0.45446 C20.5003,0.54746 20.5623,1.19639333 20.2536778,1.34932667 C17.3823889,1.75163778 16.5488333,2.49219333 14.4187889,4.56092667 C13.0906111,5.88772667 11.8561222,7.15390444 10.6519444,8.35808222 C10.2813222,8.72801556 10.2200111,8.91401556 10.5596333,9.37694889 C12.9989889,12.5885489 15.9315889,16.2617044 18.1546333,18.8539933 C18.8021889,19.6269267 19.5124333,19.9052378 20.4383,20.02786 L21.1802333,20.1201711 C21.3958556,20.2751711 21.3648556,20.9234156 21.1182333,21.0164156 C20.0373667,20.9544156 18.8021889,20.9234156 17.1660778,20.9234156 C15.6532778,20.9234156 14.2644778,20.9544156 12.9059889,21.0164156 C12.5663667,20.8924156 12.5663667,20.2751711 12.8439889,20.1201711 L13.6775444,19.99686 C14.1714778,19.93486 14.2334778,19.5959267 13.8938556,19.1639933 C12.5973667,17.5588822 8.92352222,12.5575489 7.78065556,11.3843711 C7.56503333,11.1673711 7.31841111,10.92006 7.0401,10.92006 C6.26854444,10.92006 6.32985556,11.6613044 6.32985556,12.5575489 L6.32985556,16.4780156 C6.32985556,19.7502378 6.60747778,19.8432378 8.05896667,20.02786 L8.83052222,20.1201711 C9.04683333,20.2751711 9.01583333,20.8924156 8.76921111,21.0164156 C7.31841111,20.9544156 5.92892222,20.9234156 4.57043333,20.9234156 C3.21194444,20.9234156 1.76114444,20.9544156 0.649277778,21.0164156 C0.402655556,20.8924156 0.371655556,20.2751711 0.587966667,20.1201711 L1.0199,20.05886 C2.4707,19.8432378 2.74901111,19.7502378 2.74901111,16.4780156 L2.74901111,4.99286 C2.74901111,1.72063778 2.4707,1.65932667 1.0199,1.44232667 L0.432966667,1.34932667 C0.217344444,1.13439333 0.248344444,0.57846 0.494966667,0.45446 C1.76114444,0.51646 3.14994444,0.54746 4.57043333,0.54746 C5.92892222,0.54746 7.31841111,0.51646 8.5219,0.45446 C8.76921111,0.57846 8.79952222,1.19639333 8.58321111,1.34932667 L8.05896667,1.44232667 C6.60747778,1.68963778 6.32985556,1.72063778 6.32985556,4.99286 L6.32985556,8.42008222 Z" id="Fill-3" fill="#00391F"></path>
                    <path d="M28.0365378,20.1203778 C30.1665822,20.1203778 30.7838267,17.5894 30.7838267,15.2120444 C30.7838267,12.6176889 29.8882711,9.56246667 27.6039156,9.56246667 C26.0298044,9.56246667 24.7946267,11.1675778 24.7946267,14.5948 C24.7946267,17.4040889 25.8134933,20.1203778 28.0365378,20.1203778 M34.4266711,14.6871111 C34.4266711,19.0712 31.33976,21.3555556 27.6659156,21.3555556 C24.1153822,21.3555556 21.1517822,19.1015111 21.1517822,15.0570444 C21.1517822,10.9202667 24.3006933,8.32728889 27.9125378,8.32728889 C31.40176,8.32728889 34.4266711,10.6736444 34.4266711,14.6871111" id="Fill-5" fill="#00391F"></path>
                    <path d="M37.4852689,12.7108267 C37.4852689,11.3220267 37.4852689,10.9507156 36.7130244,10.4877822 L36.3430911,10.2728489 C36.2500911,10.1488489 36.2500911,9.71691556 36.3740911,9.56260444 C37.7318911,9.19267111 39.3990022,8.45073778 40.3868689,7.89549333 C40.60318,7.89549333 40.72718,8.01880444 40.7884911,8.14142667 C40.72718,8.72836 40.72718,9.31460444 40.72718,9.56260444 C40.72718,9.77753778 40.8194911,9.83953778 41.0048022,9.87053778 C42.5176022,9.06867111 43.3201578,8.32742667 45.4198911,8.32742667 C46.7466911,8.32742667 47.7655578,9.03767111 48.19818,9.62460444 C48.3828022,9.90153778 48.5681133,10.0868489 48.6921133,10.0868489 C48.8154244,10.0868489 49.0007356,9.99453778 49.3713578,9.77753778 C50.8221578,8.88267111 51.8720244,8.32742667 53.3228244,8.32742667 C55.9158022,8.32742667 57.0896689,10.0558489 57.0896689,12.4648933 L57.0896689,17.2492267 C57.0896689,19.5335822 57.21298,19.8738933 58.2621578,20.0275156 L58.9414022,20.1205156 C59.2197133,20.3368267 59.0654022,20.89276 58.9414022,21.01676 C57.6139133,20.95476 56.5640467,20.92376 55.4218689,20.92376 C54.4036911,20.92376 53.3538244,20.95476 52.2419578,21.01676 C51.9953356,20.89276 51.9643356,20.3368267 52.1806467,20.1205156 L52.67458,20.0275156 C53.7237578,19.8435822 53.8477578,19.5335822 53.8477578,17.2492267 L53.8477578,13.0511378 C53.8477578,11.4150267 53.2918244,10.1798489 51.3470911,10.1798489 C50.4515356,10.1798489 49.64898,10.6427822 49.2783578,11.1057156 C48.9697356,11.4756489 48.9084244,11.84696 48.9084244,12.7108267 L48.9084244,17.2492267 C48.9084244,19.5335822 49.0317356,19.9048933 50.0809133,20.0585156 L50.5445356,20.1205156 C50.7608467,20.3368267 50.7298467,20.89276 50.4825356,21.01676 C49.4023578,20.95476 48.3828022,20.92376 47.2406244,20.92376 C46.2224467,20.92376 45.17258,20.95476 44.1537133,21.01676 C43.9064022,20.89276 43.8754022,20.3368267 44.0917133,20.1205156 L44.4933356,20.0585156 C45.5425133,19.9048933 45.6665133,19.5335822 45.6665133,17.2492267 L45.6665133,13.0511378 C45.6665133,11.4150267 45.11058,10.1798489 43.3201578,10.1798489 C42.2702911,10.1798489 41.4677356,10.6737822 41.1281133,11.1367156 C40.7574911,11.6306489 40.72718,11.90896 40.72718,13.1131378 L40.72718,17.2492267 C40.72718,19.5335822 40.8504911,19.9048933 41.8996689,20.0585156 L42.3632911,20.1205156 C42.5796022,20.3368267 42.5486022,20.89276 42.3012911,21.01676 C41.2211133,20.95476 40.1705578,20.92376 39.0290689,20.92376 C38.0102022,20.92376 36.9913356,20.95476 35.8181578,21.01676 C35.5715356,20.89276 35.5405356,20.3368267 35.7561578,20.1205156 L36.3120911,20.0275156 C37.3612689,19.8435822 37.4852689,19.5335822 37.4852689,17.2492267 L37.4852689,12.7108267 Z" id="Fill-7" fill="#00391F"></path>
                    <path d="M66.9409867,20.1203778 C69.0710311,20.1203778 69.6889644,17.5894 69.6889644,15.2120444 C69.6889644,12.6176889 68.7934089,9.56246667 66.5090533,9.56246667 C64.9342533,9.56246667 63.6990756,11.1675778 63.6990756,14.5948 C63.6990756,17.4040889 64.7179422,20.1203778 66.9409867,20.1203778 M73.3318089,14.6871111 C73.3318089,19.0712 70.2442089,21.3555556 66.5703644,21.3555556 C63.0198311,21.3555556 60.0562311,19.1015111 60.0562311,15.0570444 C60.0562311,10.9202667 63.2058311,8.32728889 66.8176756,8.32728889 C70.3062089,8.32728889 73.3318089,10.6736444 73.3318089,14.6871111" id="Fill-9" fill="#00391F"></path>
                    <path d="M79.9400444,17.2491578 C79.9400444,19.5335133 80.0640444,19.9048244 81.1132222,20.0584467 L81.5761556,20.1204467 C81.7924667,20.3367578 81.7621556,20.8926911 81.5148444,21.0166911 C80.4339778,20.9546911 79.3841111,20.9236911 78.2419333,20.9236911 C77.2547556,20.9236911 76.2048889,20.9546911 74.9077111,21.0166911 C74.6610889,20.8926911 74.6300889,20.3367578 74.8457111,20.1204467 L75.5256444,20.0274467 C76.5748222,19.8745133 76.6981333,19.5335133 76.6981333,17.2491578 L76.6981333,12.7107578 C76.6981333,11.3219578 76.6981333,10.9506467 75.9265778,10.4884022 L75.5566444,10.27278 C75.4636444,10.14878 75.4636444,9.71684667 75.5869556,9.56253556 C76.9144444,9.19260222 78.6125556,8.45135778 79.6004222,7.89542444 C79.8167333,7.89542444 79.9400444,8.01942444 80.0020444,8.14135778 C79.9400444,8.72829111 79.9400444,9.31453556 79.9400444,9.56253556 C79.9400444,9.77746889 80.0330444,9.83946889 80.2176667,9.87046889 C81.6691556,9.06860222 82.5337111,8.32735778 84.4474444,8.32735778 C86.9481111,8.32735778 88.1212889,10.0564689 88.1212889,12.4648244 L88.1212889,17.2491578 C88.1212889,19.5335133 88.2452889,19.9048244 89.2944667,20.0274467 L90.0047111,20.1204467 C90.2210222,20.3367578 90.1900222,20.8926911 89.9434,21.0166911 C88.6462222,20.9546911 87.5963556,20.9236911 86.4541778,20.9236911 C85.436,20.9236911 84.3861333,20.9546911 83.3052667,21.0166911 C83.0579556,20.8926911 83.0269556,20.3367578 83.2432667,20.1204467 L83.7068889,20.0584467 C84.7560667,19.9048244 84.8800667,19.5335133 84.8800667,17.2491578 L84.8800667,12.9890689 C84.8800667,11.4149578 84.2621333,10.17978 82.4097111,10.17978 C81.4528444,10.17978 80.6812889,10.6737133 80.3719778,11.1366467 C79.9710444,11.69258 79.9400444,11.9708911 79.9400444,13.1130689 L79.9400444,17.2491578 Z" id="Fill-11" fill="#00391F"></path>
                    <g id="Group-15" transform="translate(90.933333, 8.266667)">
                        <mask id="mask-2" fill="white">
                            <use xlink:href="#path-1"></use>
                        </mask>
                        <g id="Clip-14"></g>
                        <path d="M1.01852222,12.1012978 C0.7099,11.5143644 0.524588889,9.94025333 0.586588889,8.61276444 C0.7719,8.36476444 1.23414444,8.33376444 1.45045556,8.55076444 C2.00638889,10.2791867 3.14856667,11.9152978 4.78467778,11.9152978 C5.74154444,11.9152978 6.51378889,11.2670533 6.51378889,10.1868756 C6.51378889,9.04469778 5.49492222,8.30276444 4.41474444,7.77852 C2.80894444,7.00696444 1.14183333,5.86478667 1.14183333,3.88836444 C1.11083333,1.48138667 3.17956667,0.0602088889 5.74154444,0.0602088889 C7.00772222,0.0602088889 8.1809,0.430831111 8.61283333,0.678142222 C8.92214444,1.32638667 9.07576667,2.28325333 9.07576667,3.67343111 C8.98414444,3.91936444 8.45852222,4.01236444 8.24221111,3.82636444 C7.77927778,2.40725333 6.79141111,1.23407556 5.58792222,1.23407556 C4.59936667,1.23407556 3.85881111,1.94432 3.85881111,2.83918667 C3.85881111,3.73474222 4.75436667,4.38229778 5.92685556,4.93823111 C7.59396667,5.74147556 9.35407778,6.79065333 9.35407778,9.23000889 C9.35407778,11.9152978 6.97672222,13.0891644 4.53805556,13.0891644 C3.27187778,13.0891644 2.00638889,12.8411644 1.01852222,12.1012978" id="Fill-13" fill="#00391F" mask="url(#mask-2)"></path>
                    </g>
                </g>
            </g>
        </g>
    </g>
</svg>