<?xml version="1.0" encoding="UTF-8"?>
<svg width="20px" height="20px" viewBox="0 0 20 20" version="1.1" xmlns="http://www.w3.org/2000/svg" xmlns:xlink="http://www.w3.org/1999/xlink">
    <!-- Generator: Sketch 54.1 (76490) - https://sketchapp.com -->
    <title>pop_close</title>
    <desc>Created with Sketch.</desc>
    <g id="Page-1" stroke="none" stroke-width="1" fill="none" fill-rule="evenodd">
        <g id="design_top_2" transform="translate(-1227.000000, -31.000000)" fill="#FFFFFF" fill-rule="nonzero">
            <g id="pop_close" transform="translate(1227.000000, 31.000000)">
                <path d="M18.7376281,20.0018106 C18.4048479,20.0039211 18.086135,19.8677438 17.8576281,19.6258106 L0.361628084,2.14181061 C-0.120542695,1.64643598 -0.120542695,0.857185237 0.361628084,0.361810609 C0.857680522,-0.120603536 1.64757565,-0.120603536 2.14362808,0.361810609 L19.6376281,17.8518106 C20.1197989,18.3471852 20.1197989,19.136436 19.6376281,19.6318106 C19.3996611,19.8712593 19.0752017,20.0046482 18.7376281,20.0018106 Z" id="パス_172"></path>
                <path d="M1.24962808,20.0018106 C0.91743581,20.0030107 0.599311513,19.8678078 0.369628084,19.6278106 C-0.112758227,19.1387462 -0.112758227,18.352875 0.369628084,17.8638106 L17.8496281,0.559810609 C18.3473661,0.0815653018 19.1338901,0.0815653018 19.6316281,0.559810609 C20.1140144,1.048875 20.1140144,1.83474622 19.6316281,2.32381061 L2.14162808,19.6278106 C1.9060169,19.8663679 1.58492134,20.0009977 1.24962808,20.0018106 Z" id="パス_173"></path>
            </g>
        </g>
    </g>
</svg>