<?xml version="1.0" encoding="UTF-8"?>
<svg width="20px" height="24px" viewBox="0 0 20 24" version="1.1" xmlns="http://www.w3.org/2000/svg" xmlns:xlink="http://www.w3.org/1999/xlink">
    <!-- Generator: Sketch 54.1 (76490) - https://sketchapp.com -->
    <title>clean</title>
    <desc>Created with Sketch.</desc>
    <g id="Page-1" stroke="none" stroke-width="1" fill="none" fill-rule="evenodd">
        <g id="pc_nav_after" transform="translate(-103.000000, -483.000000)" fill="#FFFFFF" fill-rule="nonzero" stroke="#00381F" stroke-width="0.1">
            <g id="Group-17" transform="translate(98.000000, 116.000000)">
                <g id="Group-19" transform="translate(0.000000, 260.000000)">
                    <g id="tags" transform="translate(1.000000, 45.000000)">
                        <g id="Group-16" transform="translate(4.500000, 55.773134)">
                            <g id="clean" transform="translate(0.000000, 6.300000)">
                                <path d="M12.5564547,21.404923 C12.3346145,21.404923 12.1548613,21.5591843 12.1548613,21.749564 L12.1548613,21.8463852 C12.1548613,22.5510611 11.4867705,23.1244059 10.6656459,23.1244059 L4.45208578,23.1244059 C3.63096116,23.1244059 2.96287039,22.5510611 2.96287039,21.8463852 L2.96287039,16.5379488 C2.96287039,16.3475691 2.78311718,16.1933078 2.56127699,16.1933078 C2.3394368,16.1933078 2.1596836,16.3475691 2.1596836,16.5379488 L2.1596836,21.8463852 C2.1596836,22.9311312 3.18803042,23.8136879 4.45208578,23.8136879 L10.6656994,23.8136879 C11.9297012,23.8136879 12.9581016,22.9311772 12.9581016,21.8463852 L12.9581016,21.749564 C12.9580481,21.5592303 12.7782949,21.404923 12.5564547,21.404923 Z" id="Path"></path>
                                <path d="M19.0380268,12.8103436 L16.8103203,12.8103436 C16.7044722,12.8103436 16.6029879,12.8477688 16.5281119,12.9143761 L15.6772293,13.6717853 C15.4960262,13.8331398 15.2549543,13.9220126 14.9986092,13.9220126 L13.3632053,13.9220126 L13.3632053,13.4968345 C13.3632053,12.8022901 13.1249006,12.1141412 12.6898005,11.538694 C12.7803754,11.5449473 12.8716421,11.5491636 12.9640264,11.5491636 C13.1845034,11.5491636 13.363152,11.3901304 13.363152,11.1938615 C13.363152,10.9975927 13.1845034,10.8385595 12.9640264,10.8385595 C11.4691678,10.8385595 10.2530586,9.75593052 10.2530586,8.42525336 L10.2530586,7.52183873 C10.2530586,7.38829254 10.168923,7.26602127 10.0352425,7.20528831 L8.05499394,6.30646892 C7.9065192,6.23910365 7.72685945,6.26084814 7.60403519,6.36099594 L6.74586185,7.06075144 C6.59914327,7.18036979 6.4019752,7.23707599 6.20422176,7.21604211 C6.00668117,7.19510298 5.82968226,7.09874507 5.71867212,6.95179215 C5.53283922,6.70587577 5.57269857,6.37861892 5.81334472,6.17372808 L7.06776998,5.10611654 C7.3375257,4.87649668 7.69173639,4.75005653 8.06494547,4.75005653 L11.1676417,4.75005653 C11.5346245,4.75005653 11.8868129,4.88857695 12.1339515,5.13004021 L14.227126,7.17553768 C14.302747,7.24944051 14.4098723,7.29155564 14.5221597,7.29155564 L19.0379735,7.29155564 C19.2584505,7.29155564 19.4370992,7.13252245 19.4370992,6.93625361 C19.4370992,6.73998477 19.2584505,6.58095158 19.0379735,6.58095158 L14.6984668,6.58095158 L12.7240721,4.65161418 C12.326064,4.26262952 11.7587202,4.03954722 11.167695,4.03954722 L11.0628047,4.03954722 L11.0628047,3.48887644 L13.5113607,2.79968525 C13.7563174,2.73075666 13.9440661,2.55817462 14.0136736,2.33802948 C14.0832811,2.11793172 14.0241573,1.88343238 13.8555666,1.71094508 L13.2098346,1.04979907 C12.5581422,0.3826366 11.6148221,0 10.6216911,0 L10.5233465,0 C10.3028695,0 10.1242209,0.159033189 10.1242209,0.35530203 C10.1242209,0.551570872 10.3028695,0.710604061 10.5233465,0.710604061 L10.6216911,0.710604061 C11.3836485,0.710604061 12.1075028,1.00417828 12.6074742,1.51605008 L13.2147837,2.13782863 L10.543356,2.88974247 C10.377373,2.93645285 10.2645535,3.07355206 10.2645535,3.22851112 L10.2645535,4.03954722 L8.06499869,4.03954722 C7.66039173,4.03954722 7.27041937,4.13547876 6.92914035,4.31455099 L5.71260541,2.23442341 C5.64390258,2.1168895 5.50745483,2.04317617 5.35860758,2.04317617 L3.07433173,2.04317617 C3.03181155,2.04317617 2.99722066,2.01238333 2.99722066,1.97453182 L2.99722066,0.779295786 C2.99722066,0.741444277 3.03181155,0.710651434 3.07433173,0.710651434 L8.8223795,0.710651434 C9.0428565,0.710651434 9.22150513,0.551618245 9.22150513,0.355349404 C9.22150513,0.159080562 9.0428565,4.7373604e-05 8.8223795,4.7373604e-05 L3.07438495,4.7373604e-05 C2.82650132,4.7373604e-05 2.60283132,0.0926627695 2.44339393,0.240563161 L1.47421045,0.240563161 C0.902290022,0.240563161 0.436962747,0.654750581 0.436962747,1.1638747 L0.436962747,1.59634834 C0.436962747,2.10547246 0.902290022,2.51970725 1.47421045,2.51970725 L2.44993959,2.51970725 C2.48639306,2.55277403 2.52630563,2.58266677 2.56877259,2.60957498 L2.56877259,5.667399 L2.49778145,5.92089515 L1.4114679,5.92089515 C0.633172909,5.92089515 0,6.48454629 0,7.17738525 C0,7.87022421 0.633172909,8.43387535 1.4114679,8.43387535 L3.40400951,8.43387535 C3.33062361,8.58120726 3.28954028,8.74398297 3.28954028,8.91523854 C3.28954028,9.24097945 3.43721676,9.53654336 3.67594711,9.75190377 C3.43721676,9.96726417 3.28954028,10.2628281 3.28954028,10.588569 C3.28954028,10.9143099 3.43721676,11.2098738 3.67594711,11.4252342 C3.43721676,11.6405946 3.28954028,11.9361585 3.28954028,12.2618994 C3.28954028,12.6758026 3.52789811,13.0409583 3.88865447,13.2547554 L3.62230462,13.4918129 C3.113925,13.9444203 2.77525359,14.5422752 2.66866044,15.175234 C2.63598535,15.3693236 2.78621624,15.550196 3.00419206,15.5792834 C3.02430799,15.5819837 3.04421105,15.5832628 3.06390125,15.5832628 C3.25814239,15.5832628 3.428436,15.4567753 3.45807773,15.2805929 C3.53949936,14.796861 3.79834564,14.3400373 4.18672149,13.9943048 L4.79387141,13.4538667 L6.08879462,13.4538667 C6.82712383,13.4538667 7.42778131,12.9191608 7.42778131,12.2618994 C7.42778131,11.9361585 7.28010482,11.6405946 7.04137447,11.4252342 C7.28010482,11.2098738 7.42778131,10.9143099 7.42778131,10.588569 C7.42778131,10.2628281 7.28010482,9.96726417 7.04137447,9.75190377 C7.09842283,9.70040866 7.15036238,9.64441306 7.19623522,9.58443807 L9.70630974,9.58443807 C10.033646,10.3108175 10.6581446,10.9036035 11.446125,11.2415194 C11.4461782,11.2416141 11.4462314,11.2417089 11.4463379,11.2418036 L11.9327922,11.8160664 C12.3404325,12.2972401 12.564954,12.8941949 12.564954,13.4968345 L12.564954,20.6007433 C12.564954,20.7970122 12.7436026,20.9560454 12.9640796,20.9560454 C13.1845566,20.9560454 13.3632053,20.7970122 13.3632053,20.6007433 L13.3632053,14.6326167 L14.9986092,14.6326167 C15.4682471,14.6326167 15.9097332,14.4697936 16.2416461,14.1742297 L16.9756116,13.5209003 L19.0380268,13.5209003 C19.2585038,13.5209003 19.4371524,13.3618671 19.4371524,13.1655983 C19.4371524,12.9693295 19.2585038,12.8103436 19.0380268,12.8103436 Z M6.29963939,4.77691736 L5.26175309,5.66024558 C5.16867699,5.73945425 5.09018228,5.82733229 5.02509819,5.92089515 L4.589253,5.92089515 C4.81361482,5.58065793 4.93351216,5.192147 4.93351216,4.78795541 L4.93351216,2.75378023 L5.11647136,2.75378023 L6.29963939,4.77691736 Z M3.35520975,5.79696581 C3.36303261,5.76882588 3.36707708,5.73997536 3.36707708,5.71103009 L3.36707708,2.75378023 L4.13531411,2.75378023 L4.13531411,4.78790804 C4.13531411,5.19209963 3.96007135,5.57350452 3.64188839,5.86182027 L3.2333966,6.23195024 L3.35520975,5.79696581 Z M1.23521402,1.59630096 L1.23521402,1.16382733 C1.23521402,1.04653029 1.34244577,0.951119848 1.47421045,0.951119848 L2.19896939,0.951119848 L2.19896939,1.80905584 L1.47421045,1.80905582 C1.34244577,1.80910319 1.23521402,1.71364538 1.23521402,1.59630096 Z M0.798198056,7.17738525 C0.798198056,6.87637337 1.07327544,6.63149921 1.41141468,6.63149921 L2.30279527,6.63149921 C2.26607571,6.86244553 2.38863389,7.0868543 2.62230865,7.20329861 C2.72166432,7.25280403 2.82921538,7.27696457 2.93559566,7.27696457 C3.10104654,7.27696457 3.26373015,7.21845817 3.38793805,7.10594586 L3.91148445,6.63149921 L4.80483406,6.63149921 C4.80882532,6.87983165 4.89051303,7.12906418 5.05628321,7.34849871 C5.17107174,7.50047323 5.31864179,7.62710288 5.48781785,7.72331867 L1.4114679,7.72331867 C1.07327544,7.72327129 0.798198056,7.47839713 0.798198056,7.17738525 Z M6.08879462,8.43387535 C6.38696808,8.43387535 6.62953003,8.64985161 6.62953003,8.91523854 C6.62953003,9.18062547 6.38691486,9.39660173 6.08879462,9.39660173 L4.62852696,9.39660173 C4.3303535,9.39660173 4.08779155,9.18062547 4.08779155,8.91523854 C4.08779155,8.64985161 4.33040672,8.43387535 4.62852696,8.43387535 L6.08879462,8.43387535 Z M6.62953003,10.5886164 C6.62953003,10.8540507 6.38691486,11.0699796 6.08879462,11.0699796 L4.62852696,11.0699796 C4.3303535,11.0699796 4.08779155,10.8540033 4.08779155,10.5886164 C4.08779155,10.3232294 4.33040672,10.1072532 4.62852696,10.1072532 L6.08879462,10.1072532 C6.38696808,10.1072532 6.62953003,10.3231821 6.62953003,10.5886164 Z M6.08879462,12.74331 L4.62852696,12.74331 C4.3303535,12.74331 4.08779155,12.5273337 4.08779155,12.2619468 C4.08779155,11.9965599 4.33040672,11.7805836 4.62852696,11.7805836 L6.08879462,11.7805836 C6.38696808,11.7805836 6.62953003,11.9965599 6.62953003,12.2619468 C6.62953003,12.5273337 6.38696808,12.74331 6.08879462,12.74331 Z M7.42661054,8.87383401 C7.40990048,8.44102877 7.13306694,8.06606669 6.73090795,7.86960836 C6.93430237,7.81242842 7.12386044,7.71626 7.28505398,7.58479825 L7.93898142,7.05151359 L9.45470094,7.73947307 L9.45470094,8.42525336 C9.45470094,8.57760687 9.46763261,8.72726008 9.4914205,8.87383401 L7.42661054,8.87383401 Z" id="Shape"></path>
                            </g>
                        </g>
                    </g>
                </g>
            </g>
        </g>
    </g>
</svg>