<?xml version="1.0" encoding="UTF-8"?>
<svg width="19px" height="18px" viewBox="0 0 19 18" version="1.1" xmlns="http://www.w3.org/2000/svg" xmlns:xlink="http://www.w3.org/1999/xlink">
    <title>Group 30</title>
    <defs>
        <polygon id="path-1" points="0 0 18 0 18 17.15252 0 17.15252"></polygon>
    </defs>
    <g id="page" stroke="none" stroke-width="1" fill="none" fill-rule="evenodd">
        <g id="sp_top01" transform="translate(-162.000000, -4151.000000)">
            <g id="Group-26" transform="translate(29.500000, 3518.000000)">
                <g id="Group-19" transform="translate(0.000000, 348.000000)">
                    <g id="Group-13" transform="translate(0.000000, 203.000000)">
                        <g id="Group-25" transform="translate(0.500000, 73.000000)">
                            <g id="Group-21" transform="translate(124.200000, 0.000000)">
                                <g id="Group-6" transform="translate(8.400000, 9.600000)">
                                    <mask id="mask-2" fill="white">
                                        <use xlink:href="#path-1"></use>
                                    </mask>
                                    <g id="Clip-5"></g>
                                    <path d="M7.35030868,7.43804466 C7.35030868,6.85274329 7.35086182,6.26730358 7.35017039,5.68200221 C7.34989382,5.44669197 7.22197915,5.25592606 7.01925168,5.18260776 C6.69151356,5.06377678 6.36640287,5.3089089 6.36488172,5.69127075 C6.36018,6.85384998 6.36197772,8.01684422 6.36584973,9.17970011 C6.36626459,9.2689271 6.39018809,9.36548592 6.42863163,9.44627438 C6.52169819,9.64077538 6.76439035,9.75448792 6.95315091,9.70676185 C7.1835356,9.64852222 7.34878753,9.44502936 7.34961725,9.20653738 C7.35169154,8.61722425 7.35030868,8.02777279 7.35030868,7.43804466 L7.35030868,7.43804466 Z M4.17705689,8.74020533 L4.17705689,8.58098011 C4.17705689,7.60778344 4.17747174,6.63389508 4.17664203,5.66069841 C4.17650374,5.36535016 3.95400136,5.15023704 3.66138791,5.15784554 C3.39684655,5.16462402 3.20462883,5.38042883 3.20449054,5.67771379 C3.20338426,6.84900821 3.2039374,8.02030263 3.20407569,9.19187372 C3.20407569,9.21981767 3.20601169,9.2480383 3.20780941,9.2765356 C3.22454203,9.50631239 3.4322478,9.71118862 3.66401535,9.71215697 C4.27786747,9.71575372 4.89144303,9.71727542 5.50515686,9.71174196 C5.79320687,9.70911357 6.0222087,9.39688828 5.95016163,9.12146048 C5.88585858,8.87494499 5.72295752,8.74366374 5.46214988,8.74145035 C5.03899432,8.73785361 4.61570049,8.74020533 4.17705689,8.74020533 L4.17705689,8.74020533 Z M13.2360429,6.12620044 L13.3613301,6.12620044 C13.7569667,6.12620044 14.1526033,6.12827549 14.5481017,6.12550876 C14.8086327,6.12371039 15.0131579,5.90790558 15.0131579,5.64229966 C15.0131579,5.37074528 14.812643,5.1592289 14.5478251,5.15839889 C13.9422701,5.15660051 13.3369917,5.15660051 12.7314368,5.15839889 C12.4764372,5.15895223 12.2716354,5.36465848 12.2713588,5.61933582 C12.2705291,6.82659771 12.2705291,8.03372126 12.2713588,9.24084481 C12.2716354,9.49856555 12.480724,9.7118803 12.7355854,9.71284865 C13.3408638,9.71464703 13.9466953,9.71533871 14.5518354,9.71257198 C14.7977081,9.71174196 15.009839,9.49234041 15.0127431,9.24623993 C15.0163385,8.96458699 14.8338008,8.75030388 14.5699509,8.7450471 C14.1704422,8.73785361 13.7707953,8.74145035 13.3711484,8.74020533 L13.2349366,8.74020533 L13.2349366,7.91973205 L13.3620215,7.91973205 C13.7497758,7.91973205 14.1372536,7.92042373 14.5244547,7.91945538 C14.7928681,7.91862536 15.0090093,7.71291911 15.0127431,7.45755009 C15.0173065,7.1646919 14.8313117,6.95580392 14.5478251,6.95096214 C14.1564753,6.94446033 13.764849,6.94791874 13.3734993,6.94722706 L13.2360429,6.94722706 L13.2360429,6.12620044 Z M8.97392611,7.05568281 C9.58031078,7.88224288 10.1653994,8.67947564 10.7499349,9.47657006 C10.8470117,9.60937302 10.9693949,9.70330344 11.1382423,9.71215697 C11.4326535,9.72848067 11.6590279,9.49330877 11.6593044,9.17305997 C11.6599959,8.01407749 11.6593044,6.85509501 11.6593044,5.69583586 C11.6593044,5.66803024 11.6602724,5.63925626 11.6568153,5.61131231 C11.6328918,5.40920281 11.5272412,5.26201286 11.3400018,5.18855622 C11.1566344,5.11662129 10.9821173,5.15245042 10.8353957,5.28857345 C10.7124593,5.40325434 10.6744306,5.55348769 10.6744306,5.71520295 C10.6736009,6.35749893 10.6741541,6.99924155 10.6741541,7.64167586 L10.6741541,7.80048606 C10.6366785,7.75442004 10.6169036,7.73200954 10.5987881,7.70738566 C10.2151824,7.18419734 9.83143839,6.66059401 9.44769439,6.13726735 C9.26432698,5.88674011 9.08137443,5.63621286 8.8982836,5.38554728 C8.77396437,5.21470181 8.60926559,5.12505981 8.39727295,5.16268732 C8.21362898,5.19533471 8.08101258,5.30558883 8.02611299,5.48736288 C8.00094491,5.57050306 7.99278603,5.66097508 7.99264774,5.74826536 C7.99043516,6.87515379 7.99043516,8.00162721 7.99250946,9.12823897 C7.99264774,9.21165583 8.00025348,9.2989461 8.0250067,9.37779786 C8.09484119,9.60079616 8.33241676,9.74632607 8.55146199,9.71174196 C8.77935753,9.67605117 8.97088382,9.45789464 8.97268153,9.22037102 C8.9760004,8.79664658 8.97378782,8.37250714 8.97392611,7.94822935 L8.97392611,7.05568281 Z M18,7.02594048 C17.999032,8.70935631 17.5175197,9.94373213 16.6851755,11.0533285 C16.1237338,11.8022819 15.4719913,12.4671267 14.7652109,13.0796803 C13.2594132,14.385161 11.6297112,15.5168913 9.91897351,16.5336639 C9.56827989,16.7419985 9.19200333,16.9074489 8.82360909,17.0845195 C8.73939284,17.1251904 8.63955025,17.1481543 8.54565397,17.1518893 C8.30724868,17.1622646 8.18555689,17.0450936 8.21307583,16.7652391 C8.23865876,16.5051666 8.28844177,16.2477225 8.33172533,15.9895868 C8.38054033,15.6988036 8.41690958,15.4078822 8.37722147,15.1118422 C8.34970253,14.9072427 8.22939359,14.7783131 8.05736565,14.6861811 C7.82103466,14.5591883 7.56313103,14.5052371 7.30107881,14.4673329 C6.50634843,14.3515453 5.73775413,14.1408589 4.99225361,13.843159 C4.09062806,13.483346 3.25925185,13.0030419 2.51900621,12.3744413 C1.32338434,11.359467 0.48218982,10.116791 0.137719074,8.56700813 C0.0172718562,8.02528274 -0.024905413,7.47415046 0.0140912752,6.92287985 C0.108678987,5.58143164 0.603605041,4.39353685 1.44106583,3.34563851 C2.33176679,2.23092369 3.45893702,1.43161588 4.75772034,0.863744904 C5.91932382,0.356050263 7.13651832,0.0814524807 8.40155982,0.0162960296 C10.3617657,-0.0848278893 12.2236501,0.280795254 13.9605239,1.20917093 C15.3012079,1.92547688 16.4029335,2.90379201 17.1686238,4.23306661 C17.7160986,5.1831611 17.9973726,6.20781893 18,7.02594048 L18,7.02594048 Z" id="Fill-4" fill="#FFFFFF" mask="url(#mask-2)"></path>
                                </g>
                            </g>
                        </g>
                    </g>
                </g>
            </g>
        </g>
    </g>
</svg>