<?xml version="1.0" encoding="UTF-8"?>
<svg width="23px" height="24px" viewBox="0 0 23 24" version="1.1" xmlns="http://www.w3.org/2000/svg" xmlns:xlink="http://www.w3.org/1999/xlink">
    <!-- Generator: Sketch 54.1 (76490) - https://sketchapp.com -->
    <title>bath</title>
    <desc>Created with Sketch.</desc>
    <g id="Page-1" stroke="none" stroke-width="1" fill="none" fill-rule="evenodd">
        <g id="pc_nav_after" transform="translate(-305.000000, -484.000000)" fill="#FFFFFF" fill-rule="nonzero">
            <g id="Group-17" transform="translate(98.000000, 116.000000)">
                <g id="Group-19" transform="translate(0.000000, 260.000000)">
                    <g id="tags" transform="translate(1.000000, 45.000000)">
                        <g id="Group-16" transform="translate(206.535883, 57.573134)">
                            <g id="bath" transform="translate(0.000000, 6.300000)">
                                <path d="M19.0818783,17.0742165 C19.1566583,17.105889 19.2418431,17.1084849 19.3186723,17.0814326 C19.3955014,17.0543804 19.4576737,16.9998986 19.4914966,16.9299861 C19.6958467,16.5088201 19.8010495,16.0515601 19.7999921,15.5891218 C19.7999921,15.4294442 19.6614782,15.3 19.4906127,15.3 C19.3197472,15.3 19.1812333,15.4294442 19.1812333,15.5891218 C19.1821971,15.9693537 19.0956787,16.3453357 18.9275422,16.6915845 C18.8571875,16.8370763 18.9262616,17.0083258 19.0818783,17.0742165 L19.0818783,17.0742165 Z" id="Path"></path>
                                <path d="M22.1540262,10.5534187 C21.9373305,10.3785026 21.6537466,10.3162506 21.3860895,10.384842 C20.8302134,10.5260031 20.1866274,10.6529703 19.4758351,10.7651603 C19.4327704,9.28223539 18.247732,8.1023008 16.7991628,8.10001607 C16.1420081,8.09770245 15.5074163,8.34534059 15.0183851,8.79493293 C14.4886144,8.64801858 13.927322,8.67370676 13.4124576,8.86843001 C12.9849522,8.58885408 12.4880354,8.44092051 11.980811,8.4422247 C11.2872781,8.44242677 10.6209151,8.71841152 10.1221954,9.2119997 C9.43176504,8.96020164 8.66581535,9.26892254 8.32812825,9.93510989 C7.47583206,9.96683147 6.68845858,10.4097294 6.20505385,11.1293403 C4.49267016,11.0178716 2.79146861,10.7689413 1.11711734,10.384842 C0.633704746,10.2629607 0.145348667,10.5655109 0.0263435058,11.0606069 C-0.0926616554,11.5557028 0.202748934,12.0558617 0.686161527,12.1777431 C0.832534626,12.2144916 0.985172721,12.2504624 1.14179763,12.285461 L1.14179763,15.6733265 C1.14485031,18.0553454 2.78356063,20.1064935 5.06273616,20.5811039 L5.56298664,22.2590929 C5.6056593,22.4022412 5.73465355,22.5000229 5.88079282,22.5 L7.01988308,22.5 C7.20332782,22.4998927 7.35201301,22.347614 7.35211774,22.1597357 L7.35211774,20.6800722 L15.1512789,20.6800722 L15.1512789,22.1597357 C15.1512789,22.3476585 15.3000254,22.5 15.4835136,22.5 L16.6226038,22.5 C16.7687431,22.5000229 16.8977374,22.4022412 16.94041,22.2590929 L17.4408503,20.5811039 C19.7197592,20.1061836 21.3581484,18.0551395 21.3612193,15.6733265 L21.3612193,12.2856555 C21.5180341,12.2506569 21.6706722,12.2146861 21.8168554,12.1777431 C22.1512341,12.0919686 22.408684,11.8185821 22.4802872,11.4732441 C22.5518903,11.1279062 22.4251348,10.7709605 22.1536465,10.5534187 L22.1540262,10.5534187 Z M8.41735699,10.6140829 C8.4393794,10.6140829 8.46083226,10.6156384 8.48247498,10.616805 L8.5324051,10.6195272 C8.68178093,10.6244239 8.81644097,10.5279154 8.86312097,10.3825088 C8.93571235,10.1434545 9.11068496,9.95129069 9.33846857,9.86045794 C9.56625219,9.76962518 9.82203255,9.79001859 10.0333464,9.91586065 C10.1715571,9.99727236 10.3467273,9.96685526 10.4510128,9.84333575 C10.8338848,9.38607385 11.3926549,9.1228758 11.980811,9.12275325 C12.4108645,9.12167267 12.82969,9.26329094 13.1745776,9.52640389 C13.2716729,9.59996686 13.4000609,9.61388243 13.5100397,9.56276356 C13.979054,9.3449067 14.5124227,9.32245386 14.9973119,9.50015493 C15.1200876,9.54468335 15.2569479,9.51135351 15.3470126,9.41499164 C15.725507,9.00832399 16.2506003,8.77890982 16.7991628,8.78054461 C17.9121099,8.78193734 18.8139927,9.70561729 18.8153526,10.8454626 L18.8153526,10.8627675 C16.3062865,11.1804298 13.7799248,11.3331162 11.2517933,11.3198882 C9.79109984,11.3198882 8.36457914,11.2736123 7.02766687,11.1874768 C7.40218511,10.8212551 7.89955064,10.6160393 8.41735699,10.6140829 L8.41735699,10.6140829 Z M6.68783827,21.8194715 L6.12683632,21.8194715 L5.78510924,20.6736558 C5.86649091,20.6779334 5.94837884,20.6800722 6.03077304,20.6800722 L6.68764842,20.6800722 L6.68783827,21.8194715 Z M16.3767502,21.8194715 L15.8157482,21.8194715 L15.8157482,20.6800722 L16.4726236,20.6800722 C16.5550178,20.6800722 16.6369058,20.6779334 16.7182874,20.6736558 L16.3767502,21.8194715 Z M20.69675,15.6733265 C20.6941382,17.7933087 19.1939864,19.5999767 17.1513316,19.943157 C17.1441173,19.943157 17.1372828,19.9458792 17.1300686,19.9470458 C16.9125875,19.9820573 16.692775,19.9996747 16.4726236,19.9997381 L6.03096289,19.9997381 C5.81254802,19.9997063 5.59446111,19.9824149 5.37864386,19.948018 C5.36972099,19.9464625 5.36098796,19.9439348 5.35187524,19.943157 C3.3094539,19.599657 1.80957517,17.7931244 1.8068365,15.6733265 L1.8068365,12.42215 C4.26024707,12.8928814 7.6788468,13.1670371 11.2517933,13.1670371 C14.8247397,13.1670371 18.2452379,12.8930758 20.69675,12.4225389 L20.69675,15.6733265 Z M21.8358403,11.2817787 C21.8367746,11.3926949 21.7635265,11.4898816 21.6585219,11.5170471 C19.2491561,12.1240785 15.3587832,12.4865086 11.2517933,12.4865086 C7.14784089,12.4865086 3.25746795,12.1240785 0.845064619,11.5168527 C0.757555955,11.493361 0.690631626,11.4210667 0.672386856,11.3303193 C0.654142087,11.2395719 0.687735082,11.1460799 0.759063304,11.0890919 C0.799416922,11.0564101 0.849246162,11.0384184 0.900690193,11.037955 C0.919894594,11.038086 0.939014938,11.0405664 0.957644706,11.0453436 C3.31328337,11.643431 7.16169982,12.0004168 11.2517933,12.0004168 C15.3418867,12.0004168 19.1901133,11.643431 21.5459418,11.045538 C21.6151716,11.0274189 21.6886912,11.0436155 21.7445232,11.0892863 C21.8023383,11.1354918 21.8360475,11.2064775 21.8358403,11.2815842 L21.8358403,11.2817787 Z" id="Shape"></path>
                                <path d="M8.54998027,2.7 C9.09599632,2.7 9.58824811,2.37108787 9.79719941,1.86663481 C10.0061507,1.36218176 9.89065213,0.781531178 9.50456047,0.395439527 C9.11846882,0.00934787459 8.53781824,-0.106150707 8.03336519,0.102800589 C7.52891213,0.311751885 7.2,0.804003679 7.2,1.35001973 C7.20086391,2.09523511 7.80476489,2.69913609 8.54998027,2.7 L8.54998027,2.7 Z M8.54998027,0.609707969 C8.95884317,0.609707969 9.29029203,0.941156834 9.29029203,1.35001973 C9.29029203,1.75888263 8.95884317,2.09033149 8.54998027,2.09033149 C8.14111737,2.09033149 7.80966851,1.75888263 7.80966851,1.35001973 C7.81014844,0.941355795 8.14131633,0.610187904 8.54998027,0.609707969 L8.54998027,0.609707969 Z" id="Shape"></path>
                                <path d="M13.0495483,5.39999993 C13.5956036,5.40017467 14.087988,5.07137335 14.2970754,4.56693416 C14.5061628,4.06249497 14.3907709,3.48177356 14.0047133,3.09559234 C13.6186556,2.70941111 13.0379711,2.59383334 12.533465,2.80275929 C12.0289589,3.01168525 11.7,3.50396434 11.7,4.05001968 C11.7008328,4.79507936 12.3044889,5.39892871 13.0495483,5.39999993 Z M13.0495483,3.45602838 C13.2898346,3.45585362 13.5065579,3.60046411 13.5986326,3.82240956 C13.6907073,4.04435501 13.6399947,4.29991209 13.4701484,4.46988199 C13.3003021,4.6398519 13.0447819,4.6907505 12.8227695,4.5988373 C12.6007572,4.50692411 12.455989,4.29030604 12.455989,4.05001968 C12.4563456,3.72228376 12.7218127,3.45662342 13.0495483,3.45602838 L13.0495483,3.45602838 Z" id="Shape"></path>
                                <path d="M8.1,6.3 C8.1,6.79705627 8.50294373,7.2 9,7.2 C9.49705627,7.2 9.9,6.79705627 9.9,6.3 C9.9,5.80294373 9.49705627,5.4 9,5.4 C8.5032034,5.40062635 8.10062635,5.8032034 8.1,6.3 L8.1,6.3 Z M9.23684211,6.3 C9.23684211,6.43080428 9.13080428,6.53684211 9,6.53684211 C8.86919572,6.53684211 8.76315789,6.43080428 8.76315789,6.3 C8.76315789,6.16919572 8.86919572,6.06315789 9,6.06315789 C9.13076098,6.06326238 9.23673762,6.16923902 9.23684211,6.3 Z" id="Shape"></path>
                            </g>
                        </g>
                    </g>
                </g>
            </g>
        </g>
    </g>
</svg>