<?xml version="1.0" encoding="UTF-8"?>
<svg width="19px" height="24px" viewBox="0 0 19 24" version="1.1" xmlns="http://www.w3.org/2000/svg" xmlns:xlink="http://www.w3.org/1999/xlink">
    <!-- Generator: Sketch 54.1 (76490) - https://sketchapp.com -->
    <title>clean</title>
    <desc>Created with Sketch.</desc>
    <g id="Page-1" stroke="none" stroke-width="1" fill="none" fill-rule="evenodd">
        <g id="pc_products" transform="translate(-291.000000, -1242.000000)" fill="#00381F" fill-rule="nonzero">
            <g id="row01" transform="translate(101.000000, 933.000000)">
                <g id="01">
                    <g id="tags" transform="translate(0.000000, 302.000000)">
                        <g id="Group-3" transform="translate(171.862722, 0.029851)">
                            <g id="clean" transform="translate(18.523907, 7.195639)">
                                <path d="M12.013608,20.4795352 C11.8013585,20.4795352 11.6293765,20.6271274 11.6293765,20.8092765 L11.6293765,20.9019119 C11.6293765,21.5761229 10.990169,22.1246806 10.2045436,22.1246806 L4.25961109,22.1246806 C3.47398572,22.1246806 2.83477817,21.5761229 2.83477817,20.9019119 L2.83477817,15.8229723 C2.83477817,15.6408232 2.66279614,15.493231 2.45054665,15.493231 C2.23829716,15.493231 2.06631513,15.6408232 2.06631513,15.8229723 L2.06631513,20.9019119 C2.06631513,21.9397617 3.05020397,22.7841632 4.25961109,22.7841632 L10.2045948,22.7841632 C11.4139507,22.7841632 12.3978908,21.9398056 12.3978908,20.9019119 L12.3978908,20.8092765 C12.3978396,20.6271714 12.2258575,20.4795352 12.013608,20.4795352 Z" id="Path"></path>
                                <path d="M18.2149657,12.2565208 L16.0835686,12.2565208 C15.9822965,12.2565208 15.8851996,12.2923279 15.8135607,12.3560556 L14.9994638,13.0807201 C14.8260946,13.2350989 14.5954449,13.3201296 14.3501822,13.3201296 L12.7854808,13.3201296 L12.7854808,12.913333 C12.7854808,12.2488154 12.5574787,11.5904168 12.141189,11.0398477 C12.2278481,11.0458306 12.3151692,11.0498646 12.4035594,11.0498646 C12.6145047,11.0498646 12.7854299,10.8977068 12.7854299,10.7099232 C12.7854299,10.5221395 12.6145047,10.3699817 12.4035594,10.3699817 C10.9733273,10.3699817 9.80979353,9.33415749 9.80979353,8.0610088 L9.80979353,7.19665102 C9.80979353,7.06887836 9.72929524,6.95189318 9.6013941,6.89378585 L7.70675661,6.03382465 C7.5647008,5.96937175 7.39280819,5.99017617 7.27529392,6.08599433 L6.45422154,6.75549767 C6.31384597,6.86994463 6.12520197,6.92419928 5.93599789,6.90407475 C5.74699748,6.88404087 5.57765066,6.79184875 5.47143976,6.65124896 C5.29364088,6.41596416 5.33177701,6.10285543 5.56201943,5.90682253 L6.76221279,4.88536648 C7.02030629,4.66567365 7.35920359,4.54469983 7.71627791,4.54469983 L10.6848369,4.54469983 C11.0359541,4.54469983 11.3729166,4.67723166 11.6093707,4.90825587 L13.6120521,6.86532142 C13.6844038,6.93602924 13.7868979,6.97632364 13.8943307,6.97632364 L18.2149148,6.97632364 C18.4258601,6.97632364 18.5967853,6.82416585 18.5967853,6.63638219 C18.5967853,6.44859854 18.4258601,6.29644075 18.2149148,6.29644075 L14.0630157,6.29644075 L12.1739789,4.45051338 C11.7931777,4.07834549 11.2503616,3.86490759 10.6848878,3.86490759 L10.5845323,3.86490759 L10.5845323,3.33804368 L12.9272311,2.67864793 C13.1615977,2.61269929 13.3412296,2.4475784 13.4078278,2.23695068 C13.474426,2.02636828 13.4178583,1.80200693 13.2565562,1.63697669 L12.6387407,1.00441365 C12.0152227,0.366094272 11.1126846,0 10.1624891,0 L10.0683962,0 C9.85745097,0 9.68652575,0.15215779 9.68652575,0.339941444 C9.68652575,0.527725097 9.85745097,0.679882888 10.0683962,0.679882888 L10.1624891,0.679882888 C10.8915052,0.679882888 11.5840655,0.960765171 12.0624218,1.45050748 L12.6434759,2.045405 L10.0875406,2.76481175 C9.92873345,2.80950272 9.8207914,2.94067479 9.8207914,3.08893459 L9.8207914,3.86490759 L7.71632883,3.86490759 C7.32921403,3.86490759 6.95610114,3.95669178 6.62957645,4.12802227 L5.46563533,2.13782375 C5.3999027,2.02537112 5.26935392,1.9548446 5.1269417,1.9548446 L2.94142076,1.9548446 C2.90073883,1.9548446 2.86764339,1.92538301 2.86764339,1.88916792 L2.86764339,0.7456049 C2.86764339,0.709389805 2.90073883,0.679928213 2.94142076,0.679928213 L8.44096619,0.679928213 C8.65191142,0.679928213 8.82283663,0.527770423 8.82283663,0.339986769 C8.82283663,0.152203116 8.65191142,4.53255258e-05 8.44096619,4.53255258e-05 L2.94147168,4.53255258e-05 C2.70430467,4.53255258e-05 2.49030447,0.0886567286 2.33775996,0.23016302 L1.41047668,0.23016302 C0.86328179,0.23016302 0.418071765,0.626444093 0.418071765,1.11355752 L0.418071765,1.52733424 C0.418071765,2.01444767 0.86328179,2.41077407 1.41047668,2.41077407 L2.34402263,2.41077407 C2.37890014,2.44241129 2.41708718,2.47101169 2.4577182,2.49675659 L2.4577182,5.42238331 L2.38979617,5.6649202 L1.35044665,5.6649202 C0.605799277,5.6649202 0,6.2042033 0,6.86708912 C0,7.52997493 0.605799277,8.06925804 1.35044665,8.06925804 L3.25684575,8.06925804 C3.1866325,8.21022043 3.14732531,8.36595893 3.14732531,8.52981071 C3.14732531,8.84146902 3.28861737,9.12425498 3.51702681,9.33030482 C3.28861737,9.53635466 3.14732531,9.81914062 3.14732531,10.1307989 C3.14732531,10.4424572 3.28861737,10.7252432 3.51702681,10.931293 C3.28861737,11.1373429 3.14732531,11.4201288 3.14732531,11.7317872 C3.14732531,12.1277963 3.37537834,12.4771654 3.72053831,12.6817195 L3.46570343,12.9085285 C2.97930231,13.3415685 2.65527251,13.9135767 2.55328764,14.519171 C2.52202518,14.7048697 2.66576121,14.8779226 2.87431339,14.9057524 C2.89355967,14.908336 2.91260227,14.9095598 2.93144121,14.9095598 C3.11728483,14.9095598 3.28021622,14.7885406 3.30857647,14.619975 C3.38647804,14.157156 3.63413375,13.720082 4.00571915,13.3892963 L4.58662048,12.8722227 L5.82556096,12.8722227 C6.53197037,12.8722227 7.10665993,12.3606335 7.10665993,11.7317872 C7.10665993,11.4201288 6.96536787,11.1373429 6.73695842,10.931293 C6.96536787,10.7252432 7.10665993,10.4424572 7.10665993,10.1307989 C7.10665993,9.81914062 6.96536787,9.53635466 6.73695842,9.33030482 C6.79154044,9.28103597 6.84123451,9.2274612 6.88512416,9.17007909 L9.28668194,9.17007909 C9.59986662,9.86505538 10.1973666,10.4322137 10.9512807,10.7555207 C10.9513316,10.7556113 10.9513825,10.755702 10.9514843,10.7557926 L11.416908,11.3052286 C11.8069251,11.7656 12.0217399,12.336747 12.0217399,12.913333 L12.0217399,19.7101222 C12.0217399,19.8979058 12.1926651,20.0500636 12.4036104,20.0500636 C12.6145556,20.0500636 12.7854808,19.8979058 12.7854808,19.7101222 L12.7854808,14.0000124 L14.3501822,14.0000124 C14.7995165,14.0000124 15.2219161,13.8442286 15.5394795,13.5614427 L16.2417138,12.9363583 L18.2149657,12.9363583 C18.425911,12.9363583 18.5968362,12.7842005 18.5968362,12.5964169 C18.5968362,12.4086332 18.425911,12.2565208 18.2149657,12.2565208 Z M6.02729038,4.5703994 L5.03427447,5.41553915 C4.94522229,5.49132343 4.8701211,5.57540228 4.80785076,5.6649202 L4.39084823,5.6649202 C4.60551034,5.33939227 4.72022422,4.96767763 4.72022422,4.58096025 L4.72022422,2.63472749 L4.89527363,2.63472749 L6.02729038,4.5703994 Z M3.21015572,5.54634862 C3.21764038,5.51942526 3.22151001,5.49182201 3.22151001,5.46412812 L3.22151001,2.63472749 L3.95653424,2.63472749 L3.95653424,4.58091492 C3.95653424,4.96763231 3.78886766,5.33254812 3.48444054,5.60839927 L3.09360886,5.9625276 L3.21015572,5.54634862 Z M1.18181266,1.52728892 L1.18181266,1.11351219 C1.18181266,1.00128619 1.28440852,0.910000582 1.41047668,0.910000582 L2.1039025,0.910000582 L2.1039025,1.73084587 L1.41047668,1.73084586 C1.28440852,1.73089118 1.18181266,1.63956025 1.18181266,1.52728892 Z M0.763689978,6.86708912 C0.763689978,6.57909073 1.02687509,6.34480308 1.35039573,6.34480308 L2.20323973,6.34480308 C2.16810765,6.56576502 2.28536733,6.78047204 2.50893975,6.89188218 C2.60400003,6.93924736 2.70690139,6.96236337 2.80868259,6.96236337 C2.96698062,6.96236337 3.12263102,6.90638635 3.2414691,6.79873823 L3.74238129,6.34480308 L4.59710919,6.34480308 C4.60092789,6.58239949 4.67908404,6.82085708 4.83768757,7.03080492 C4.94751351,7.17620921 5.08870374,7.29736434 5.2505659,7.38942048 L1.35044665,7.38942048 C1.02687509,7.38937515 0.763689978,7.15508751 0.763689978,6.86708912 Z M5.82556096,8.06925804 C6.11084364,8.06925804 6.34291904,8.27589711 6.34291904,8.52981071 C6.34291904,8.7837243 6.11079272,8.99036338 5.82556096,8.99036338 L4.42842428,8.99036338 C4.1431416,8.99036338 3.9110662,8.7837243 3.9110662,8.52981071 C3.9110662,8.27589711 4.14319252,8.06925804 4.42842428,8.06925804 L5.82556096,8.06925804 Z M6.34291904,10.1308443 C6.34291904,10.3848032 6.11079272,10.5913969 5.82556096,10.5913969 L4.42842428,10.5913969 C4.1431416,10.5913969 3.9110662,10.3847579 3.9110662,10.1308443 C3.9110662,9.87693066 4.14319252,9.67029159 4.42842428,9.67029159 L5.82556096,9.67029159 C6.11084364,9.67029159 6.34291904,9.87688534 6.34291904,10.1308443 Z M5.82556096,12.1923852 L4.42842428,12.1923852 C4.1431416,12.1923852 3.9110662,11.9857461 3.9110662,11.7318325 C3.9110662,11.4779189 4.14319252,11.2712798 4.42842428,11.2712798 L5.82556096,11.2712798 C6.11084364,11.2712798 6.34291904,11.4779189 6.34291904,11.7318325 C6.34291904,11.9857461 6.11084364,12.1923852 5.82556096,12.1923852 Z M7.10553978,8.4901962 C7.08955213,8.0761022 6.82468679,7.71735066 6.43991413,7.5293857 C6.63451531,7.47467779 6.81587831,7.38266698 6.97010306,7.25688864 L7.5957596,6.7466592 L9.04595081,7.40487648 L9.04595081,8.0610088 C9.04595081,8.20677569 9.05832341,8.34995902 9.08108289,8.4901962 L7.10553978,8.4901962 Z" id="Shape"></path>
                            </g>
                        </g>
                    </g>
                </g>
            </g>
        </g>
    </g>
</svg>