<?xml version="1.0" encoding="UTF-8"?>
<svg width="21px" height="23px" viewBox="0 0 21 23" version="1.1" xmlns="http://www.w3.org/2000/svg" xmlns:xlink="http://www.w3.org/1999/xlink">
    <!-- Generator: Sketch 54.1 (76490) - https://sketchapp.com -->
    <title>fork</title>
    <desc>Created with Sketch.</desc>
    <g id="Page-1" stroke="none" stroke-width="1" fill="none" fill-rule="evenodd">
        <g id="pc_products" transform="translate(-132.000000, -1241.000000)" fill="#00381F" fill-rule="nonzero">
            <g id="row01" transform="translate(101.000000, 933.000000)">
                <g id="01">
                    <g id="tags" transform="translate(0.000000, 302.000000)">
                        <g id="Group-3" transform="translate(0.000000, 0.029851)">
                            <g id="fork" transform="translate(31.515685, 6.165788)">
                                <path d="M9.86463385,6.53385876e-07 C5.11620344,-0.00172331569 1.04099299,3.40827096 0.168742753,8.11318489 C-0.703507486,12.8180988 1.87498102,17.4814161 6.30357777,19.2083214 L6.25206885,20.6075933 C6.23160559,21.13263 6.49782421,21.6268571 6.94581417,21.8955113 C7.39380413,22.1641655 7.95172609,22.1641655 8.39971605,21.8955113 C8.84770602,21.6268571 9.11392463,21.13263 9.09346137,20.6075933 L9.06533238,19.8475677 C9.33127913,19.8692933 9.59795649,19.8843907 9.86463385,19.8843907 C10.3946664,19.8844326 10.9238567,19.8418282 11.4471631,19.7569833 L11.3854254,20.7548851 C11.3562575,21.2139471 11.5775788,21.6525527 11.9628227,21.8991476 C12.3480666,22.1457426 12.8360092,22.1611373 13.2357986,21.9393104 C13.6355881,21.7174835 13.8836888,21.2936883 13.8830599,20.8336862 L13.8830599,19.0172103 C18.13507,17.1064386 20.4819691,12.4583694 19.5121521,7.86870825 C18.5423351,3.27904714 14.5200609,-0.00159963154 9.86463385,6.53385884e-07 L9.86463385,6.53385876e-07 Z M10.9605682,15.4656373 L10.9605682,10.3104251 C10.9621493,9.02963582 11.8950764,7.94365477 13.152437,7.75896328 L13.152437,15.4656373 L10.9605682,15.4656373 Z M13.5177484,6.9963601 C11.7027795,6.99838946 10.2319586,8.48095879 10.2299453,10.3104251 L10.2299453,15.8338668 C10.2304547,15.9798129 10.3164291,16.1116824 10.4491322,16.1700603 C9.94273199,16.219027 9.43230537,16.2057965 8.92907121,16.1306597 L8.78038945,12.0801358 C9.21083769,11.921181 9.49765431,11.5089676 9.4993224,11.046884 L9.4993224,6.9963601 L8.76869948,6.9963601 L8.76869948,9.20573677 L8.03807657,9.20573677 L8.03807657,6.9963601 L7.30745365,6.9963601 L7.30745365,9.20573677 L6.57683074,9.20573677 L6.57683074,6.9963601 L5.84620783,6.9963601 L5.84620783,11.046884 C5.84793229,11.5090618 6.13491393,11.9213029 6.56550608,12.0801358 L6.45189422,15.1710538 C4.21798623,13.6897358 3.17554128,10.9333961 3.86424418,8.32902104 C4.55294708,5.72464597 6.81815844,3.85701452 9.48715429,3.69301931 C12.1561501,3.5290241 14.6296417,5.10548817 15.6270762,7.60625931 C16.6245106,10.1070305 15.9219268,12.9705926 13.8830599,14.7144493 L13.8830599,7.36458955 C13.8830599,7.16122204 13.7195044,6.9963601 13.5177484,6.9963601 L13.5177484,6.9963601 Z M6.57683074,11.046884 L6.57683074,9.94219566 L8.76869948,9.94219566 L8.76869948,11.046884 C8.76869948,11.2502515 8.60514397,11.4151134 8.40338802,11.4151134 L6.9421422,11.4151134 C6.74038625,11.4151134 6.57683074,11.2502515 6.57683074,11.046884 Z M8.17031932,21.1441036 C7.89487881,21.4195065 7.45065141,21.4195065 7.17521091,21.1441036 C7.0443989,21.0083151 6.97466237,20.8243271 6.98232646,20.6352105 L7.29430244,12.1515723 L8.05122778,12.1515723 L8.36320376,20.6352105 C8.37086785,20.8243271 8.30113133,21.0083151 8.17031932,21.1441036 L8.17031932,21.1441036 Z M9.03793403,19.1015349 L8.95610426,16.8722738 C9.85146817,16.9995521 10.7631087,16.9433171 11.6363944,16.7069388 L11.4946536,18.992539 C10.6841985,19.1388231 9.85800561,19.1754784 9.03793403,19.1015349 L9.03793403,19.1015349 Z M13.152437,20.8336862 C13.1520345,21.1227066 12.9196942,21.3569028 12.6329641,21.3573084 C12.489559,21.3572869 12.352542,21.2975107 12.2543717,21.1921406 C12.1562013,21.0867704 12.1056117,20.9451809 12.1145871,20.8009138 L12.3995301,16.2020962 L13.152437,16.2020962 L13.152437,20.8336862 Z M13.8830599,18.2107878 L13.8830599,15.6434922 C16.3972694,13.8433498 17.4316253,10.5869391 16.4222103,7.6496124 C15.4127953,4.71228572 12.6017165,2.79855765 9.52153717,2.95176766 C6.44135788,3.10497768 3.8308557,5.28837853 3.11324223,8.31160867 C2.39562876,11.3348388 3.74302279,14.4727799 6.42084275,16.0146674 L6.33207206,18.4302526 C2.36971818,16.7532768 0.104097706,12.5178866 0.891432872,8.25942733 C1.67876804,4.00096806 5.30586501,0.872541123 9.6015086,0.746853002 C13.8971522,0.62116488 17.6981723,3.53224928 18.7292417,7.73750306 C19.7603111,11.9427568 17.7422377,16.3034855 13.8830599,18.2093149 L13.8830599,18.2107878 Z" id="Shape"></path>
                            </g>
                        </g>
                    </g>
                </g>
            </g>
        </g>
    </g>
</svg>