<?xml version="1.0" encoding="UTF-8"?>
<svg width="21px" height="25px" viewBox="0 0 21 25" version="1.1" xmlns="http://www.w3.org/2000/svg" xmlns:xlink="http://www.w3.org/1999/xlink">
    <!-- Generator: Sketch 54.1 (76490) - https://sketchapp.com -->
    <title>clothes</title>
    <desc>Created with Sketch.</desc>
    <g id="Page-1" stroke="none" stroke-width="1" fill="none" fill-rule="evenodd">
        <g id="pc_products" transform="translate(-863.000000, -1243.000000)" fill="#00381F" fill-rule="nonzero">
            <g id="row01" transform="translate(101.000000, 933.000000)">
                <g id="03" transform="translate(743.000000, 0.000000)">
                    <g id="Group-8" transform="translate(0.000000, 305.000000)">
                        <g id="tags">
                            <g id="Group-3" transform="translate(0.000000, 0.029851)">
                                <g id="clothes" transform="translate(19.000000, 5.000000)">
                                    <path d="M20.1642445,6.68571601 L20.1642445,5.12708823 C20.1642445,4.91059444 19.9906688,4.73509155 19.7765524,4.73509155 L18.3431579,4.73509155 L16.7739257,3.67728852 C17.3830926,3.25652954 17.6146835,2.46004736 17.327663,1.77288781 C17.0406425,1.08572826 16.3145062,0.698212915 15.5914604,0.846332873 C14.8684146,0.99445283 14.3487202,1.63718352 14.3488634,2.38311149 C14.3488634,2.59960528 14.522439,2.77510817 14.7365554,2.77510817 C14.9506719,2.77510817 15.1242475,2.59960528 15.1242475,2.38311149 C15.1242475,1.95012392 15.4713988,1.59911814 15.8996317,1.59911814 C16.3278645,1.59911814 16.6750158,1.95012392 16.6750158,2.38311149 C16.6750158,2.81609906 16.3278645,3.16710484 15.8996317,3.16710484 L15.8996317,3.16710484 C15.8230795,3.16708336 15.748238,3.18999997 15.6845595,3.23296029 L13.4561054,4.73509155 L12.0227109,4.73509155 C12.0178648,4.73509155 12.0133578,4.73563054 12.0086571,4.73582654 C11.997414,4.73582654 11.9862678,4.73509155 11.9750248,4.73509155 L10.2016243,4.73509155 L8.63234371,3.67728852 C9.24153583,3.25654629 9.47315301,2.46005602 9.18614033,1.7728805 C8.89912764,1.08570499 8.17298117,0.698176462 7.44992433,0.846299909 C6.72686749,0.994423356 6.20717083,1.6371719 6.20732977,2.38311149 C6.20732977,2.59960528 6.38090543,2.77510817 6.59502185,2.77510817 C6.80913827,2.77510817 6.98271392,2.59960528 6.98271392,2.38311149 C6.98271392,1.95012392 7.32986523,1.59911814 7.75809808,1.59911814 C8.18633092,1.59911814 8.53348223,1.95012392 8.53348223,2.38311149 C8.53348223,2.81609906 8.18633092,3.16710484 7.75809808,3.16710484 L7.75809808,3.16710484 C7.68154595,3.16708336 7.60670439,3.18999997 7.5430259,3.23296029 L5.31457185,4.73509155 L3.54117137,4.73509155 C2.65140443,4.73418981 1.87563733,5.34673442 1.66086481,6.21977896 C1.65779558,6.23196352 1.65534019,6.24429509 1.65349866,6.25677365 L0.784099177,12.1249639 C0.781190052,12.1441801 0.779699781,12.1635885 0.779640719,12.1830284 L0.779640719,20.0229619 C0.779640719,20.2394557 0.953216373,20.4149586 1.16733279,20.4149586 L3.49348525,20.4149586 C3.70760167,20.4149586 3.88117732,20.2394557 3.88117732,20.0229619 L3.88117732,19.6309653 L6.20732977,19.6309653 C6.42144619,19.6309653 6.59502185,19.4554624 6.59502185,19.2389686 L6.59502185,18.8469719 L8.9211743,18.8469719 L8.9211743,19.2389686 C8.9211743,19.4554624 9.09474996,19.6309653 9.30886638,19.6309653 L11.0530446,19.6309653 L10.8600224,23.9251418 C10.8552182,24.032084 10.8938798,24.1363602 10.9670289,24.2137548 C11.040178,24.2911495 11.14145,24.3349286 11.2473268,24.3349254 L20.5519366,24.3349254 C20.6578134,24.3349286 20.7590853,24.2911495 20.8322344,24.2137548 C20.9053835,24.1363602 20.9440451,24.032084 20.9392409,23.9251418 L20.1642445,6.68571601 Z M19.4569972,8.220383 C19.1554212,8.13301674 18.9344368,7.91041163 18.7863869,7.54639371 C18.7274952,7.39821047 18.6838437,7.24429217 18.6561223,7.08707161 L19.4060642,7.08707161 L19.4569972,8.220383 Z M19.3888603,6.30307826 L13.8697729,6.30307826 L13.8628913,6.25672465 C13.8610498,6.24427875 13.8585944,6.23194719 13.8555252,6.21972996 C13.7929998,5.96627972 13.6809547,5.72803944 13.5259869,5.5190359 L19.3888603,5.5190359 L19.3888603,6.30307826 Z M15.8996317,4.03023253 L16.9453341,4.73509155 L14.8539292,4.73509155 L15.8996317,4.03023253 Z M11.1831153,5.5190849 L11.0038077,6.69811291 C10.9596319,6.98670301 10.7484822,7.22030004 10.4681776,7.29068599 C10.1878729,7.36107194 9.89317006,7.2544971 9.72059536,7.02033417 C10.1106025,6.60834865 10.3636363,6.08350578 10.444368,5.5190849 L11.1831153,5.5190849 Z M5.85864921,5.5190849 L9.65778924,5.5190849 C9.47386087,6.43199508 8.67976945,7.08783192 7.75834038,7.08783192 C6.83691131,7.08783192 6.0428199,6.43199508 5.85889152,5.5190849 L5.85864921,5.5190849 Z M7.75809808,4.03023253 L8.80380053,4.73509155 L6.71239563,4.73509155 L7.75809808,4.03023253 Z M5.07182815,5.5190849 C5.15258684,6.08351739 5.40565523,6.60836157 5.79569771,7.02033417 C5.62312301,7.2544971 5.32842014,7.36107194 5.0481155,7.29068599 C4.76781086,7.22030004 4.5566612,6.98670301 4.5124854,6.69811291 L4.3330809,5.5190849 L5.07182815,5.5190849 Z M5.8196377,18.8469719 L3.88117732,18.8469719 L3.88117732,11.399035 C3.88117732,11.1825413 3.70760167,11.0070384 3.49348525,11.0070384 C3.27936883,11.0070384 3.10579317,11.1825413 3.10579317,11.399035 L3.10579317,19.6309653 L1.55502487,19.6309653 L1.55502487,12.2124282 L2.41720358,6.39289449 C2.55214322,5.87735237 3.01373717,5.51849402 3.54117137,5.5190849 L3.54853752,5.5190849 L3.74611509,6.81757389 C3.83765245,7.47023115 4.34397373,7.98363113 4.98920127,8.07803921 C5.27005676,8.12439286 5.55816349,8.08869364 5.8196377,7.97514008 L5.8196377,18.8469719 Z M6.59502185,18.0629785 L6.59502185,7.60553621 C7.33087572,7.9595734 8.18532043,7.9595734 8.9211743,7.60553621 L8.9211743,18.0629785 L6.59502185,18.0629785 Z M9.69655845,7.97499308 C9.95803975,8.08852011 10.2461388,8.12421839 10.5269949,8.07789221 C11.1721766,7.98350048 11.6784845,7.470174 11.7700811,6.81757389 L11.9676586,5.5190849 L11.9750248,5.5190849 C12.502459,5.51849402 12.9640529,5.87735237 13.0989926,6.39289449 L13.9611713,12.2124282 L13.9611713,19.6309653 L12.410403,19.6309653 L12.410403,11.399035 C12.410403,11.1825413 12.2368273,11.0070384 12.0227109,11.0070384 C11.8085945,11.0070384 11.6350188,11.1825413 11.6350188,11.399035 L11.6350188,18.8469719 L9.69655845,18.8469719 L9.69655845,7.97499308 Z M15.5119396,23.550932 L11.6530465,23.550932 L11.7973164,20.3414592 C11.8629509,20.3892817 11.9418102,20.4149971 12.0227109,20.4149586 L14.3488634,20.4149586 C14.5629798,20.4149586 14.7365554,20.2394557 14.7365554,20.0229619 L14.7365554,12.1830284 C14.7365629,12.163577 14.7351375,12.1441521 14.7322908,12.1249149 L13.9858867,7.08707161 L15.5119396,7.08707161 L15.5119396,23.550932 Z M16.2873237,23.550932 L16.2873237,7.08707161 L17.8706582,7.08707161 C17.9050326,7.33823495 17.9684672,7.58444626 18.0596581,7.82064439 C18.334241,8.5146255 18.8374653,8.93484594 19.4932949,9.02740616 L20.1462168,23.550932 L16.2873237,23.550932 Z" id="Shape"></path>
                                </g>
                            </g>
                        </g>
                    </g>
                </g>
            </g>
        </g>
    </g>
</svg>