<?xml version="1.0" encoding="UTF-8"?>
<svg width="22px" height="21px" viewBox="0 0 22 21" version="1.1" xmlns="http://www.w3.org/2000/svg" xmlns:xlink="http://www.w3.org/1999/xlink">
    <!-- Generator: Sketch 54.1 (76490) - https://sketchapp.com -->
    <title>towel</title>
    <desc>Created with Sketch.</desc>
    <g id="Page-1" stroke="none" stroke-width="1" fill="none" fill-rule="evenodd">
        <g id="pc_products" transform="translate(-139.000000, -2736.000000)" fill="#00381F" fill-rule="nonzero">
            <g id="row01" transform="translate(96.000000, 2344.000000)">
                <g id="01">
                    <g id="tags" transform="translate(0.000000, 340.455090)">
                        <g id="Group-3" transform="translate(0.000000, 44.000000)">
                            <g id="Group-17" transform="translate(43.000000, 7.000000)">
                                <g id="towel">
                                    <path d="M21.6451613,1.63111708 L20.5806452,1.63111708 C20.3846732,1.63111708 20.2258065,1.79322087 20.2258065,1.99318604 L20.2258065,2.71732397 L19.1612903,2.71732397 C19.1600435,1.51806032 18.2075733,0.546182371 17.0322581,0.54491018 L4.96774194,0.54491018 C3.79242671,0.546182371 2.83995646,1.51806032 2.83870968,2.71732397 L1.77419355,2.71732397 L1.77419355,1.99318604 C1.77419355,1.79322087 1.61532685,1.63111708 1.41935484,1.63111708 L0.35483871,1.63111708 C0.158866702,1.63111708 0,1.79322087 0,1.99318604 L0,4.16559983 C0,4.365565 0.158866702,4.5276688 0.35483871,4.5276688 L1.41935484,4.5276688 C1.61532685,4.5276688 1.77419355,4.365565 1.77419355,4.16559983 L1.77419355,3.4414619 L2.83870968,3.4414619 L2.83870968,20.0966343 C2.83958966,20.8961228 3.47454127,21.5440123 4.25806452,21.5449102 L13.8387097,21.5449102 C14.6222329,21.5440123 15.2571845,20.8961228 15.2580645,20.0966343 L15.2580645,18.6483585 L17.7419355,18.6483585 C18.5254587,18.6474605 19.1604103,17.999571 19.1612903,17.2000826 L19.1612903,3.4414619 L20.2258065,3.4414619 L20.2258065,4.16559983 C20.2258065,4.365565 20.3846732,4.5276688 20.5806452,4.5276688 L21.6451613,4.5276688 C21.8411333,4.5276688 22,4.365565 22,4.16559983 L22,1.99318604 C22,1.79322087 21.8411333,1.63111708 21.6451613,1.63111708 Z M1.06451613,3.80353087 L0.709677419,3.80353087 L0.709677419,2.35525501 L1.06451613,2.35525501 L1.06451613,3.80353087 Z M14.5483871,20.0966343 C14.547874,20.4963476 14.2304409,20.8202487 13.8387097,20.8207722 L4.25806452,20.8207722 C3.86633325,20.8202487 3.54890023,20.4963476 3.5483871,20.0966343 L3.5483871,17.5621516 L14.5483871,17.5621516 L14.5483871,20.0966343 Z M14.5483871,2.71732397 L14.5483871,16.8380136 L3.5483871,16.8380136 L3.5483871,2.71732397 C3.54912068,1.91777356 4.18415796,1.26979664 4.96774194,1.26904811 L15.0921774,1.26904811 C14.7417242,1.66663816 14.5480013,2.18257984 14.5483871,2.71732397 Z M18.4516129,17.2000826 C18.4510998,17.5997958 18.1336668,17.9236969 17.7419355,17.9242205 L15.2580645,17.9242205 L15.2580645,3.4414619 L18.4516129,3.4414619 L18.4516129,17.2000826 Z M15.2580645,2.71732397 C15.2587981,1.91777356 15.8938354,1.26979664 16.6774194,1.26904811 L17.0322581,1.26904811 C17.815842,1.26979664 18.4508793,1.91777356 18.4516129,2.71732397 L15.2580645,2.71732397 Z M21.2903226,3.80353087 L20.9354839,3.80353087 L20.9354839,2.35525501 L21.2903226,2.35525501 L21.2903226,3.80353087 Z" id="Shape"></path>
                                    <path d="M7.63636364,19.5449102 L4.36363636,19.5449102 C4.16280555,19.5449102 4,19.7687678 4,20.0449102 C4,20.3210526 4.16280555,20.5449102 4.36363636,20.5449102 L7.63636364,20.5449102 C7.83719445,20.5449102 8,20.3210526 8,20.0449102 C8,19.7687678 7.83719445,19.5449102 7.63636364,19.5449102 Z" id="Path"></path>
                                    <path d="M8.66666667,19.5449102 L8.33333333,19.5449102 C8.14923842,19.5449102 8,19.7687678 8,20.0449102 C8,20.3210526 8.14923842,20.5449102 8.33333333,20.5449102 L8.66666667,20.5449102 C8.85076158,20.5449102 9,20.3210526 9,20.0449102 C9,19.7687678 8.85076158,19.5449102 8.66666667,19.5449102 Z" id="Path"></path>
                                </g>
                            </g>
                        </g>
                    </g>
                </g>
            </g>
        </g>
    </g>
</svg>