<?xml version="1.0" encoding="UTF-8"?>
<svg width="21px" height="19px" viewBox="0 0 21 19" version="1.1" xmlns="http://www.w3.org/2000/svg" xmlns:xlink="http://www.w3.org/1999/xlink">
    <!-- Generator: Sketch 54.1 (76490) - https://sketchapp.com -->
    <title>restroom</title>
    <desc>Created with Sketch.</desc>
    <g id="Page-1" stroke="none" stroke-width="1" fill="none" fill-rule="evenodd">
        <g id="pc_products" transform="translate(-655.000000, -1683.000000)" fill-rule="nonzero" stroke="#00381F" stroke-width="0.8">
            <g id="row01" transform="translate(99.000000, 1372.000000)">
                <g id="02" transform="translate(369.000000, 0.000000)">
                    <g id="Group-8" transform="translate(0.000000, 303.000000)">
                        <g id="tags">
                            <g id="Group-3" transform="translate(171.862722, 0.029851)">
                                <g id="restroom" transform="translate(16.137278, 8.970149)">
                                    <path d="M4.275,0 C2.96540237,0 1.9,1.12149616 1.9,2.50004455 C1.9,3.87859294 2.96544469,5 4.275,5 C5.58455531,5 6.65,3.87854839 6.65,2.5 C6.65,1.12145161 5.58459763,0 4.275,0 Z" id="Path"></path>
                                    <path d="M8.4347617,7.33045343 C8.30461585,7.12423535 8.08325587,7 7.84597777,7 L0.704061016,7 C0.466736236,7 0.245422942,7.12423535 0.115277095,7.33045343 C-0.0148220721,7.5366715 -0.0362485225,7.79707579 0.0583732969,8.02328018 L3.62930834,16.5600099 C3.74106198,16.8272057 3.99467833,17 4.27494937,17 C4.55522042,17 4.80883677,16.8272057 4.92059041,16.5600099 L8.49157213,8.02328018 C8.58624063,7.7971243 8.56486086,7.5366715 8.4347617,7.33045343 Z" id="Path"></path>
                                    <path d="M14.725,0 C13.4154024,0 12.35,1.12148617 12.35,2.50002227 C12.35,3.87855838 13.4154447,5 14.725,5 C16.0345553,5 17.1,3.87855838 17.1,2.50002227 C17.1,1.12148617 16.0345976,0 14.725,0 Z" id="Path"></path>
                                    <path d="M18.941606,15.9767198 L15.3706626,7.4399901 C15.2589087,7.17279435 15.0052917,7 14.72502,7 C14.4447017,7 14.1911314,7.17279435 14.0793775,7.4399901 L10.5083875,15.9767198 C10.4137654,16.2028757 10.4351452,16.463377 10.5652914,16.6695466 C10.6953909,16.8758132 10.9167514,17 11.1540767,17 L18.2960101,17 C18.5333354,17 18.7546492,16.8757646 18.8847954,16.6695466 C19.0148482,16.46328 19.036228,16.2028272 18.941606,15.9767198 Z" id="Path"></path>
                                </g>
                            </g>
                        </g>
                    </g>
                </g>
            </g>
        </g>
    </g>
</svg>