<?xml version="1.0" encoding="UTF-8"?>
<svg width="23px" height="20px" viewBox="0 0 23 20" version="1.1" xmlns="http://www.w3.org/2000/svg" xmlns:xlink="http://www.w3.org/1999/xlink">
    <!-- Generator: Sketch 54.1 (76490) - https://sketchapp.com -->
    <title>restroom</title>
    <desc>Created with Sketch.</desc>
    <g id="Page-1" stroke="none" stroke-width="1" fill="none" fill-rule="evenodd">
        <g id="pc_nav_after" transform="translate(-494.000000, -486.000000)" fill-rule="nonzero" stroke="#FFFFFF" stroke-width="0.8">
            <g id="Group-17" transform="translate(98.000000, 116.000000)">
                <g id="Group-19" transform="translate(0.000000, 260.000000)">
                    <g id="tags" transform="translate(1.000000, 45.000000)">
                        <g id="Group-16" transform="translate(395.535883, 56.673134)">
                            <g id="restroom" transform="translate(0.000000, 9.000000)">
                                <path d="M4.86,0 C3.37119427,0 2.16,1.21121585 2.16,2.70004811 C2.16,4.18888037 3.37124238,5.4 4.86,5.4 C6.34875762,5.4 7.56,4.18883226 7.56,2.7 C7.56,1.21116774 6.34880573,0 4.86,0 Z" id="Path"></path>
                                <path d="M9.58899224,7.9168897 C9.44103696,7.69417418 9.18938563,7.56 8.91963789,7.56 L0.800406208,7.56 C0.530605405,7.56 0.279007134,7.69417418 0.131051855,7.9168897 C-0.0168503556,8.13960522 -0.0412088467,8.42084185 0.0663612218,8.6651426 L4.12595053,17.8848107 C4.25299678,18.1733821 4.54131852,18.36 4.85994245,18.36 C5.17856637,18.36 5.46688812,18.1733821 5.59393436,17.8848107 L9.65357674,8.6651426 C9.76119988,8.42089424 9.73689445,8.13960522 9.58899224,7.9168897 Z" id="Path"></path>
                                <path d="M16.74,0 C15.2511943,0 14.04,1.21120506 14.04,2.70002406 C14.04,4.18884305 15.2512424,5.4 16.74,5.4 C18.2287576,5.4 19.44,4.18884305 19.44,2.70002406 C19.44,1.21120506 18.2288057,0 16.74,0 Z" id="Path"></path>
                                <path d="M21.5336152,17.2548574 L17.4740164,8.03518931 C17.3469699,7.7466179 17.0586475,7.56 16.7400228,7.56 C16.4213451,7.56 16.1330757,7.7466179 16.0060292,8.03518931 L11.9463773,17.2548574 C11.838807,17.4991058 11.8631125,17.7804472 12.0110681,18.0031103 C12.1589707,18.2258782 12.4106226,18.36 12.680424,18.36 L20.7996746,18.36 C21.0694761,18.36 21.3210749,18.2258258 21.4690305,18.0031103 C21.61688,17.7803424 21.6411855,17.4990534 21.5336152,17.2548574 Z" id="Path"></path>
                            </g>
                        </g>
                    </g>
                </g>
            </g>
        </g>
    </g>
</svg>