<?xml version="1.0" encoding="UTF-8"?>
<svg width="23px" height="21px" viewBox="0 0 23 21" version="1.1" xmlns="http://www.w3.org/2000/svg" xmlns:xlink="http://www.w3.org/1999/xlink">
    <!-- Generator: Sketch 54.1 (76490) - https://sketchapp.com -->
    <title>washing-hands</title>
    <desc>Created with Sketch.</desc>
    <g id="Page-1" stroke="none" stroke-width="1" fill="none" fill-rule="evenodd">
        <g id="pc_products" transform="translate(-667.000000, -1244.000000)" fill="#00381F" fill-rule="nonzero">
            <g id="row01" transform="translate(101.000000, 933.000000)">
                <g id="02" transform="translate(369.000000, 0.000000)">
                    <g id="Group-8" transform="translate(0.000000, 303.000000)">
                        <g id="tags">
                            <g id="Group-3" transform="translate(171.862722, 0.029851)">
                                <g id="washing-hands" transform="translate(26.000000, 7.000000)">
                                    <path d="M15.5925759,15.1551097 C15.3196252,14.9404123 14.9630792,14.8427964 14.6138503,14.8871897 L11.427483,15.2927246 C11.3381019,15.304018 11.2925392,15.2478385 11.2770113,15.2231163 C11.2614834,15.1983941 11.230853,15.1332621 11.2822865,15.0621344 L11.7217473,14.4545096 C11.8226149,14.3150467 11.7872623,14.1230182 11.642789,14.0256488 C11.4983158,13.9282383 11.2993885,13.9624059 11.1985635,14.1018688 L10.7591027,14.7095346 C10.5770222,14.9613153 10.5665568,15.2807331 10.7317481,15.543109 C10.8970245,15.805485 11.1954154,15.9435106 11.5109083,15.9034293 L14.6972756,15.4978944 C14.8754423,15.4752666 15.0502056,15.5231095 15.1894461,15.6326347 C15.3286867,15.7421599 15.4125799,15.8978032 15.4255553,16.0707356 C15.4461032,16.345062 15.2815925,16.5965141 15.0161718,16.6963887 L8.99802632,18.9610598 C8.19780777,19.2622028 7.32326802,19.3771899 6.46872309,19.2934547 L5.98569909,19.2461457 C5.9165255,19.2394518 5.84645851,19.2547287 5.78689945,19.2899229 L2.21795024,21.3994025 C2.06764869,21.4882301 2.02038432,21.6778356 2.11244562,21.8229247 C2.17264281,21.9178301 2.27746676,21.9701082 2.38484325,21.9701082 C2.44167961,21.9701082 2.49919665,21.9554884 2.55114066,21.9247293 L6.02832637,19.869499 L6.40427168,19.906336 C7.35887583,19.999763 8.33585717,19.8713881 9.22971107,19.5350097 L12.0875676,18.4595928 L13.1376364,21.7527004 C13.1798383,21.8850999 13.3061035,21.9701493 13.4424512,21.9701493 C13.4735495,21.9701493 13.5052009,21.965714 13.5364269,21.9564329 C13.7048514,21.9064135 13.7993802,21.734015 13.7475212,21.5714315 L12.6837113,18.2352447 L15.2478991,17.2703386 C15.7756775,17.0716984 16.1028695,16.5717508 16.0619864,16.0263013 C16.0366313,15.6873357 15.865484,15.3697659 15.5925759,15.1551097 L15.5925759,15.1551097 Z" id="Path"></path>
                                    <path d="M2.57444544,11.9343267 L2.98486974,11.4846212 C3.09136172,11.3678958 3.09241001,11.1775757 2.98714706,11.0594874 C2.88184796,10.941359 2.71028959,10.9402367 2.60376146,11.0569621 L2.19398783,11.5059861 C1.81385555,11.9197761 1.52221356,12.4340573 1.35054675,12.9931929 L1.1677825,13.5884443 L0.172158373,14.4304546 C0.0530868891,14.5311463 0.0301690625,14.7197829 0.120972817,14.8518205 C0.174363401,14.9293835 0.255081865,14.9701493 0.336776326,14.9701493 C0.394107041,14.9701493 0.451907679,14.950067 0.500960503,14.9085397 L1.56222939,14.0109727 C1.60506476,13.9747766 1.63712802,13.9253126 1.65447906,13.8688338 L1.86381208,13.1869201 C2.00833175,12.7162506 2.25384891,12.2833404 2.57444544,11.9343267 L2.57444544,11.9343267 Z" id="Path"></path>
                                    <path d="M19.4786214,18.2348777 C19.4429309,18.0345645 19.3237838,17.9241764 19.2125083,17.9884594 C19.1012328,18.0526409 19.0399241,18.26707 19.0755582,18.4673326 L19.6522213,21.7054514 C19.6810277,21.8671237 19.764174,21.9701493 19.8536965,21.9701493 C19.8751109,21.9701493 19.8968638,21.9642592 19.9183345,21.9518697 C20.02961,21.8876882 20.0909187,21.6732591 20.0552846,21.4729966 L19.4786214,18.2348777 Z" id="Path"></path>
                                    <path d="M18.005554,11.9139736 C18.5161869,11.3346765 18.8993287,10.6825744 19.1443255,9.9757981 L20.0500469,7.36267584 C20.1052336,7.20340742 20.0071635,7.03386491 19.8309495,6.98398525 C19.6549138,6.93426674 19.4671542,7.02274473 19.4119675,7.18201315 L18.5062462,9.79513541 C18.2860789,10.4305169 17.9416302,11.0166634 17.4825733,11.5374184 L17.2694047,11.7792824 C17.1337114,11.9331519 17.0613625,12.127191 17.0655973,12.3256218 L17.0655973,12.3256621 C17.067425,12.4102722 17.1772634,12.7601551 17.1772634,12.7601551 C17.2226877,12.888158 17.3538341,12.9701493 17.4955007,12.9701493 C17.5270614,12.9701493 17.5591571,12.9660799 17.5909407,12.9575383 L17.6068102,12.953469 C17.6930227,12.9312286 17.7656836,12.8786898 17.8086116,12.8075367 C17.8515395,12.7363837 17.8610345,12.65266 17.8350013,12.575141 L17.7365301,12.2817454 C17.7420577,12.2354919 17.7608693,12.1916155 17.7923854,12.1558778 L18.005554,11.9139736 Z" id="Path"></path>
                                    <path d="M1.0654214,7.97017004 C1.0654214,8.52155151 1.51401914,8.97014925 2.06540061,8.97014925 C2.61682365,8.97014925 3.0654214,8.52155151 3.0654214,7.97017004 C3.0654214,7.418747 2.61682365,6.97014925 2.06540061,6.97014925 C1.51401914,6.97019083 1.0654214,7.41878858 1.0654214,7.97017004 Z M2.44169216,7.97017004 C2.44169216,8.17765014 2.27283912,8.3464616 2.06535903,8.3464616 C1.85787893,8.3464616 1.68906747,8.17765014 1.68906747,7.97017004 C1.68906747,7.76264837 1.85787893,7.59383691 2.06535903,7.59383691 C2.27283912,7.59383691 2.44169216,7.76268995 2.44169216,7.97017004 Z" id="Shape"></path>
                                    <path d="M20.5654214,8.97014925 C19.738372,8.97014925 19.0654214,9.64304595 19.0654214,10.4701493 C19.0654214,11.2972526 19.7383181,11.9701493 20.5654214,11.9701493 C21.3925247,11.9701493 22.0654214,11.2972526 22.0654214,10.4701493 C22.0654214,9.64304595 21.3925247,8.97014925 20.5654214,8.97014925 L20.5654214,8.97014925 Z M20.5654214,11.1622208 C20.1838098,11.1622208 19.8733499,10.8517608 19.8733499,10.4701493 C19.8733499,10.0885377 20.1838098,9.77807773 20.5654214,9.77807773 C20.9470329,9.77807773 21.2574929,10.0885377 21.2574929,10.4701493 C21.2574929,10.8517608 20.9470329,11.1622208 20.5654214,11.1622208 Z" id="Shape"></path>
                                    <path d="M1.56539868,4.97014925 C2.39248514,4.97014925 3.0654214,4.29725843 3.0654214,3.47012654 C3.0654214,2.64299465 2.39253057,1.97014925 1.56539868,1.97014925 C0.738266791,1.97014925 0.065421396,2.64304008 0.065421396,3.47012654 C0.065421396,4.29721299 0.738312223,4.97014925 1.56539868,4.97014925 Z M1.56539868,2.6516267 C2.01676391,2.6516267 2.38394395,3.01880674 2.38394395,3.47017197 C2.38394395,3.9215372 2.01676391,4.28871724 1.56539868,4.28871724 C1.11403345,4.28871724 0.746853407,3.9215372 0.746853407,3.47017197 C0.746853407,3.01880674 1.11407889,2.6516267 1.56539868,2.6516267 Z" id="Shape"></path>
                                    <path d="M16.2189901,7.45656743 L16.2651038,7.38980815 L17.2308851,7.38980815 C17.5112001,7.38980815 17.7637785,7.21083279 17.8594677,6.94444382 L18.4323207,5.34952361 C18.675967,4.67099873 19.2347166,4.16012821 19.9269781,3.98301087 C20.068781,3.94675778 20.2135328,3.9892331 20.3140941,4.09669609 C20.4146553,4.2042023 20.4485461,4.35262826 20.404783,4.49379497 L20.0540793,5.62567801 C20.0011703,5.7964867 20.0952355,5.97831392 20.264134,6.03180776 C20.4329042,6.0853016 20.6129144,5.99023984 20.6658234,5.81943115 L21.016527,4.68754811 C21.1306788,4.31918381 21.0422123,3.93176395 20.7798042,3.65128856 C20.5174389,3.37081317 20.1397679,3.25993659 19.7696615,3.35465267 C18.8712345,3.58452928 18.1460224,4.24762823 17.8297224,5.12828898 L17.2568695,6.72320919 C17.2528949,6.73422771 17.2424669,6.74165981 17.2308851,6.74165981 L16.7126506,6.74165981 L16.8429571,6.55291902 C17.029036,6.28350536 17.0937833,5.94530156 17.0206167,5.62515949 C16.9474502,5.30497422 16.7425668,5.02981364 16.4584909,4.87019631 C16.3353642,4.80101728 16.2039465,4.75737529 16.0706484,4.73732591 C16.2162122,4.32916529 16.1071034,3.85225775 15.7642207,3.55575149 C15.3340681,3.18384398 14.6927497,3.21841189 14.3042234,3.63435028 L14.1119476,3.84015898 C14.0463883,3.65677621 13.9358265,3.4919737 13.786459,3.35901687 C13.769535,3.34393662 13.7522263,3.32963414 13.734704,3.31576377 C13.7579104,3.19594275 13.7658168,3.07314024 13.7576113,2.9484365 C13.7104291,2.23037457 13.1382599,1.66475712 12.4266384,1.63265218 C12.1408102,1.61981884 11.8613072,1.69483121 11.622362,1.84602261 C11.3587573,1.50941757 10.961598,1.31315826 10.5287103,1.31315826 C10.0380414,1.31315826 9.60011061,1.56576327 9.34919895,1.96796091 L8.68035761,1.30365208 C8.44846412,1.07334337 8.12921526,0.952528524 7.80509432,0.972232233 C7.48063148,0.991892733 7.17817843,1.15042982 6.97521821,1.40709656 C6.88726451,1.51831881 6.82285915,1.64207193 6.78110464,1.77161518 C6.40728003,1.55863364 5.92400477,1.58810278 5.57774582,1.88067694 C5.14353318,2.24761531 5.07053758,2.89269575 5.41153982,3.34933785 L5.5802246,3.57515273 C5.39042751,3.61002311 5.21144301,3.69294289 5.05690433,3.8197207 C4.57469751,4.21548008 4.48447872,4.92226423 4.85159355,5.42881376 L5.46406417,6.27378314 C5.3110213,6.30930166 5.16656867,6.37956094 5.03976661,6.48218443 C4.60538301,6.83369688 4.51448042,7.47056743 4.83274633,7.93200583 L5.13592591,8.37149361 L4.16065694,9.3458334 C4.03475237,9.4716606 4.03351298,9.67682115 4.15796448,9.80411748 C4.22066034,9.86828417 4.30327187,9.90043232 4.38596886,9.90043232 C4.467341,9.90043232 4.5487986,9.86927799 4.61123804,9.80688291 L10.700173,3.72379475 C10.8577033,3.56642434 11.1104526,3.55998606 11.2756329,3.70901697 C11.361578,3.78653551 11.4113244,3.89335035 11.4157691,4.00971459 C11.4202138,4.12603561 11.3788012,4.23639366 11.2990958,4.32039369 L8.48517561,7.26795626 C8.36179254,7.39628963 8.36465595,7.60145018 8.49158623,7.72619713 C8.55385471,7.78742555 8.63445757,7.81788852 8.71497496,7.81788852 C8.7985267,7.81788852 8.88199297,7.785049 8.94485978,7.71971565 L12.6426335,3.87377628 C12.8370035,3.67151078 13.1533462,3.65906634 13.3628025,3.84551701 C13.4702018,3.94109728 13.5329404,4.07331954 13.5395647,4.21781341 C13.5461035,4.36235049 13.4956733,4.49984436 13.3974199,4.60501723 L9.60169189,8.66821592 C9.4801038,8.7983209 9.4859161,9.00343824 9.61464134,9.12637037 C9.67656793,9.18552471 9.75567498,9.21482102 9.83465382,9.21482102 C9.91974411,9.21482102 10.0047062,9.18077162 10.0677012,9.11327778 L14.77019,4.07941214 C14.923874,3.91491209 15.1774353,3.90130097 15.3474877,4.04834423 C15.5206172,4.19802328 15.5430544,4.46398015 15.397576,4.6411839 L11.0410897,9.90375949 C10.9268952,10.040562 10.9440329,10.244988 11.0793398,10.3604448 C11.2145611,10.4759016 11.4168375,10.4585745 11.5309893,10.3218152 L15.5101465,5.55477058 C15.6668648,5.36702362 15.9348287,5.31741866 16.1470202,5.43676438 C16.274677,5.50849279 16.3631436,5.62723357 16.395966,5.77107929 C16.4288738,5.91496822 16.4008808,6.06088801 16.3172863,6.18191891 L12.1051244,12.282075 C12.0037939,12.4288158 12.0393087,12.6308652 12.1844451,12.7333159 C12.2403458,12.7727665 12.304281,12.7916924 12.3676179,12.7916924 C12.4688202,12.7916924 12.5683985,12.7433405 12.6307098,12.6531183 L12.8752963,12.2988836 C13.1507392,12.6810751 13.5851656,12.9363159 14.0646372,12.9668221 C14.0995537,12.9690258 14.134342,12.9701493 14.1689594,12.9701493 C14.5771022,12.9701493 14.9616539,12.8167974 15.2612435,12.5323034 C15.5817745,12.2280194 15.7655883,11.7986427 15.7655883,11.3542722 C15.7655883,11.2972352 15.7625967,11.2399389 15.7566562,11.1831611 C16.6623058,10.9878956 17.3100349,10.1848398 17.3100349,9.23819757 C17.3100776,8.46569117 16.878301,7.78561073 16.2189901,7.45656743 L16.2189901,7.45656743 Z M7.47601583,1.81180038 C7.56721758,1.69647318 7.6977378,1.62807193 7.8435153,1.6192139 C7.98933553,1.61035587 8.12695017,1.662467 8.23110137,1.76595468 L8.76737109,2.29864619 C8.41713756,2.43060919 8.12250547,2.67841791 7.92843464,2.99553528 L7.48520439,2.46638698 C7.3281442,2.27898569 7.32425509,2.00369549 7.47601583,1.81180038 L7.47601583,1.81180038 Z M5.59864445,7.90923422 L5.3585881,7.56122178 C5.23281174,7.37883284 5.26871121,7.12709202 5.44043035,6.98817223 C5.53043545,6.91532036 5.64287772,6.88364751 5.75728592,6.89894381 C5.87143769,6.91424011 5.97187073,6.97434507 6.03995151,7.06819694 L6.20820892,7.30027726 L5.59864445,7.90923422 Z M6.66917522,6.83970305 L5.36875962,5.04567167 C5.20387848,4.81817161 5.24435086,4.50070855 5.46094433,4.32294307 C5.57206174,4.23172699 5.71172778,4.19115291 5.85353069,4.20865291 C5.99550455,4.22610971 6.1211527,4.29926405 6.20735417,4.41467766 L7.44199681,6.06758555 L6.66917522,6.83970305 Z M7.90206563,5.60800517 L6.77636078,4.10097387 L6.7190071,4.02423311 L5.92315002,2.95876367 C5.78831332,2.77818954 5.81720384,2.52307836 5.98883751,2.37806597 C6.16363374,2.23033136 6.42672558,2.25215235 6.57540922,2.4267203 L7.68628416,3.73088117 C7.68196768,3.78027008 7.67944617,3.8301775 7.67944617,3.88068986 C7.67944617,4.40426408 7.91715195,4.88627039 8.30931093,5.20114085 L7.90206563,5.60800517 Z M12.1829493,3.42197368 L11.982767,3.63015892 C11.9228491,3.47697986 11.8280574,3.33879464 11.7024947,3.22541189 C11.2853771,2.84909697 10.647264,2.86543031 10.2495919,3.26270203 L8.77079009,4.74004813 C8.49244097,4.548974 8.32050815,4.22991218 8.32050815,3.88060344 C8.32050815,3.30820204 8.78053423,2.84239944 9.34637827,2.84123277 L9.34988275,2.84123277 C9.56173236,2.84123277 9.74443503,2.70598582 9.8045239,2.50458452 C9.90004214,2.18465851 10.1977941,1.96117696 10.5286675,1.96117696 C10.7959904,1.96117696 11.0382691,2.09957824 11.1767384,2.3314425 C11.2478109,2.45044253 11.3661082,2.53215243 11.5012013,2.5556154 C11.637021,2.57912158 11.7763878,2.54170182 11.8835307,2.45268945 C12.0278551,2.33291164 12.2110279,2.27164001 12.398047,2.28002273 C12.7766155,2.29709064 13.09283,2.60949813 13.1179169,2.9912575 C13.1196691,3.01761554 13.1197546,3.04375752 13.1189426,3.06968345 C12.7820859,3.04012789 12.4361261,3.15869582 12.1829493,3.42197368 L12.1829493,3.42197368 Z M15.5589527,10.561414 C15.4144573,10.5853955 15.2882108,10.6646856 15.2034625,10.7847227 C15.1197825,10.903161 15.0869174,11.047266 15.1109358,11.1905932 C15.1199962,11.2443895 15.1245691,11.2994821 15.1245691,11.3542722 C15.1245691,11.6243341 15.0172553,11.874865 14.8225007,12.0598465 C14.6278743,12.244612 14.3734154,12.3371244 14.1049386,12.3199701 C13.7390205,12.2967231 13.4169509,12.0535811 13.2802765,11.7125686 L15.8458493,7.99703672 C16.3393388,8.19982073 16.6690156,8.68381469 16.6690156,9.23824078 C16.6690156,9.89827183 16.2021943,10.454772 15.5589527,10.561414 L15.5589527,10.561414 Z" id="Shape"></path>
                                    <path d="M20.0654214,16.7924785 C20.0654214,16.5982033 20.0185708,16.4055478 19.9299656,16.2352693 C19.8634296,16.1074432 19.8459222,15.9582204 19.8806492,15.8149648 C19.9138556,15.6781027 19.927993,15.5365094 19.9226915,15.3941489 C19.8947866,14.6436875 19.3071814,14.0195177 18.5849836,13.9731014 C18.1853562,13.947485 17.8061951,14.0892488 17.5159269,14.3722648 C17.229604,14.6513596 17.0654214,15.0450674 17.0654214,15.4524144 C17.0654214,15.9055385 17.2614953,16.327761 17.603258,16.610777 C17.7138912,16.7023737 17.7865507,16.8304555 17.8077979,16.9710684 C17.8124008,17.0017143 17.8184009,17.0330421 17.825634,17.0644552 C17.9405824,17.5608841 18.3616624,17.9321296 18.8496073,17.9672083 C18.8769779,17.9691689 18.9041841,17.9701493 18.9313081,17.9701493 C19.2198092,17.9701493 19.4917892,17.8593723 19.7044252,17.653589 C19.9338698,17.4316941 20.0654214,17.1177765 20.0654214,16.7924785 L20.0654214,16.7924785 Z M19.2838794,17.1862288 C19.1775615,17.2891205 19.0383248,17.3398844 18.8922249,17.3294844 C18.6699311,17.3135008 18.4778437,17.1431371 18.4251162,16.9154882 C18.4218284,16.9011669 18.4190749,16.8869734 18.4168968,16.8725243 C18.3716901,16.5732263 18.2193434,16.3028266 17.9879261,16.1112366 C17.793455,15.9502073 17.6819177,15.7100699 17.6819177,15.4524997 C17.6819177,15.2174344 17.7729065,14.9992904 17.9381576,14.8381758 C18.0904632,14.6896776 18.2863316,14.6096318 18.4944058,14.6096318 C18.5118309,14.6096318 18.5293382,14.6101859 18.5468455,14.6113367 C18.9570349,14.6376777 19.2908248,14.9923855 19.3066883,15.4188702 C19.3096884,15.5003652 19.3016744,15.5811782 19.2827698,15.6590076 L19.2827698,15.6590503 C19.2103158,15.9577089 19.2475497,16.2702201 19.387485,16.5390427 C19.4282533,16.6173836 19.4489251,16.702672 19.4489251,16.7925211 C19.4489662,16.9433635 19.3903207,17.0832093 19.2838794,17.1862288 L19.2838794,17.1862288 Z" id="Shape"></path>
                                </g>
                            </g>
                        </g>
                    </g>
                </g>
            </g>
        </g>
    </g>
</svg>