<?xml version="1.0" encoding="UTF-8"?>
<svg width="18px" height="15px" viewBox="0 0 18 15" version="1.1" xmlns="http://www.w3.org/2000/svg" xmlns:xlink="http://www.w3.org/1999/xlink">
    <!-- Generator: Sketch 54.1 (76490) - https://sketchapp.com -->
    <title>Shape</title>
    <desc>Created with Sketch.</desc>
    <g id="Page-1" stroke="none" stroke-width="1" fill="none" fill-rule="evenodd">
        <g id="pc_nav_after" transform="translate(-1041.000000, -666.000000)" fill="#FFFFFF" fill-rule="nonzero">
            <g id="Group-21" transform="translate(1028.000000, 651.000000)">
                <path d="M18.66064,29.6260577 C25.45312,29.6260577 29.16832,23.9985377 29.16832,19.1183777 C29.16832,18.9585377 29.16832,18.7994177 29.15752,18.6410177 C29.8802786,18.1182335 30.5041759,17.4709309 31,16.7294177 C30.3259929,17.028075 29.6109971,17.2239343 28.87888,17.3104577 C29.6498157,16.8489248 30.2268089,16.1230135 30.50248,15.2678177 C29.7775534,15.6979855 28.9844652,16.0011464 28.15744,16.1642177 C27.0126996,14.9469816 25.1937179,14.6490588 23.7204755,15.4375073 C22.247233,16.2259557 21.486118,17.9046922 21.86392,19.5323777 C18.8945649,19.3835174 16.1280226,17.9810105 14.2528,15.6738977 C13.2726084,17.3613219 13.7732713,19.5200365 15.39616,20.6037377 C14.8084537,20.5863191 14.2335611,20.4277792 13.72,20.1414977 C13.72,20.1566177 13.72,20.1724577 13.72,20.1882977 C13.7204811,21.9462446 14.9596611,23.460363 16.6828,23.8084577 C16.1391061,23.9567345 15.568658,23.9784096 15.01528,23.8718177 C15.4990825,25.3762021 16.8855337,26.4067821 18.46552,26.4364577 C17.1578092,27.4642087 15.5423628,28.0221337 13.87912,28.0204577 C13.5852906,28.0198936 13.2917469,28.0021031 13,27.9671777 C14.6888579,29.0509768 16.6539376,29.6258539 18.66064,29.6231777" id="Shape"></path>
            </g>
        </g>
    </g>
</svg>