<?xml version="1.0" encoding="UTF-8"?>
<svg width="23px" height="27px" viewBox="0 0 23 27" version="1.1" xmlns="http://www.w3.org/2000/svg" xmlns:xlink="http://www.w3.org/1999/xlink">
    <!-- Generator: Sketch 54.1 (76490) - https://sketchapp.com -->
    <title>clothes</title>
    <desc>Created with Sketch.</desc>
    <g id="Page-1" stroke="none" stroke-width="1" fill="none" fill-rule="evenodd">
        <g id="pc_nav_after" transform="translate(-256.000000, -429.000000)" fill="#FFFFFF" fill-rule="nonzero" stroke="#00381F" stroke-width="0.2">
            <g id="Group-17" transform="translate(98.000000, 116.000000)">
                <g id="Group-19" transform="translate(0.000000, 260.000000)">
                    <g id="tags" transform="translate(1.000000, 45.000000)">
                        <g id="Group-16" transform="translate(156.500000, 0.900000)">
                            <g id="clothes" transform="translate(0.100000, 7.200000)">
                                <path d="M21.6045477,7.16326715 L21.6045477,5.49330881 C21.6045477,5.26135119 21.4185737,5.07331237 21.1891633,5.07331237 L19.6533834,5.07331237 L17.9720633,3.93995198 C18.6247421,3.48913879 18.8728752,2.63576503 18.5653532,1.89952265 C18.2578312,1.16328028 17.4798281,0.748085266 16.7051361,0.906785221 C15.9304442,1.06548518 15.3736288,1.7541252 15.3737822,2.55333374 C15.3737822,2.78529137 15.5597561,2.97333018 15.7891665,2.97333018 C16.018577,2.97333018 16.2045509,2.78529137 16.2045509,2.55333374 C16.2045509,2.08941848 16.5764987,1.71334086 17.0353196,1.71334086 C17.4941405,1.71334086 17.8660884,2.08941848 17.8660884,2.55333374 C17.8660884,3.017249 17.4941405,3.39332662 17.0353196,3.39332662 L17.0353196,3.39332662 C16.9532995,3.3933036 16.8731121,3.41785711 16.8048852,3.46388602 L14.4172558,5.07331237 L12.881476,5.07331237 C12.8762837,5.07331237 12.8714548,5.07388987 12.8664183,5.07409987 C12.8543721,5.07409987 12.8424298,5.07331237 12.8303837,5.07331237 L10.9303118,5.07331237 L9.24893968,3.93995198 C9.90164553,3.48915674 10.1498068,2.63577431 9.84229321,1.89951483 C9.53477961,1.16325535 8.75676554,0.748046209 7.98206179,0.906749902 C7.20735803,1.0654536 6.65054018,1.75411275 6.65071047,2.55333374 C6.65071047,2.78529137 6.83668439,2.97333018 7.06609484,2.97333018 C7.29550529,2.97333018 7.4814792,2.78529137 7.4814792,2.55333374 C7.4814792,2.08941848 7.85342704,1.71334086 8.31224794,1.71334086 C8.77106884,1.71334086 9.14301667,2.08941848 9.14301667,2.55333374 C9.14301667,3.017249 8.77106884,3.39332662 8.31224794,3.39332662 L8.31224794,3.39332662 C8.2302278,3.3933036 8.15004042,3.41785711 8.08181346,3.46388602 L5.69418412,5.07331237 L3.79411218,5.07331237 C2.84079046,5.07234623 2.00961143,5.72864402 1.77949801,6.66404889 C1.77620955,6.67710378 1.77357878,6.69031616 1.7716057,6.70368605 L0.840106262,12.9910327 C0.836989341,13.0116215 0.835392622,13.0324163 0.835329341,13.0532447 L0.835329341,21.4531735 C0.835329341,21.6851311 1.02130326,21.8731699 1.25071371,21.8731699 L3.74301991,21.8731699 C3.97243036,21.8731699 4.15840427,21.6851311 4.15840427,21.4531735 L4.15840427,21.0331771 L6.65071047,21.0331771 C6.88012092,21.0331771 7.06609484,20.8451382 7.06609484,20.6131806 L7.06609484,20.1931842 L9.55840104,20.1931842 L9.55840104,20.6131806 C9.55840104,20.8451382 9.74437495,21.0331771 9.9737854,21.0331771 L11.8425477,21.0331771 L11.6357383,25.6340806 C11.6305909,25.7486614 11.6720141,25.8603859 11.7503881,25.9433088 C11.8287622,26.0262316 11.9372678,26.0731378 12.0507072,26.0731343 L22.019932,26.0731343 C22.1333715,26.0731378 22.2418771,26.0262316 22.3202512,25.9433088 C22.3986252,25.8603859 22.4400483,25.7486614 22.434901,25.6340806 L21.6045477,7.16326715 Z M20.8467827,8.80755321 C20.5236656,8.71394651 20.2868965,8.47544103 20.1282716,8.08542184 C20.0651735,7.92665407 20.018404,7.76174161 19.9887025,7.59329101 L20.7922116,7.59329101 L20.8467827,8.80755321 Z M20.7737789,6.75329813 L14.8604709,6.75329813 L14.8530979,6.70363355 C14.8511248,6.69029866 14.848494,6.67708628 14.8452056,6.66399639 C14.778214,6.39244255 14.6581658,6.13718512 14.4921289,5.91325275 L20.7737789,5.91325275 L20.7737789,6.75329813 Z M17.0353196,4.31810628 L18.1557151,5.07331237 L15.9149242,5.07331237 L17.0353196,4.31810628 Z M11.9819092,5.91330525 L11.7897939,7.17654954 C11.7424627,7.48575322 11.5162309,7.73603576 11.2159045,7.81144928 C10.9155781,7.88686279 10.5998251,7.77267546 10.4149236,7.52178661 C10.8327884,7.08037355 11.1038961,6.51804191 11.1903943,5.91330525 L11.9819092,5.91330525 Z M6.27712416,5.91330525 L10.3476313,5.91330525 C10.1505652,6.8914233 9.29975299,7.59410562 8.31250755,7.59410562 C7.32526212,7.59410562 6.47444989,6.8914233 6.27738377,5.91330525 L6.27712416,5.91330525 Z M8.31224794,4.31810628 L9.43264342,5.07331237 L7.19185246,5.07331237 L8.31224794,4.31810628 Z M5.43410159,5.91330525 C5.52062876,6.51805434 5.79177346,7.0803874 6.20967612,7.52178661 C6.02477465,7.77267546 5.70902158,7.88686279 5.40869518,7.81144928 C5.10836878,7.73603576 4.882137,7.48575322 4.83480579,7.17654954 L4.64258668,5.91330525 L5.43410159,5.91330525 Z M6.23532611,20.1931842 L4.15840427,20.1931842 L4.15840427,12.2132518 C4.15840427,11.9812942 3.97243036,11.7932554 3.74301991,11.7932554 C3.51360946,11.7932554 3.32763554,11.9812942 3.32763554,12.2132518 L3.32763554,21.0331771 L1.66609807,21.0331771 L1.66609807,13.0847444 L2.58986098,6.84952981 C2.73443916,6.29716325 3.22900411,5.91267216 3.79411218,5.91330525 L3.80200449,5.91330525 L4.01369474,7.30454346 C4.11177048,8.00381909 4.65425757,8.55389049 5.34557279,8.65504201 C5.64648939,8.70470663 5.95517516,8.66645747 6.23532611,8.54479294 L6.23532611,20.1931842 Z M7.06609484,19.3531913 L7.06609484,8.1487888 C7.8545097,8.52811436 8.76998618,8.52811436 9.55840104,8.1487888 L9.55840104,19.3531913 L7.06609484,19.3531913 Z M10.3891698,8.54463544 C10.6693283,8.66627155 10.9780059,8.7045197 11.2789231,8.65488451 C11.9701892,8.55375051 12.5126619,8.00375786 12.6108011,7.30454346 L12.8224914,5.91330525 L12.8303837,5.91330525 C13.3954918,5.91267216 13.8900567,6.29716325 14.0346349,6.84952981 L14.9583978,13.0847444 L14.9583978,21.0331771 L13.2968603,21.0331771 L13.2968603,12.2132518 C13.2968603,11.9812942 13.1108864,11.7932554 12.881476,11.7932554 C12.6520655,11.7932554 12.4660916,11.9812942 12.4660916,12.2132518 L12.4660916,20.1931842 L10.3891698,20.1931842 L10.3891698,8.54463544 Z M16.6199353,25.2331415 L12.485407,25.2331415 L12.6399819,21.7944206 C12.7103045,21.845659 12.7947967,21.8732112 12.881476,21.8731699 L15.3737822,21.8731699 C15.6031926,21.8731699 15.7891665,21.6851311 15.7891665,21.4531735 L15.7891665,13.0532447 C15.7891746,13.032404 15.7876473,13.0115916 15.7845973,12.9909802 L14.9848786,7.59329101 L16.6199353,7.59329101 L16.6199353,25.2331415 Z M17.450704,25.2331415 L17.450704,7.59329101 L19.1471338,7.59329101 C19.1839635,7.86239459 19.2519292,8.12619242 19.3496336,8.37926184 C19.6438296,9.12281304 20.1829985,9.57304922 20.8856731,9.67222088 L21.5852323,25.2331415 L17.450704,25.2331415 Z" id="Shape"></path>
                            </g>
                        </g>
                    </g>
                </g>
            </g>
        </g>
    </g>
</svg>