<?xml version="1.0" encoding="UTF-8"?>
<svg width="27px" height="26px" viewBox="0 0 27 26" version="1.1" xmlns="http://www.w3.org/2000/svg" xmlns:xlink="http://www.w3.org/1999/xlink">
    <title>Combined Shape</title>
    <g id="NEWS" stroke="none" stroke-width="1" fill="none" fill-rule="evenodd">
        <g id="ksl-news-list-sp" transform="translate(-118.000000, -4442.000000)" fill="#FFFFFF">
            <g id="Group-22" transform="translate(0.000000, 4281.000000)">
                <g id="Group-47" transform="translate(71.000000, 106.579904)">
                    <g id="Group-32" transform="translate(0.000000, 54.420439)">
                        <g id="Group-16" transform="translate(47.998354, -0.000000)">
                            <path d="M20.1380803,0 C23.375034,0 25.999628,2.62390983 25.999628,5.86154771 L25.999628,20.1380803 C25.999628,23.3757182 23.375034,25.999628 20.1380803,25.999628 L5.86086351,25.999628 C2.62390983,25.999628 0,23.3757182 0,20.1380803 L0,5.86154771 C0,2.62390983 2.62390983,0 5.86086351,0 L20.1380803,0 Z M12.9970772,4.74069007 C8.21725085,4.74069007 4.32825386,7.89622387 4.32825386,11.7749578 C4.32825386,15.252066 7.41263079,18.1647085 11.5780449,18.7148059 C11.8606198,18.776384 12.2444564,18.9009085 12.3416129,19.1424314 C12.4291906,19.3613756 12.3990858,19.7048444 12.3696651,19.9265254 C12.3696651,19.9265254 12.2684034,20.5382009 12.2458248,20.668199 C12.2081938,20.8871433 12.0720378,21.5255025 12.9970772,21.1355081 C13.9221166,20.7461979 17.9890058,18.1961818 19.8076113,16.1032117 C21.0631197,14.7252314 21.6652163,13.3274093 21.6652163,11.7749578 C21.6652163,7.89622387 17.7769035,4.74069007 12.9970772,4.74069007 Z M18.7815155,9.90052151 C18.8725142,9.90052151 18.9470921,9.97509939 18.9470921,10.0660981 L18.9470921,10.6805103 C18.9470921,10.7721932 18.8731984,10.8460869 18.7815155,10.8460869 L17.1264339,10.8460869 L17.1264339,11.4844462 L18.7815155,11.4844462 C18.8725142,11.4844462 18.9470921,11.5590241 18.9470921,11.6500228 L18.9470921,12.2651193 C18.9470921,12.356118 18.8731984,12.4306958 18.7815155,12.4306958 L17.1264339,12.4306958 L17.1264339,13.0690551 L18.7815155,13.0690551 C18.8725142,13.0690551 18.9470921,13.143633 18.9470921,13.2346317 L18.9470921,13.849044 C18.9470921,13.9407269 18.8731984,14.0146205 18.7815155,14.0146205 L16.3464451,14.0146205 C16.2547622,14.0146205 16.1808685,13.9407269 16.1808685,13.849044 L16.1808685,10.0660981 C16.1808685,9.97441518 16.2547622,9.90052151 16.3464451,9.90052151 L18.7815155,9.90052151 Z M7.95246517,9.90052151 C8.04346386,9.90052151 8.11804175,9.97509939 8.11804175,10.0660981 L8.11804175,10.0660981 L8.11804175,13.0690551 L9.77312333,13.0690551 C9.86412203,13.0690551 9.93869991,13.143633 9.93869991,13.2346317 L9.93869991,13.2346317 L9.93869991,13.849044 C9.93869991,13.9407269 9.86480623,14.0146205 9.77312333,14.0146205 L9.77312333,14.0146205 L7.3380529,14.0146205 C7.24637001,14.0146205 7.17247633,13.9407269 7.17247633,13.849044 L7.17247633,13.849044 L7.17247633,10.0660981 C7.17247633,9.97441518 7.24637001,9.90052151 7.3380529,9.90052151 L7.3380529,9.90052151 Z M11.2391602,9.90058993 C11.3308431,9.90058993 11.4047368,9.9744836 11.4047368,10.0661665 L11.4047368,10.0661665 L11.4047368,13.8491124 C11.4047368,13.9407953 11.3308431,14.014689 11.2391602,14.014689 L11.2391602,14.014689 L10.6240638,14.014689 C10.5330651,14.014689 10.4591714,13.9407953 10.4591714,13.8491124 L10.4591714,13.8491124 L10.4591714,10.0661665 C10.4591714,9.9744836 10.5330651,9.90058993 10.6240638,9.90058993 L10.6240638,9.90058993 Z M12.7784066,9.90058993 C12.7811434,9.90127413 12.7838803,9.90127413 12.7873013,9.90127413 L12.7917486,9.90170175 C12.7982485,9.90264253 12.8009853,9.90332673 12.8030379,9.90332673 L12.8030379,9.90332673 L12.8133009,9.90537933 C12.8146693,9.90606353 12.8167219,9.90674773 12.8187745,9.90743193 C12.8221955,9.90811613 12.8256165,9.90948453 12.8290375,9.91016874 C12.8304059,9.91085294 12.8324585,9.91153714 12.8345111,9.91222134 L12.8345111,9.91222134 L12.8440899,9.91632654 C12.8454583,9.91701074 12.8475109,9.91837914 12.8488793,9.91906335 L12.8488793,9.91906335 L12.8584581,9.92385275 C12.8598265,9.92522115 12.8618791,9.92590535 12.8632475,9.92727375 C12.8666685,9.92932636 12.8694053,9.93137896 12.8721421,9.93343156 C12.8735105,9.93411576 12.8748789,9.93548416 12.8769316,9.93685256 C12.8796684,9.93890517 12.8824052,9.94164197 12.8858262,9.94437877 C12.8865104,9.94506297 12.8878788,9.94574717 12.888563,9.94711558 L12.888563,9.94711558 L12.898826,9.95737859 C12.898826,9.95737859 12.8995102,9.95806279 12.8995102,9.95874699 C12.9042996,9.96422059 12.909089,9.9696942 12.9131942,9.97585201 L12.9131942,9.97585201 L14.6442221,12.3130817 L14.6442221,10.0661665 C14.6442221,9.9744836 14.7181157,9.90058993 14.8091144,9.90058993 L14.8091144,9.90058993 L15.4242109,9.90058993 C15.5158938,9.90058993 15.5897875,9.9744836 15.5897875,10.0661665 L15.5897875,10.0661665 L15.5897875,13.8491124 C15.5897875,13.9407953 15.5158938,14.014689 15.4242109,14.014689 L15.4242109,14.014689 L14.8125354,14.014689 C14.7981672,14.014689 14.7831148,14.0126364 14.7694308,14.0092154 C14.7687466,14.0085312 14.7680624,14.0085312 14.7673782,14.0085312 L14.7673782,14.0085312 L14.7557468,14.0044259 C14.7543784,14.0037417 14.7523258,14.0030575 14.7502732,14.0023733 L14.7502732,14.0023733 C14.7400102,13.9982681 14.7372734,13.9968997 14.7345366,13.9955313 C14.732484,13.9941629 14.7311155,13.9934787 14.7297471,13.9927945 L14.7297471,13.9927945 L14.7194841,13.9866367 C14.7187999,13.9859525 14.7181157,13.9852683 14.7174315,13.9852683 C14.7010107,13.9743211 14.6866425,13.9599529 14.6743269,13.9435321 L14.6743269,13.9435321 L12.9412464,11.6028814 L12.9412464,13.8491124 C12.9412464,13.9407953 12.8673527,14.014689 12.776354,14.014689 L12.776354,14.014689 L12.1612576,14.014689 C12.0695747,14.014689 11.995681,13.9407953 11.995681,13.8491124 L11.995681,13.8491124 L11.995681,10.0661665 C11.995681,9.9744836 12.0695747,9.90058993 12.1612576,9.90058993 L12.1612576,9.90058993 Z" id="Combined-Shape"></path>
                        </g>
                    </g>
                </g>
            </g>
        </g>
    </g>
</svg>