<?xml version="1.0" encoding="UTF-8"?>
<svg width="27px" height="22px" viewBox="0 0 27 22" version="1.1" xmlns="http://www.w3.org/2000/svg" xmlns:xlink="http://www.w3.org/1999/xlink">
    <title>Fill 29</title>
    <g id="NEWS" stroke="none" stroke-width="1" fill="none" fill-rule="evenodd">
        <g id="ksl-news-list-sp" transform="translate(-236.000000, -4444.000000)" fill="#FFFFFF">
            <g id="Group-22" transform="translate(0.000000, 4281.000000)">
                <g id="Group-47" transform="translate(71.000000, 106.579904)">
                    <g id="Group-32" transform="translate(0.000000, 54.420439)">
                        <g id="Group-31" transform="translate(47.998354, -0.000000)">
                            <path d="M140.592988,7.69582147 C140.608725,7.92434452 140.608725,8.15423596 140.608725,8.38549581 C140.608725,15.4341318 135.242539,23.5631208 125.4311,23.5631208 L125.4311,23.5590156 C122.532826,23.5624366 119.694077,22.7325011 117.254901,21.1670498 C117.676369,21.2169964 118.099889,21.2429961 118.524778,21.2436803 C120.927007,21.2464171 123.260131,20.4404286 125.149209,18.955713 C122.866716,18.9126084 120.864744,17.4244718 120.165491,15.2514502 C120.964638,15.4053954 121.7891,15.3739221 122.573878,15.1597673 C120.08544,14.6568798 118.295571,12.4701742 118.294886,9.93042108 L118.294886,9.86336941 C119.03656,10.2766267 119.86718,10.5058339 120.715589,10.5311493 C118.371517,8.96569804 117.648317,5.84711108 119.063928,3.40998805 C121.772679,6.74272984 125.769095,8.76864823 130.057666,8.98348726 C129.627987,7.13067166 130.215716,5.18959417 131.601222,3.88687597 C133.748928,1.86643119 137.128196,1.9704297 139.148641,4.11813582 C140.343255,3.88277076 141.488607,3.44488229 142.535434,2.82362802 C142.13723,4.05861035 141.303873,5.10749008 140.190678,5.7739016 C141.247769,5.64869286 142.280912,5.36611796 143.254529,4.9343873 C142.538171,6.00584565 141.637079,6.94046386 140.592988,7.69582147" id="Fill-29"></path>
                        </g>
                    </g>
                </g>
            </g>
        </g>
    </g>
</svg>