<?xml version="1.0" encoding="UTF-8"?>
<svg width="27px" height="26px" viewBox="0 0 27 26" version="1.1" xmlns="http://www.w3.org/2000/svg" xmlns:xlink="http://www.w3.org/1999/xlink">
    <title>Fill 1</title>
    <g id="NEWS" stroke="none" stroke-width="1" fill="none" fill-rule="evenodd">
        <g id="ksl-news-list-sp" transform="translate(-277.000000, -4442.000000)" fill="#FFFFFF">
            <g id="Group-22" transform="translate(0.000000, 4281.000000)">
                <g id="Group-47" transform="translate(71.000000, 106.579904)">
                    <g id="Group-32" transform="translate(0.000000, 54.420439)">
                        <g id="Group-5" transform="translate(0.000000, -0.000000)">
                            <path d="M232.230897,12.999814 C232.230897,5.82049567 226.410401,0 219.231083,0 C212.051764,0 206.231269,5.82049567 206.231269,12.999814 C206.231269,19.4880896 210.985095,24.8665916 217.199691,25.8415776 L217.199691,16.7574445 L213.899106,16.7574445 L213.899106,12.999814 L217.199691,12.999814 L217.199691,10.1357497 C217.199691,6.87758581 219.140768,5.07813787 222.110199,5.07813787 C223.532653,5.07813787 225.020105,5.33197634 225.020105,5.33197634 L225.020105,8.53129899 L223.38076,8.53129899 C221.766046,8.53129899 221.262475,9.53296887 221.262475,10.5613226 L221.262475,12.999814 L224.867528,12.999814 L224.291431,16.7574445 L221.262475,16.7574445 L221.262475,25.8415776 C227.47707,24.8665916 232.230897,19.4880896 232.230897,12.999814" id="Fill-1"></path>
                        </g>
                    </g>
                </g>
            </g>
        </g>
    </g>
</svg>