<?xml version="1.0" encoding="UTF-8"?>
<svg width="26px" height="26px" viewBox="0 0 26 26" version="1.1" xmlns="http://www.w3.org/2000/svg" xmlns:xlink="http://www.w3.org/1999/xlink">
    <title>Fill 3</title>
    <g id="NEWS" stroke="none" stroke-width="1" fill="none" fill-rule="evenodd">
        <g id="ksl-news-list-sp" transform="translate(-71.000000, -4442.000000)" fill="#FFFFFF">
            <g id="Group-22" transform="translate(0.000000, 4281.000000)">
                <g id="Group-47" transform="translate(71.000000, 106.579904)">
                    <g id="Group-32" transform="translate(0.000000, 54.420439)">
                        <g id="Group-5" transform="translate(0.000000, -0.000000)">
                            <path d="M8.66631517,13.0078192 C8.66221648,10.6151692 10.5985046,8.67135488 12.9911545,8.66724081 C15.3838045,8.66246027 17.328303,10.5980642 17.3330989,12.9913983 C17.3371976,15.3847325 15.4009095,17.3278626 13.0075754,17.3326609 C10.6149254,17.3374414 8.67111109,15.4011533 8.66631517,13.0078192 M6.32497256,13.0126086 C6.33182877,16.6990821 9.3265754,19.6815131 13.0123648,19.6740011 C16.6988383,19.6671449 19.6819536,16.6737667 19.6751233,12.9866089 C19.6675853,9.30150376 16.6735229,6.31770435 12.9863651,6.32453461 C9.30057577,6.33207256 6.31746056,9.32681919 6.32497256,13.0126086 M18.3648651,6.05086606 C18.3669197,6.91159059 19.0668571,7.60879114 19.9275816,7.60742475 C20.7889903,7.60537013 21.4861909,6.90611698 21.4848245,6.04470825 C21.4834541,5.18398372 20.7835167,4.48678317 19.922108,4.48814956 C19.0606993,4.49020418 18.3634987,5.19014153 18.3648651,6.05086606 M7.76728192,23.590352 C6.50014215,23.5356159 5.81183621,23.3248821 5.35342172,23.1483583 C4.74585146,22.9129932 4.3127524,22.6311025 3.85639051,22.1788458 C3.40071282,21.7238523 3.11813791,21.2921217 2.88140446,20.6859198 C2.70282806,20.2275053 2.48867323,19.5398836 2.42914777,18.2720596 C2.3648329,16.9022897 2.34978048,16.4910851 2.34362268,13.0201348 C2.33678067,9.54986863 2.34978048,9.13866398 2.40930595,7.76752571 C2.46404201,6.50038594 2.67546003,5.8113958 2.85198382,5.35366551 C3.08666468,4.74541105 3.36787118,4.31231199 3.82149627,3.85663429 C4.27580556,3.4002724 4.70822042,3.1183817 5.31442228,2.88164824 C5.77283677,2.70238765 6.45977431,2.48960122 7.72691408,2.42939156 C9.09805235,2.36439249 9.50857279,2.35070847 12.9788389,2.34386646 C16.4497893,2.33702446 16.8609939,2.34934007 18.2328164,2.40954974 C19.499272,2.46497 20.1882621,2.67433542 20.6459924,2.85154341 C21.2535626,3.08690847 21.6873459,3.36674657 22.1430236,3.82174006 C22.5987013,4.27604935 22.8812762,4.70709581 23.1186939,5.31535027 C23.2972702,5.77171216 23.5100567,6.4600181 23.5695821,7.72647366 C23.6352654,9.09761194 23.6496336,9.50881658 23.6564756,12.9790827 C23.6626334,16.4500331 23.6503178,16.8612377 23.5901082,18.2316918 C23.5346879,19.4995157 23.3246383,20.1878217 23.1481145,20.6469204 C22.9127494,21.2538064 22.6315429,21.6875897 22.1779178,22.1439516 C21.7236086,22.5982609 21.2918779,22.88152 20.6849918,23.1189376 C20.2272615,23.297514 19.5389556,23.5103005 18.2731842,23.5705101 C16.902046,23.634825 16.4915255,23.6498774 13.019891,23.6560352 C9.54962484,23.6628772 9.1391044,23.6498774 7.76728192,23.590352 M7.61607356,0.0901092371 C6.23261967,0.155108307 5.28773845,0.376789346 4.46259236,0.700416295 C3.60802564,1.03362205 2.88345706,1.47972093 2.16299368,2.20360531 C1.4411619,2.92748969 0.997799827,3.65342668 0.667330871,4.5086776 C0.347124926,5.33656049 0.130233292,6.28144171 0.0693394265,7.6655798 C0.00844556094,9.05245469 -0.0052384538,9.49444837 0.00160355357,13.0249242 C0.00844556094,16.5540316 0.0234979772,16.9973937 0.0898654486,18.3842685 C0.15623292,19.7670382 0.376545557,20.7112353 0.700172506,21.5377497 C1.03406247,22.3923165 1.48016135,23.1162008 2.20404573,23.8373484 C2.92724591,24.558496 3.65386709,25.0011739 4.50980221,25.332327 C5.3363167,25.6518488 6.28188212,25.8694246 7.66533601,25.9303185 C9.0522109,25.9912123 9.49488878,26.0048964 13.0239962,25.9980543 C16.5551562,25.9912123 16.9978341,25.9754757 18.3840248,25.9097925 C19.7674786,25.8441092 20.7109915,25.6224281 21.537506,25.2994854 C22.3920727,24.9655954 23.1166413,24.5201808 23.8371046,23.7962964 C24.5582522,23.072412 25.0009301,22.346475 25.331399,21.4905399 C25.651605,20.6633412 25.869865,19.7177758 25.9300747,18.3350061 C25.9902843,16.947447 26.0046526,16.5047691 25.9978106,12.9749775 C25.9916528,9.44518591 25.9752319,9.00250804 25.9095487,7.61631734 C25.8438654,6.23217925 25.6221844,5.28866644 25.2992416,4.46215195 C24.9653516,3.60758523 24.519937,2.88370085 23.7960526,2.16255327 C23.0721682,1.44140569 22.3462312,0.998043615 21.4902961,0.667574659 C20.6630974,0.348052915 19.7182162,0.12979288 18.3340781,0.069583215 C16.9478874,0.00800514862 16.5052095,-0.00499466538 12.9747337,0.00184734199 C9.44494213,0.00800514862 9.00226425,0.0237417656 7.61607356,0.0901092371" id="Fill-3"></path>
                        </g>
                    </g>
                </g>
            </g>
        </g>
    </g>
</svg>