<?xml version="1.0" encoding="UTF-8"?>
<svg width="39px" height="33px" viewBox="0 0 39 33" version="1.1" xmlns="http://www.w3.org/2000/svg" xmlns:xlink="http://www.w3.org/1999/xlink">
    <title>Group 24</title>
    <defs>
        <path d="M4.959,5.247 L7.038,0 L9.666,0 L9.666,0.36 C9.468,0.36 9.3075,0.3795 9.1845,0.4185 C9.0615,0.4575 8.967,0.528 8.901,0.63 C8.835,0.732 8.7915,0.8715 8.7705,1.0485 C8.7495,1.2255 8.739,1.449 8.739,1.719 L8.739,5.211 C8.739,5.511 8.751,5.748 8.775,5.922 C8.799,6.096 8.847,6.231 8.919,6.327 C8.991,6.423 9.0945,6.486 9.2295,6.516 C9.3645,6.546 9.543,6.564 9.765,6.57 L9.765,6.93 L6.381,6.93 L6.381,6.57 C6.603,6.564 6.7815,6.5445 6.9165,6.5115 C7.0515,6.4785 7.1565,6.417 7.2315,6.327 C7.3065,6.237 7.356,6.1095 7.38,5.9445 C7.404,5.7795 7.416,5.556 7.416,5.274 L7.416,1.062 L7.371,1.062 L4.95,7.02 L4.284,7.02 L1.782,1.062 L1.746,1.062 L1.746,5.211 C1.746,5.511 1.758,5.748 1.782,5.922 C1.806,6.096 1.854,6.231 1.926,6.327 C1.998,6.423 2.1015,6.486 2.2365,6.516 C2.3715,6.546 2.55,6.564 2.772,6.57 L2.772,6.93 L0,6.93 L0,6.57 C0.222,6.564 0.402,6.5445 0.54,6.5115 C0.678,6.4785 0.7845,6.417 0.8595,6.327 C0.9345,6.237 0.984,6.1095 1.008,5.9445 C1.032,5.7795 1.044,5.556 1.044,5.274 L1.044,1.656 C1.044,1.404 1.032,1.194 1.008,1.026 C0.984,0.858 0.939,0.7245 0.873,0.6255 C0.807,0.5265 0.7125,0.4575 0.5895,0.4185 C0.4665,0.3795 0.303,0.36 0.099,0.36 L0.099,0 L2.826,0 L4.923,5.247 L4.959,5.247 Z" id="path-1"></path>
        <path d="M14.418,3.096 C14.802,3.096 15.111,3.084 15.345,3.06 C15.579,3.036 15.7605,2.9865 15.8895,2.9115 C16.0185,2.8365 16.11,2.727 16.164,2.583 C16.218,2.439 16.26,2.244 16.29,1.998 L16.623,1.998 L16.623,4.635 L16.29,4.635 C16.254,4.395 16.206,4.203 16.146,4.059 C16.086,3.915 15.99,3.8055 15.858,3.7305 C15.726,3.6555 15.5475,3.6075 15.3225,3.5865 C15.0975,3.5655 14.796,3.555 14.418,3.555 L14.418,5.409 C14.418,5.601 14.4435,5.763 14.4945,5.895 C14.5455,6.027 14.631,6.1335 14.751,6.2145 C14.871,6.2955 15.03,6.3525 15.228,6.3855 C15.426,6.4185 15.669,6.435 15.957,6.435 C16.299,6.435 16.5885,6.411 16.8255,6.363 C17.0625,6.315 17.259,6.231 17.415,6.111 C17.571,5.991 17.697,5.8305 17.793,5.6295 C17.889,5.4285 17.97,5.175 18.036,4.869 L18.396,4.869 L18.252,6.93 L12.15,6.93 L12.15,6.57 C12.348,6.564 12.51,6.546 12.636,6.516 C12.762,6.486 12.858,6.435 12.924,6.363 C12.99,6.291 13.035,6.189 13.059,6.057 C13.083,5.925 13.095,5.754 13.095,5.544 L13.095,1.386 C13.095,1.176 13.0845,1.0065 13.0635,0.8775 C13.0425,0.7485 13.002,0.6465 12.942,0.5715 C12.882,0.4965 12.7965,0.4455 12.6855,0.4185 C12.5745,0.3915 12.429,0.372 12.249,0.36 L12.249,0 L17.937,0 L18,1.764 L17.613,1.764 C17.577,1.512 17.52,1.3035 17.442,1.1385 C17.364,0.9735 17.256,0.8415 17.118,0.7425 C16.98,0.6435 16.8015,0.5745 16.5825,0.5355 C16.3635,0.4965 16.095,0.477 15.777,0.477 L14.76,0.477 C14.604,0.477 14.508,0.4965 14.472,0.5355 C14.436,0.5745 14.418,0.666 14.418,0.81 L14.418,3.096 Z" id="path-2"></path>
        <path d="M26.541,7.02 L22.554,1.341 L22.518,1.341 L22.518,5.211 C22.518,5.511 22.5285,5.748 22.5495,5.922 C22.5705,6.096 22.6155,6.231 22.6845,6.327 C22.7535,6.423 22.8495,6.486 22.9725,6.516 C23.0955,6.546 23.256,6.564 23.454,6.57 L23.454,6.93 L20.781,6.93 L20.781,6.57 C21.003,6.564 21.1815,6.5445 21.3165,6.5115 C21.4515,6.4785 21.5565,6.417 21.6315,6.327 C21.7065,6.237 21.756,6.1095 21.78,5.9445 C21.804,5.7795 21.816,5.556 21.816,5.274 L21.816,1.656 C21.816,1.404 21.804,1.1955 21.78,1.0305 C21.756,0.8655 21.711,0.735 21.645,0.639 C21.579,0.543 21.4845,0.4755 21.3615,0.4365 C21.2385,0.3975 21.075,0.372 20.871,0.36 L20.871,0 L23.382,0 L27.009,5.202 L27.045,5.202 L27.045,1.719 C27.045,1.425 27.0345,1.1895 27.0135,1.0125 C26.9925,0.8355 26.9475,0.699 26.8785,0.603 C26.8095,0.507 26.7135,0.444 26.5905,0.414 C26.4675,0.384 26.307,0.366 26.109,0.36 L26.109,0 L28.782,0 L28.782,0.36 C28.56,0.366 28.3815,0.3855 28.2465,0.4185 C28.1115,0.4515 28.0065,0.513 27.9315,0.603 C27.8565,0.693 27.807,0.822 27.783,0.99 C27.759,1.158 27.747,1.38 27.747,1.656 L27.747,7.02 L26.541,7.02 Z" id="path-3"></path>
        <path d="M37.584,4.14 C37.584,4.65 37.5285,5.0865 37.4175,5.4495 C37.3065,5.8125 37.134,6.111 36.9,6.345 C36.666,6.579 36.3645,6.75 35.9955,6.858 C35.6265,6.966 35.184,7.02 34.668,7.02 C33.702,7.02 32.9955,6.8175 32.5485,6.4125 C32.1015,6.0075 31.878,5.361 31.878,4.473 L31.878,2.007 C31.878,1.773 31.875,1.5765 31.869,1.4175 C31.863,1.2585 31.854,1.125 31.842,1.017 C31.83,0.909 31.8135,0.8205 31.7925,0.7515 C31.7715,0.6825 31.746,0.624 31.716,0.576 C31.662,0.492 31.584,0.435 31.482,0.405 C31.38,0.375 31.224,0.36 31.014,0.36 L31.014,0 L34.245,0 L34.245,0.36 C33.993,0.36 33.807,0.3735 33.687,0.4005 C33.567,0.4275 33.474,0.48 33.408,0.558 C33.366,0.606 33.3315,0.6645 33.3045,0.7335 C33.2775,0.8025 33.2565,0.8925 33.2415,1.0035 C33.2265,1.1145 33.216,1.251 33.21,1.413 C33.204,1.575 33.201,1.773 33.201,2.007 L33.201,4.365 C33.201,5.049 33.3465,5.5545 33.6375,5.8815 C33.9285,6.2085 34.377,6.372 34.983,6.372 C36.219,6.372 36.837,5.685 36.837,4.311 L36.837,2.232 C36.837,1.98 36.8325,1.764 36.8235,1.584 C36.8145,1.404 36.7995,1.251 36.7785,1.125 C36.7575,0.999 36.7305,0.894 36.6975,0.81 C36.6645,0.726 36.624,0.657 36.576,0.603 C36.492,0.519 36.384,0.4575 36.252,0.4185 C36.12,0.3795 35.937,0.36 35.703,0.36 L35.703,0 L38.619,0 L38.619,0.36 C38.397,0.36 38.226,0.3765 38.106,0.4095 C37.986,0.4425 37.893,0.501 37.827,0.585 C37.779,0.639 37.74,0.7095 37.71,0.7965 C37.68,0.8835 37.656,0.9915 37.638,1.1205 C37.62,1.2495 37.6065,1.404 37.5975,1.584 C37.5885,1.764 37.584,1.98 37.584,2.232 L37.584,4.14 Z" id="path-4"></path>
    </defs>
    <g id="GIFT" stroke="none" stroke-width="1" fill="none" fill-rule="evenodd">
        <g id="pc_products" transform="translate(-28.000000, -32.000000)">
            <g id="Group-24" transform="translate(28.270000, 32.000000)">
                <g id="MENU" transform="translate(0.000000, 25.070000)" fill-rule="nonzero">
                    <g id="M">
                        <use fill="#111111" xlink:href="#path-1"></use>
                        <use fill="#FFFFFF" xlink:href="#path-1"></use>
                    </g>
                    <g id="E">
                        <use fill="#111111" xlink:href="#path-2"></use>
                        <use fill="#FFFFFF" xlink:href="#path-2"></use>
                    </g>
                    <g id="N">
                        <use fill="#111111" xlink:href="#path-3"></use>
                        <use fill="#FFFFFF" xlink:href="#path-3"></use>
                    </g>
                    <g id="U">
                        <use fill="#111111" xlink:href="#path-4"></use>
                        <use fill="#FFFFFF" xlink:href="#path-4"></use>
                    </g>
                </g>
                <g id="Group" transform="translate(6.730000, 0.000000)" fill="#FFFFFF">
                    <rect id="Rectangle-2" x="0" y="0" width="22" height="2"></rect>
                    <rect id="Rectangle-2" x="0" y="6" width="22" height="2"></rect>
                    <rect id="Rectangle-2" x="0" y="12" width="22" height="2"></rect>
                </g>
            </g>
        </g>
    </g>
</svg>